<?xml version="1.0" encoding="UTF-8" standalone="no"?>
<!-- Created with Inkscape (http://www.inkscape.org/) -->
<svg
   xmlns:dc="http://purl.org/dc/elements/1.1/"
   xmlns:cc="http://creativecommons.org/ns#"
   xmlns:rdf="http://www.w3.org/1999/02/22-rdf-syntax-ns#"
   xmlns:svg="http://www.w3.org/2000/svg"
   xmlns="http://www.w3.org/2000/svg"
   xmlns:xlink="http://www.w3.org/1999/xlink"
   xmlns:sodipodi="http://sodipodi.sourceforge.net/DTD/sodipodi-0.dtd"
   xmlns:inkscape="http://www.inkscape.org/namespaces/inkscape"
   id="svg2"
   sodipodi:version="0.32"
   inkscape:version="0.46"
   width="330"
   height="330"
   version="1.0"
   sodipodi:docname="openmolar.svg"
   inkscape:output_extension="org.inkscape.output.svg.inkscape">
  <metadata
     id="metadata7">
    <rdf:RDF>
      <cc:Work
         rdf:about="">
        <dc:format>image/svg+xml</dc:format>
        <dc:type
           rdf:resource="http://purl.org/dc/dcmitype/StillImage" />
      </cc:Work>
    </rdf:RDF>
  </metadata>
  <defs
     id="defs5">
    <inkscape:perspective
       sodipodi:type="inkscape:persp3d"
       inkscape:vp_x="0 : 526.18109 : 1"
       inkscape:vp_y="0 : 1000 : 0"
       inkscape:vp_z="744.09448 : 526.18109 : 1"
       inkscape:persp3d-origin="372.04724 : 350.78739 : 1"
       id="perspective9" />
    <inkscape:perspective
       id="perspective2448"
       inkscape:persp3d-origin="372.04724 : 350.78739 : 1"
       inkscape:vp_z="744.09448 : 526.18109 : 1"
       inkscape:vp_y="0 : 1000 : 0"
       inkscape:vp_x="0 : 526.18109 : 1"
       sodipodi:type="inkscape:persp3d" />
  </defs>
  <sodipodi:namedview
     inkscape:window-height="720"
     inkscape:window-width="645"
     inkscape:pageshadow="2"
     inkscape:pageopacity="0.0"
     guidetolerance="10.0"
     gridtolerance="10.0"
     objecttolerance="10.0"
     borderopacity="1.0"
     bordercolor="#666666"
     pagecolor="#ffffff"
     id="base"
     showgrid="false"
     inkscape:zoom="1.4969697"
     inkscape:cx="165"
     inkscape:cy="165"
     inkscape:window-x="0"
     inkscape:window-y="25"
     inkscape:current-layer="svg2" />
  <image
     xlink:href="newlogo.png"
     sodipodi:absref="/home/neil/openmolar/openmolar/bin/newlogo.png"
     width="330"
     height="330"
     id="image11"
     x="0"
     y="0" />
  <image
     y="-5.6843419e-14"
     x="0"
     id="image2450"
     height="330"
     width="330"
     sodipodi:absref="/home/neil/openmolar/openmolar/bin/newlogo.png"
     xlink:href="newlogo.png" />
  <g
     id="g2454">
    <path
       style="fill:#a1a1a1"
       d="M 59.406741,323.46979 C 54.992426,318.78926 54.1662,315.28757 53.407488,298.04392 C 52.697731,281.91289 52.821567,282.26636 44.40321,272.34254 C 21.524455,245.37235 10.269231,206.02832 15.432904,171.07325 C 20.67515,135.58628 40.152854,102.89372 67.905541,83 C 73.41469,79.050924 77.226377,75.581016 77.618088,74.15834 C 77.972694,72.870426 77.751427,68.720036 77.126383,64.93525 C 76.211337,59.394438 76.285405,56.08664 77.506575,47.956223 C 80.415534,28.588696 82.131604,23.53788 87.798827,17.663602 C 93.983567,11.252899 100.24362,8.5546106 109,8.525195 C 115.79561,8.5023663 117.33081,8.8991561 125.34604,12.75 C 136.62584,18.169282 139.53147,18.209711 147.89754,13.063786 C 155.6713,8.2821837 162.23052,6.5841428 170.39551,7.2395492 C 181.40633,8.1233922 188.96493,13.956242 192.9736,24.662686 C 196.69853,34.611315 198.60234,54.787577 196.81083,65.328961 C 196.5743,66.720727 198.53184,68.243421 205,71.698988 C 229.94104,85.023566 250.96718,106.14711 262.96189,129.92941 C 269.54032,142.97265 275.19027,163.86417 276.51431,180.04141 L 277.13155,187.58282 L 285.81577,190.24952 C 295.82534,193.32321 305.2179,198.5617 312.26324,205 C 316.96045,209.2925 317.12968,209.6268 315.93324,212.25 C 314.96674,214.36907 314.94523,215.58437 315.83948,217.54705 C 317.77637,221.79805 317.16948,225.33518 313.43539,231.55883 C 307.14327,242.04596 305.61039,243.18406 287.5,250.81465 C 285.3,251.74159 281.13515,254.41959 278.24477,256.76577 C 270.3167,263.20113 262.37109,268.02164 253.56157,271.74077 C 247.71244,274.21011 243.67327,276.85655 238.2145,281.79608 C 224.3071,294.3806 217.58798,299.02732 202.29385,306.63766 C 188.45055,313.52607 186.98766,314.50736 185.97146,317.58647 C 183.49552,325.08866 174.65467,327.31653 165.87806,322.64996 C 161.87077,320.51926 159.78017,320.24405 143.47912,319.70124 C 121.07917,318.95535 110.22028,316.56886 90.667095,308.09457 C 88.008997,306.94256 85.438842,306 84.955639,306 C 84.472436,306 83.572968,307.9125 82.95682,310.25 C 80.275568,320.42196 73.812683,327 66.500043,327 C 63.487735,327 62.07133,326.29508 59.406741,323.46979 z M 76.981067,261.71516 C 78.872514,260.75814 80.319956,258.08811 83.071767,250.47991 C 90.123811,230.98243 98.391238,218.45801 107.21016,213.91237 C 116.59145,209.07687 121.35103,212.75224 129.33857,231 C 137.60833,249.89251 142.83978,260.36227 144.7035,261.75 C 148.34944,264.46476 157.53254,262.48437 161.39352,258.15069 C 163.26144,256.05408 163.24552,255.94069 160.21612,249.76267 C 153.90468,236.89139 150.94487,227.2627 146.49089,205.11248 C 145.1209,198.29935 144,192.61591 144,192.48263 C 144,192.34934 141.59412,190.42383 138.6536,188.20372 C 132.3966,183.47964 129.52573,178.34164 130.43498,173.49488 L 131.05607,170.18421 L 122.77803,169.51092 C 118.22512,169.14061 112.29737,168.98666 109.60527,169.16882 C 104.81043,169.49324 104.68549,169.58521 103.48268,173.67582 C 100.96036,182.25387 94.031572,189.59296 86.789181,191.35784 C 79.241475,193.19713 64.29303,231.33174 62.340368,253.72861 C 61.733441,260.69 61.798677,260.99264 64.105072,261.91523 C 67.528747,263.28474 74.080155,263.18295 76.981067,261.71516 z M 114.04283,137 C 115.94873,137 119,132.46103 119,129.62589 C 119,122.52576 109.42942,119.09604 105.07258,124.63486 C 103.93266,126.08403 103,128.2339 103,129.41235 C 103,133.68101 108.38138,138.57087 111.83179,137.43747 C 112.56427,137.19686 113.55924,137 114.04283,137 z M 107.18538,135.33992 C 104.88595,134.37849 103.78836,129.92515 105.08143,126.80341 C 107.24696,121.57535 115.549,121.93279 117.44917,127.33589 C 118.95289,131.61171 116.44044,135.44366 111.96858,135.69479 C 110.06086,135.80193 107.90842,135.64223 107.18538,135.33992 z M 139.68933,133.25 C 139.4378,132.2875 139.232,133.075 139.232,135 C 139.232,136.925 139.4378,137.7125 139.68933,136.75 C 139.94085,135.7875 139.94085,134.2125 139.68933,133.25 z M 125.68933,130.25 C 125.4378,129.2875 125.232,130.075 125.232,132 C 125.232,133.925 125.4378,134.7125 125.68933,133.75 C 125.94085,132.7875 125.94085,131.2125 125.68933,130.25 z M 140.09954,126.186 C 139.35054,124.78646 137.62708,124.11869 133.78469,123.73922 C 128.5998,123.22717 125.96967,124.12032 126.03041,126.37244 C 126.04713,126.9926 126.51949,126.7125 127.0801,125.75 C 128.55085,123.22487 130.85997,123.59856 132.21916,126.58166 C 133.35514,129.07486 133.42183,129.09199 134.1655,127.08166 C 135.31313,123.97931 138.81148,124.40071 139.65017,127.74232 C 140.02873,129.2506 140.51649,129.95054 140.73408,129.29776 C 140.95168,128.64497 140.66613,127.24468 140.09954,126.186 z M 129.22525,99.235804 C 139.9962,82.959805 156.03454,73 171.47295,73 L 177.76771,73 L 179.88043,67.75 C 181.04242,64.8625 182.71293,60.050584 183.59267,57.056853 C 185.11022,51.892665 185.09759,51.542709 183.3461,50.228366 C 180.60061,48.168106 174.23227,49.233095 166.35756,53.069391 C 156.43083,57.905369 150.10039,58.171402 141.43573,54.116719 C 133.40502,50.358696 131.26356,50.282782 123.5,53.480895 C 114.91159,57.018798 108.24916,56.861477 101.42964,52.959744 C 98.414905,51.234888 93.927466,49.660309 91.057913,49.320453 L 86,48.721418 L 86.005174,52.610709 C 86.008019,54.749819 86.297452,60.835166 86.648357,66.133702 L 87.286368,75.767403 L 91.845116,76.392249 C 101.31212,77.689847 110.47921,84.520737 119.83634,97.25 C 122.16105,100.4125 124.66409,103 125.39866,103 C 126.13322,103 127.85519,101.30611 129.22525,99.235804 z M 160.15462,45.404441 C 161.5519,44.540874 161.10876,42.255712 159.41821,41.606989 C 154.55156,39.739481 145,41.438319 145,44.171408 C 145,46.350297 157.03924,47.329852 160.15462,45.404441 z M 120.13031,44.930261 C 122.84541,43.477183 120.9868,41.27575 116.30306,40.397075 C 112.60851,39.703974 105,41.449671 105,42.990451 C 105,45.734283 115.99424,47.14382 120.13031,44.930261 z M 186.67187,31.389074 C 185.96336,23.801758 183.78261,19.444014 179.12267,16.303684 C 171.67643,11.285665 161.01535,12.35008 149.58523,19.252738 C 140.03711,25.018857 135.55712,24.985436 124.29458,19.064065 C 117.11023,15.28684 115.29523,14.75 109.70913,14.75 C 102.31999,14.75 97.314238,16.752428 92.387622,21.679044 C 89.082575,24.984092 85.428349,34.266032 86.652459,36.246684 C 87.60127,37.781893 95.754297,36.417284 102.73013,33.555693 C 111.04468,30.14494 118.34309,30.126688 125,33.5 C 131.1036,36.592928 136.32157,36.677089 141.51481,33.76637 C 147.26775,30.541945 160.66014,30.546208 166.73447,33.774398 C 171.77561,36.453508 176.904,37.762617 182.8946,37.899549 L 187.28921,38 L 186.67187,31.389074 z"
       id="path2468" />
    <path
       style="fill:#6e9ac9"
       d="M 62.742966,322.91596 C 58.916919,320.68785 57.074755,314.63394 56.021519,300.82726 C 55.462354,293.49727 55.003763,286.589 55.002428,285.47556 C 55.001093,284.36212 51.414625,279.04679 47.032501,273.66373 C 36.96851,261.30097 31.272477,252.10247 26.022337,239.7345 C 2.0526319,183.26804 20.572048,117.91721 70.59113,82.461294 L 80.219576,75.636192 L 79.547494,63.568096 C 78.818701,50.481691 80.089681,35.403443 82.554822,27.890709 C 84.561896,21.773975 89.574973,16.096844 96.141198,12.504623 C 100.69164,10.01519 102.63136,9.5674514 109,9.5364769 C 115.80729,9.5033691 117.31703,9.892535 125.34604,13.75 C 136.49716,19.107458 139.66106,19.195676 147.55883,14.369357 C 164.13489,4.2397428 180.43636,6.0831139 189.16096,19.07373 C 193.597,25.67884 195.22242,35.246637 194.83594,52.478738 L 194.5,67.457476 L 204.69566,72.978738 C 235.59498,89.711674 256.85214,114.04693 267.87934,145.31159 C 271.59048,155.83352 274.97289,171.75347 275.07029,179.15708 C 275.17988,187.48784 275.55497,187.90254 286.12154,191.37531 C 296.72177,194.85915 304.7471,199.35064 311.57886,205.62288 C 316.14065,209.81105 316.1444,209.82007 314.58292,212.83965 C 313.48882,214.9554 313.20513,217.21747 313.63791,220.37494 C 314.15696,224.16178 313.81547,225.63916 311.51299,229.56804 C 307.00163,237.26611 302.4367,241.59467 296.23195,244.05786 C 286.14931,248.06051 279.66272,251.68214 273.10356,256.97104 C 269.58552,259.80777 262.17851,264.4013 256.64352,267.17889 C 248.60392,271.21335 244.66123,274.02966 237.03996,281.18194 C 225.89019,291.64559 211.63036,301.50651 200.43686,306.49364 C 187.32172,312.33692 185.66056,313.35157 183.23608,317 C 179.85543,322.08731 176.12882,323.40757 170.76035,321.41989 C 163.58011,318.7614 158.92704,318.16565 149.52681,318.70127 C 131.58328,319.72369 110.29597,315.39682 91.156783,306.83696 C 84.2523,303.74898 81,303.26275 81,305.3185 C 81,309.33606 77.631971,317.07215 74.461679,320.33649 C 70.739822,324.16877 66.497662,325.10253 62.742966,322.91596 z M 78.208986,262.35271 C 80.346263,261.27842 81.356727,259.5178 82.996963,254.0102 C 87.999439,237.21282 100.63348,217.72239 108.70566,214.34962 C 117.25464,210.77763 120.38758,213.60324 128.48173,232.1857 C 136.81425,251.31543 142.64618,262.65025 144.52766,263.37224 C 149.86021,265.41853 160.47398,262.25864 163.43201,257.7441 C 164.92623,255.46365 164.84503,254.93484 162.05618,248.78418 C 158.08775,240.03199 155.54005,229.92589 152.97695,212.76905 C 150.11595,193.61817 150.34607,194.47906 147.77398,193.30411 C 143.31957,191.26929 133.75356,182.65443 132.42937,179.48521 C 131.65535,177.63272 131.3276,174.75612 131.65833,172.71806 L 132.23359,169.1731 L 126.8668,168.52342 C 123.91506,168.1661 117.45286,168.01466 112.50636,168.18687 L 103.51272,168.5 L 102.04804,174 C 100.31259,180.51677 93.01037,188.64793 87.992074,189.65159 C 78.838848,191.48223 65.815778,222.05042 61.054508,252.88034 C 59.859476,260.61835 60.650567,262.45816 65.729413,263.75257 C 69.980035,264.8359 74.213467,264.36103 78.208986,262.35271 z M 136.5,144.86487 C 134.85,144.3351 126.975,143.73049 119,143.52129 L 104.5,143.14092 L 117.33602,143.98981 C 124.39583,144.4567 130.43333,145.09999 130.75268,145.41935 C 131.07204,145.73871 133.17083,145.96132 135.41667,145.91405 C 139.47597,145.8286 139.48234,145.82243 136.5,144.86487 z M 140.41797,137.75 C 141.98006,130.04368 141.9402,127.15205 140.24508,125.2057 C 138.04234,122.6765 129.19839,121.39344 126.71179,123.24231 C 124.7972,124.66587 122.71859,136.70804 124.22658,137.64004 C 125.6169,138.4993 126.01362,137.67625 126.89419,132.10581 C 127.34168,129.27498 127.97915,126.68752 128.31078,126.35589 C 129.4836,125.18307 132,126.9652 132,128.96862 C 132,131.79399 133.44863,131.50553 134.86441,128.39824 C 135.80112,126.34238 136.33868,126.03619 137.42641,126.93892 C 138.43595,127.77677 138.65889,129.67021 138.26259,134.04068 C 137.89508,138.09374 138.08043,140 138.84206,140 C 139.45797,140 140.16713,138.9875 140.41797,137.75 z M 117.75,135.40659 C 121.93442,130.72354 120.30214,123.85984 114.41951,121.40192 C 104.06872,117.07709 97.029873,132.17897 107.02215,137.273 C 111.24011,139.4233 114.6986,138.8216 117.75,135.40659 z M 106.33254,132.38477 C 104.79778,130.04242 104.77258,129.49461 106.09103,127.13477 C 108.86934,122.162 117,123.92485 117,129.5 C 117,134.87967 109.32687,136.95469 106.33254,132.38477 z M 142.80145,118.46812 C 141.72465,117.39132 120.25361,115.04257 112.5,115.15339 C 104.90442,115.26196 105.18245,115.33398 118,116.57795 C 125.425,117.29857 133.975,118.28027 137,118.75952 C 142.38215,119.6122 143.87077,119.53743 142.80145,118.46812 z M 131.32118,98.25 C 138.31908,89.183463 146.89101,81.656396 154.44367,77.945989 C 160.63151,74.906076 162.30817,74.52843 169.84697,74.476588 C 178.03249,74.420299 178.37745,74.32253 180.4934,71.459207 C 183.36075,67.579075 186.76632,59.313521 187.57099,54.281433 C 188.18561,50.437807 188.07609,50.222175 184.95702,49.134862 C 179.38774,47.1934 174.82618,47.816156 166.97179,51.590252 C 156.62106,56.563858 151.16391,56.994426 142.94749,53.485767 C 133.97779,49.655432 129.3026,49.294815 123.95868,52.021079 C 121.58604,53.231511 117.13196,54.44972 114.06074,54.728209 C 109.14571,55.173888 107.72523,54.840645 102.20447,51.946739 C 98.120009,49.805722 94.025651,48.500817 90.466123,48.205633 L 85,47.75234 L 85.116884,56.12617 C 85.181171,60.731776 85.518671,67.405222 85.866884,70.956049 L 86.5,77.412097 L 91.322079,77.722497 C 100.23552,78.296259 108.74397,84.458734 118.22318,97.206342 C 121.20817,101.22054 124.01308,104 125.07905,104 C 126.09407,104 128.82418,101.48512 131.32118,98.25 z M 160.64911,45.876247 C 164.30908,42.838747 160.40479,39.789392 152.92986,39.847293 C 145.55132,39.904447 141.69163,42.881015 145.25,45.769947 C 148.16153,48.133729 157.84844,48.200598 160.64911,45.876247 z M 121.13922,45.064513 C 123.40745,43.204898 123.43,43.057894 121.71429,41.314513 C 119.16849,38.727658 107.83151,38.727658 105.28571,41.314513 C 103.57,43.057894 103.59255,43.204898 105.86078,45.064513 C 109.12863,47.743653 117.87137,47.743653 121.13922,45.064513 z M 189.17513,34.5 C 188.64483,26.338403 185.18837,19.066618 180.16386,15.541858 C 176.19151,12.755207 175.14278,12.5 167.66386,12.5 C 159.78616,12.5 159.1913,12.669419 150.6932,17.333333 C 139.2151,23.63272 136.31966,23.687766 124.3927,17.833333 C 116.60794,14.012125 114.79261,13.508846 109.03231,13.574847 C 101.7427,13.658372 96.329965,15.884504 91.808951,20.658417 C 88.494602,24.158166 85.051425,31.560773 85.021962,35.25 C 85.001281,37.839625 85.258453,38 89.431781,38 C 91.881218,38 97.503006,36.658094 102,35 C 112.16375,31.252506 117.87044,31.124048 124.21215,34.5 C 130.22161,37.699085 136.57639,37.795114 142.28984,34.773178 C 148.40864,31.536847 159.77096,31.586646 166,34.877095 C 170.57216,37.292308 182.45077,40.009443 187,39.680673 C 189.35714,39.510324 189.48144,39.214288 189.17513,34.5 z"
       id="path2466" />
    <path
       style="fill:#658cb5"
       d="M 62.742966,322.91596 C 58.916919,320.68785 57.074755,314.63394 56.021519,300.82726 C 55.462354,293.49727 55.003763,286.589 55.002428,285.47556 C 55.001093,284.36212 51.414625,279.04679 47.032501,273.66373 C 36.96851,261.30097 31.272477,252.10247 26.022337,239.7345 C 2.0526319,183.26804 20.572048,117.91721 70.59113,82.461294 L 80.219576,75.636192 L 79.547494,63.568096 C 78.818701,50.481691 80.089681,35.403443 82.554822,27.890709 C 84.561896,21.773975 89.574973,16.096844 96.141198,12.504623 C 100.69164,10.01519 102.63136,9.5674514 109,9.5364769 C 115.80729,9.5033691 117.31703,9.892535 125.34604,13.75 C 136.49716,19.107458 139.66106,19.195676 147.55883,14.369357 C 164.13489,4.2397428 180.43636,6.0831139 189.16096,19.07373 C 193.597,25.67884 195.22242,35.246637 194.83594,52.478738 L 194.5,67.457476 L 204.69566,72.978738 C 235.59498,89.711674 256.85214,114.04693 267.87934,145.31159 C 271.59048,155.83352 274.97289,171.75347 275.07029,179.15708 C 275.17988,187.48784 275.55497,187.90254 286.12154,191.37531 C 296.72177,194.85915 304.7471,199.35064 311.57886,205.62288 C 316.14065,209.81105 316.1444,209.82007 314.58292,212.83965 C 313.48882,214.9554 313.20513,217.21747 313.63791,220.37494 C 314.15696,224.16178 313.81547,225.63916 311.51299,229.56804 C 307.00163,237.26611 302.4367,241.59467 296.23195,244.05786 C 286.14931,248.06051 279.66272,251.68214 273.10356,256.97104 C 269.58552,259.80777 262.17851,264.4013 256.64352,267.17889 C 248.60392,271.21335 244.66123,274.02966 237.03996,281.18194 C 225.89019,291.64559 211.63036,301.50651 200.43686,306.49364 C 187.32172,312.33692 185.66056,313.35157 183.23608,317 C 179.85543,322.08731 176.12882,323.40757 170.76035,321.41989 C 163.58011,318.7614 158.92704,318.16565 149.52681,318.70127 C 131.58328,319.72369 110.29597,315.39682 91.156783,306.83696 C 84.2523,303.74898 81,303.26275 81,305.3185 C 81,309.33606 77.631971,317.07215 74.461679,320.33649 C 70.739822,324.16877 66.497662,325.10253 62.742966,322.91596 z M 134.5,274.89165 C 137.8,273.65428 140.63985,272.54512 140.81078,272.42683 C 140.98172,272.30854 138.44957,266.87662 135.1838,260.35588 C 131.91802,253.83515 127.337,244 125.00376,238.5 C 117.72734,221.34781 116.32193,219 113.33098,219 C 110.33389,219 100,228.55186 100,231.32215 C 100,232.21672 101.2964,233.61903 102.88088,234.4384 C 106.24729,236.17924 110.77617,241.29497 112.18101,244.94363 C 112.72237,246.34963 113.83096,251.28503 114.64455,255.91119 C 115.45815,260.53734 116.97445,265.98975 118.01411,268.02766 C 120.92041,273.72448 125.0793,278.22509 126.9033,277.64724 C 127.78148,277.36903 131.2,276.12901 134.5,274.89165 z M 78.208986,262.35271 C 80.346263,261.27842 81.356727,259.5178 82.996963,254.0102 C 87.999439,237.21282 100.63348,217.72239 108.70566,214.34962 C 117.25464,210.77763 120.38758,213.60324 128.48173,232.1857 C 136.81425,251.31543 142.64618,262.65025 144.52766,263.37224 C 149.86021,265.41853 160.47398,262.25864 163.43201,257.7441 C 164.92623,255.46365 164.84503,254.93484 162.05618,248.78418 C 158.08775,240.03199 155.54005,229.92589 152.97695,212.76905 C 150.11595,193.61817 150.34607,194.47906 147.77398,193.30411 C 143.31957,191.26929 133.75356,182.65443 132.42937,179.48521 C 131.65535,177.63272 131.3276,174.75612 131.65833,172.71806 L 132.23359,169.1731 L 126.8668,168.52342 C 123.91506,168.1661 117.45286,168.01466 112.50636,168.18687 L 103.51272,168.5 L 102.04804,174 C 100.31259,180.51677 93.01037,188.64793 87.992074,189.65159 C 78.838848,191.48223 65.815778,222.05042 61.054508,252.88034 C 59.859476,260.61835 60.650567,262.45816 65.729413,263.75257 C 69.980035,264.8359 74.213467,264.36103 78.208986,262.35271 z M 183,256.44778 C 186.80707,254.9959 190.27174,254.79037 205.5,255.11303 C 243.37346,255.9155 242.41105,255.99209 252,251.41261 C 263.89424,245.73216 268.82038,242.41875 271.08971,238.57252 C 273.39458,234.66607 282.24668,229.60803 289.54644,228.02648 C 298.19078,226.1536 300.08222,224.94028 304.13686,218.66695 C 306.26159,215.37959 307.98609,211.97219 307.96908,211.09496 C 307.89467,207.25688 290.05292,197.44083 278.5,194.88187 C 274.72675,194.0461 267.11868,193.62701 258,193.75262 C 241.64294,193.97796 235.72234,192.90202 225.77533,187.8965 C 218.63674,184.30424 204.60317,170.91815 198.69898,162.0694 L 195.07549,156.63879 L 189.91663,162.0694 C 187.07926,165.05623 183.8275,168.49536 182.6905,169.71192 C 181.5535,170.92848 179.30245,172.21394 177.68815,172.56849 C 172.2853,173.75516 163,179.99964 163,182.44647 C 163,183.05028 161.55526,185.29703 159.78947,187.43924 C 156.10044,191.91468 156.1057,191.73722 159.07626,211.5 C 161.70697,229.00182 165.09781,241.25003 170.0258,251.05132 C 174.5624,260.07416 174.04992,259.86101 183,256.44778 z M 77.850061,183.32775 C 76.61232,179.10827 72.756402,174.91027 71.38143,176.28524 C 70.77436,176.89231 72.699777,187.06941 74.139249,190.86213 L 75.03576,193.22426 L 77.117941,190.57719 C 79.052073,188.11834 79.104129,187.60288 77.850061,183.32775 z M 139.75857,145.7757 C 139.12555,143.87664 133.72308,143.01168 118.25,142.3321 C 105.4318,141.76913 104,141.87172 104,143.35312 C 104,144.75728 105.36326,145.01291 113.25,145.08761 C 118.3375,145.13579 124.75,145.52566 127.5,145.95399 C 135.66208,147.22529 140.21967,147.159 139.75857,145.7757 z M 141.02475,138.4349 C 142.68689,134.06314 142.23462,125.5138 140.25,123.78966 C 138.01827,121.85084 129.41896,120.70541 126.96296,122.01982 C 124.74082,123.20908 123.01335,128.79805 123.00558,134.82332 C 123.00101,138.3618 123.30973,139.087 124.70615,138.81807 C 126.57106,138.45893 127.74514,135.30955 127.90032,130.25 C 128.0145,126.52721 130.6632,125.65646 131.18045,129.17167 C 131.61042,132.09376 133.99638,132.72984 134.6827,130.10536 C 134.98551,128.94741 135.87128,128 136.65107,128 C 137.7726,128 137.93145,129.03601 137.41122,132.9577 C 136.71335,138.21853 137.26054,141 138.99337,141 C 139.57424,141 140.48836,139.84571 141.02475,138.4349 z M 118.07692,136.07692 C 120.24103,133.91282 121,132.20513 121,129.5 C 121,126.79487 120.24103,125.08718 118.07692,122.92308 C 110.61048,115.45663 98.025044,123.40361 102.02454,133.05924 C 104.76731,139.68088 112.93712,141.21672 118.07692,136.07692 z M 108,133 C 105.73147,130.73147 105.56457,129.68213 107.03518,126.93426 C 108.20842,124.74204 112.89853,124.29853 114.8,126.2 C 116.7093,128.1093 116.1954,131.74973 113.77749,133.4433 C 110.91734,135.44663 110.40751,135.40751 108,133 z M 168.61268,132.27935 C 168.18577,131.85244 167.19827,132.37595 166.41824,133.4427 C 164.21533,136.45537 164.74824,137.6962 167.19444,135.25 C 168.40139,134.04306 169.0396,132.70626 168.61268,132.27935 z M 144,119.05902 C 144,117.46593 142.75467,117.15081 129.91695,115.49537 C 116.53217,113.76939 104.88303,113.81981 104.29395,115.60627 C 104.05002,116.34601 107.83387,116.95802 115.71458,117.45349 C 122.19656,117.86101 129.525,118.54437 132,118.97205 C 138.5382,120.10187 144,120.14145 144,119.05902 z M 131.32118,98.25 C 138.31908,89.183463 146.89101,81.656396 154.44367,77.945989 C 160.63151,74.906076 162.30817,74.52843 169.84697,74.476588 C 178.03249,74.420299 178.37745,74.32253 180.4934,71.459207 C 183.36075,67.579075 186.76632,59.313521 187.57099,54.281433 C 188.18561,50.437807 188.07609,50.222175 184.95702,49.134862 C 179.38774,47.1934 174.82618,47.816156 166.97179,51.590252 C 156.62106,56.563858 151.16391,56.994426 142.94749,53.485767 C 133.97779,49.655432 129.3026,49.294815 123.95868,52.021079 C 121.58604,53.231511 117.13196,54.44972 114.06074,54.728209 C 109.14571,55.173888 107.72523,54.840645 102.20447,51.946739 C 98.120009,49.805722 94.025651,48.500817 90.466123,48.205633 L 85,47.75234 L 85.116884,56.12617 C 85.181171,60.731776 85.518671,67.405222 85.866884,70.956049 L 86.5,77.412097 L 91.322079,77.722497 C 100.23552,78.296259 108.74397,84.458734 118.22318,97.206342 C 121.20817,101.22054 124.01308,104 125.07905,104 C 126.09407,104 128.82418,101.48512 131.32118,98.25 z M 158.55998,86.627206 C 161.82699,85.78789 169.225,84.769614 175,84.36437 L 185.5,83.627562 L 180,81.874874 C 171.23526,79.08181 163.43287,79.443613 156.37519,82.970377 C 153.10586,84.604084 149.09648,87.356706 147.46547,89.087315 L 144.5,92.233875 L 148.55998,90.193555 C 150.79297,89.071379 155.29297,87.466522 158.55998,86.627206 z M 102.93934,88.426912 C 97.972906,82.442722 85.273858,81.271597 80.214282,86.331173 L 77.558423,88.987031 L 81.02261,87.993516 C 85.770272,86.631904 93.782071,86.841251 98,88.437132 C 103.16007,90.389478 104.56571,90.386569 102.93934,88.426912 z M 160.64911,45.876247 C 164.30908,42.838747 160.40479,39.789392 152.92986,39.847293 C 145.55132,39.904447 141.69163,42.881015 145.25,45.769947 C 148.16153,48.133729 157.84844,48.200598 160.64911,45.876247 z M 121.13922,45.064513 C 123.40745,43.204898 123.43,43.057894 121.71429,41.314513 C 119.16849,38.727658 107.83151,38.727658 105.28571,41.314513 C 103.57,43.057894 103.59255,43.204898 105.86078,45.064513 C 109.12863,47.743653 117.87137,47.743653 121.13922,45.064513 z M 189.17513,34.5 C 188.64483,26.338403 185.18837,19.066618 180.16386,15.541858 C 176.19151,12.755207 175.14278,12.5 167.66386,12.5 C 159.78616,12.5 159.1913,12.669419 150.6932,17.333333 C 139.2151,23.63272 136.31966,23.687766 124.3927,17.833333 C 116.60794,14.012125 114.79261,13.508846 109.03231,13.574847 C 101.7427,13.658372 96.329965,15.884504 91.808951,20.658417 C 88.494602,24.158166 85.051425,31.560773 85.021962,35.25 C 85.001281,37.839625 85.258453,38 89.431781,38 C 91.881218,38 97.503006,36.658094 102,35 C 112.16375,31.252506 117.87044,31.124048 124.21215,34.5 C 130.22161,37.699085 136.57639,37.795114 142.28984,34.773178 C 148.40864,31.536847 159.77096,31.586646 166,34.877095 C 170.57216,37.292308 182.45077,40.009443 187,39.680673 C 189.35714,39.510324 189.48144,39.214288 189.17513,34.5 z"
       id="path2464" />
    <path
       style="fill:#707070"
       d="M 62.742966,322.91596 C 58.916919,320.68785 57.074755,314.63394 56.021519,300.82726 C 55.462354,293.49727 55.003763,286.589 55.002428,285.47556 C 55.001093,284.36212 51.414625,279.04679 47.032501,273.66373 C 36.96851,261.30097 31.272477,252.10247 26.022337,239.7345 C 2.0526319,183.26804 20.572048,117.91721 70.59113,82.461294 L 80.219576,75.636192 L 79.547494,63.568096 C 78.818701,50.481691 80.089681,35.403443 82.554822,27.890709 C 84.561896,21.773975 89.574973,16.096844 96.141198,12.504623 C 100.69164,10.01519 102.63136,9.5674514 109,9.5364769 C 115.80729,9.5033691 117.31703,9.892535 125.34604,13.75 C 136.49716,19.107458 139.66106,19.195676 147.55883,14.369357 C 164.13489,4.2397428 180.43636,6.0831139 189.16096,19.07373 C 193.597,25.67884 195.22242,35.246637 194.83594,52.478738 L 194.5,67.457476 L 204.69566,72.978738 C 235.59498,89.711674 256.85214,114.04693 267.87934,145.31159 C 271.59048,155.83352 274.97289,171.75347 275.07029,179.15708 C 275.17988,187.48784 275.55497,187.90254 286.12154,191.37531 C 296.72177,194.85915 304.7471,199.35064 311.57886,205.62288 C 316.14065,209.81105 316.1444,209.82007 314.58292,212.83965 C 313.48882,214.9554 313.20513,217.21747 313.63791,220.37494 C 314.15696,224.16178 313.81547,225.63916 311.51299,229.56804 C 307.00163,237.26611 302.4367,241.59467 296.23195,244.05786 C 286.14931,248.06051 279.66272,251.68214 273.10356,256.97104 C 269.58552,259.80777 262.17851,264.4013 256.64352,267.17889 C 248.60392,271.21335 244.66123,274.02966 237.03996,281.18194 C 225.89019,291.64559 211.63036,301.50651 200.43686,306.49364 C 187.32172,312.33692 185.66056,313.35157 183.23608,317 C 179.85543,322.08731 176.12882,323.40757 170.76035,321.41989 C 163.58011,318.7614 158.92704,318.16565 149.52681,318.70127 C 131.58328,319.72369 110.29597,315.39682 91.156783,306.83696 C 84.2523,303.74898 81,303.26275 81,305.3185 C 81,309.33606 77.631971,317.07215 74.461679,320.33649 C 70.739822,324.16877 66.497662,325.10253 62.742966,322.91596 z M 118.01421,288.96568 C 119.81957,284.60716 127.32363,278.39676 133.64042,276.03335 C 136.62945,274.91501 139.48159,274 139.9785,274 C 142.36167,274 141.55029,271.18238 135.75281,259.32586 C 132.30351,252.27164 127.34954,241.55 124.74398,235.5 C 118.62341,221.28825 116.58258,218 113.88273,218 C 108.65435,218 100.99931,225.74292 95.96733,236.12107 L 93.726745,240.74214 L 96.355561,246.12107 C 97.80141,249.07948 99.889557,255.775 100.99589,261 C 102.10222,266.225 103.71449,272.075 104.57871,274 C 106.53404,278.35538 115.27606,291.96957 116.12868,291.98708 C 116.47445,291.99419 117.32294,290.63456 118.01421,288.96568 z M 78.208986,262.35271 C 80.346263,261.27842 81.356727,259.5178 82.996963,254.0102 C 87.999439,237.21282 100.63348,217.72239 108.70566,214.34962 C 117.25464,210.77763 120.38758,213.60324 128.48173,232.1857 C 136.81425,251.31543 142.64618,262.65025 144.52766,263.37224 C 149.86021,265.41853 160.47398,262.25864 163.43201,257.7441 C 164.92623,255.46365 164.84503,254.93484 162.05618,248.78418 C 158.08775,240.03199 155.54005,229.92589 152.97695,212.76905 C 150.11595,193.61817 150.34607,194.47906 147.77398,193.30411 C 143.31957,191.26929 133.75356,182.65443 132.42937,179.48521 C 131.65535,177.63272 131.3276,174.75612 131.65833,172.71806 L 132.23359,169.1731 L 126.8668,168.52342 C 123.91506,168.1661 117.45286,168.01466 112.50636,168.18687 L 103.51272,168.5 L 102.04804,174 C 100.31259,180.51677 93.01037,188.64793 87.992074,189.65159 C 78.838848,191.48223 65.815778,222.05042 61.054508,252.88034 C 59.859476,260.61835 60.650567,262.45816 65.729413,263.75257 C 69.980035,264.8359 74.213467,264.36103 78.208986,262.35271 z M 178.94306,259.02905 C 185.00096,255.93854 192.57592,255.22477 208.72717,256.22259 C 231.90311,257.65439 238.78603,257.42765 246.07937,254.99213 C 254.55041,252.16333 263.62049,247.04755 270.17948,241.399 C 277.07016,235.46479 283.91475,231.53881 292,228.88298 C 299.67542,226.36176 301.96761,224.46113 306.67155,216.71759 C 310.75339,209.99817 310.72345,209.91622 302.04029,204.04104 C 288.72305,195.03035 279.814,192.77557 256.5,192.51532 C 240.5756,192.33755 237.83863,192.05797 232.76446,190.09075 C 220.82751,185.46288 209.09758,175.39678 199.95731,161.93714 C 197.7398,158.67171 195.58238,156 195.16304,156 C 194.7437,156 191.49797,158.71729 187.9503,162.03843 C 184.40264,165.35956 177.31515,170.56243 172.20034,173.60037 C 166.02848,177.26613 162.51036,180.02797 161.74018,181.81194 C 161.10191,183.29037 159.33597,185.96482 157.81587,187.75515 C 155.81308,190.11398 155.17943,191.7661 155.51463,193.75515 C 155.76904,195.26482 156.69399,201.675 157.57007,208 C 159.64882,223.00783 161.45569,231.52589 164.45684,240.46617 C 166.69578,247.13585 173.56564,261 174.63161,261 C 174.87805,261 176.8182,260.11307 178.94306,259.02905 z M 78.06284,190.91175 C 80.091106,188.06331 80.16006,187.50032 78.950807,183.66175 C 77.315553,178.4709 76.402549,177.25953 72.671214,175.32998 L 69.696763,173.79183 L 70.298854,178.64591 C 71.082975,184.96753 73.831287,194 74.970646,194 C 75.461887,194 76.853374,192.61029 78.06284,190.91175 z M 141,146.06739 C 141,145.00445 140.2125,143.88936 139.25,143.5894 C 136.24256,142.65216 123.6988,141.04054 119.25,141.01981 C 116.9125,141.00891 115,140.75342 115,140.45203 C 115,139.72724 120.30782,135.07213 121.18045,135.0316 C 121.5547,135.01422 122.0047,136.0125 122.18045,137.25 C 122.38425,138.685 123.30381,139.61428 124.71911,139.8155 C 126.60239,140.08326 127.11124,139.44387 128.08153,135.59049 C 129.07396,131.6492 129.4644,131.17817 131.03998,132.0214 C 132.03831,132.55568 133.5365,132.73135 134.36931,132.41178 C 135.57012,131.95098 135.9473,132.82945 136.19175,136.65637 C 136.50949,141.63057 137.95977,142.98754 140.92272,141.08298 C 142.54697,140.03893 143.10865,125.74287 141.64301,122.75 C 140.9652,121.36589 141.22655,121 142.89301,121 C 145.41415,121 145.83714,117.53522 143.42882,116.61106 C 138.07479,114.55652 108.13985,112.24163 104.58179,113.60699 C 102.23514,114.50748 102.56763,118 105,118 C 107.5804,118 107.54955,119.17571 104.92617,120.81404 C 103.78556,121.52636 102.1884,123.69819 101.37692,125.64034 C 99.567334,129.97128 100.8719,134.96748 104.57239,137.87828 C 107.28295,140.01041 107.64041,141 105.7,141 C 103.42696,141 101.90889,143.1853 103.14624,144.67621 C 103.90987,145.59632 107.18072,146.0226 113.87244,146.07412 C 119.1676,146.11489 125.525,146.50857 128,146.94896 C 130.475,147.38935 134.4125,147.80599 136.75,147.87483 C 140.32711,147.98018 141,147.69402 141,146.06739 z M 108.57143,132.42857 C 105.51102,129.36816 107.30158,125.67827 111.60851,126.16992 C 115.14537,126.57367 116.25574,130.60862 113.40384,132.69397 C 111.10802,134.37271 110.48114,134.33828 108.57143,132.42857 z M 118.90968,122.81312 C 116.93501,120.71591 115.81001,118.93957 116.40968,118.8657 C 119.42507,118.49429 126.61567,119.29215 127.45,120.09072 C 128.04349,120.65877 127.94416,121 127.1853,121 C 126.51722,121 125.18972,122.26591 124.2353,123.81312 L 122.5,126.62625 L 118.90968,122.81312 z M 169.5,132.61008 C 169.5,128.80492 167.15705,129.98206 164.10168,135.32229 C 162.39575,138.30393 161,141.07854 161,141.48809 C 161,141.89764 162.9125,140.5049 165.25,138.39311 C 167.5875,136.28131 169.5,133.67895 169.5,132.61008 z M 79.876926,137.62923 C 78.65659,134.95088 77.863605,134.46973 76.65752,135.67581 C 76.285823,136.04751 76.962598,137.39574 78.161463,138.67187 C 80.829874,141.51226 81.469128,141.12373 79.876926,137.62923 z M 131.32118,98.25 C 138.31908,89.183463 146.89101,81.656396 154.44367,77.945989 C 160.63151,74.906076 162.30817,74.52843 169.84697,74.476588 C 178.03249,74.420299 178.37745,74.32253 180.4934,71.459207 C 183.36075,67.579075 186.76632,59.313521 187.57099,54.281433 C 188.18561,50.437807 188.07609,50.222175 184.95702,49.134862 C 179.38774,47.1934 174.82618,47.816156 166.97179,51.590252 C 156.62106,56.563858 151.16391,56.994426 142.94749,53.485767 C 133.97779,49.655432 129.3026,49.294815 123.95868,52.021079 C 121.58604,53.231511 117.13196,54.44972 114.06074,54.728209 C 109.14571,55.173888 107.72523,54.840645 102.20447,51.946739 C 98.120009,49.805722 94.025651,48.500817 90.466123,48.205633 L 85,47.75234 L 85.116884,56.12617 C 85.181171,60.731776 85.518671,67.405222 85.866884,70.956049 L 86.5,77.412097 L 91.322079,77.722497 C 100.23552,78.296259 108.74397,84.458734 118.22318,97.206342 C 121.20817,101.22054 124.01308,104 125.07905,104 C 126.09407,104 128.82418,101.48512 131.32118,98.25 z M 142.23917,95.452202 C 149.71028,89.165678 160.49007,86.008626 176.31299,85.473075 C 182.31721,85.269853 187.44488,84.888457 187.70781,84.625527 C 188.50632,83.827018 182.82209,81.344116 177.13295,80.006368 C 170.62638,78.476412 162.65397,79.168859 156.82507,81.770217 C 151.47547,84.157669 142.96837,90.831315 140.0498,94.930065 C 137.3891,98.666677 138.19155,98.858052 142.23917,95.452202 z M 105.97834,90.477928 C 97.99847,82.347034 90.486206,80.230639 82.5,83.863484 C 78.312196,85.768474 75.28222,88.615554 76.328823,89.662156 C 76.666426,89.999759 78.99139,89.702367 81.495409,89.001285 C 88.263821,87.106247 96.801415,88.203282 103.17944,91.787567 C 110.57234,95.942186 111.09917,95.695676 105.97834,90.477928 z M 160.64911,45.876247 C 164.30908,42.838747 160.40479,39.789392 152.92986,39.847293 C 145.55132,39.904447 141.69163,42.881015 145.25,45.769947 C 148.16153,48.133729 157.84844,48.200598 160.64911,45.876247 z M 121.13922,45.064513 C 123.40745,43.204898 123.43,43.057894 121.71429,41.314513 C 119.16849,38.727658 107.83151,38.727658 105.28571,41.314513 C 103.57,43.057894 103.59255,43.204898 105.86078,45.064513 C 109.12863,47.743653 117.87137,47.743653 121.13922,45.064513 z M 189.17513,34.5 C 188.64483,26.338403 185.18837,19.066618 180.16386,15.541858 C 176.19151,12.755207 175.14278,12.5 167.66386,12.5 C 159.78616,12.5 159.1913,12.669419 150.6932,17.333333 C 139.2151,23.63272 136.31966,23.687766 124.3927,17.833333 C 116.60794,14.012125 114.79261,13.508846 109.03231,13.574847 C 101.7427,13.658372 96.329965,15.884504 91.808951,20.658417 C 88.494602,24.158166 85.051425,31.560773 85.021962,35.25 C 85.001281,37.839625 85.258453,38 89.431781,38 C 91.881218,38 97.503006,36.658094 102,35 C 112.16375,31.252506 117.87044,31.124048 124.21215,34.5 C 130.22161,37.699085 136.57639,37.795114 142.28984,34.773178 C 148.40864,31.536847 159.77096,31.586646 166,34.877095 C 170.57216,37.292308 182.45077,40.009443 187,39.680673 C 189.35714,39.510324 189.48144,39.214288 189.17513,34.5 z"
       id="path2462" />
    <path
       style="fill:#335c88"
       d="M 62.297486,319.75 C 61.169357,318.5125 59.762615,315.925 59.171392,314 C 57.690735,309.17904 56.00292,296.02724 55.985854,289.17764 C 55.973096,284.05695 55.577836,283.00952 51.956544,278.5 C 37.190856,260.1126 30.11653,248.51798 24.404952,233.34371 C 12.068437,200.56861 14.28394,162.36979 30.35598,130.73847 C 40.056791,111.64635 51.829797,97.7507 69.635719,84.376707 L 81.176515,75.708438 L 80.477048,61.104219 C 79.059033,31.497426 83.944873,18.3354 98.7909,11.768296 C 102.4419,10.153287 104.80643,9.8495684 110.9133,10.211206 C 117.43771,10.597569 119.65162,11.263235 126.7247,14.9653 C 136.77242,20.224294 139.2424,20.105991 149.95843,13.852484 L 157.41687,9.5 L 167.62229,9.5 C 177.3314,9.5 178.03859,9.6458982 182.16386,12.5 C 185.33046,14.690843 187.43769,17.36869 189.97654,22.428287 C 193.33088,29.113049 193.46677,29.825186 193.84267,42.688556 C 194.07225,50.544955 193.77539,57.83493 193.11987,60.438231 C 192.50806,62.867962 192.272,65.545246 192.5953,66.387751 C 192.9186,67.230255 197.49184,70.221787 202.75807,73.0356 C 225.61233,85.246938 240.51758,98.478783 253.42992,118.01853 C 264.88066,135.3465 271.88403,155.66056 273.95546,177.55516 C 274.46124,182.9011 275.35312,187.75312 275.93741,188.33741 C 276.5217,188.9217 279.36232,189.98533 282.24988,190.70101 C 290.01781,192.6263 304.79973,200.26454 310.44564,205.27056 L 315.39127,209.65568 L 313.69564,213.22897 C 312.76304,215.19428 312,218.83094 312,221.31043 C 312,224.95288 311.18385,227.03624 307.75,232.1593 C 303.28738,238.81721 302.46148,239.38242 287,246.35963 C 282.875,248.22109 276.46096,252.19776 272.74658,255.19666 C 269.03219,258.19556 261.89413,262.81045 256.88421,265.45196 C 250.26237,268.94337 244.63675,273.08887 236.28055,280.63473 C 220.63637,294.76183 208.30336,302.7762 192.63466,308.99718 C 188.89849,310.48057 185.01345,313.08179 181.93228,316.16295 C 176.70046,321.39478 174.93641,321.8474 169.21788,319.42524 C 166.41235,318.23692 162.16937,317.86854 151.92744,317.92406 C 127.963,318.05396 110.87267,314.65475 91.156783,305.83696 C 82.918084,302.15226 80.230211,302.13233 79.42924,305.75 C 77.138529,316.09625 72.830235,322 67.570722,322 C 65.503704,322 63.613322,321.19341 62.297486,319.75 z M 160.89627,286.03889 C 156.35811,277.26028 151.97468,269.82053 151.15532,269.50611 C 147.47646,268.0944 148.02681,271.24295 153.37372,282.19772 C 158.66187,293.03209 165.24953,302 167.92013,302 C 168.59655,302 165.44371,294.83546 160.89627,286.03889 z M 145.29435,297.98241 C 146.56147,293.13692 138.47014,291.45458 133.8795,295.60905 C 130.97829,298.23461 133.24037,300 139.50581,300 C 143.94102,300 144.84955,299.68333 145.29435,297.98241 z M 197.36075,288.02033 C 206.65794,283.58033 213,278.72777 213,276.05412 C 213,274.89326 206.57142,274.02356 197.89788,274.01101 C 191.62997,274.00193 189.69942,274.40055 186.89788,276.2823 C 183.17706,278.78152 182.14645,282.33347 183.82947,286.85749 C 184.37015,288.31087 185.06559,290.2875 185.37488,291.25 C 185.68417,292.2125 186.16139,293 186.43536,293 C 186.70934,293 191.62576,290.75915 197.36075,288.02033 z M 118.01421,288.96568 C 119.81957,284.60716 127.32363,278.39676 133.64042,276.03335 C 136.62945,274.91501 139.48159,274 139.9785,274 C 142.36167,274 141.55029,271.18238 135.75281,259.32586 C 132.30351,252.27164 127.34954,241.55 124.74398,235.5 C 118.62341,221.28825 116.58258,218 113.88273,218 C 108.65435,218 100.99931,225.74292 95.96733,236.12107 L 93.726745,240.74214 L 96.355561,246.12107 C 97.80141,249.07948 99.889557,255.775 100.99589,261 C 102.10222,266.225 103.71449,272.075 104.57871,274 C 106.53404,278.35538 115.27606,291.96957 116.12868,291.98708 C 116.47445,291.99419 117.32294,290.63456 118.01421,288.96568 z M 96.641336,286.49228 C 96.959548,285.66303 96.382925,283.75053 95.359951,282.24228 C 94.313721,280.69974 93.5,277.75002 93.5,275.5 C 93.5,272.0448 93.174903,271.45403 91.11309,271.16251 C 88.089774,270.73503 86.874345,272.63194 87.606335,276.63548 C 87.936029,278.4387 87.716557,280.05714 87.089807,280.4445 C 85.074296,281.69015 85.976544,284.0151 89.25,286.01096 C 93.131315,288.37744 95.849994,288.55448 96.641336,286.49228 z M 77.359847,263.62301 C 79.398545,262.77118 81.056711,261.15028 81.707538,259.37301 C 89.613061,237.78472 91.87826,233.02071 98.29864,224.47971 C 105.98123,214.25961 114.61436,211.20892 119.84879,216.86454 C 121.30696,218.44004 124.49239,224.40254 126.92754,230.11454 C 129.36269,235.82654 133.94771,245.72575 137.11647,252.11278 C 142.39022,262.74268 143.15229,263.78046 146.12033,264.37407 C 154.81121,266.11224 166.02897,260.3217 164.69671,254.78504 C 164.3943,253.52827 162.53408,247.94957 160.56287,242.38793 C 157.42315,233.52938 154.18952,217.65887 151.5188,198 C 150.97033,193.96277 150.50168,193.31195 146.96161,191.67141 C 144.79139,190.66568 140.49925,187.4631 137.42351,184.55456 L 131.83126,179.2663 L 132.16563,173.88315 L 132.5,168.5 L 124.06285,168 C 119.42241,167.725 112.69058,167.725 109.10322,168 L 102.58075,168.5 L 101.79925,172.2825 C 101.36942,174.36287 100.35056,177.35521 99.535097,178.93213 C 97.590152,182.69324 90.168889,189 87.688078,189 C 82.580586,189 73.701263,203.95402 67.597149,222.83593 C 63.622578,235.13051 60,251.87664 60,257.95536 C 60,261.67104 60.333936,262.24169 63.25,263.50913 C 67.425017,265.32377 73.178227,265.3702 77.359847,263.62301 z M 178.94306,259.02905 C 185.00096,255.93854 192.57592,255.22477 208.72717,256.22259 C 231.90311,257.65439 238.78603,257.42765 246.07937,254.99213 C 254.55041,252.16333 263.62049,247.04755 270.17948,241.399 C 277.07016,235.46479 283.91475,231.53881 292,228.88298 C 299.67542,226.36176 301.96761,224.46113 306.67155,216.71759 C 310.75339,209.99817 310.72345,209.91622 302.04029,204.04104 C 288.72305,195.03035 279.814,192.77557 256.5,192.51532 C 240.5756,192.33755 237.83863,192.05797 232.76446,190.09075 C 220.82751,185.46288 209.09758,175.39678 199.95731,161.93714 C 197.7398,158.67171 195.58238,156 195.16304,156 C 194.7437,156 191.49797,158.71729 187.9503,162.03843 C 184.40264,165.35956 177.31515,170.56243 172.20034,173.60037 C 166.02848,177.26613 162.51036,180.02797 161.74018,181.81194 C 161.10191,183.29037 159.33597,185.96482 157.81587,187.75515 C 155.81308,190.11398 155.17943,191.7661 155.51463,193.75515 C 155.76904,195.26482 156.69399,201.675 157.57007,208 C 159.64882,223.00783 161.45569,231.52589 164.45684,240.46617 C 166.69578,247.13585 173.56564,261 174.63161,261 C 174.87805,261 176.8182,260.11307 178.94306,259.02905 z M 56.397574,248.25 C 56.728908,245.9125 57.275616,242.0875 57.612479,239.75 C 57.949343,237.4125 58.625876,235.00204 59.115887,234.39343 C 59.605898,233.78482 60.412166,231.30982 60.907595,228.89343 C 61.831144,224.38894 63.133249,220.35517 65.801504,213.73265 C 67.066133,210.59389 67.10357,209.56204 66.025882,207.54836 C 65.314451,206.21904 64.998897,204.11222 65.324651,202.86654 C 65.690962,201.46576 65.155575,199.36976 63.92136,197.37276 C 62.591943,195.22172 62.138379,193.29683 62.562637,191.60646 C 63.00884,189.82864 62.570914,188.26996 61.099742,186.39967 C 59.944884,184.93151 59,182.96071 59,182.02013 C 59,180.01021 56.763217,177.88105 52.25,175.59491 C 49.749109,174.3281 49,173.30325 49,171.14863 C 49,169.45493 48.012234,167.42067 46.5,166 C 45.000701,164.59148 44,162.543 44,160.88239 C 44,157.60402 40.356112,154.45956 38.419533,156.06678 C 37.750311,156.62219 36.958179,158.74687 36.65924,160.7883 C 36.360301,162.82974 35.574974,167.2 34.914068,170.5 C 31.970225,185.19905 34.747333,218.51808 39.479436,225.2741 C 40.315746,226.4681 41,228.30427 41,229.35447 C 41,230.40468 41.848691,232.66705 42.885979,234.38197 C 43.923268,236.09688 45.109842,238.625 45.522812,240 C 45.935781,241.375 47.224591,243.68079 48.386833,245.12398 C 49.549075,246.56716 51.30702,249.22514 52.293378,251.0306 C 54.416043,254.91598 55.56282,254.13904 56.397574,248.25 z M 78.06284,190.91175 C 80.091106,188.06331 80.16006,187.50032 78.950807,183.66175 C 77.315553,178.4709 76.402549,177.25953 72.671214,175.32998 L 69.696763,173.79183 L 70.298854,178.64591 C 71.082975,184.96753 73.831287,194 74.970646,194 C 75.461887,194 76.853374,192.61029 78.06284,190.91175 z M 257.39371,182.93933 C 257.75084,180.70596 257.74543,178.39712 257.38169,177.80857 C 257.01795,177.22003 256.62838,175.10865 256.51598,173.11662 C 256.25163,168.43138 254.17234,159.39907 252.39518,155.21607 C 251.62783,153.40991 251,151.22118 251,150.35223 C 251,149.48327 250.11877,147.13604 249.0417,145.13615 C 247.96464,143.13627 246.37355,139.925 245.50596,138 C 243.44484,133.42685 239.13694,126.19467 236,122.04124 C 232.55072,117.47426 217.30475,102.33402 211.38349,97.595434 C 206.71043,93.855757 200.22433,90.442339 199.38541,91.281255 C 199.16628,91.500385 200.33115,93.664246 201.974,96.089836 C 204.29057,99.510143 204.83261,101.20583 204.38897,103.6447 C 204.06356,105.43357 204.3766,107.80489 205.11501,109.1447 C 205.82896,110.44012 206.50519,112.85 206.61774,114.5 C 206.94887,119.3541 208.76843,127.69879 209.9958,129.99215 C 210.62134,131.16098 210.84488,133.42978 210.49255,135.03392 C 210.07566,136.93199 210.38368,138.7097 211.37456,140.12437 C 212.73902,142.07241 212.73715,142.60762 211.35654,145.27743 C 210.50919,146.91601 210.04192,149.43642 210.31816,150.87833 C 210.70348,152.88963 210.1459,154.08204 207.92319,156 L 205.02597,158.5 L 208.93994,164.36746 C 211.09263,167.59456 214.46179,171.37893 216.42696,172.77717 C 218.39213,174.17541 220,175.63635 220,176.02371 C 220,177.58559 227.93809,182.02525 235,184.41299 C 240.19182,186.16843 244.6919,186.95673 249.62219,186.97443 L 256.74438,187 L 257.39371,182.93933 z M 93.25,163.33772 C 92.5625,163.06031 91.4375,163.06031 90.75,163.33772 C 90.0625,163.61513 90.625,163.84211 92,163.84211 C 93.375,163.84211 93.9375,163.61513 93.25,163.33772 z M 141,146.06739 C 141,145.00445 140.2125,143.88936 139.25,143.5894 C 136.24256,142.65216 123.6988,141.04054 119.25,141.01981 C 116.9125,141.00891 115,140.75342 115,140.45203 C 115,139.72724 120.30782,135.07213 121.18045,135.0316 C 121.5547,135.01422 122.0047,136.0125 122.18045,137.25 C 122.38425,138.685 123.30381,139.61428 124.71911,139.8155 C 126.60239,140.08326 127.11124,139.44387 128.08153,135.59049 C 129.07396,131.6492 129.4644,131.17817 131.03998,132.0214 C 132.03831,132.55568 133.5365,132.73135 134.36931,132.41178 C 135.57012,131.95098 135.9473,132.82945 136.19175,136.65637 C 136.50949,141.63057 137.95977,142.98754 140.92272,141.08298 C 142.54697,140.03893 143.10865,125.74287 141.64301,122.75 C 140.9652,121.36589 141.22655,121 142.89301,121 C 145.41415,121 145.83714,117.53522 143.42882,116.61106 C 138.07479,114.55652 108.13985,112.24163 104.58179,113.60699 C 102.23514,114.50748 102.56763,118 105,118 C 107.5804,118 107.54955,119.17571 104.92617,120.81404 C 103.78556,121.52636 102.1884,123.69819 101.37692,125.64034 C 99.567334,129.97128 100.8719,134.96748 104.57239,137.87828 C 107.28295,140.01041 107.64041,141 105.7,141 C 103.42696,141 101.90889,143.1853 103.14624,144.67621 C 103.90987,145.59632 107.18072,146.0226 113.87244,146.07412 C 119.1676,146.11489 125.525,146.50857 128,146.94896 C 130.475,147.38935 134.4125,147.80599 136.75,147.87483 C 140.32711,147.98018 141,147.69402 141,146.06739 z M 108.57143,132.42857 C 105.51102,129.36816 107.30158,125.67827 111.60851,126.16992 C 115.14537,126.57367 116.25574,130.60862 113.40384,132.69397 C 111.10802,134.37271 110.48114,134.33828 108.57143,132.42857 z M 118.90968,122.81312 C 116.93501,120.71591 115.81001,118.93957 116.40968,118.8657 C 119.42507,118.49429 126.61567,119.29215 127.45,120.09072 C 128.04349,120.65877 127.94416,121 127.1853,121 C 126.51722,121 125.18972,122.26591 124.2353,123.81312 L 122.5,126.62625 L 118.90968,122.81312 z M 169.5,132.61008 C 169.5,128.80492 167.15705,129.98206 164.10168,135.32229 C 162.39575,138.30393 161,141.07854 161,141.48809 C 161,141.89764 162.9125,140.5049 165.25,138.39311 C 167.5875,136.28131 169.5,133.67895 169.5,132.61008 z M 79.876926,137.62923 C 78.65659,134.95088 77.863605,134.46973 76.65752,135.67581 C 76.285823,136.04751 76.962598,137.39574 78.161463,138.67187 C 80.829874,141.51226 81.469128,141.12373 79.876926,137.62923 z M 131.8202,98.63411 C 145.05369,81.794801 154.19649,76.159327 169.96475,75.122404 C 179.31299,74.507662 179.45718,74.458849 181.67761,71.157225 C 184.26114,67.31571 187.53817,58.978664 188.51837,53.753768 C 189.0913,50.699805 188.86215,49.99659 186.9628,48.980093 C 185.73769,48.324433 182.10205,47.763181 178.88359,47.732865 C 174.1366,47.688151 171.84892,48.299073 166.76593,50.968871 C 157.43503,55.869845 150.52856,56.182109 141.27645,52.121333 C 132.86545,48.429725 130.32849,48.28095 124.71016,51.149835 C 122.19943,52.43189 117.85523,53.489538 113.94785,53.770046 C 108.02866,54.194983 106.86944,53.944611 101.94785,51.178246 C 96.315892,48.012585 87.501585,46.244049 85.178497,47.813579 C 84.120515,48.528376 84.02081,51.577289 84.678497,63.103208 L 85.5,77.5 L 90.5,78.120429 C 93.25,78.461665 97.177976,79.447223 99.228835,80.310559 C 104.08355,82.354212 111.94961,89.769658 118.24919,98.241319 C 121.15623,102.15069 124.0217,105 125.04621,105 C 126.03177,105 129.03652,102.17627 131.8202,98.63411 z M 142.23917,95.452202 C 149.71028,89.165678 160.49007,86.008626 176.31299,85.473075 C 182.31721,85.269853 187.44488,84.888457 187.70781,84.625527 C 188.50639,83.826946 182.82188,81.344068 177.13158,80.00604 C 170.21456,78.379562 161.30147,79.209708 155.71252,82.000964 C 150.52274,84.592867 142.93156,90.882998 139.96434,95.050085 C 137.38345,98.674607 138.23142,98.824502 142.23917,95.452202 z M 106.94617,91.375847 C 100.34966,84.438651 96.154699,82 90.817843,82 C 85.196878,82 80.331912,83.790334 77.589464,86.868115 C 74.942275,89.838989 76.149199,90.498132 81.495409,89.001285 C 88.263821,87.106247 96.801415,88.203282 103.17944,91.787567 C 110.28376,95.780014 111.05399,95.695826 106.94617,91.375847 z M 121.56907,45.94268 C 123.53352,44.31233 123.36614,41.265972 121.25,40.135463 C 117.11992,37.929049 107.52312,38.476881 104.93309,41.066912 C 103.21396,42.786041 103.08192,43.393781 104.14837,44.678775 C 104.85358,45.528497 106.34619,46.621883 107.46528,47.108521 C 110.11856,48.2623 119.73156,47.467674 121.56907,45.94268 z M 161.05597,46.155758 C 165.32142,42.701814 161.14457,39 152.98195,39 C 145.2986,39 140.97794,42.944216 145.0496,46.241243 C 148.11345,48.722204 157.95143,48.669663 161.05597,46.155758 z M 189.75958,33.593671 C 188.09058,12.801454 169.59156,5.1626011 149.82733,17.10433 C 139.88575,23.111121 136.8567,23.2148 126.23031,17.912011 C 112.90136,11.260588 103.08608,11.208084 94.210646,17.74073 C 87.852825,22.420321 82.459227,34.438555 85.222613,37.768232 C 86.731755,39.586638 95.592849,38.4308 102.91051,35.461029 C 112.52356,31.55971 116.55019,31.463194 123.83979,34.959366 C 131.53621,38.650659 134.31764,38.733463 142,35.5 C 150.03033,32.120082 158.53441,32.104409 165.7338,35.456259 C 172.09183,38.416394 186.88189,41.351996 189.37593,40.148863 C 189.85769,39.916461 190.03033,36.966624 189.75958,33.593671 z"
       id="path2460" />
    <path
       style="fill:#474747"
       d="M 62.297486,319.75 C 61.169357,318.5125 59.762615,315.925 59.171392,314 C 57.690735,309.17904 56.00292,296.02724 55.985854,289.17764 C 55.973096,284.05695 55.577836,283.00952 51.956544,278.5 C 37.190856,260.1126 30.11653,248.51798 24.404952,233.34371 C 12.068437,200.56861 14.28394,162.36979 30.35598,130.73847 C 40.056791,111.64635 51.829797,97.7507 69.635719,84.376707 L 81.176515,75.708438 L 80.477048,61.104219 C 79.059033,31.497426 83.944873,18.3354 98.7909,11.768296 C 102.4419,10.153287 104.80643,9.8495684 110.9133,10.211206 C 117.43771,10.597569 119.65162,11.263235 126.7247,14.9653 C 136.77242,20.224294 139.2424,20.105991 149.95843,13.852484 L 157.41687,9.5 L 167.62229,9.5 C 177.3314,9.5 178.03859,9.6458982 182.16386,12.5 C 185.33046,14.690843 187.43769,17.36869 189.97654,22.428287 C 193.33088,29.113049 193.46677,29.825186 193.84267,42.688556 C 194.07225,50.544955 193.77539,57.83493 193.11987,60.438231 C 192.50806,62.867962 192.272,65.545246 192.5953,66.387751 C 192.9186,67.230255 197.49184,70.221787 202.75807,73.0356 C 225.61233,85.246938 240.51758,98.478783 253.42992,118.01853 C 264.88066,135.3465 271.88403,155.66056 273.95546,177.55516 C 274.46124,182.9011 275.35312,187.75312 275.93741,188.33741 C 276.5217,188.9217 279.36232,189.98533 282.24988,190.70101 C 290.01781,192.6263 304.79973,200.26454 310.44564,205.27056 L 315.39127,209.65568 L 313.69564,213.22897 C 312.76304,215.19428 312,218.83094 312,221.31043 C 312,224.95288 311.18385,227.03624 307.75,232.1593 C 303.28738,238.81721 302.46148,239.38242 287,246.35963 C 282.875,248.22109 276.46096,252.19776 272.74658,255.19666 C 269.03219,258.19556 261.89413,262.81045 256.88421,265.45196 C 250.26237,268.94337 244.63675,273.08887 236.28055,280.63473 C 220.63637,294.76183 208.30336,302.7762 192.63466,308.99718 C 188.89849,310.48057 185.01345,313.08179 181.93228,316.16295 C 176.70046,321.39478 174.93641,321.8474 169.21788,319.42524 C 166.41235,318.23692 162.16937,317.86854 151.92744,317.92406 C 127.963,318.05396 110.87267,314.65475 91.156783,305.83696 C 82.918084,302.15226 80.230211,302.13233 79.42924,305.75 C 77.138529,316.09625 72.830235,322 67.570722,322 C 65.503704,322 63.613322,321.19341 62.297486,319.75 z M 160.89627,286.03889 C 156.35811,277.26028 151.97468,269.82053 151.15532,269.50611 C 147.47646,268.0944 148.02681,271.24295 153.37372,282.19772 C 158.66187,293.03209 165.24953,302 167.92013,302 C 168.59655,302 165.44371,294.83546 160.89627,286.03889 z M 145.29435,297.98241 C 146.56147,293.13692 138.47014,291.45458 133.8795,295.60905 C 130.97829,298.23461 133.24037,300 139.50581,300 C 143.94102,300 144.84955,299.68333 145.29435,297.98241 z M 119.47184,288.45784 C 122.82235,282.74063 128.33335,278.71769 136.56935,275.97692 C 140.10621,274.79993 143,273.44533 143,272.96669 C 143,272.48805 139.95747,265.88724 136.23883,258.29822 C 132.52018,250.7092 127.30883,239.45197 124.65805,233.28216 C 117.40116,216.39146 115.44588,214.70721 108.25408,219.15199 C 104.31121,221.58881 97.441872,230.4559 94.592638,236.78647 L 92.685276,241.02434 L 95.327459,246.26217 C 96.780659,249.14298 99.098448,256.61699 100.4781,262.87109 C 101.85775,269.12519 103.97316,275.87519 105.17901,277.87109 C 109.84819,285.59944 115.11321,293 115.94224,293 C 116.41948,293 118.0078,290.95603 119.47184,288.45784 z M 197.36075,288.02033 C 206.65794,283.58033 213,278.72777 213,276.05412 C 213,274.89326 206.57142,274.02356 197.89788,274.01101 C 191.62997,274.00193 189.69942,274.40055 186.89788,276.2823 C 183.17706,278.78152 182.14645,282.33347 183.82947,286.85749 C 184.37015,288.31087 185.06559,290.2875 185.37488,291.25 C 185.68417,292.2125 186.16139,293 186.43536,293 C 186.70934,293 191.62576,290.75915 197.36075,288.02033 z M 96.641336,286.49228 C 96.959548,285.66303 96.382925,283.75053 95.359951,282.24228 C 94.313721,280.69974 93.5,277.75002 93.5,275.5 C 93.5,272.0448 93.174903,271.45403 91.11309,271.16251 C 88.089774,270.73503 86.874345,272.63194 87.606335,276.63548 C 87.936029,278.4387 87.716557,280.05714 87.089807,280.4445 C 85.074296,281.69015 85.976544,284.0151 89.25,286.01096 C 93.131315,288.37744 95.849994,288.55448 96.641336,286.49228 z M 77.359847,263.62301 C 79.398545,262.77118 81.056711,261.15028 81.707538,259.37301 C 89.613061,237.78472 91.87826,233.02071 98.29864,224.47971 C 105.98123,214.25961 114.61436,211.20892 119.84879,216.86454 C 121.30696,218.44004 124.49239,224.40254 126.92754,230.11454 C 129.36269,235.82654 133.94771,245.72575 137.11647,252.11278 C 142.39022,262.74268 143.15229,263.78046 146.12033,264.37407 C 154.81121,266.11224 166.02897,260.3217 164.69671,254.78504 C 164.3943,253.52827 162.53408,247.94957 160.56287,242.38793 C 157.42315,233.52938 154.18952,217.65887 151.5188,198 C 150.97033,193.96277 150.50168,193.31195 146.96161,191.67141 C 144.79139,190.66568 140.49925,187.4631 137.42351,184.55456 L 131.83126,179.2663 L 132.16563,173.88315 L 132.5,168.5 L 124.06285,168 C 119.42241,167.725 112.69058,167.725 109.10322,168 L 102.58075,168.5 L 101.79925,172.2825 C 101.36942,174.36287 100.35056,177.35521 99.535097,178.93213 C 97.590152,182.69324 90.168889,189 87.688078,189 C 82.580586,189 73.701263,203.95402 67.597149,222.83593 C 63.622578,235.13051 60,251.87664 60,257.95536 C 60,261.67104 60.333936,262.24169 63.25,263.50913 C 67.425017,265.32377 73.178227,265.3702 77.359847,263.62301 z M 184.5,257.70563 C 188.23409,256.33673 199.64581,256.23822 221.01101,257.39043 C 235.45497,258.16939 238.2718,258.06398 243.51101,256.54839 C 252.16731,254.04431 265.58227,246.79947 272.40074,240.9463 C 278.81086,235.44366 284.52873,232.24948 292.84126,229.5276 C 299.71006,227.27846 303.90376,223.53395 307.85365,216.1232 L 311.0235,210.17596 L 306.92035,206.66382 C 301.21654,201.78157 290.85062,196.5271 281.98367,194.02346 C 275.77543,192.27052 271.78485,191.91271 258.56873,191.92395 C 249.80653,191.93141 240.58153,191.44126 238.06873,190.83473 C 225.5631,187.8162 210.48836,176.16281 201.17192,162.31202 C 198.8827,158.90863 196.5299,155.82749 195.94346,155.46506 C 195.35703,155.10262 191.86735,157.55725 188.18861,160.9198 C 184.50987,164.28234 176.91614,169.75836 171.31364,173.08874 C 163.11093,177.96481 161.00743,179.68971 160.51177,181.94641 C 160.17324,183.48774 158.7946,185.78379 157.44813,187.04873 C 155.62202,188.76427 155.00269,190.38418 155.01059,193.42431 C 155.0255,199.16188 158.61605,221.87831 161.10785,232 C 163.03211,239.81638 169.03334,254.33977 172.57568,259.75297 C 174.00647,261.93942 174.16,261.95869 177.775,260.40568 C 179.82375,259.52554 182.85,258.31052 184.5,257.70563 z M 56.397574,248.25 C 56.728908,245.9125 57.275616,242.0875 57.612479,239.75 C 57.949343,237.4125 58.625876,235.00204 59.115887,234.39343 C 59.605898,233.78482 60.412166,231.30982 60.907595,228.89343 C 61.831144,224.38894 63.133249,220.35517 65.801504,213.73265 C 67.066133,210.59389 67.10357,209.56204 66.025882,207.54836 C 65.314451,206.21904 64.998897,204.11222 65.324651,202.86654 C 65.690962,201.46576 65.155575,199.36976 63.92136,197.37276 C 62.591943,195.22172 62.138379,193.29683 62.562637,191.60646 C 63.00884,189.82864 62.570914,188.26996 61.099742,186.39967 C 59.944884,184.93151 59,182.96071 59,182.02013 C 59,180.01021 56.763217,177.88105 52.25,175.59491 C 49.749109,174.3281 49,173.30325 49,171.14863 C 49,169.45493 48.012234,167.42067 46.5,166 C 45.000701,164.59148 44,162.543 44,160.88239 C 44,157.60402 40.356112,154.45956 38.419533,156.06678 C 37.750311,156.62219 36.958179,158.74687 36.65924,160.7883 C 36.360301,162.82974 35.574974,167.2 34.914068,170.5 C 31.970225,185.19905 34.747333,218.51808 39.479436,225.2741 C 40.315746,226.4681 41,228.30427 41,229.35447 C 41,230.40468 41.848691,232.66705 42.885979,234.38197 C 43.923268,236.09688 45.109842,238.625 45.522812,240 C 45.935781,241.375 47.224591,243.68079 48.386833,245.12398 C 49.549075,246.56716 51.30702,249.22514 52.293378,251.0306 C 54.416043,254.91598 55.56282,254.13904 56.397574,248.25 z M 78.479234,191.85202 L 81.224241,187.70403 L 79.433503,182.43577 C 78.016751,178.26775 76.868466,176.73232 73.935228,175.08375 C 71.896083,173.93769 69.951461,173 69.613845,173 C 68.118337,173 70.35072,186.53187 72.992541,193.48038 C 74.31266,196.95256 75.297226,196.66035 78.479234,191.85202 z M 257.39371,182.93933 C 257.75084,180.70596 257.74543,178.39712 257.38169,177.80857 C 257.01795,177.22003 256.62838,175.10865 256.51598,173.11662 C 256.25163,168.43138 254.17234,159.39907 252.39518,155.21607 C 251.62783,153.40991 251,151.22118 251,150.35223 C 251,149.48327 250.11877,147.13604 249.0417,145.13615 C 247.96464,143.13627 246.37355,139.925 245.50596,138 C 243.44484,133.42685 239.13694,126.19467 236,122.04124 C 232.55072,117.47426 217.30475,102.33402 211.38349,97.595434 C 206.71043,93.855757 200.22433,90.442339 199.38541,91.281255 C 199.16628,91.500385 200.33115,93.664246 201.974,96.089836 C 204.29057,99.510143 204.83261,101.20583 204.38897,103.6447 C 204.06356,105.43357 204.3766,107.80489 205.11501,109.1447 C 205.82896,110.44012 206.50519,112.85 206.61774,114.5 C 206.94887,119.3541 208.76843,127.69879 209.9958,129.99215 C 210.62134,131.16098 210.84488,133.42978 210.49255,135.03392 C 210.07566,136.93199 210.38368,138.7097 211.37456,140.12437 C 212.73902,142.07241 212.73715,142.60762 211.35654,145.27743 C 210.50919,146.91601 210.04192,149.43642 210.31816,150.87833 C 210.70348,152.88963 210.1459,154.08204 207.92319,156 L 205.02597,158.5 L 208.93994,164.36746 C 211.09263,167.59456 214.46179,171.37893 216.42696,172.77717 C 218.39213,174.17541 220,175.63635 220,176.02371 C 220,177.58559 227.93809,182.02525 235,184.41299 C 240.19182,186.16843 244.6919,186.95673 249.62219,186.97443 L 256.74438,187 L 257.39371,182.93933 z M 93.25,163.33772 C 92.5625,163.06031 91.4375,163.06031 90.75,163.33772 C 90.0625,163.61513 90.625,163.84211 92,163.84211 C 93.375,163.84211 93.9375,163.61513 93.25,163.33772 z M 147.61553,148.2173 C 150.45368,138.37613 154.75819,129.4522 160.14101,122.25 C 163.66185,117.53913 167,115.43793 167,117.93261 C 167,118.44555 167.8516,119.13551 168.89245,119.46587 C 169.9333,119.79622 171.34062,121.40811 172.01982,123.04784 C 172.77774,124.87764 173.88147,125.92698 174.87736,125.76459 C 176.2535,125.5402 176.5,126.63936 176.5,133 C 176.5,139.38061 176.91034,141.19803 179.24929,145.17686 C 181.99172,149.84204 186.28811,154 188.36618,154 C 190.40457,154 201.80706,141.11466 203.01942,137.44116 C 205.03829,131.32393 202.12917,119.9351 196.15153,110.55422 C 193.04839,105.68438 192.09629,102 193.94098,102 C 194.45852,102 195.16008,102.45 195.5,103 C 195.83992,103.55 196.7968,104 197.6264,104 C 200.18613,104 198.23299,99.87747 193.48088,95.25 L 189.11642,91 L 179.80821,91.007554 C 160.58783,91.023153 151.21038,94.129849 140.69655,103.96502 L 134.03116,110.20016 L 125.11674,109.85008 L 116.20231,109.5 L 110.30656,103.87511 C 100.43536,94.457418 93.04099,91.898601 82.78849,94.352507 C 75.35709,96.131191 71.431846,98.61049 73.019169,100.5231 C 74.698029,102.546 73.641237,103.57366 67.753925,105.64322 C 57.643041,109.19748 45.786633,124.12353 45.62608,133.5 C 45.547021,138.11711 51.342975,147.95155 54.161106,147.98203 C 56.188428,148.00396 60.160343,143.44132 62.017936,138.9567 C 63.261241,135.9551 63.2161,135.54793 61.532036,134.57384 C 54.849319,130.70848 54.842245,126.12375 61.523914,129.31001 C 66.055554,131.471 72.393648,131.47125 76.051361,129.31059 C 77.911229,128.21194 80.15511,125.03711 82.468246,120.23145 C 86.264898,112.34372 88.316014,111.31691 88.76947,117.07701 C 88.917678,118.95966 89.721226,123.425 90.555133,127 C 91.389039,130.575 92.618473,138.225 93.287207,144 L 94.503088,154.5 L 98.501544,154.2862 C 114.54892,153.42815 131.98525,153.87334 137,155.26916 C 140.025,156.11115 143.11354,156.73253 143.86342,156.65002 C 144.66843,156.56144 146.20517,153.10768 147.61553,148.2173 z M 81.597392,139.6243 C 79.030313,133.81968 78.51632,133.38778 76.039763,134.95426 C 74.792123,135.74343 74.860722,136.21437 76.510943,138.18895 C 80.745684,143.25606 83.372056,145.96128 83.719461,145.61387 C 83.920357,145.41298 82.965426,142.71767 81.597392,139.6243 z M 170.96737,132.87244 C 170.98532,131.97729 170.28256,130.64947 169.4057,129.92174 C 168.04481,128.7923 167.53664,128.95738 165.93475,131.04929 C 163.84089,133.78366 158,144.39725 158,145.46768 C 158,146.96087 170.93684,134.39529 170.96737,132.87244 z M 131.8202,98.63411 C 145.05369,81.794801 154.19649,76.159327 169.96475,75.122404 C 179.31299,74.507662 179.45718,74.458849 181.67761,71.157225 C 184.26114,67.31571 187.53817,58.978664 188.51837,53.753768 C 189.0913,50.699805 188.86215,49.99659 186.9628,48.980093 C 185.73769,48.324433 182.10205,47.763181 178.88359,47.732865 C 174.1366,47.688151 171.84892,48.299073 166.76593,50.968871 C 157.43503,55.869845 150.52856,56.182109 141.27645,52.121333 C 132.86545,48.429725 130.32849,48.28095 124.71016,51.149835 C 122.19943,52.43189 117.85523,53.489538 113.94785,53.770046 C 108.02866,54.194983 106.86944,53.944611 101.94785,51.178246 C 96.315892,48.012585 87.501585,46.244049 85.178497,47.813579 C 84.120515,48.528376 84.02081,51.577289 84.678497,63.103208 L 85.5,77.5 L 90.5,78.120429 C 93.25,78.461665 97.177976,79.447223 99.228835,80.310559 C 104.08355,82.354212 111.94961,89.769658 118.24919,98.241319 C 121.15623,102.15069 124.0217,105 125.04621,105 C 126.03177,105 129.03652,102.17627 131.8202,98.63411 z M 139.47675,99.110432 C 148.82879,90.265667 157.58207,87.258486 176.75,86.30525 C 183.4875,85.970189 189,85.324811 189,84.871077 C 189,82.493785 176.22801,78 169.4714,78 C 159.966,78 146.95281,85.473503 138.39703,95.846075 C 133.29482,102.03172 132.14975,104 133.65338,104 C 134.01273,104 136.63325,101.79969 139.47675,99.110432 z M 113.93027,98.25 C 113.20723,97.2875 110.33963,94.101789 107.55782,91.170641 C 97.404679,80.472413 87.543212,78.612501 78.25,85.643069 C 74.103875,88.779726 73.823458,91.528141 77.75,90.543664 C 79.2625,90.164444 83.499893,89.613329 87.166429,89.318962 C 95.516226,88.648603 101.62304,90.550029 108.5,95.961419 C 113.83904,100.16264 116.07495,101.10496 113.93027,98.25 z M 121.56907,45.94268 C 123.53352,44.31233 123.36614,41.265972 121.25,40.135463 C 117.11992,37.929049 107.52312,38.476881 104.93309,41.066912 C 103.21396,42.786041 103.08192,43.393781 104.14837,44.678775 C 104.85358,45.528497 106.34619,46.621883 107.46528,47.108521 C 110.11856,48.2623 119.73156,47.467674 121.56907,45.94268 z M 161.05597,46.155758 C 165.32142,42.701814 161.14457,39 152.98195,39 C 145.2986,39 140.97794,42.944216 145.0496,46.241243 C 148.11345,48.722204 157.95143,48.669663 161.05597,46.155758 z M 189.75958,33.593671 C 188.09058,12.801454 169.59156,5.1626011 149.82733,17.10433 C 139.88575,23.111121 136.8567,23.2148 126.23031,17.912011 C 112.90136,11.260588 103.08608,11.208084 94.210646,17.74073 C 87.852825,22.420321 82.459227,34.438555 85.222613,37.768232 C 86.731755,39.586638 95.592849,38.4308 102.91051,35.461029 C 112.52356,31.55971 116.55019,31.463194 123.83979,34.959366 C 131.53621,38.650659 134.31764,38.733463 142,35.5 C 150.03033,32.120082 158.53441,32.104409 165.7338,35.456259 C 172.09183,38.416394 186.88189,41.351996 189.37593,40.148863 C 189.85769,39.916461 190.03033,36.966624 189.75958,33.593671 z"
       id="path2458" />
    <path
       style="fill:#18191b"
       d="M 62.562889,317.12161 C 59.5724,311.33865 57.000156,299.5756 56.964565,291.5201 C 56.942211,286.46084 56.401527,282.57706 55.5,281 C 53.618956,277.70946 53.555127,263.43522 55.39619,257.78495 C 56.164094,255.42823 57.093313,251.7 57.461121,249.5 C 58.693854,242.12654 61.996324,229.59205 65.600212,218.60818 C 69.971925,205.28413 69.933458,204.22294 64.353887,184.2252 C 63.16447,179.96221 62.132449,178.45426 58.973742,176.36393 C 55.131834,173.82147 49.731541,165.76287 48.451221,160.66167 C 48.104119,159.27871 46.977539,157.38466 45.947709,156.45268 C 44.917879,155.52069 43.573452,153.23758 42.960093,151.37908 C 42.346735,149.52059 41.252939,148 40.529437,148 C 38.508071,148 38.244938,146.15354 39.071748,137.77107 C 40.334094,124.97299 47.907926,111.65496 58.07942,104.34747 C 61.523663,101.87303 64.12366,98.797028 66.697183,94.15197 C 68.724165,90.493387 72.884019,84.920725 75.941303,81.768278 L 81.5,76.036557 L 81.546805,55.268278 C 81.600346,31.511518 82.581877,26.682335 88.742981,19.862729 C 94.214205,13.806738 100.88909,10.81585 109.04724,10.764778 C 115.03104,10.727319 116.90862,11.250227 125.92667,15.465722 C 137.82373,21.027013 139.25042,20.999917 148.95664,15.028333 C 163.26266,6.2268097 179.33001,7.570586 187.0396,18.213361 C 192.03941,25.115399 193.32121,31.445824 192.75362,46.433261 C 192.48146,53.619968 191.74715,60.775751 191.12182,62.335003 C 190.17243,64.702301 190.2942,65.609662 191.85988,67.835003 C 193.54642,70.232117 193.59917,70.887135 192.3847,74.35137 C 191.12753,77.937383 191.20556,78.494629 193.51725,82.439227 C 194.88276,84.769296 196,87.373184 196,88.225646 C 196,89.078107 197.575,92.065223 199.5,94.863681 C 202.5392,99.281903 203,100.73633 203,105.91079 C 203,109.18825 203.46909,113.10359 204.04241,114.61156 C 207.13672,122.75019 209.01832,132.42054 208.46161,137.32367 C 207.55474,145.31087 205.89767,152.22798 204.17561,155.21479 C 202.67292,157.82111 202.74412,158.12076 205.95776,162.71479 C 213.73147,173.82765 222.59228,181.17705 233.34695,185.43214 C 241.01277,188.46512 247.0641,188.91851 261.73208,187.55884 C 270.03999,186.78873 271.39138,186.90857 275.23208,188.75604 C 277.57943,189.88518 282.65,191.74361 286.5,192.88589 C 294.33162,195.20948 303.509,200.30006 310.09953,205.97624 L 314.48718,209.75516 L 312.75321,213.39134 C 311.79952,215.39124 310.72676,218.93383 310.36929,221.26376 C 309.60788,226.22654 306.2363,232.44136 302.21561,236.29343 C 300.64752,237.79576 295.60086,240.58856 291.00081,242.49966 C 282.01367,246.2334 277.10277,249.17267 270,255.06907 C 267.525,257.1237 261.87105,260.79719 257.43567,263.23237 C 253.00028,265.66755 246.99737,269.53648 244.09587,271.82999 L 238.8204,276 L 230.03217,276 C 222.18946,276 221.09261,275.77208 219.83734,273.88154 C 218.55139,271.94479 217.26733,271.71869 204.86668,271.2455 C 190.97706,270.7155 181.10619,271.99393 180.89868,274.34974 C 180.59372,277.81197 181.38712,282.88094 183.16349,288.81956 C 184.26253,292.4938 185.55617,298.61448 186.03824,302.42107 L 186.91472,309.34215 L 181.70736,314.23246 C 177.28099,318.38933 176.05007,319.04545 173.5,318.60724 C 156.36921,315.66344 157.66238,316.26569 153.05492,309.08559 C 150.87741,305.69223 150,303.10731 150,300.08553 C 150,296.73324 149.38835,295.2345 147.07692,292.92308 C 143.76586,289.61202 141.18573,289.31755 134.9042,291.5338 C 129.47288,293.45008 126,296.63622 126,299.70283 C 126,302.81861 120.31139,314.00376 118.7356,313.98635 C 114.57601,313.94038 112.46324,312.125 106.84495,303.7694 C 102.75222,297.68265 100.98588,294.16198 101.34187,292.80068 C 101.63022,291.69805 100.77439,287.57933 99.440039,283.64795 C 98.105687,279.71658 97.010807,275.50867 97.006973,274.29705 C 97.003138,273.08543 96.581143,271.06043 96.069208,269.79705 C 95.557272,268.53367 94.881226,266.29249 94.566884,264.81665 C 93.939716,261.87209 90.636862,260.22656 88.655066,261.87131 C 85.833625,264.21289 82.426952,281.06073 84.131071,284.24491 C 84.784302,285.46548 84.917453,288.84318 84.48291,293.17017 C 83.879772,299.17596 83.469518,300.25119 81.494665,301.00203 C 79.832234,301.63408 78.615794,303.64454 77.05138,308.3456 C 74.414335,316.26993 71.220819,320 67.073429,320 C 64.755363,320 63.704615,319.32947 62.562889,317.12161 z M 69.700965,307.4969 C 72.91512,305.24562 74.082319,300.3687 74.907617,285.74188 C 75.318553,278.45885 76.005594,271.7125 76.434375,270.75 C 77.110366,269.23258 76.63492,268.99854 72.856989,268.98899 C 70.460645,268.98294 66.8125,268.69906 64.75,268.35815 L 61,267.73832 L 61,283.80406 C 61,299.77444 61.647105,303.84759 64.724591,307.24817 C 66.654351,309.38053 66.987902,309.3972 69.700965,307.4969 z M 178.4433,304.77749 C 180.41403,301.96388 180.40831,297.90747 178.41992,288.20784 C 176.83362,280.46965 172.13335,267.4295 169.43305,263.27521 L 167.98693,261.05043 L 163.50344,264.21068 C 159.99258,266.68536 157.71271,267.46549 152.994,267.80682 C 149.67972,268.04655 146.73235,268.62405 146.44428,269.09015 C 145.58075,270.48738 156.4931,292.17912 160.80151,297.62968 C 164.63931,302.48486 171.57085,306.99752 175.1933,306.99921 C 176.12461,306.99965 177.58711,305.99987 178.4433,304.77749 z M 119.38417,290.25 C 123.0291,283.08937 128.07103,279.3283 138.5,275.99041 C 140.7,275.28628 142.7851,274.27111 143.13356,273.73447 C 143.48202,273.19783 140.85521,266.62554 137.29619,259.12938 C 133.73718,251.63322 128.54002,240.325 125.74696,234 C 117.60069,215.55246 115.96275,214.07367 108.51223,218.43996 C 104.03589,221.06327 98.40396,227.99238 93.998783,236.29622 L 91.591643,240.83372 L 94.309535,245.82739 C 95.804376,248.5739 98.128548,255.79942 99.474362,261.88409 C 100.82018,267.96876 102.67905,274.42152 103.60518,276.22356 C 106.61693,282.0837 115.58229,295 116.63814,295 C 116.81863,295 118.05435,292.8625 119.38417,290.25 z M 78.89832,263.55258 C 81.2295,262.34708 82.267787,260.53048 84.480556,253.78581 C 92.553704,229.17833 107.09322,211.42355 116.30366,214.92535 C 119.75087,216.23598 120.85654,218.08583 128.32721,235.0415 C 137.08004,254.90718 141.60323,263.63377 143.53059,264.37336 C 144.42873,264.71801 147.48927,264.9926 150.33179,264.98355 C 156.35733,264.96437 162.64169,261.89254 164.90507,257.86006 C 166.25079,255.4625 166.14741,254.7371 163.63415,248.94201 C 159.70637,239.8853 156.55387,226.81915 153.9111,208.64293 C 152.15773,196.5838 151.23362,192.67003 150.05276,192.30225 C 146.20828,191.10489 143.28651,189.14033 138.18573,184.32304 L 132.70412,179.14607 L 133.30383,174.08241 C 134.11713,167.21538 133.28201,166.87703 116.37012,167.2217 C 101.28273,167.52918 101.60509,167.38163 100.46942,174.5 C 99.983878,177.54337 98.648827,179.64334 94.887086,183.28071 C 92.1486,185.92866 88.601145,188.32977 86.935258,188.66295 C 78.293148,190.39137 65.625917,218.86529 60.472901,248.14612 C 58.186433,261.13844 58.296379,261.76933 63.25,264.0817 C 67.990467,266.29456 73.988083,266.09176 78.89832,263.55258 z M 180.62288,259.78214 C 184.77515,257.89391 187.28348,257.5595 197.5,257.53214 C 204.1,257.51446 215.6267,257.8998 223.1149,258.38844 C 235.75292,259.21313 237.25968,259.11779 244.1149,257.05972 C 253.72817,254.17363 264.74094,248.22595 271.8325,242.09024 C 277.875,236.8622 286.20794,232.29636 294.73724,229.54014 C 300.47059,227.68743 304.65422,223.58651 308.98643,215.57267 C 310.89044,212.0506 311.22764,210.56641 310.42597,209.2366 C 308.27542,205.66924 293.96744,197.07678 285.73044,194.40605 C 278.32934,192.00634 275.43433,191.67053 257,191.07339 L 236.5,190.40934 L 228.61291,186.60115 C 219.57173,182.23573 208.16729,171.72703 201.16817,161.31202 C 198.88102,157.90863 196.55266,154.84156 195.99404,154.49631 C 195.43542,154.15107 191.11304,157.25704 186.38876,161.39848 C 181.66448,165.53992 174.02956,171.04426 169.42229,173.63036 C 162.69959,177.40386 160.83773,178.96165 159.99369,181.51913 C 159.41524,183.27185 157.83002,185.75051 156.47098,187.02726 C 153.48709,189.83048 153.46577,190.79451 156.00715,208 C 159.56316,232.0747 162.52455,242.58381 169.15899,254.67211 C 171.37097,258.70245 173.7579,262 174.46327,262 C 175.16864,262 177.94047,261.00196 180.62288,259.78214 z M 78.8075,192.47076 C 82.296176,187.52134 82.484439,186.81442 81.000432,184.23643 C 80.450669,183.28139 79.561886,181.26271 79.025357,179.75046 C 77.325839,174.96023 67.990887,170.72375 68.007006,174.75 C 68.017497,177.37047 71.848931,192.84921 73.036217,195.06767 C 74.526137,197.85161 75.241671,197.52964 78.8075,192.47076 z M 152.92327,185.41111 C 154.61547,183.98721 156,182.29305 156,181.6463 C 156,180.99954 156.93197,178.73152 158.07105,176.60624 C 159.54335,173.85926 159.83246,172.43246 159.07105,171.67105 C 157.36771,169.96771 157.69935,169.49066 163.25,165.65982 C 166.1375,163.66698 170.1619,160.6203 172.1931,158.88942 C 175.8094,155.8078 176.74494,155.72824 180.20204,158.20827 C 183.44585,160.53529 183.08972,158.20923 179.62278,154.42486 C 177.70692,152.33359 175.09553,148.47495 173.8197,145.85012 C 172.54386,143.22529 170.95391,141.06022 170.28646,141.03885 C 168.80534,140.99143 160.25818,151.12922 155.47448,158.60735 C 152.08823,163.90091 151.85267,164.06299 148.46813,163.42804 C 145.2774,162.82946 144.56703,163.16981 140.48292,167.25393 C 135.52909,172.20775 134.72548,175.87599 137.77224,179.62731 C 139.65536,181.94591 147.8269,188 149.07331,188 C 149.49859,188 151.23108,186.835 152.92327,185.41111 z M 95.294963,178.5654 C 97.836164,175.0212 98.91826,164.81136 96.997927,162.4975 C 95.510602,160.70539 85.370071,160.38979 84.794103,162.11769 C 84.589193,162.73242 83.255894,161.49492 81.831217,159.36769 C 80.406539,157.24046 76.90389,152.84883 74.047551,149.60851 C 69.950656,144.96086 68.979184,143.21907 69.446157,141.35851 C 69.771728,140.06133 69.85933,139 69.640829,139 C 69.422328,139 67.527534,141.49159 65.430175,144.53686 C 63.332817,147.58213 60.128017,150.99383 58.308398,152.11842 C 56.488779,153.243 55,154.58303 55,155.09624 C 55,157.34637 62.267136,163.38211 71.5,168.80037 C 80.390107,174.01749 81.642662,175.10341 82.785368,178.58441 C 84.622096,184.1796 86.546523,185.37535 90.24391,183.21882 C 91.864722,182.27347 94.137696,180.17943 95.294963,178.5654 z M 150.01839,150.5 C 154.08264,140.27556 164.93861,121.62127 167.36679,120.68949 C 169.24452,119.96894 170.71883,121.13027 171.91269,124.27035 C 172.48348,125.77166 173.63518,127 174.47201,127 C 175.69744,127 175.94659,128.21618 175.75237,133.25 C 175.55989,138.23855 176.00933,140.4774 177.97915,144.34268 C 180.35757,149.00971 186.02008,155 188.05331,155 C 190.32464,155 201.77856,142.1467 203.48199,137.68633 C 205.15597,133.30307 205.16173,132.67586 203.58551,126.40094 C 201.84401,119.46798 199.03131,113.17251 195.86255,109.11514 C 193.74182,106.39971 193.16396,101.76396 195.2,103.8 C 197.17297,105.77297 199,105.16466 199,102.5348 C 199,99.678663 193.97401,93.555041 189.90122,91.448917 C 186.6122,89.748098 175.76567,89.569543 165.5,91.047225 C 156.12126,92.39724 147.74331,96.491548 140.34635,103.33983 L 134.23269,109 L 125.59112,109 L 116.94955,109 L 110.42209,102.92752 C 106.83198,99.587655 102.00583,95.997538 99.697313,94.949481 C 89.722944,90.421172 69.548529,94.85146 71.542011,101.13237 C 71.997565,102.56769 70.843614,103.50449 65.806148,105.78889 C 58.552868,109.07812 51.640911,116.06612 47.579759,124.21579 C 43.841788,131.71692 44.125851,136.35515 48.75,143.32364 C 50.8125,146.43178 53.247498,148.98047 54.161106,148.9874 C 56.211981,149.00296 60.807812,143.68211 62.75235,139.04084 C 64.130663,135.75105 64.086522,135.49402 61.850812,133.79119 C 56.633385,129.81735 56.416639,129.54344 58.215401,129.19703 C 59.123085,129.02223 61.223598,129.58139 62.883208,130.4396 C 70.940044,134.60596 78.864238,130.68986 83.00102,120.49749 C 84.228216,117.47387 85.855022,115 86.616143,115 C 88.733528,115 88.334271,121.93948 85.996262,125.77417 C 83.3508,130.11312 83.460315,131.61071 87,139.5 C 88.65,143.17754 90.006891,147.83199 90.015313,149.84322 C 90.042466,156.32752 90.509441,156.53258 102.17563,155.183 C 116.04434,153.57861 125.88783,153.80777 135.5,155.95881 C 146.9624,158.52388 146.80541,158.58291 150.01839,150.5 z M 164.3871,141.3871 C 168.57419,137.2 172,133.42485 172,132.99788 C 172,131.35972 168.27159,127.71412 167.24506,128.34855 C 164.94608,129.76939 154.77241,149 156.31971,149 C 156.56968,149 160.2,145.57419 164.3871,141.3871 z M 85,146.62084 C 85,144.85844 80.144307,134.20722 79.025689,133.51588 C 77.699083,132.69599 75,134.07038 75,135.56578 C 75,137.20476 82.93868,148 84.143966,148 C 84.614785,148 85,147.37938 85,146.62084 z M 130.74409,100.99543 C 137.56761,91.808329 146.99883,83.125898 153.78218,79.786469 C 159.47025,76.986242 161.76285,76.458227 170.15684,76.015178 C 181.44567,75.419335 181.21801,75.588424 186.00144,64.2468 C 190.06103,54.62143 190.34728,50.056967 187,48.323883 C 182.09666,45.785131 173.9012,46.670601 165.53676,50.642857 C 155.43629,55.43955 150.28117,55.512434 140.0086,51.003776 L 132.53101,47.721838 L 123.30275,50.860919 C 118.2272,52.587414 113.04366,54 111.78376,54 C 110.52387,54 106.34461,52.488749 102.49652,50.641665 C 94.640732,46.870881 89.006051,45.667002 85.482709,47.006574 L 83.105957,47.910214 L 83.687795,62.205107 C 84.007806,70.067298 84.714066,77.0625 85.257261,77.75 C 85.800457,78.4375 88.102289,79.009883 90.372445,79.021962 C 98.822691,79.066924 108.77918,86.23869 117.66217,98.679049 C 124.01463,107.57547 125.64279,107.86377 130.74409,100.99543 z M 140.46637,99.180339 C 149.98468,90.276426 160.65409,87.017389 180.32332,87.005792 C 189.13364,87.000597 190.11331,86.819534 189.82332,85.25 C 189.2364,82.073244 180.30598,78.554548 171.81759,78.155514 C 162.15072,77.701081 156.04225,79.613777 148.1047,85.58054 C 142.10625,90.089657 132,101.48897 132,103.74578 C 132,106.18307 134.31481,104.93482 140.46637,99.180339 z M 117,102.15004 C 117,98.850609 103.07017,84.76292 97.510954,82.44013 C 89.88847,79.255253 78.431637,82.22638 75.026634,88.27104 C 73.010945,91.849351 74.122846,92.50551 79.602423,90.971323 C 91.038956,87.769292 101.84971,90.469754 111,98.814253 C 115.49649,102.91477 117,103.75067 117,102.15004 z M 121.75,46.38085 C 127.1585,42.950764 122.14534,37.987573 113.29966,38.014742 C 105.39636,38.039016 100.86808,41.726267 104.04319,45.552035 C 106.89875,48.992784 116.89385,49.460631 121.75,46.38085 z M 162.17779,46.266658 C 164.91966,43.524785 163.99822,41.315029 159.29329,39.349183 C 155.37463,37.711865 148.68944,38.025471 144.95968,40.02158 C 142.01973,41.59499 142.44641,45.624332 145.75,47.484992 C 149.76594,49.746868 159.41303,49.03141 162.17779,46.266658 z M 190.83186,34.70033 C 190.28599,26.127686 186.18844,17.815176 180.72598,14.199006 C 177.3083,11.936493 175.33423,11.444269 168.51949,11.155393 C 160.4152,10.811852 160.35995,10.826563 150.68031,15.905393 C 138.45088,22.322079 136.02008,22.415304 125.49707,16.871217 C 112.39906,9.9704842 101.22617,10.472469 92.23641,18.365579 C 87.921635,22.154001 84.02304,30.155508 84.009769,35.25 L 84,39 L 90.030132,39 C 94.249732,39 97.886883,38.231187 102.14397,36.439402 C 112.058,32.266647 116.63373,32.167814 124.41455,35.958372 C 131.85583,39.583518 136.07129,39.526439 143.5,35.69995 C 149.33739,32.693143 158.96118,32.83113 165.50898,36.015516 C 171.39123,38.876227 179.57568,40.799244 186.3665,40.916192 L 191.23299,41 L 190.83186,34.70033 z"
       id="path2456" />
  </g>
</svg>
