<?xml version="1.0" encoding="UTF-8" standalone="no"?>
<!-- Created with Inkscape (http://www.inkscape.org/) -->

<svg
   xmlns:dc="http://purl.org/dc/elements/1.1/"
   xmlns:cc="http://creativecommons.org/ns#"
   xmlns:rdf="http://www.w3.org/1999/02/22-rdf-syntax-ns#"
   xmlns:svg="http://www.w3.org/2000/svg"
   xmlns="http://www.w3.org/2000/svg"
   xmlns:sodipodi="http://sodipodi.sourceforge.net/DTD/sodipodi-0.dtd"
   xmlns:inkscape="http://www.inkscape.org/namespaces/inkscape"
   width="744.09448819"
   height="1052.3622047"
   id="svg2"
   version="1.1"
   inkscape:version="0.47pre4 r22446"
   sodipodi:docname="ll2.svg">
  <defs
     id="defs4">
    <inkscape:perspective
       sodipodi:type="inkscape:persp3d"
       inkscape:vp_x="0 : 526.18109 : 1"
       inkscape:vp_y="0 : 1000 : 0"
       inkscape:vp_z="744.09448 : 526.18109 : 1"
       inkscape:persp3d-origin="372.04724 : 350.78739 : 1"
       id="perspective10" />
  </defs>
  <sodipodi:namedview
     id="base"
     pagecolor="#ffffff"
     bordercolor="#666666"
     borderopacity="1.0"
     inkscape:pageopacity="0.0"
     inkscape:pageshadow="2"
     inkscape:zoom="0.35"
     inkscape:cx="375"
     inkscape:cy="520"
     inkscape:document-units="px"
     inkscape:current-layer="layer1"
     showgrid="false"
     inkscape:window-width="841"
     inkscape:window-height="603"
     inkscape:window-x="70"
     inkscape:window-y="68"
     inkscape:window-maximized="0" />
  <metadata
     id="metadata7">
    <rdf:RDF>
      <cc:Work
         rdf:about="">
        <dc:format>image/svg+xml</dc:format>
        <dc:type
           rdf:resource="http://purl.org/dc/dcmitype/StillImage" />
        <dc:title></dc:title>
      </cc:Work>
    </rdf:RDF>
  </metadata>
  <g
     inkscape:label="Layer 1"
     inkscape:groupmode="layer"
     id="layer1">
    <path
       style="fill:none;stroke:#000000;stroke-width:1px;stroke-linecap:butt;stroke-linejoin:miter;stroke-opacity:1"
       d="m 212.83495,156.14961 c 14.28194,-0.43775 28.5639,-0.87551 42.84585,-1.31326 1.2864,-0.0394 7.68947,-0.67058 8.56917,-0.26266 1.21877,0.56514 1.63713,2.38168 2.92473,2.76825 1.86909,0.56113 17.40007,-0.53333 19.99473,-0.61286 0.95213,-0.0292 1.94592,-0.36089 2.85639,-0.0876 2.03588,0.61121 3.74524,2.06949 5.78112,2.6807 1.62443,0.48768 6.69222,-0.20513 8.56918,-0.26266 4.76064,-0.14591 9.5213,-0.29183 14.28194,-0.43775 5.71279,-0.1751 11.42556,-0.35021 17.13835,-0.52531 1.87695,-0.0575 6.97045,0.32382 8.56916,-0.26265 2.00367,-0.73502 3.76296,-2.0206 5.64444,-3.0309 1.88148,-1.0103 3.90124,-1.79588 5.64444,-3.0309 1.10249,-0.7811 1.81313,-3.86611 2.78803,-2.94336 0.97492,0.92275 -4.13455,2.98463 -2.78803,2.94336 2.12903,-0.0653 3.64077,-2.29588 5.64443,-3.03091 1.79212,-0.65743 3.80852,-0.11674 5.71278,-0.17511 4.76065,-0.14592 9.52129,-0.29183 14.28195,-0.43775 0.95213,-0.0292 1.90426,-0.0584 2.85639,-0.0875 0.95213,-0.0292 2.8336,-1.03949 2.85638,-0.0875 0.0228,0.95193 -3.80852,0.11673 -2.85638,0.0875 1.90425,-0.0584 3.80852,-0.11674 5.71277,-0.17511 5.71279,-0.1751 11.42557,-0.3502 17.13834,-0.5253 0.95214,-0.0292 2.83361,-1.03949 2.85639,-0.0875 0.0228,0.95193 -3.80852,0.11673 -2.85639,0.0875 1.90426,-0.0584 3.80853,-0.11674 5.71279,-0.1751 0.95213,-0.0292 1.94591,-0.3609 2.85639,-0.0876 2.03588,0.61122 3.74524,2.06949 5.78113,2.68071 0.91046,0.27333 1.99458,-0.48717 2.85638,-0.0875 1.21878,0.56513 1.70596,2.2031 2.92473,2.76825 0.86181,0.39961 1.9946,-0.48717 2.85639,-0.0876 1.21877,0.56515 1.70598,2.20311 2.92475,2.76825 0.86179,0.39962 2.83361,-1.03948 2.85638,-0.0875 0.0228,0.95193 -3.80851,0.11674 -2.85638,0.0875 1.12916,-0.0346 13.07662,0.20947 14.28194,-0.43775 1.18996,-0.63898 1.44153,-2.90208 2.78804,-2.94335 1.34652,-0.0413 1.94983,1.84549 2.92475,2.76824 0.97491,0.92275 2.29373,1.5826 2.92473,2.76825 1.19723,2.24963 -0.9922,6.31779 0.20504,8.56741 0.63099,1.18565 2.29373,1.5826 2.92473,2.76825 0.39351,0.7394 0.23764,9.92985 0.27339,11.42321 0.0475,1.98631 0.83349,13.23041 0.34172,14.279 -0.57336,1.22257 -2.21467,1.72079 -2.78804,2.94335 -0.40542,0.86449 0.34783,1.94349 0.0684,2.85581 -0.62493,2.03998 -2.09477,3.75916 -2.71969,5.79914 -0.55897,1.82463 0.94754,3.98264 0.13668,5.71161 -0.57336,1.22257 -2.21468,1.72078 -2.78805,2.94335 -0.40541,0.86449 0.47378,1.99132 0.0684,2.8558 -0.57337,1.22257 -2.21469,1.72078 -2.78805,2.94336 -1.08788,2.31965 1.29292,6.24773 0.20504,8.5674 -0.57336,1.22256 -2.21468,1.72078 -2.78804,2.94335 -0.40543,0.86448 0.0456,1.90387 0.0683,2.8558 0.0228,0.95193 0.0456,1.90386 0.0684,2.8558 0.11391,4.75967 0.22782,9.51933 0.34173,14.27901 0.0449,1.87657 0.70367,6.9397 0.20504,8.5674 -0.62494,2.03999 -2.09477,3.75916 -2.7197,5.79915 -0.49863,1.62771 0.16013,6.69084 0.20504,8.56741 0.0475,1.98632 0.83349,13.23042 0.34173,14.27901 -0.57336,1.22256 -2.3928,1.65315 -2.78805,2.94335 0.31113,13.00042 1.35043,0.12205 -2.65135,8.65495 -0.40543,0.86448 0.0456,1.90387 0.0684,2.8558 0.0456,1.90387 0.69565,3.88698 0.13669,5.71161 -0.39524,1.2902 -2.21467,1.72078 -2.78804,2.94335 -1.08788,2.31965 1.29291,6.24773 0.20504,8.5674 -0.57336,1.22256 -2.21469,1.72078 -2.78805,2.94335 -0.82573,1.76069 1.23581,15.37412 0.41008,17.13481 -0.57336,1.22256 -2.21469,1.72078 -2.78805,2.94335 -0.41384,0.88244 0.17426,7.28127 0.20504,8.56741 0.15948,6.66352 0.31895,13.32706 0.47842,19.9906 0.0308,1.28613 0.61889,7.68496 0.20505,8.56741 -6.22351,13.27022 0.89387,-12.15465 -5.50775,8.7425 -0.55895,1.82462 0.69564,3.88698 0.13669,5.7116 -0.62493,2.04 -2.09477,3.75916 -2.7197,5.79916 -0.60789,1.98438 1.00738,6.85659 0.20504,8.5674 -0.57336,1.22257 -2.21467,1.72078 -2.78803,2.94335 -0.40544,0.86448 0.47376,1.99132 0.0684,2.8558 -0.57337,1.22257 -2.21468,1.72079 -2.78804,2.94335 -1.08788,2.31967 1.29291,6.24775 0.20503,8.56741 -0.57336,1.22257 -2.21468,1.72078 -2.78804,2.94336 -1.08788,2.31965 1.29291,6.24773 0.20503,8.56739 -0.57335,1.22257 -2.21468,1.72079 -2.78804,2.94336 -0.81085,1.72897 0.94755,3.98262 0.13669,5.7116 -0.57336,1.22257 -2.21467,1.72078 -2.78804,2.94336 -0.80234,1.7108 0.81293,6.58301 0.20504,8.56739 -0.62494,2.04 -0.79266,6.69272 -2.7197,5.79916 -1.92704,-0.89357 2.66875,-7.92774 2.7197,-5.79916 0.0939,3.92493 -1.21224,7.82187 -2.583,11.51076 -0.83019,2.23411 -9.95006,9.21015 -11.15219,11.77341 -0.40542,0.86448 0.0456,1.90387 0.0683,2.8558 0.0228,0.95193 0.0456,1.90387 0.0684,2.8558 0.11392,4.75967 0.22783,9.51934 0.34174,14.27901 0.0456,1.90387 0.69564,3.88698 0.13669,5.7116 -0.62493,2.03999 -2.09476,3.75916 -2.7197,5.79915 -0.83761,2.73424 1.17934,11.54477 0.34173,14.27901 -0.62492,2.03999 -2.09477,3.75916 -2.71969,5.79915 -0.55626,1.81581 0.28012,11.70489 0.34173,14.27901 0.2506,10.47127 0.5012,20.94254 0.7518,31.41381 0.75181,31.41382 1.50362,62.82763 2.25543,94.24144 0.29616,12.37513 0.59233,24.75027 0.88849,37.12542 0.0475,1.98631 0.83351,13.23041 0.34173,14.279 -0.57336,1.22257 -2.21468,1.72079 -2.78804,2.94335 -0.86897,1.85289 0.98475,9.10108 0.27339,11.4232 -0.62494,2.04 -2.09477,3.75916 -2.71971,5.79916 -0.7843,2.56023 1.23218,12.38031 0.34174,14.279 -0.57337,1.22257 -2.21469,1.72079 -2.78805,2.94336 -0.40543,0.86448 0.0456,1.90386 0.0683,2.8558 0.0228,0.95193 0.0456,1.90386 0.0684,2.8558 0.11391,4.75967 0.22782,9.51933 0.34174,14.27901 0.0228,0.95193 0.0456,1.90386 0.0684,2.8558 0.0228,0.95193 0.47378,1.99131 0.0684,2.85579 -0.57337,1.22258 -2.21468,1.72079 -2.78805,2.94336 -0.86897,1.85289 0.98475,9.10108 0.27339,11.42321 -0.62494,2.03998 -2.09477,3.75916 -2.71971,5.79914 -0.7954,2.59649 1.00046,5.97092 0.20505,8.56741 -0.62493,2.04 -2.09476,3.75916 -2.7197,5.79916 -0.83263,2.71798 1.29173,15.25487 0.41008,17.1348 -0.57337,1.22257 -2.21468,1.72078 -2.78805,2.94336 -0.40543,0.86448 0.0456,1.90386 0.0684,2.85579 0.0228,0.95194 0.0456,1.90387 0.0684,2.8558 0.0662,2.76689 0.93706,15.41458 0.41008,17.13481 -0.62493,2.03999 -2.09477,3.75916 -2.7197,5.79916 -0.55895,1.82462 0.0911,3.80773 0.1367,5.7116 0.0228,0.95193 0.0456,1.90386 0.0684,2.85579 0.0228,0.95194 0.47376,1.99132 0.0684,2.85581 -0.57336,1.22256 -2.21469,1.72078 -2.78805,2.94335 -0.80449,1.71541 0.97913,14.5989 0.41008,17.13481 -0.46694,2.08086 -2.09476,3.75916 -2.7197,5.79915 -0.7843,2.56023 1.23218,12.38031 0.34174,14.27901 -0.57338,1.22256 -2.21469,1.72078 -2.78805,2.94335 -1.08788,2.31966 1.29292,6.24774 0.20504,8.5674 -0.57336,1.22258 -2.21469,1.72078 -2.78805,2.94335 0.0228,0.95194 0.0456,1.90387 0.0684,2.8558 0.0228,0.95194 0.47378,1.99132 0.0683,2.85581 -0.57335,1.22256 -2.21468,1.72078 -2.78804,2.94335 -0.40543,0.86449 0.47378,1.99132 0.0683,2.8558 -0.57336,1.22257 -2.21467,1.72079 -2.78803,2.94336 -0.40543,0.86448 0.47377,1.9913 0.0684,2.8558 -0.57337,1.22257 -2.21469,1.72077 -2.78804,2.94335 -0.81086,1.72897 0.94755,3.98263 0.13669,5.7116 -1.14672,2.44514 -4.42936,3.44157 -5.57609,5.8867 -0.81086,1.72897 0.94755,3.98263 0.13669,5.71161 -0.57336,1.22257 -2.21467,1.72078 -2.78804,2.94335 -0.81086,1.72897 0.94755,3.98263 0.1367,5.7116 -0.57337,1.22257 -2.21469,1.72078 -2.78805,2.94335 -0.40543,0.86449 0.47377,1.99132 0.0683,2.8558 -0.57335,1.22257 -1.8587,1.96223 -2.78804,2.94336 -0.92935,0.98112 -1.59809,2.30438 -2.78804,2.94335 -0.84143,0.45182 -1.99459,0.48717 -2.85639,0.0875 -0.76748,-0.35587 -8.37686,-7.55813 -8.77421,-8.30475 -0.44618,-0.83839 -0.0456,-1.90387 -0.0683,-2.8558 -0.0228,-0.95193 -0.0456,-1.90387 -0.0684,-2.85581 -0.22782,-9.51933 -0.45564,-19.03867 -0.68347,-28.558 -0.0616,-2.57412 -0.89798,-12.46321 -0.34172,-14.27901 0.62492,-2.03999 2.09476,-3.75916 2.71969,-5.79915 0.49863,-1.62771 -0.16013,-6.69083 -0.20504,-8.5674 -0.15946,-6.66354 -0.31894,-13.32708 -0.47842,-19.99061 -0.22781,-9.51934 -0.45564,-19.03868 -0.68346,-28.55801 -0.0616,-2.57412 0.30056,-12.49994 -0.34172,-14.27902 -0.7216,-1.99871 -2.2715,-3.62533 -2.99308,-5.62404 -0.96717,-2.67892 0.62541,-11.60008 -0.34174,-14.27901 -0.72159,-1.99872 -2.2715,-3.62533 -2.99309,-5.62405 -0.9056,-2.50843 0.63824,-12.43764 -0.34173,-14.27901 -0.63099,-1.18565 -2.29373,-1.58259 -2.92473,-2.76825 -0.90873,-1.70752 0.49865,-15.42727 -0.41007,-17.13481 -0.63101,-1.18564 -2.29374,-1.58259 -2.92474,-2.76824 -0.44619,-0.83838 0.25436,-1.96194 -0.0683,-2.8558 -0.7216,-1.99873 -2.4273,-3.57484 -2.99308,-5.62406 -0.50607,-1.83286 0.5087,-3.92389 -0.1367,-5.71159 -0.45637,-1.26411 -2.29374,-1.5826 -2.92475,-2.76826 -1.19722,-2.24962 0.9922,-6.31778 -0.20503,-8.56739 -0.631,-1.18566 -2.29374,-1.58261 -2.92473,-2.76826 -0.44619,-0.83838 0.37783,-2.01741 -0.0683,-2.8558 -0.63099,-1.18566 -2.29374,-1.5826 -2.92473,-2.76825 -0.94929,-1.78372 0.63045,-12.45225 -0.34174,-14.27901 -6.84907,-12.86953 1.47391,12.08207 -5.91782,-8.3923 -0.82138,-2.27514 0.68295,-9.62626 -0.27338,-11.4232 -0.631,-1.18565 -2.29374,-1.58259 -2.92473,-2.76825 -0.89237,-1.67677 0.75566,-4.03484 -0.13669,-5.71161 -0.631,-1.18564 -2.29375,-1.58259 -2.92474,-2.76825 -0.3935,-0.73939 -0.23764,-9.92984 -0.27339,-11.4232 -0.0449,-1.87657 0.37071,-6.97263 -0.20503,-8.5674 -0.72159,-1.99872 -2.2715,-3.62533 -2.99309,-5.62405 -0.3227,-0.89386 -0.0456,-1.90387 -0.0684,-2.85581 -0.0456,-1.90386 0.50871,-3.92389 -0.13669,-5.71159 -0.45637,-1.26411 -2.29374,-1.5826 -2.92474,-2.76826 -1.19724,-2.24962 0.9922,-6.31778 -0.20504,-8.5674 -0.631,-1.18565 -2.29373,-1.5826 -2.92474,-2.76825 -0.81843,-1.53786 0.32746,-6.6388 -0.20503,-8.56741 -6.51268,-23.58813 0.27969,3.44122 -6.05451,-14.1039 -0.70192,-1.94424 0.67795,-6.90825 -0.20505,-8.5674 -0.63099,-1.18566 -2.29372,-1.58259 -2.92472,-2.76825 -0.94412,-1.77403 0.60238,-12.50498 -0.34174,-14.27901 -0.63099,-1.18565 -2.29374,-1.58259 -2.92473,-2.76825 -0.97028,-1.82317 0.55133,-14.4718 -0.41008,-17.13481 -0.72159,-1.99871 -2.2715,-3.62533 -2.99309,-5.62404 -0.3227,-0.89386 -0.0456,-1.90387 -0.0684,-2.8558 -0.0616,-2.57412 0.30056,-12.49994 -0.34173,-14.27901 -0.72159,-1.99872 -2.27149,-3.62533 -2.99308,-5.62405 -0.3227,-0.89385 -0.0456,-1.90387 -0.0684,-2.8558 -0.0616,-2.57412 0.30056,-12.49994 -0.34173,-14.27901 -0.72158,-1.99872 -2.2715,-3.62533 -2.99307,-5.62405 -0.64541,-1.78771 -0.0911,-3.80773 -0.13669,-5.7116 -0.1367,-5.7116 -0.27339,-11.4232 -0.41008,-17.13481 -0.0449,-1.87657 0.37071,-6.97263 -0.20504,-8.5674 -0.7216,-1.99872 -2.2715,-3.62533 -2.9931,-5.62405 -1.08436,-3.0036 0.811,-8.41961 -0.27338,-11.42321 -0.72157,-1.99872 -2.27149,-3.62533 -2.99307,-5.62405 -0.60849,-1.68543 -0.34386,-14.36792 -0.41008,-17.13481 -0.0228,-0.95193 0.25436,-1.96194 -0.0684,-2.85579 -0.72158,-1.99873 -2.2715,-3.62533 -2.99308,-5.62406 -0.60848,-1.68543 -0.34385,-14.36791 -0.41008,-17.1348 -0.0228,-0.95194 0.37785,-2.01742 -0.0683,-2.85581 -0.631,-1.18564 -2.29374,-1.58259 -2.92474,-2.76825 -0.44618,-0.83838 -0.0456,-1.90386 -0.0683,-2.85579 -0.0228,-0.95194 -0.0456,-1.90388 -0.0683,-2.85581 -0.11391,-4.75967 -0.22782,-9.51934 -0.34172,-14.279 -0.0228,-0.95194 -0.0456,-1.90387 -0.0684,-2.8558 -0.0228,-0.95193 0.37784,-2.01742 -0.0683,-2.85581 -0.631,-1.18565 -2.29374,-1.58259 -2.92474,-2.76825 -0.44618,-0.83838 -1.02048,-2.82661 -0.0684,-2.85579 0.95213,-0.0292 0.0911,3.80773 0.0684,2.85579 -0.0382,-1.59561 0.26048,-12.61094 -0.34173,-14.279 -0.72158,-1.99872 -2.27149,-3.62533 -2.99308,-5.62405 -0.9056,-2.50843 0.63823,-12.43765 -0.34173,-14.279 -0.631,-1.18566 -2.29374,-1.58261 -2.92474,-2.76826 -0.44618,-0.83838 -0.0456,-1.90387 -0.0684,-2.8558 -0.0228,-0.95193 -0.0456,-1.90387 -0.0683,-2.8558 -0.13669,-5.7116 -0.27338,-11.4232 -0.41007,-17.13481 -0.13669,-5.71159 -0.27338,-11.4232 -0.41007,-17.13481 -0.0228,-0.95193 -0.0456,-1.90386 -0.0684,-2.8558 -0.0228,-0.95193 0.37784,-2.01742 -0.0683,-2.85579 -0.631,-1.18566 -2.29374,-1.5826 -2.92475,-2.76825 -0.89235,-1.67678 0.50872,-3.92389 -0.13669,-5.71161 -0.72158,-1.99872 -2.27149,-3.62533 -2.99308,-5.62405 -0.6454,-1.78771 -0.0911,-3.80773 -0.13669,-5.7116 -0.11391,-4.75967 -0.22782,-9.51934 -0.34173,-14.27901 -0.43286,-18.08673 -0.86572,-36.17348 -1.29857,-54.26022 -0.11392,-4.75967 -0.22783,-9.51934 -0.34173,-14.279 -0.0449,-1.87657 0.37071,-6.97264 -0.20504,-8.5674 -1.44317,-3.99745 -4.54299,-7.25066 -5.98616,-11.24811 -0.70192,-1.94424 0.67795,-6.90825 -0.20504,-8.5674 -0.631,-1.18566 -2.29374,-1.5826 -2.92474,-2.76826 -0.44618,-0.83838 0.37784,-2.01741 -0.0683,-2.8558 -0.63101,-1.18565 -2.29374,-1.58259 -2.92474,-2.76824 -1.59315,-2.99356 1.45645,-2.71805 -0.1367,-5.71161 -0.63099,-1.18565 -2.29372,-1.58259 -2.92472,-2.76825 -0.44619,-0.83838 0.37783,-2.01742 -0.0684,-2.85579 -0.63099,-1.18566 -1.94982,-1.84551 -2.92474,-2.76826 -0.9749,-0.92275 -1.94982,-1.8455 -2.92472,-2.76825 -0.97492,-0.92275 -1.94983,-1.8455 -2.92474,-2.76825 -0.97491,-0.92275 -2.29374,-1.5826 -2.92473,-2.76824 -0.44619,-0.83839 -0.0456,-1.90388 -0.0683,-2.85581 -0.0228,-0.95193 -0.0456,-1.90387 -0.0684,-2.8558 -0.1139,-4.75967 -0.22781,-9.51934 11.08383,-14.62921 z"
       id="path3159" />
  </g>
</svg>
