<?xml version="1.0" encoding="UTF-8" standalone="no"?>
<!-- Created with Inkscape (http://www.inkscape.org/) -->

<svg
   xmlns:dc="http://purl.org/dc/elements/1.1/"
   xmlns:cc="http://creativecommons.org/ns#"
   xmlns:rdf="http://www.w3.org/1999/02/22-rdf-syntax-ns#"
   xmlns:svg="http://www.w3.org/2000/svg"
   xmlns="http://www.w3.org/2000/svg"
   xmlns:sodipodi="http://sodipodi.sourceforge.net/DTD/sodipodi-0.dtd"
   xmlns:inkscape="http://www.inkscape.org/namespaces/inkscape"
   width="744.09448819"
   height="1052.3622047"
   id="svg2"
   version="1.1"
   inkscape:version="0.47pre4 r22446"
   sodipodi:docname="ll3.svg">
  <defs
     id="defs4">
    <inkscape:perspective
       sodipodi:type="inkscape:persp3d"
       inkscape:vp_x="0 : 526.18109 : 1"
       inkscape:vp_y="0 : 1000 : 0"
       inkscape:vp_z="744.09448 : 526.18109 : 1"
       inkscape:persp3d-origin="372.04724 : 350.78739 : 1"
       id="perspective10" />
  </defs>
  <sodipodi:namedview
     id="base"
     pagecolor="#ffffff"
     bordercolor="#666666"
     borderopacity="1.0"
     inkscape:pageopacity="0.0"
     inkscape:pageshadow="2"
     inkscape:zoom="0.35"
     inkscape:cx="375"
     inkscape:cy="520"
     inkscape:document-units="px"
     inkscape:current-layer="layer1"
     showgrid="false"
     inkscape:window-width="841"
     inkscape:window-height="603"
     inkscape:window-x="70"
     inkscape:window-y="68"
     inkscape:window-maximized="0" />
  <metadata
     id="metadata7">
    <rdf:RDF>
      <cc:Work
         rdf:about="">
        <dc:format>image/svg+xml</dc:format>
        <dc:type
           rdf:resource="http://purl.org/dc/dcmitype/StillImage" />
        <dc:title></dc:title>
      </cc:Work>
    </rdf:RDF>
  </metadata>
  <g
     inkscape:label="Layer 1"
     inkscape:groupmode="layer"
     id="layer1">
    <path
       style="fill:none;stroke:#000000;stroke-width:1px;stroke-linecap:butt;stroke-linejoin:miter;stroke-opacity:1"
       d="m 217.14286,155.21933 c 14.28571,0 28.57143,0 42.85714,0 1.28674,0 7.7019,-0.43477 8.57143,0 1.20468,0.60233 1.57939,2.43122 2.85714,2.85714 1.85479,0.61826 17.40465,0 20,0 0.95238,0 1.95364,-0.30117 2.85714,0 2.02031,0.67343 3.69398,2.18371 5.71429,2.85714 1.612,0.53733 6.69398,0 8.57143,0 4.7619,0 9.52381,0 14.28571,0 5.71429,0 11.42857,0 17.14286,0 1.87745,0 6.95943,0.53733 8.57143,0 2.0203,-0.67343 3.80952,-1.90476 5.71428,-2.85714 1.90477,-0.95238 3.94237,-1.67586 5.71429,-2.85714 1.12066,-0.74711 1.90476,-3.80953 2.85714,-2.85715 0.95238,0.95238 -4.20401,2.85715 -2.85714,2.85715 2.12959,0 3.69398,-2.18371 5.71429,-2.85715 1.80701,-0.60234 3.80952,0 5.71428,0 4.76191,0 9.52381,0 14.28572,0 0.95238,0 1.90476,0 2.85714,0 0.95238,0 2.85714,-0.95238 2.85714,0 0,0.95238 -3.80952,0 -2.85714,0 1.90476,0 3.80952,0 5.71428,0 5.71429,0 11.42858,0 17.14286,0 0.95238,0 2.85714,-0.95238 2.85714,0 0,0.95238 -3.80952,0 -2.85714,0 1.90476,0 3.80953,0 5.71429,0 0.95238,0 1.95363,-0.30117 2.85714,0 2.02031,0.67344 3.69398,2.18371 5.71429,2.85715 0.9035,0.30116 2.0053,-0.42592 2.85714,0 1.20468,0.60233 1.65246,2.2548 2.85714,2.85714 0.85184,0.42592 2.00531,-0.42592 2.85714,0 1.20468,0.60234 1.65247,2.2548 2.85715,2.85714 0.85183,0.42592 2.85714,-0.95238 2.85714,0 0,0.95238 -3.80952,0 -2.85714,0 1.12946,0 13.06547,0.61012 14.28571,0 1.20468,-0.60234 1.51027,-2.85714 2.85714,-2.85714 1.34687,0 1.90477,1.90476 2.85715,2.85714 0.95238,0.95238 2.2548,1.65247 2.85714,2.85714 1.14286,2.28572 -1.14286,6.28572 0,8.57143 0.60234,1.20468 2.2548,1.65247 2.85714,2.85715 0.37563,0.75126 0,9.93451 0,11.42857 0,1.98725 0.51662,13.25247 0,14.28571 -0.60234,1.20468 -2.2548,1.65247 -2.85714,2.85714 -0.42592,0.85184 0.30117,1.95364 0,2.85715 -0.67344,2.0203 -2.18371,3.69398 -2.85714,5.71428 -0.60234,1.80702 0.85183,4.01062 0,5.71429 -0.60234,1.20468 -2.25481,1.65246 -2.85715,2.85714 -0.42591,0.85184 0.42592,2.00531 0,2.85714 -0.60233,1.20468 -2.2548,1.65247 -2.85714,2.85715 -1.14286,2.28571 1.14286,6.28571 0,8.57143 -0.60234,1.20467 -2.2548,1.65246 -2.85714,2.85714 -0.42592,0.85183 0,1.90476 0,2.85714 0,0.95238 0,1.90476 0,2.85714 0,4.76191 0,9.52381 0,14.28572 0,1.87745 0.53733,6.95943 0,8.57143 -0.67344,2.0203 -2.18371,3.69398 -2.85714,5.71428 -0.53734,1.612 0,6.69398 0,8.57143 0,1.98726 0.51661,13.25248 0,14.28572 -0.60234,1.20467 -2.43123,1.57939 -2.85715,2.85714 0,13.00653 1.34687,0.1634 -2.85714,8.57143 -0.42592,0.85183 0,1.90476 0,2.85714 0,1.90476 0.60234,3.90727 0,5.71429 -0.42592,1.27775 -2.2548,1.65246 -2.85714,2.85714 -1.14286,2.28571 1.14285,6.28571 0,8.57143 -0.60234,1.20467 -2.25481,1.65246 -2.85715,2.85714 -0.86746,1.73492 0.86746,15.40794 0,17.14286 -0.60233,1.20467 -2.2548,1.65246 -2.85714,2.85714 -0.43476,0.86953 0,7.28469 0,8.57143 0,6.66666 0,13.33333 0,20 0,1.28673 0.43476,7.7019 0,8.57143 -6.53801,13.07602 1.18421,-12.12405 -5.71428,8.57143 -0.60234,1.80701 0.60233,3.90727 0,5.71428 -0.67344,2.02031 -2.18371,3.69398 -2.85715,5.71429 -0.65508,1.96523 0.84289,6.88565 0,8.57143 -0.60234,1.20467 -2.2548,1.65246 -2.85714,2.85714 -0.42592,0.85183 0.42592,2.00531 0,2.85714 -0.60234,1.20468 -2.2548,1.65247 -2.85714,2.85714 -1.14286,2.28572 1.14285,6.28572 0,8.57143 -0.60234,1.20468 -2.25481,1.65247 -2.85715,2.85715 -1.14285,2.28571 1.14286,6.28571 0,8.57142 -0.60233,1.20468 -2.2548,1.65247 -2.85714,2.85715 -0.85183,1.70367 0.85184,4.01061 0,5.71428 -0.60234,1.20468 -2.2548,1.65247 -2.85714,2.85715 -0.84289,1.68577 0.65508,6.60619 0,8.57142 -0.67344,2.02031 -0.95238,6.66667 -2.85714,5.71429 -1.90477,-0.95238 2.85714,-7.84387 2.85714,-5.71429 0,3.92677 -1.39878,7.78266 -2.85714,11.42858 -0.88324,2.20808 -10.1657,8.90282 -11.42858,11.42857 -0.42591,0.85183 0,1.90476 0,2.85714 0,0.95238 0,1.90476 0,2.85714 0,4.76191 0,9.52381 0,14.28572 0,1.90476 0.60234,3.90727 0,5.71428 -0.67343,2.02031 -2.1837,3.69398 -2.85714,5.71429 -0.90262,2.70785 0.90262,11.57786 0,14.28571 -0.67343,2.02031 -2.18371,3.69398 -2.85714,5.71429 -0.59943,1.79828 0,11.71039 0,14.28571 0,10.47619 0,20.95238 0,31.42857 0,31.42858 0,62.85715 0,94.28572 0,12.38095 0,24.7619 0,37.14286 0,1.98725 0.51662,13.25247 0,14.28571 -0.60234,1.20468 -2.25481,1.65247 -2.85714,2.85714 -0.91289,1.82578 0.76657,9.12886 0,11.42857 -0.67344,2.02031 -2.18371,3.69398 -2.85715,5.71429 -0.84517,2.53552 0.93545,12.41481 0,14.28571 -0.60234,1.20468 -2.2548,1.65247 -2.85714,2.85715 -0.42592,0.85183 0,1.90476 0,2.85714 0,0.95238 0,1.90476 0,2.85714 0,4.76191 0,9.52381 0,14.28572 0,0.95238 0,1.90476 0,2.85714 0,0.95238 0.42592,2.00531 0,2.85714 -0.60234,1.20468 -2.2548,1.65247 -2.85714,2.85715 -0.91289,1.82577 0.76657,9.12885 0,11.42857 -0.67344,2.0203 -2.18371,3.69398 -2.85715,5.71428 -0.85714,2.57143 0.85715,6 0,8.57143 -0.67343,2.02031 -2.1837,3.69398 -2.85714,5.71429 -0.89725,2.69175 0.92621,15.29044 0,17.14285 -0.60234,1.20468 -2.2548,1.65247 -2.85714,2.85715 -0.42592,0.85183 0,1.90476 0,2.85714 0,0.95238 0,1.90476 0,2.85714 0,2.76819 0.56788,15.43923 0,17.14286 -0.67344,2.0203 -2.18371,3.69398 -2.85714,5.71429 -0.60234,1.80701 0,3.80952 0,5.71428 0,0.95238 0,1.90476 0,2.85714 0,0.95238 0.42591,2.00531 0,2.85715 -0.60234,1.20467 -2.25481,1.65246 -2.85715,2.85714 -0.84514,1.6903 0.62945,14.62505 0,17.14286 -0.5165,2.066 -2.1837,3.69398 -2.85714,5.71428 -0.84517,2.53552 0.93545,12.41481 0,14.28572 -0.60234,1.20467 -2.2548,1.65246 -2.85714,2.85714 -1.14286,2.28571 1.14285,6.28571 0,8.57143 -0.60234,1.20468 -2.25481,1.65246 -2.85715,2.85714 0,0.95238 0,1.90476 0,2.85714 0,0.95238 0.42592,2.00531 0,2.85715 -0.60233,1.20467 -2.2548,1.65246 -2.85714,2.85714 -0.42592,0.85184 0.42592,2.00531 0,2.85714 -0.60234,1.20468 -2.2548,1.65247 -2.85714,2.85715 -0.42592,0.85183 0.42592,2.0053 0,2.85714 -0.60234,1.20468 -2.25481,1.65246 -2.85714,2.85714 -0.85184,1.70367 0.85183,4.01062 0,5.71429 -1.20468,2.40935 -4.50961,3.30493 -5.71429,5.71428 -0.85184,1.70367 0.85184,4.01062 0,5.71429 -0.60234,1.20468 -2.2548,1.65246 -2.85714,2.85714 -0.85184,1.70367 0.85183,4.01062 0,5.71429 -0.60234,1.20467 -2.25481,1.65246 -2.85715,2.85714 -0.42591,0.85184 0.42592,2.00531 0,2.85714 -0.60233,1.20468 -1.90476,1.90476 -2.85714,2.85715 -0.95238,0.95238 -1.65246,2.2548 -2.85714,2.85714 -0.85184,0.42592 -2.00531,0.42592 -2.85714,0 -0.75861,-0.3793 -8.19213,-7.81283 -8.57143,-8.57143 -0.42592,-0.85184 0,-1.90476 0,-2.85714 0,-0.95238 0,-1.90477 0,-2.85715 0,-9.52381 0,-19.04762 0,-28.57142 0,-2.57533 -0.59943,-12.48744 0,-14.28572 0.67343,-2.0203 2.1837,-3.69398 2.85714,-5.71428 0.53733,-1.612 0,-6.69398 0,-8.57143 0,-6.66667 0,-13.33334 0,-20 0,-9.52381 0,-19.04762 0,-28.57143 0,-2.57533 0.59943,-12.48743 0,-14.28572 -0.67344,-2.0203 -2.18371,-3.69398 -2.85714,-5.71428 -0.90262,-2.70785 0.90261,-11.57786 0,-14.28572 -0.67344,-2.0203 -2.18371,-3.69398 -2.85715,-5.71428 -0.84517,-2.53552 0.93546,-12.41481 0,-14.28572 -0.60233,-1.20467 -2.2548,-1.65246 -2.85714,-2.85714 -0.86746,-1.73492 0.86746,-15.40793 0,-17.14286 -0.60234,-1.20467 -2.2548,-1.65246 -2.85714,-2.85714 -0.42592,-0.85183 0.30117,-1.95363 0,-2.85714 -0.67344,-2.02031 -2.34064,-3.64828 -2.85714,-5.71429 -0.46198,-1.84789 0.60233,-3.90727 0,-5.71428 -0.42592,-1.27776 -2.25481,-1.65247 -2.85715,-2.85715 -1.14285,-2.28571 1.14286,-6.28571 0,-8.57142 -0.60234,-1.20468 -2.2548,-1.65247 -2.85714,-2.85715 -0.42592,-0.85183 0.42592,-2.0053 0,-2.85714 -0.60234,-1.20468 -2.2548,-1.65247 -2.85714,-2.85714 -0.90617,-1.81234 0.92803,-12.42965 0,-14.28572 -6.53801,-13.07602 1.1842,12.12405 -5.71429,-8.57143 -0.76657,-2.29971 0.91289,-9.60279 0,-11.42857 -0.60234,-1.20467 -2.2548,-1.65246 -2.85714,-2.85714 -0.85184,-1.70367 0.85183,-4.01062 0,-5.71429 -0.60234,-1.20467 -2.25481,-1.65246 -2.85714,-2.85714 -0.37563,-0.75126 0,-9.93451 0,-11.42857 0,-1.87745 0.53733,-6.95943 0,-8.57143 -0.67344,-2.0203 -2.18371,-3.69398 -2.85715,-5.71428 -0.30117,-0.90351 0,-1.90477 0,-2.85715 0,-1.90476 0.60234,-3.90727 0,-5.71428 -0.42591,-1.27776 -2.2548,-1.65247 -2.85714,-2.85715 -1.14286,-2.28571 1.14286,-6.28571 0,-8.57142 -0.60234,-1.20468 -2.2548,-1.65247 -2.85714,-2.85715 -0.78127,-1.56253 0.4861,-6.62701 0,-8.57143 -5.94537,-23.78148 0.19724,3.44888 -5.71429,-14.28571 -0.65508,-1.96524 0.84289,-6.88566 0,-8.57143 -0.60234,-1.20468 -2.2548,-1.65246 -2.85714,-2.85714 -0.90124,-1.80249 0.90124,-12.48323 0,-14.28572 -0.60234,-1.20467 -2.25481,-1.65246 -2.85714,-2.85714 -0.92621,-1.85242 0.89725,-14.4511 0,-17.14286 -0.67344,-2.0203 -2.18371,-3.69398 -2.85715,-5.71428 -0.30117,-0.90351 0,-1.90476 0,-2.85714 0,-2.57533 0.59943,-12.48744 0,-14.28572 -0.67343,-2.0203 -2.1837,-3.69398 -2.85714,-5.71428 -0.30117,-0.90351 0,-1.90477 0,-2.85715 0,-2.57532 0.59943,-12.48743 0,-14.28571 -0.67344,-2.02031 -2.18371,-3.69398 -2.85714,-5.71429 -0.60234,-1.80701 0,-3.80952 0,-5.71428 0,-5.71429 0,-11.42857 0,-17.14286 0,-1.87745 0.53733,-6.95943 0,-8.57143 -0.67344,-2.0203 -2.18371,-3.69398 -2.85715,-5.71428 -1.01201,-3.03604 1.01202,-8.39254 0,-11.42858 -0.67343,-2.0203 -2.1837,-3.69398 -2.85714,-5.71428 -0.56788,-1.70363 0,-14.37467 0,-17.14286 0,-0.95238 0.30117,-1.95363 0,-2.85714 -0.67343,-2.02031 -2.18371,-3.69398 -2.85714,-5.71429 -0.56788,-1.70363 0,-14.37466 0,-17.14285 0,-0.95239 0.42592,-2.00531 0,-2.85715 -0.60234,-1.20467 -2.25481,-1.65246 -2.85714,-2.85714 -0.42592,-0.85184 0,-1.90476 0,-2.85714 0,-0.95238 0,-1.90477 0,-2.85715 0,-4.7619 0,-9.52381 0,-14.28571 0,-0.95238 0,-1.90476 0,-2.85714 0,-0.95238 0.42591,-2.00531 0,-2.85715 -0.60234,-1.20467 -2.25481,-1.65246 -2.85715,-2.85714 -0.42591,-0.85183 -0.95238,-2.85714 0,-2.85714 0.95238,0 0,3.80952 0,2.85714 0,-1.59636 0.56203,-12.59964 0,-14.28571 -0.67343,-2.02031 -2.1837,-3.69398 -2.85714,-5.71429 -0.84517,-2.53552 0.93545,-12.41481 0,-14.28571 -0.60234,-1.20468 -2.2548,-1.65247 -2.85714,-2.85715 -0.42592,-0.85183 0,-1.90476 0,-2.85714 0,-0.95238 0,-1.90476 0,-2.85714 0,-5.71429 0,-11.42857 0,-17.14286 0,-5.71428 0,-11.42857 0,-17.14286 0,-0.95238 0,-1.90476 0,-2.85714 0,-0.95238 0.42591,-2.00531 0,-2.85714 -0.60234,-1.20468 -2.25481,-1.65247 -2.85715,-2.85714 -0.85183,-1.70368 0.60234,-3.90727 0,-5.71429 -0.67343,-2.02031 -2.1837,-3.69398 -2.85714,-5.71429 -0.60234,-1.80701 0,-3.80952 0,-5.71428 0,-4.76191 0,-9.52381 0,-14.28572 0,-18.09523 0,-36.19047 0,-54.28571 0,-4.76191 0,-9.52381 0,-14.28571 0,-1.87745 0.53733,-6.95944 0,-8.57143 -1.34687,-4.04061 -4.36741,-7.38796 -5.71428,-11.42857 -0.65508,-1.96524 0.84288,-6.88566 0,-8.57143 -0.60234,-1.20468 -2.25481,-1.65247 -2.85715,-2.85715 -0.42591,-0.85183 0.42592,-2.0053 0,-2.85714 -0.60234,-1.20468 -2.2548,-1.65246 -2.85714,-2.85714 -1.52079,-3.04159 1.52079,-2.6727 0,-5.71429 -0.60234,-1.20467 -2.2548,-1.65246 -2.85714,-2.85714 -0.42592,-0.85184 0.42591,-2.00531 0,-2.85714 -0.60234,-1.20468 -1.90476,-1.90477 -2.85715,-2.85715 -0.95238,-0.95238 -1.90476,-1.90476 -2.85714,-2.85714 -0.95238,-0.95238 -1.90476,-1.90476 -2.85714,-2.85714 -0.95238,-0.95238 -2.25481,-1.65247 -2.85714,-2.85714 -0.42592,-0.85184 0,-1.90477 0,-2.85715 0,-0.95238 0,-1.90476 0,-2.85714 0,-4.76191 0,-9.52381 11.42857,-14.28571 z"
       id="path3159" />
  </g>
</svg>
