<?xml version="1.0" encoding="UTF-8" standalone="no"?>
<!-- Created with Inkscape (http://www.inkscape.org/) -->

<svg
   xmlns:dc="http://purl.org/dc/elements/1.1/"
   xmlns:cc="http://creativecommons.org/ns#"
   xmlns:rdf="http://www.w3.org/1999/02/22-rdf-syntax-ns#"
   xmlns:svg="http://www.w3.org/2000/svg"
   xmlns="http://www.w3.org/2000/svg"
   xmlns:sodipodi="http://sodipodi.sourceforge.net/DTD/sodipodi-0.dtd"
   xmlns:inkscape="http://www.inkscape.org/namespaces/inkscape"
   width="744.09448819"
   height="1052.3622047"
   id="svg2"
   version="1.1"
   inkscape:version="0.47pre4 r22446"
   sodipodi:docname="ll5.svg">
  <defs
     id="defs4">
    <inkscape:perspective
       sodipodi:type="inkscape:persp3d"
       inkscape:vp_x="0 : 526.18109 : 1"
       inkscape:vp_y="0 : 1000 : 0"
       inkscape:vp_z="744.09448 : 526.18109 : 1"
       inkscape:persp3d-origin="372.04724 : 350.78739 : 1"
       id="perspective10" />
  </defs>
  <sodipodi:namedview
     id="base"
     pagecolor="#ffffff"
     bordercolor="#666666"
     borderopacity="1.0"
     inkscape:pageopacity="0.0"
     inkscape:pageshadow="2"
     inkscape:zoom="0.35"
     inkscape:cx="375"
     inkscape:cy="520"
     inkscape:document-units="px"
     inkscape:current-layer="layer1"
     showgrid="false"
     inkscape:window-width="841"
     inkscape:window-height="603"
     inkscape:window-x="70"
     inkscape:window-y="68"
     inkscape:window-maximized="0" />
  <metadata
     id="metadata7">
    <rdf:RDF>
      <cc:Work
         rdf:about="">
        <dc:format>image/svg+xml</dc:format>
        <dc:type
           rdf:resource="http://purl.org/dc/dcmitype/StillImage" />
        <dc:title></dc:title>
      </cc:Work>
    </rdf:RDF>
  </metadata>
  <g
     inkscape:label="Layer 1"
     inkscape:groupmode="layer"
     id="layer1">
    <path
       style="fill:none;stroke:#000000;stroke-width:0.90274632px;stroke-linecap:butt;stroke-linejoin:miter;stroke-opacity:1"
       d="m 231.83299,344.9098 c 0.74366,-3.98353 -3.52748,-4.58783 -5.60096,-7.28461 -1.15784,-1.5059 -1.68742,-3.38246 -2.84526,-4.88836 -1.46458,-1.90484 -4.31164,-2.73136 -5.51132,-4.7925 -0.42415,-0.72871 0.33452,-1.7634 -0.0896,-2.49212 -6.51085,-11.18608 1.48531,10.53538 -5.60094,-7.2846 -0.30935,-0.77798 -0.0598,-1.66143 -0.0896,-2.49213 -0.91855,-0.79875 -2.1558,-1.36569 -2.75565,-2.39624 -0.42416,-0.72873 0.33454,-1.76343 -0.0896,-2.49212 -0.59985,-1.03057 -2.15582,-1.3657 -2.75566,-2.39624 -0.37408,-0.64269 -0.31164,-8.66534 -0.35851,-9.96851 -0.20913,-5.81494 -0.41826,-11.62992 -0.62738,-17.44486 -0.0589,-1.63759 0.28308,-6.08835 -0.26888,-7.47637 -0.69177,-1.73961 -2.1535,-3.14877 -2.84526,-4.88837 -0.67292,-1.69219 0.57048,-6.03426 -0.26889,-7.47638 -0.59985,-1.03056 -2.15581,-1.36569 -2.75565,-2.39623 -0.42415,-0.72872 0.33453,-1.76341 -0.0896,-2.49214 -0.59985,-1.03054 -2.15583,-1.36568 -2.75566,-2.39624 -0.84831,-1.45742 0.66905,-3.5268 -0.17925,-4.98424 -0.59982,-1.03056 -2.15582,-1.36569 -2.75566,-2.39624 -0.42413,-0.72872 0.33453,-1.7634 -0.0896,-2.49214 -0.59983,-1.03057 -2.15581,-1.3657 -2.75564,-2.39623 -0.42416,-0.72872 0.33453,-1.76342 -0.0896,-2.49214 -0.59985,-1.03056 -2.15582,-1.36567 -2.75566,-2.39623 -0.36783,-0.63194 -0.47422,-13.18634 -0.53776,-14.95275 -0.21018,-5.84447 -0.58614,1.1974 2.48679,-5.08013 0.37071,-0.75731 -0.0598,-1.66142 -0.0896,-2.49212 0.8289,-1.69338 1.44007,-3.49495 2.48675,-5.08012 0.66199,-1.00255 1.91444,-1.58545 2.57641,-2.58801 1.04668,-1.5852 1.4401,-3.49494 2.48678,-5.08014 0.66199,-1.00257 2.05214,-1.517 2.5764,-2.588 0.37071,-0.75729 -0.46034,-1.73482 -0.0896,-2.49212 1.49206,-3.04809 6.23713,-4.71593 7.72919,-7.76402 0.3707,-0.7573 -0.46032,-1.73481 -0.0896,-2.49211 0.52426,-1.071 1.71761,-1.72534 2.5764,-2.588 0.85881,-0.86267 1.71761,-1.72534 2.57641,-2.58801 3.4352,-3.45069 6.87039,-6.90136 10.30561,-10.35201 3.43519,-3.45068 6.87039,-6.90134 10.30559,-10.35203 1.71759,-1.72534 3.10827,-3.79747 5.1528,-5.17601 1.61634,-1.08983 3.62609,-1.59405 5.24241,-2.68388 2.04452,-1.37853 2.9424,-4.04439 5.15281,-5.176 0.7815,-0.4001 1.88452,0.30421 2.66603,-0.0959 1.21382,-0.62145 8.7903,-8.8299 10.3056,-10.35204 0.8588,-0.86267 1.47122,-2.02218 2.57638,-2.58799 0.78151,-0.40009 1.88453,0.30421 2.66605,-0.0959 1.39994,-0.71673 6.37281,-6.40155 7.72918,-7.76401 2.57642,-2.58801 5.15281,-5.17602 7.72921,-7.76402 0.8588,-0.86269 1.91443,-1.58545 2.5764,-2.58801 2.05159,-3.1071 1.7357,-5.64132 5.06316,-7.66814 3.49498,-1.78925 6.98992,-3.57851 10.48486,-5.36776 0.88867,-0.0319 1.8324,0.19711 2.66604,-0.0959 19.09472,-6.711665 -4.17744,0.86965 7.8188,-5.271891 1.56302,-0.80018 3.76909,0.608418 5.33206,-0.191762 1.10521,-0.56581 1.47121,-2.02219 2.57641,-2.588003 0.94792,-0.48529 11.47579,-0.412713 13.33013,-0.4794 11.55278,-0.415482 23.10555,-0.830962 34.65833,-1.246444 7.10941,-0.255681 14.2188,-0.511361 21.32823,-0.767042 3.55468,-0.12784 7.10937,-0.25568 10.66409,-0.383521 0.88866,-0.03196 2.63614,-0.926588 2.66601,-0.09588 0.0299,0.830709 -3.31553,-0.468919 -2.66601,0.09588 1.45235,1.262932 3.73122,1.32946 5.42167,2.300362 1.06913,0.614054 1.83711,1.597497 2.75566,2.396245 9.13935,7.947346 -1.34128,-2.304399 2.84527,4.888366 1.19968,2.06112 4.04673,2.88765 5.51132,4.79249 1.15783,1.50591 1.68741,3.38246 2.84526,4.88837 1.69954,2.21042 7.00603,5.02234 8.26697,7.18874 0.42414,0.72869 -0.33452,1.7634 0.0896,2.49212 0.59984,1.03055 2.15582,1.36568 2.75564,2.39625 0.42416,0.72872 -0.33452,1.76339 0.0896,2.4921 0.59984,1.03057 2.15581,1.3657 2.75566,2.39625 0.42414,0.72872 0.0597,1.66141 0.0896,2.49212 0.0299,0.8307 0.0598,1.66141 0.0896,2.49212 0.13341,3.70933 -0.28299,3.19525 2.9349,7.38051 0.73228,0.95241 1.83712,1.59749 2.75566,2.39623 2.75565,2.39625 5.5113,4.79249 8.26697,7.18874 2.75563,2.39623 5.51128,4.7925 8.26695,7.18874 1.8371,1.59749 3.37301,3.56438 5.51129,4.79248 1.69044,0.97089 3.79189,1.24302 5.42167,2.30037 2.06155,1.33744 3.44976,3.45505 5.51132,4.79247 1.62979,1.05735 3.73121,1.32947 5.42169,2.30038 1.06911,0.61404 1.61264,1.91127 2.75564,2.39624 0.8082,0.34291 1.81349,-0.32826 2.66601,-0.0959 4.89638,1.3346 5.02445,1.95492 8.17734,4.69659 0.91854,0.79876 2.15582,1.36568 2.75567,2.39625 0.37406,0.64267 0.31163,8.6653 0.35849,9.96848 0.0469,1.30319 -0.0156,9.32584 0.35851,9.96851 0.59983,1.03056 2.1558,1.36569 2.75564,2.39624 0.83939,1.44211 -0.40398,5.78419 0.26888,7.47638 3.94451,9.91937 1.74603,-0.14275 5.69055,9.77673 0.61873,1.55594 -0.66905,3.52682 0.17925,4.98425 0.59984,1.03056 2.15581,1.36568 2.75565,2.39623 0.42416,0.72873 -0.21973,1.71416 0.0896,2.49214 0.69176,1.73959 2.29852,3.10365 2.84528,4.88838 0.78327,2.55672 0.25573,7.11086 0.3585,9.96848 0.20913,5.81495 0.41826,11.62992 0.62739,17.44488 0.0635,1.76642 0.85923,14.296 0.53775,14.95272 -1.49206,3.04808 -6.23714,4.71594 -7.72919,7.76402 -0.9947,2.03207 1.26359,5.44432 0.26887,7.47637 -1.04851,2.14198 -4.1043,3.03403 -5.15278,5.17602 0.0299,0.8307 0.0598,1.66141 0.0896,2.49213 0.0299,0.8307 0.46032,1.7348 0.0896,2.49211 -0.52427,1.07099 -2.05217,1.51702 -2.57642,2.588 -0.74142,1.5146 0.92066,3.46964 0.17925,4.98426 -0.52426,1.07099 -2.05214,1.517 -2.5764,2.58798 -0.37071,0.75731 0.34232,1.69395 0.0896,2.49213 -1.13003,3.5696 -3.84354,6.59068 -4.97356,10.16028 -0.25267,0.79817 0.34233,1.69393 0.0896,2.4921 -0.56499,1.78481 -1.92175,3.29534 -2.48675,5.08014 -0.2527,0.79818 0.46031,1.73483 0.0896,2.49211 -1.04851,2.14199 -4.10428,3.03406 -5.1528,5.17602 -0.3707,0.7573 0.0598,1.66142 0.0896,2.49214 -0.82892,1.69336 -1.4401,3.49494 -2.48677,5.08011 -0.66198,1.00257 -1.91441,1.58543 -2.5764,2.58799 -1.04669,1.5852 -1.44009,3.49495 -2.48678,5.08014 -1.32396,2.00513 -4.10429,3.03404 -5.1528,5.17603 -0.3707,0.7573 0.46034,1.7348 0.0896,2.4921 -0.52425,1.07099 -2.05213,1.51701 -2.5764,2.58801 -0.10596,0.21653 0.23723,9.76013 0.3585,9.9685 0.59985,1.03056 2.15583,1.36568 2.75566,2.39624 0.8483,1.45744 -0.66905,3.52681 0.17925,4.98425 0.59984,1.03057 2.15583,1.36569 2.75566,2.39624 0.43294,0.74384 0.22851,6.35404 0.26888,7.47638 0.14938,4.15354 0.29875,8.30708 0.44813,12.46062 0.0598,1.6614 0.6846,3.38788 0.17925,4.98424 -0.56502,1.78481 -1.92178,3.29533 -2.48678,5.08014 -0.75278,2.37796 1.34389,13.3059 0.53775,14.95273 -0.52425,1.07098 -2.05212,1.51702 -2.57639,2.58801 -0.75501,1.54236 1.29277,13.41036 0.53776,14.95274 -0.52426,1.07098 -2.05214,1.51702 -2.57639,2.58801 -0.78445,1.60244 1.23252,10.85816 0.44813,12.4606 -0.52428,1.07101 -2.05216,1.51704 -2.57641,2.58802 -0.78441,1.60245 1.23253,10.85817 0.44812,12.4606 -0.52426,1.07102 -2.05214,1.51704 -2.5764,2.588 -0.99469,2.03208 1.26359,5.44434 0.26888,7.47639 -0.52427,1.07099 -1.91442,1.58544 -2.57638,2.588 -5.82857,1.46626 -1.22489,5.17746 -2.39716,7.57225 -0.52425,1.071 -2.05214,1.51702 -2.5764,2.58801 -0.7815,1.59649 1.13999,8.37202 0.3585,9.96852 -0.52426,1.07096 -2.05212,1.51699 -2.57639,2.58799 -0.99471,2.03203 1.26358,5.4443 0.26887,7.47636 -0.52426,1.07099 -2.05215,1.51702 -2.5764,2.58802 -0.74141,1.51459 0.92066,3.46965 0.17925,4.98425 -0.52425,1.07097 -2.05213,1.51702 -2.57639,2.588 -0.33136,0.67692 0.49721,13.82533 0.53775,14.95275 0.0299,0.83071 0.46033,1.73482 0.0896,2.49212 -0.52427,1.07098 -2.05214,1.51701 -2.57641,2.58798 -0.78149,1.59651 1.14001,8.37203 0.3585,9.96851 -0.52425,1.07099 -2.05213,1.51701 -2.57637,2.58801 -0.37071,0.75729 0.0597,1.66142 0.0896,2.49212 0.0868,2.41453 1.01418,13.44771 0.53776,14.95274 -0.56503,1.7848 -1.92179,3.29534 -2.48678,5.08014 -0.25269,0.79818 0.0598,1.66142 0.0896,2.49211 0.10461,2.90876 0.98781,12.98977 0.53776,14.95273 -0.41716,1.8194 -1.92177,3.29535 -2.48678,5.08016 -0.50536,1.59635 0.68461,3.38787 0.17925,4.98422 -0.56502,1.78481 -1.92175,3.29533 -2.48677,5.08015 -0.54961,1.73613 1.00249,5.97766 0.26887,7.47636 -0.52425,1.07101 -2.05214,1.51702 -2.57639,2.58801 -0.74142,1.5146 0.92066,3.46965 0.17926,4.98425 -0.52428,1.07098 -2.05217,1.51701 -2.57642,2.58801 -0.74141,1.51459 0.92067,3.46963 0.17925,4.98424 -0.52424,1.07097 -2.05213,1.51702 -2.5764,2.588 -0.74141,1.51461 0.68463,3.38787 0.17926,4.98424 -0.56502,1.78482 -1.92176,3.29532 -2.48676,5.08015 -0.50537,1.59636 0.92064,3.46963 0.17925,4.98424 -0.52427,1.07097 -2.05217,1.51701 -2.57641,2.588 -0.32147,0.65672 0.47423,13.18632 0.53776,14.95275 0.44813,12.4606 0.89627,24.92123 1.34439,37.38186 0.0598,1.6614 0.6846,3.38788 0.17926,4.98424 -0.71471,2.25762 -4.10429,3.03405 -5.1528,5.17601 -0.37841,0.77303 0.22851,6.35403 0.26887,7.47638 0.23901,6.64566 0.47801,13.2913 0.71702,19.93698 0.0299,0.8307 0.0597,1.66142 0.0896,2.49213 0.0299,0.8307 0.46033,1.73482 0.0896,2.49212 -0.52427,1.07099 -2.05217,1.51702 -2.57641,2.588 -0.3707,0.75732 0.0598,1.66142 0.0896,2.49213 0.0299,0.8307 0.0598,1.6614 0.0896,2.49212 0.14938,4.15354 0.29876,8.30709 0.44814,12.46062 0.0299,0.83072 0.0598,1.66141 0.0896,2.49212 0.0299,0.83071 0.46032,1.73482 0.0896,2.49214 -0.52425,1.07097 -2.05215,1.51703 -2.57641,2.588 -0.7414,1.51459 0.68462,3.38787 0.17925,4.98423 -0.565,1.78481 -1.92174,3.29534 -2.48676,5.08014 -0.54961,1.73614 1.0025,5.97768 0.26888,7.47637 -0.52426,1.07099 -2.05214,1.51701 -2.57639,2.58801 -0.37843,0.77304 0.22851,6.35401 0.26887,7.47636 0.23901,6.64568 0.47801,13.29133 0.71701,19.93699 0.0722,2.00625 0.86003,8.38427 0.35851,9.96851 -0.56503,1.78478 -1.92179,3.29534 -2.4868,5.08012 -0.25266,0.79819 0.46035,1.73483 0.0896,2.49213 -1.49204,3.04806 -6.23712,4.71593 -7.72918,7.764 -0.37072,0.75731 0.46034,1.73484 0.0896,2.49215 -0.66407,1.35659 -6.37281,6.40151 -7.72918,7.76399 -0.85881,0.86267 -1.71761,1.72533 -2.57642,2.58801 -0.85879,0.86266 -1.47118,2.02221 -2.57641,2.588 -0.78149,0.40009 -1.88452,-0.3042 -2.66601,0.0959 -1.1052,0.56582 -1.47121,2.02218 -2.57639,2.588 -0.79773,0.40839 -6.79743,0.24447 -7.99807,0.28764 -15.10751,0.54333 17.77349,-0.6392 2.66601,-0.0959 -7.99807,0.28764 -15.99615,0.57528 -23.99424,0.86292 -1.20066,0.0432 -7.17306,0.63768 -7.99807,0.28764 -1.14299,-0.48496 -1.61266,-1.91127 -2.75566,-2.39624 -1.61643,-0.68584 -3.62702,0.65652 -5.33204,0.19177 -1.90631,-0.51961 -6.25061,-0.60698 -5.42167,-2.30036 0.8289,-1.69337 5.48847,4.15787 5.42167,2.30036 -0.0845,-2.34959 -4.04673,-2.88764 -5.51129,-4.7925 -0.27819,-0.36177 -0.23945,-6.65794 -0.26889,-7.47635 -0.23899,-6.64568 -0.478,-13.29133 -0.71701,-19.937 -0.0404,-1.12234 0.16407,-6.73252 -0.26887,-7.47637 -0.59988,-1.03055 -2.15584,-1.36569 -2.75566,-2.39626 -0.8483,-1.45742 0.43946,-3.42829 -0.17926,-4.98423 -0.69177,-1.7396 -2.15352,-3.14878 -2.84528,-4.88838 -0.61872,-1.55592 0.66905,-3.52681 -0.17925,-4.98424 -0.59983,-1.03056 -2.15581,-1.36567 -2.75566,-2.39625 -0.42415,-0.72871 -0.0598,-1.6614 -0.0896,-2.49212 -0.14938,-4.15353 -0.29875,-8.30708 -0.44814,-12.46061 -0.0299,-0.83071 -0.0597,-1.66141 -0.0896,-2.49212 -0.0299,-0.83072 0.33452,-1.76343 -0.0896,-2.49214 -0.59983,-1.03056 -2.1558,-1.36567 -2.75564,-2.39624 -0.84831,-1.45742 0.66905,-3.52682 -0.17926,-4.98425 -1.19968,-2.06112 -4.31163,-2.73136 -5.51131,-4.79249 -1.1381,-1.95535 0.86924,-5.52102 -0.26887,-7.47636 -0.59983,-1.03057 -2.15582,-1.36569 -2.75566,-2.39625 -0.42413,-0.72871 -0.0598,-1.66142 -0.0896,-2.49213 -0.0598,-1.66141 0.30978,-3.38795 -0.17926,-4.98424 -0.54674,-1.78473 -2.15351,-3.14877 -2.84526,-4.88837 -0.61874,-1.55595 0.43948,-3.4283 -0.17925,-4.98425 -0.69178,-1.73959 -2.15353,-3.14877 -2.84529,-4.88836 -0.61873,-1.55594 0.66905,-3.52683 -0.17925,-4.98425 -0.59984,-1.03056 -2.15582,-1.36569 -2.75565,-2.39625 -0.84831,-1.45742 0.43947,-3.4283 -0.17925,-4.98424 -7.08624,-17.82 0.90993,3.90145 -5.60092,-7.28463 -0.90912,-1.56187 0.42894,-7.9883 -0.35851,-9.96848 -0.69177,-1.73961 -2.15352,-3.14877 -2.84529,-4.88836 -0.30937,-0.77797 0.33451,-1.76341 -0.0896,-2.49213 -0.59982,-1.03056 -2.15579,-1.36568 -2.75564,-2.39626 -0.83938,-1.4421 0.40397,-5.78417 -0.26888,-7.47635 -0.69176,-1.7396 -2.15352,-3.14877 -2.84527,-4.88837 -0.30938,-0.77797 0.21973,-1.71416 -0.0896,-2.49211 -0.69178,-1.73962 -2.15354,-3.14878 -2.84528,-4.88838 -0.30936,-0.77798 -0.0598,-1.66144 -0.0896,-2.49215 -0.14937,-4.15352 -0.29875,-8.30706 -0.44812,-12.4606 -0.0598,-1.66141 0.43947,-3.4283 -0.17926,-4.98426 -0.69176,-1.73959 -2.15351,-3.14877 -2.8453,-4.88836 -0.78743,-1.98017 0.55062,-8.40661 -0.3585,-9.96849 -0.59983,-1.03055 -2.1558,-1.36568 -2.75563,-2.39625 -0.31887,-0.5478 -0.33721,-9.37629 -0.35851,-9.96849 -0.20912,-5.81495 -0.41825,-11.62991 -0.62738,-17.44488 -0.0404,-1.12234 0.16407,-6.73251 -0.26887,-7.47638 -0.59986,-1.03053 -2.15584,-1.36567 -2.75566,-2.39622 -0.86386,-1.48415 0.3261,-13.46859 -0.53775,-14.95276 -0.59985,-1.03053 -2.15583,-1.36568 -2.75565,-2.39624 -0.94411,-1.622 0.41105,-12.56669 -0.53776,-14.95274 -0.69177,-1.73959 -2.29853,-3.10363 -2.84529,-4.88835 -0.55718,-1.81878 0.38537,-11.02864 -0.44812,-12.46063 -0.59984,-1.03055 -2.15582,-1.36569 -2.75565,-2.39625 -0.42416,-0.7287 -0.0598,-1.66142 -0.0896,-2.49211 -0.0377,-1.04836 -0.11454,-14.22567 -0.53775,-14.95277 -0.59984,-1.03055 -2.31815,-1.29602 -2.75565,-2.39624 -0.55654,-1.39948 -0.36372,-10.11342 -0.44813,-12.46061 -0.0589,-1.6376 0.28308,-6.08835 -0.26889,-7.47637 -0.69176,-1.73959 -2.15351,-3.14878 -2.84527,-4.88837 -1.03955,-2.61419 0.68104,-7.3543 -0.3585,-9.9685 -0.69176,-1.7396 -2.15351,-3.14875 -2.8453,-4.88837 -0.30934,-0.77796 0.33455,-1.76338 -0.0896,-2.49211 -0.59983,-1.03057 -2.15581,-1.3657 -2.75563,-2.39624 -0.84833,-1.45743 0.66903,-3.52684 -0.17925,-4.98426 -0.59985,-1.03056 -2.15584,-1.36568 -2.75566,-2.39623 -0.8483,-1.45744 0.66903,-3.52682 -0.17925,-4.98427 -0.59985,-1.03054 -2.15582,-1.36567 -2.75567,-2.39624 -0.84828,-1.45742 0.66907,-3.52681 -0.17924,-4.98424 -0.59985,-1.03056 -2.15582,-1.36569 -2.75565,-2.39625 -0.42415,-0.7287 0.21973,-1.71414 -0.0896,-2.49211 -0.69178,-1.73962 -2.29852,-3.10363 -2.84529,-4.88838 -0.5572,-1.81877 0.38536,-11.02864 -0.44813,-12.4606 -0.59984,-1.03057 -2.15582,-1.3657 -2.75566,-2.39626 -0.84829,-1.45742 0.66905,-3.52681 -0.17925,-4.98425 -0.59984,-1.03055 -2.15582,-1.36567 -2.75563,-2.39623 -0.43298,-0.74386 -0.22851,-6.35404 -0.26888,-7.47637 -0.20912,-5.81497 -0.41825,-11.62992 -0.62738,-17.44488 -0.56764,-15.78343 -1.13526,-31.56689 -1.7029,-47.35036 -0.11949,-3.32282 -0.23899,-6.64564 -0.3585,-9.96849 -0.14938,-4.15355 -4.89152,-12.30082 -0.44813,-12.46062 4.44336,-0.1598 0.29875,8.30707 -0.3585,-9.9685 z"
       id="path3029" />
  </g>
</svg>
