<?xml version="1.0" encoding="UTF-8" standalone="no"?>
<!-- Created with Inkscape (http://www.inkscape.org/) -->

<svg
   xmlns:dc="http://purl.org/dc/elements/1.1/"
   xmlns:cc="http://creativecommons.org/ns#"
   xmlns:rdf="http://www.w3.org/1999/02/22-rdf-syntax-ns#"
   xmlns:svg="http://www.w3.org/2000/svg"
   xmlns="http://www.w3.org/2000/svg"
   xmlns:sodipodi="http://sodipodi.sourceforge.net/DTD/sodipodi-0.dtd"
   xmlns:inkscape="http://www.inkscape.org/namespaces/inkscape"
   width="744.09448819"
   height="1052.3622047"
   id="svg2"
   version="1.1"
   inkscape:version="0.47pre4 r22446"
   sodipodi:docname="ll8.svg">
  <defs
     id="defs4">
    <inkscape:perspective
       sodipodi:type="inkscape:persp3d"
       inkscape:vp_x="0 : 526.18109 : 1"
       inkscape:vp_y="0 : 1000 : 0"
       inkscape:vp_z="744.09448 : 526.18109 : 1"
       inkscape:persp3d-origin="372.04724 : 350.78739 : 1"
       id="perspective10" />
  </defs>
  <sodipodi:namedview
     id="base"
     pagecolor="#ffffff"
     bordercolor="#666666"
     borderopacity="1.0"
     inkscape:pageopacity="0.0"
     inkscape:pageshadow="2"
     inkscape:zoom="0.35"
     inkscape:cx="375"
     inkscape:cy="520"
     inkscape:document-units="px"
     inkscape:current-layer="layer1"
     showgrid="false"
     inkscape:window-width="841"
     inkscape:window-height="603"
     inkscape:window-x="70"
     inkscape:window-y="68"
     inkscape:window-maximized="0" />
  <metadata
     id="metadata7">
    <rdf:RDF>
      <cc:Work
         rdf:about="">
        <dc:format>image/svg+xml</dc:format>
        <dc:type
           rdf:resource="http://purl.org/dc/dcmitype/StillImage" />
        <dc:title></dc:title>
      </cc:Work>
    </rdf:RDF>
  </metadata>
  <g
     inkscape:label="Layer 1"
     inkscape:groupmode="layer"
     id="layer1">
    <path
       style="fill:none;stroke:#000000;stroke-width:0.90274632px;stroke-linecap:butt;stroke-linejoin:miter;stroke-opacity:1"
       d="m 223.81435,351.30342 c 0.50373,-4.02092 -3.79594,-4.36831 -6.02722,-6.93605 -1.24596,-1.43385 -1.88699,-3.27532 -3.13295,-4.70916 -1.57604,-1.8137 -4.4675,-2.46821 -5.78848,-4.45379 -0.46703,-0.702 0.2283,-1.78027 -0.23873,-2.48228 -7.16917,-10.77602 2.11368,10.4275 -6.0272,-6.93604 -0.3554,-0.75806 -0.15916,-1.65487 -0.23873,-2.48229 -0.96475,-0.7423 -2.23373,-1.23411 -2.89423,-2.22688 -0.46705,-0.70202 0.22831,-1.78031 -0.23873,-2.48228 -0.6605,-0.99279 -2.23375,-1.23412 -2.89424,-2.22689 -0.4119,-0.61913 -0.8301,-8.63111 -0.95494,-9.92913 -0.55705,-5.79198 -1.1141,-11.58399 -1.67114,-17.37597 -0.15688,-1.63112 -0.0821,-6.09437 -0.71621,-7.44684 -0.79472,-1.69505 -2.33823,-3.01413 -3.13295,-4.70917 -0.77307,-1.64885 0.20803,-6.0576 -0.71621,-7.44685 -0.6605,-0.99278 -2.23374,-1.23411 -2.89423,-2.22688 -0.46704,-0.702 0.22831,-1.78028 -0.23873,-2.48229 -0.6605,-0.99276 -2.23376,-1.2341 -2.89424,-2.22689 -0.93408,-1.40399 0.45661,-3.56054 -0.47747,-4.96455 -0.66047,-0.99278 -2.23375,-1.23411 -2.89424,-2.22688 -0.46701,-0.70201 0.22831,-1.78028 -0.23873,-2.4823 -0.66048,-0.99279 -2.23374,-1.23412 -2.89421,-2.22688 -0.46705,-0.702 0.2283,-1.78029 -0.23874,-2.48229 -0.6605,-0.99278 -2.23375,-1.2341 -2.89424,-2.22688 -0.40502,-0.60877 -1.26319,-13.13426 -1.43241,-14.89369 -0.55987,-5.82139 -0.51337,1.23036 2.17804,-5.21996 0.32468,-0.77815 -0.15916,-1.65486 -0.23874,-2.48228 0.72599,-1.73999 1.22815,-3.57493 2.17801,-5.21994 0.60075,-1.04041 1.81604,-1.69728 2.41677,-2.73769 0.94985,-1.64504 1.22818,-3.57492 2.17803,-5.21996 0.60075,-1.04042 1.95759,-1.6372 2.41676,-2.73767 0.32469,-0.77814 -0.56342,-1.70414 -0.23873,-2.48228 1.30681,-3.13199 5.94347,-5.08105 7.25028,-8.21303 0.32467,-0.77815 -0.5634,-1.70413 -0.23874,-2.48227 0.45917,-1.10048 1.61119,-1.82512 2.41676,-2.73767 0.8056,-0.91256 1.61119,-1.82512 2.41677,-2.73768 3.22235,-3.65025 6.44469,-7.30049 9.66706,-10.9507 3.22234,-3.65024 6.44469,-7.30046 9.66704,-10.95071 1.61116,-1.82512 2.87523,-3.97683 4.83352,-5.47535 1.54816,-1.18469 3.5241,-1.80838 5.07225,-2.99307 1.95828,-1.49851 2.69487,-4.21336 4.83353,-5.47534 0.75613,-0.44619 1.89936,0.19079 2.6555,-0.25539 1.17442,-0.69304 8.24564,-9.34056 9.66705,-10.95072 0.80558,-0.91256 1.34745,-2.10667 2.41674,-2.73766 0.75614,-0.44619 1.89937,0.19078 2.65552,-0.25539 1.3545,-0.79929 5.97794,-6.77176 7.25027,-8.21302 2.41678,-2.73768 4.83353,-5.47536 7.25029,-8.21303 0.80559,-0.91258 1.81603,-1.69727 2.41676,-2.73768 1.86181,-3.22441 1.39469,-5.73516 4.59478,-7.95764 3.38153,-1.99538 6.76303,-3.99076 10.14452,-5.98613 0.88517,-0.0851 1.84092,0.087 2.65551,-0.2554 18.65844,-7.843318 -4.11785,1.11831 7.489,-5.730741 1.51228,-0.892362 3.79876,0.381571 5.311,-0.510789 1.06934,-0.630993 1.34745,-2.10668 2.41677,-2.737674 0.91715,-0.541196 11.43047,-1.099332 13.27748,-1.276968 11.50716,-1.106707 23.0143,-2.213412 34.52145,-3.320119 7.08133,-0.68105 14.16264,-1.362099 21.24399,-2.043151 3.54065,-0.340524 7.0813,-0.681048 10.62198,-1.021574 0.88515,-0.08513 2.5759,-1.08282 2.65548,-0.255393 0.0796,0.827427 -3.33767,-0.269488 -2.65548,0.255393 1.52538,1.173674 3.80415,1.103586 5.54972,1.971492 1.10399,0.548915 1.92949,1.484593 2.89424,2.226889 9.59895,7.385665 -1.4769,-2.219924 3.13295,4.709171 1.32098,1.985557 4.21243,2.640074 5.78848,4.453774 1.24595,1.43386 1.88698,3.27532 3.13295,4.70917 1.82888,2.10466 7.29427,4.59369 8.68271,6.68067 0.46702,0.70198 -0.2283,1.78027 0.23873,2.48228 0.66048,0.99277 2.23374,1.2341 2.89421,2.22689 0.46705,0.70201 -0.22829,1.78027 0.23874,2.48226 0.66049,0.99279 2.23374,1.23412 2.89424,2.2269 0.46703,0.702 0.15915,1.65484 0.23873,2.48227 0.0796,0.82742 0.15916,1.65485 0.23874,2.48228 0.35534,3.69468 -0.0911,3.20646 3.3717,7.19147 0.78801,0.90684 1.9295,1.48458 2.89423,2.22687 2.89423,2.2269 5.78846,4.45378 8.68271,6.68067 2.89421,2.22688 5.78844,4.45379 8.68269,6.68067 1.92949,1.48459 3.58045,3.35595 5.78845,4.45377 1.74556,0.8679 3.85953,1.01367 5.54972,1.9715 2.13795,1.21156 3.65051,3.24222 5.78847,4.45376 1.6902,0.95783 3.80415,1.1036 5.54974,1.97151 1.10397,0.5489 1.72423,1.81125 2.89422,2.22689 0.82729,0.29388 1.79058,-0.4363 2.65548,-0.25539 4.96753,1.03893 5.13253,1.65047 8.44397,4.19837 0.96474,0.7423 2.23375,1.2341 2.89425,2.22689 0.41188,0.61911 0.83009,8.63108 0.95493,9.92911 0.12484,1.29804 0.54305,9.31003 0.95494,9.92914 0.66048,0.99278 2.23373,1.23411 2.89422,2.22688 0.92426,1.38925 -0.0568,5.798 0.71621,7.44685 4.53156,9.6653 1.73434,-0.24707 6.26592,9.41834 0.71082,1.51608 -0.4566,3.56056 0.47747,4.96456 0.66049,0.99278 2.23374,1.2341 2.89423,2.22688 0.46704,0.70201 -0.11667,1.72424 0.23874,2.48229 0.79471,1.69504 2.48029,2.96041 3.13296,4.70918 0.93501,2.50522 0.68119,7.08278 0.95494,9.92911 0.55705,5.79199 1.1141,11.58399 1.67115,17.37598 0.16921,1.75945 1.71397,14.21887 1.4324,14.89367 -1.30681,3.13198 -5.94347,5.08105 -7.25028,8.21303 -0.8712,2.088 1.58742,5.35886 0.7162,7.44684 -0.91833,2.20094 -3.9152,3.27442 -4.8335,5.47536 0.0796,0.82742 0.15915,1.65485 0.23873,2.48229 0.0796,0.82742 0.5634,1.70412 0.23874,2.48227 -0.45918,1.10047 -1.95762,1.63721 -2.41678,2.73767 -0.64937,1.55629 1.12683,3.40827 0.47747,4.96457 -0.45917,1.10047 -1.95759,1.6372 -2.41676,2.73766 -0.32469,0.77815 0.44316,1.6704 0.23873,2.48228 -0.91419,3.63088 -3.44188,6.80906 -4.35606,10.43994 -0.20441,0.81187 0.44317,1.67038 0.23873,2.48226 -0.45708,1.81544 -1.72092,3.40453 -2.17801,5.21996 -0.20443,0.81189 0.5634,1.70415 0.23873,2.48227 -0.91833,2.20095 -3.91518,3.27445 -4.83352,5.47536 -0.32468,0.77815 0.15915,1.65486 0.23873,2.4823 -0.72601,1.73997 -1.22818,3.57492 -2.17803,5.21994 -0.60074,1.04042 -1.81601,1.69725 -2.41676,2.73766 -0.94986,1.64505 -1.22817,3.57493 -2.17803,5.21997 -1.20148,2.08083 -3.91519,3.27442 -4.83352,5.47537 -0.32468,0.77814 0.56342,1.70411 0.23873,2.48226 -0.45916,1.10047 -1.95758,1.6372 -2.41676,2.73768 -0.0928,0.22249 0.8214,9.7284 0.95494,9.92913 0.6605,0.99278 2.23375,1.2341 2.89423,2.22688 0.93408,1.40401 -0.4566,3.56055 0.47747,4.96457 0.66049,0.99279 2.23376,1.23411 2.89424,2.22688 0.47672,0.71657 0.60869,6.32894 0.71621,7.44685 0.39789,4.13714 0.79578,8.27427 1.19367,12.41141 0.15916,1.65484 0.88629,3.34079 0.47747,4.96455 -0.4571,1.81545 -1.72095,3.40452 -2.17804,5.21997 -0.60899,2.41878 2.13846,13.20152 1.43241,14.89368 -0.45917,1.10045 -1.95758,1.63721 -2.41676,2.73768 -0.66127,1.58481 2.09369,13.30885 1.43241,14.89368 -0.45917,1.10046 -1.95759,1.63721 -2.41675,2.73768 -0.68706,1.64655 1.88068,10.76484 1.19368,12.41139 -0.45919,1.10049 -1.95762,1.63723 -2.41678,2.73769 -0.68702,1.64655 1.88069,10.76485 1.19367,12.41139 -0.45917,1.10049 -1.95759,1.63723 -2.41677,2.73767 -0.87119,2.08801 1.58742,5.35888 0.71621,7.44686 -0.45918,1.10047 -1.81602,1.69726 -2.41674,2.73767 -5.73028,1.81274 -0.91258,5.24153 -1.93931,7.70223 -0.45916,1.10048 -1.95759,1.63722 -2.41676,2.73768 -0.68447,1.64044 1.6394,8.28871 0.95494,9.92915 -0.45917,1.10044 -1.95758,1.63719 -2.41676,2.73766 -0.87121,2.08797 1.58741,5.35885 0.7162,7.44684 -0.45917,1.10047 -1.9576,1.63721 -2.41676,2.73769 -0.64936,1.55628 1.12683,3.40827 0.47747,4.96456 -0.45917,1.10045 -1.95759,1.63721 -2.41676,2.73767 -0.29022,0.69556 1.32441,13.77073 1.43241,14.8937 0.0796,0.82742 0.56341,1.70413 0.23873,2.48227 -0.45918,1.10046 -1.95759,1.63721 -2.41677,2.73766 -0.68446,1.64045 1.63942,8.28871 0.95494,9.92914 -0.45916,1.10046 -1.95759,1.6372 -2.41674,2.73767 -0.32468,0.77814 0.15915,1.65486 0.23873,2.48228 0.2313,2.405 1.81783,13.36282 1.43241,14.89369 -0.45711,1.81543 -1.72096,3.40453 -2.17803,5.21996 -0.20443,0.81189 0.15916,1.65486 0.23873,2.48227 0.27865,2.89727 1.76408,12.90728 1.43241,14.89368 -0.30743,1.84112 -1.72094,3.40454 -2.17803,5.21998 -0.40884,1.62376 0.8863,3.34079 0.47746,4.96454 -0.4571,1.81545 -1.72092,3.40452 -2.17802,5.21998 -0.44463,1.76593 1.35873,5.90688 0.7162,7.44683 -0.45916,1.10049 -1.95759,1.63721 -2.41675,2.73768 -0.64937,1.55629 1.12682,3.40828 0.47747,4.96456 -0.45919,1.10046 -1.95762,1.63721 -2.41678,2.73769 -0.64936,1.55627 1.12684,3.40825 0.47747,4.96455 -0.45915,1.10045 -1.95758,1.63721 -2.41676,2.73767 -0.64936,1.5563 0.88632,3.34078 0.47747,4.96456 -0.4571,1.81545 -1.72093,3.40451 -2.17801,5.21997 -0.40885,1.62377 1.12681,3.40826 0.47747,4.96456 -0.45918,1.10045 -1.95762,1.6372 -2.41677,2.73767 -0.28156,0.6748 1.26319,13.13424 1.43241,14.89369 1.19367,12.41139 2.38735,24.82281 3.58102,37.23422 0.15916,1.65484 0.88629,3.3408 0.47747,4.96456 -0.5782,2.29637 -3.91519,3.27443 -4.83352,5.47535 -0.33143,0.79431 0.60868,6.32893 0.7162,7.44685 0.63663,6.61941 1.27325,13.23881 1.90988,19.85824 0.0796,0.82742 0.15915,1.65486 0.23873,2.48229 0.0796,0.82742 0.56342,1.70413 0.23874,2.48227 -0.45918,1.10047 -1.95762,1.63722 -2.41677,2.73768 -0.32467,0.77816 0.15916,1.65485 0.23874,2.48228 0.0796,0.82742 0.15915,1.65484 0.23873,2.48228 0.39789,4.13714 0.79579,8.27428 1.19368,12.41141 0.0796,0.82743 0.15915,1.65485 0.23873,2.48227 0.0796,0.82743 0.5634,1.70414 0.23874,2.4823 -0.45916,1.10045 -1.9576,1.63722 -2.41678,2.73767 -0.64935,1.55628 0.88632,3.34078 0.47747,4.96455 -0.45708,1.81544 -1.72091,3.40453 -2.17801,5.21997 -0.44464,1.76594 1.35874,5.9069 0.7162,7.44684 -0.45917,1.10047 -1.95759,1.6372 -2.41675,2.73768 -0.33145,0.79432 0.60868,6.32891 0.7162,7.44683 0.63663,6.61943 1.27325,13.23884 1.90988,19.85825 0.19219,1.99832 1.36067,8.3177 0.95494,9.92914 -0.45711,1.81542 -1.72096,3.40453 -2.17805,5.21995 -0.2044,0.81189 0.56343,1.70414 0.23873,2.48228 -1.3068,3.13196 -5.94346,5.08105 -7.25027,8.21302 -0.32469,0.77815 0.56342,1.70415 0.23873,2.4823 -0.58162,1.39393 -5.97794,6.77173 -7.25027,8.21301 -0.80559,0.91256 -1.61118,1.82511 -2.41678,2.73768 -0.80558,0.91255 -1.34741,2.10669 -2.41677,2.73767 -0.75612,0.44618 -1.89936,-0.19078 -2.65548,0.25539 -1.06933,0.631 -1.34745,2.10667 -2.41675,2.73767 -0.77184,0.45544 -6.77059,0.65117 -7.96649,0.76618 -15.04784,1.44724 17.7033,-1.70262 2.65549,-0.25539 -7.96649,0.76618 -15.93298,1.53236 -23.89948,2.29854 -1.19592,0.11502 -7.12199,1.06618 -7.96648,0.76618 -1.16999,-0.41563 -1.72424,-1.81125 -2.89424,-2.22688 -1.65461,-0.58779 -3.58118,0.87258 -5.31098,0.51079 -1.93401,-0.40449 -6.27574,-0.2315 -5.54972,-1.97149 0.72599,-1.73998 5.72766,3.82167 5.54972,1.97149 -0.22508,-2.34031 -4.21242,-2.64007 -5.78845,-4.45378 -0.29936,-0.34446 -0.63781,-6.63165 -0.71621,-7.44683 -0.63662,-6.61943 -1.27325,-13.23883 -1.90988,-19.85826 -0.10751,-1.1179 -0.23948,-6.73025 -0.7162,-7.44684 -0.66053,-0.99277 -2.23377,-1.23411 -2.89424,-2.2269 -0.93407,-1.40399 0.23333,-3.44846 -0.47747,-4.96455 -0.79473,-1.69504 -2.33826,-3.01413 -3.13297,-4.70918 -0.71081,-1.51606 0.4566,-3.56055 -0.47747,-4.96455 -0.66048,-0.99278 -2.23374,-1.23409 -2.89424,-2.22689 -0.46703,-0.702 -0.15915,-1.65484 -0.23873,-2.48228 -0.39789,-4.13713 -0.79578,-8.27427 -1.19368,-12.4114 -0.0796,-0.82743 -0.15915,-1.65485 -0.23873,-2.48228 -0.0796,-0.82743 0.2283,-1.7803 -0.23874,-2.48229 -0.66048,-0.99278 -2.23373,-1.2341 -2.89422,-2.22689 -0.93408,-1.40399 0.45661,-3.56056 -0.47747,-4.96456 -1.32098,-1.98556 -4.46749,-2.46821 -5.78847,-4.45378 -1.25318,-1.88367 0.53699,-5.56317 -0.7162,-7.44683 -0.66048,-0.99279 -2.23375,-1.23411 -2.89424,-2.22689 -0.46701,-0.702 -0.15915,-1.65486 -0.23873,-2.48229 -0.15916,-1.65485 0.1063,-3.40042 -0.47747,-4.96456 -0.65266,-1.74877 -2.33825,-3.01413 -3.13295,-4.70917 -0.71083,-1.51609 0.23335,-3.44847 -0.47747,-4.96456 -0.79473,-1.69504 -2.33826,-3.01413 -3.13297,-4.70916 -0.71082,-1.51609 0.4566,-3.56058 -0.47747,-4.96457 -0.66049,-0.99278 -2.23375,-1.23411 -2.89423,-2.22689 -0.93408,-1.404 0.23334,-3.44847 -0.47747,-4.96456 -8.14087,-17.36356 1.14198,3.83995 -6.02719,-6.93607 -1.00103,-1.50462 -0.0503,-7.99965 -0.95494,-9.92911 -0.79472,-1.69505 -2.33825,-3.01413 -3.13298,-4.70916 -0.35541,-0.75805 0.22829,-1.78028 -0.23874,-2.48229 -0.66047,-0.99278 -2.23371,-1.2341 -2.89422,-2.2269 -0.92425,-1.38924 0.0568,-5.79799 -0.7162,-7.44683 -0.79471,-1.69504 -2.33825,-3.01413 -3.13296,-4.70917 -0.35542,-0.75804 0.11667,-1.72424 -0.23874,-2.48227 -0.79473,-1.69506 -2.33827,-3.01413 -3.13296,-4.70918 -0.35541,-0.75805 -0.15916,-1.65487 -0.23874,-2.4823 -0.39789,-4.13712 -0.79578,-8.27425 -1.19367,-12.41139 -0.15916,-1.65485 0.23334,-3.44847 -0.47747,-4.96458 -0.79472,-1.69503 -2.33825,-3.01412 -3.13299,-4.70915 -0.90462,-1.92946 0.0461,-8.4245 -0.95494,-9.92912 -0.66048,-0.99278 -2.23372,-1.23411 -2.89421,-2.2269 -0.3511,-0.52772 -0.89821,-9.33926 -0.95494,-9.92912 -0.55704,-5.79198 -1.11409,-11.58398 -1.67114,-17.37598 -0.10751,-1.11791 -0.23948,-6.73025 -0.7162,-7.44685 -0.6605,-0.99275 -2.23376,-1.23409 -2.89423,-2.22687 -0.95121,-1.42974 -0.48121,-13.46394 -1.43241,-14.8937 -0.66049,-0.99275 -2.23376,-1.2341 -2.89423,-2.22688 -1.03956,-1.56254 -0.34238,-12.56875 -1.43241,-14.89369 -0.79472,-1.69503 -2.4803,-2.96038 -3.13297,-4.70915 -0.66512,-1.78214 -0.2759,-11.03192 -1.19367,-12.41142 -0.66049,-0.99277 -2.23375,-1.23411 -2.89423,-2.22689 -0.46704,-0.70199 -0.15916,-1.65486 -0.23874,-2.48227 -0.10043,-1.04422 -0.96641,-14.19326 -1.43241,-14.89371 -0.66049,-0.99277 -2.39161,-1.15484 -2.89423,-2.22688 -0.63936,-1.36364 -0.96882,-10.07348 -1.19367,-12.4114 -0.15688,-1.63113 -0.0821,-6.09438 -0.71621,-7.44684 -0.79472,-1.69504 -2.33825,-3.01414 -3.13296,-4.70917 -1.19427,-2.54724 0.23932,-7.38189 -0.95494,-9.92913 -0.79471,-1.69505 -2.33824,-3.01411 -3.13298,-4.70917 -0.35539,-0.75804 0.22832,-1.78026 -0.23873,-2.48227 -0.66048,-0.99279 -2.23374,-1.23412 -2.89421,-2.22689 -0.9341,-1.404 0.45658,-3.56058 -0.47747,-4.96457 -0.6605,-0.99278 -2.23377,-1.2341 -2.89424,-2.22687 -0.93407,-1.40402 0.45659,-3.56057 -0.47747,-4.96459 -0.66049,-0.99276 -2.23374,-1.23409 -2.89424,-2.22688 -0.93406,-1.404 0.45662,-3.56056 -0.47746,-4.96456 -0.6605,-0.99278 -2.23375,-1.23411 -2.89423,-2.22689 -0.46704,-0.70199 0.11666,-1.72423 -0.23873,-2.48227 -0.79473,-1.69506 -2.48029,-2.96038 -3.13298,-4.70918 -0.66513,-1.78213 -0.27591,-11.03192 -1.19367,-12.41139 -0.66049,-0.99279 -2.23375,-1.23412 -2.89424,-2.2269 -0.93406,-1.40399 0.45661,-3.56055 -0.47747,-4.96456 -0.66049,-0.99278 -2.23374,-1.2341 -2.8942,-2.22688 -0.47676,-0.71659 -0.60869,-6.32894 -0.71621,-7.44684 -0.55704,-5.79201 -1.11409,-11.58399 -1.67114,-17.37598 -1.51199,-15.7211 -3.02397,-31.44222 -4.53596,-47.16335 -0.31831,-3.3097 -0.63662,-6.6194 -0.95494,-9.92912 -0.39789,-4.13715 -5.61951,-11.98575 -1.19367,-12.41141 4.42581,-0.42565 0.79578,8.27426 -0.95494,-9.92913 z"
       id="path3029" />
  </g>
</svg>
