<?xml version="1.0" encoding="UTF-8" standalone="no"?>
<!-- Created with Inkscape (http://www.inkscape.org/) -->

<svg
   xmlns:dc="http://purl.org/dc/elements/1.1/"
   xmlns:cc="http://creativecommons.org/ns#"
   xmlns:rdf="http://www.w3.org/1999/02/22-rdf-syntax-ns#"
   xmlns:svg="http://www.w3.org/2000/svg"
   xmlns="http://www.w3.org/2000/svg"
   xmlns:sodipodi="http://sodipodi.sourceforge.net/DTD/sodipodi-0.dtd"
   xmlns:inkscape="http://www.inkscape.org/namespaces/inkscape"
   width="744.09448819"
   height="1052.3622047"
   id="svg2"
   version="1.1"
   inkscape:version="0.47pre4 r22446"
   sodipodi:docname="lr7.svg">
  <defs
     id="defs4">
    <inkscape:perspective
       sodipodi:type="inkscape:persp3d"
       inkscape:vp_x="0 : 526.18109 : 1"
       inkscape:vp_y="0 : 1000 : 0"
       inkscape:vp_z="744.09448 : 526.18109 : 1"
       inkscape:persp3d-origin="372.04724 : 350.78739 : 1"
       id="perspective10" />
  </defs>
  <sodipodi:namedview
     id="base"
     pagecolor="#ffffff"
     bordercolor="#666666"
     borderopacity="1.0"
     inkscape:pageopacity="0.0"
     inkscape:pageshadow="2"
     inkscape:zoom="0.35"
     inkscape:cx="375"
     inkscape:cy="520"
     inkscape:document-units="px"
     inkscape:current-layer="layer1"
     showgrid="false"
     inkscape:window-width="841"
     inkscape:window-height="603"
     inkscape:window-x="325"
     inkscape:window-y="80"
     inkscape:window-maximized="0" />
  <metadata
     id="metadata7">
    <rdf:RDF>
      <cc:Work
         rdf:about="">
        <dc:format>image/svg+xml</dc:format>
        <dc:type
           rdf:resource="http://purl.org/dc/dcmitype/StillImage" />
        <dc:title></dc:title>
      </cc:Work>
    </rdf:RDF>
  </metadata>
  <g
     inkscape:label="Layer 1"
     inkscape:groupmode="layer"
     id="layer1">
    <path
       style="fill:none;stroke:#000000;stroke-width:0.99992752px;stroke-linecap:butt;stroke-linejoin:miter;stroke-opacity:1"
       d="m 424.1888,340.93359 c 0.44155,-2.27968 -0.66004,-12.96534 0,-14.28571 0.60224,-1.20467 2.25449,-1.65247 2.85674,-2.85714 0.90111,-1.80249 -0.90111,-12.48324 0,-14.28573 0.60224,-1.20466 2.25447,-1.65244 2.85672,-2.85713 0.89777,-1.79578 -0.89775,-9.63279 0,-11.42857 0.60224,-1.20468 2.25448,-1.65247 2.85672,-2.85715 0.91277,-1.82577 -0.76644,-9.12885 0,-11.42858 0.67335,-2.0203 2.34031,-3.64827 2.85673,-5.71427 0.46193,-1.84789 -0.60223,-3.90727 0,-5.71429 0.85172,-2.55551 4.50897,-3.30493 5.71347,-5.71429 0.51656,-1.03323 0,-12.29845 0,-14.28572 0,-1.49406 0.37558,-10.67731 0,-11.42857 -1.26602,-2.53239 -6.8365,-5.97053 -8.5702,-8.57143 -1.1811,-1.77192 -1.67561,-3.94236 -2.85672,-5.71428 -0.747,-1.12067 -1.90448,-1.90477 -2.85672,-2.85715 -2.85674,-2.85714 -5.71346,-5.71428 -8.57018,-8.57142 -0.95225,-0.95239 -1.90449,-1.90477 -2.85674,-2.85715 -0.95224,-0.95239 -1.65222,-2.2548 -2.85672,-2.85715 -0.85171,-0.42592 -2.00503,0.42592 -2.85673,0 -1.49105,-0.74562 -4.22242,-4.96865 -5.71347,-5.71428 -0.8517,-0.42591 -1.95334,0.30116 -2.85672,0 -2.02002,-0.67343 -3.69344,-2.1837 -5.71346,-2.85715 -0.90337,-0.30116 -2.00501,0.42592 -2.85672,0 -1.20451,-0.60234 -1.65223,-2.25479 -2.85673,-2.85713 -0.85172,-0.42592 -1.95336,0.30117 -2.85672,0 -2.02003,-0.67345 -3.69346,-2.18372 -5.71347,-2.85714 -1.80676,-0.60234 -4.01002,0.85182 -5.71346,0 -1.2045,-0.60234 -1.65223,-2.25481 -2.85673,-2.85716 -0.8517,-0.42592 -1.90448,0 -2.85672,0 -0.95224,0 -1.90448,0 -2.85673,0 -6.6657,0 -13.33141,0 -19.9971,0 -5.71346,0 -11.42691,0 -17.14036,0 -1.87719,0 -6.95843,-0.53732 -8.57019,0 -20.69248,6.8985 4.50394,-0.82372 -8.57019,5.7143 -0.8517,0.42591 -2.00502,-0.42592 -2.85673,0 -1.2045,0.60234 -1.65223,2.25479 -2.85672,2.85713 -1.83052,0.9154 -15.36625,-0.88718 -17.14037,0 -1.2045,0.60235 -1.65223,2.25481 -2.85672,2.85715 -0.85172,0.42592 -2.85675,-0.95239 -2.85675,0 0,1.17283 14.8575,-3.04845 -2.85672,2.85714 -1.70339,0.56787 -14.37258,0 -17.14037,0 -8.57019,0 -17.14036,0 -25.71055,0 -1.49384,0 -10.67577,0.37563 -11.42691,0 -1.20451,-0.60233 -1.65223,-2.25481 -2.85675,-2.85714 -1.80221,-0.90124 -12.48141,0.90125 -14.28363,0 -1.2045,-0.60234 -1.65223,-2.2548 -2.85672,-2.85715 -0.85172,-0.42591 -2.00503,0.42592 -2.85673,0 -1.2045,-0.60234 -1.65222,-2.25479 -2.85673,-2.85713 -0.85172,-0.42592 -2.00502,0.42591 -2.85672,0 -1.20451,-0.60235 -1.73624,-2.11005 -2.85674,-2.85714 -1.77166,-1.18129 -3.80897,-1.90478 -5.71346,-2.85716 -1.90448,-0.95238 -3.69343,-2.18371 -5.71346,-2.85713 -1.80674,-0.60234 -4.01003,0.85184 -5.71345,0 -1.2045,-0.60234 -1.65222,-2.25481 -2.85673,-2.85714 -1.70342,-0.85185 -4.01003,0.85182 -5.71345,0 -1.20451,-0.60235 -1.65223,-2.25481 -2.85672,-2.85716 -0.75116,-0.37563 -9.93309,0 -11.42693,0 -2.87687,0 -15.56054,-0.52668 -17.14036,0 -1.27758,0.42592 -1.65223,2.25481 -2.85673,2.85716 -1.87063,0.93545 -11.74849,-0.84518 -14.28364,0 -2.02002,0.67343 -3.69346,2.18369 -5.71347,2.85714 -2.29938,0.76657 -9.60139,-0.91289 -11.42691,0 -1.2045,0.60233 -1.65222,2.2548 -2.85673,2.85713 -0.85171,0.42593 -2.005012,-0.42592 -2.856719,0 -1.204504,0.60235 -1.652229,2.25482 -2.856733,2.85716 -0.851713,0.42591 -2.005013,-0.42592 -2.856725,0 -1.204511,0.60233 -1.652222,2.25479 -2.856726,2.85714 -0.85172,0.42591 -1.953363,-0.30117 -2.856725,0 -2.020017,0.67342 -3.808983,1.90476 -5.713466,2.85713 -1.904484,0.95238 -3.941785,1.67587 -5.713458,2.85715 -2.240994,1.49422 -3.304451,4.50961 -5.71345,5.71428 -0.851722,0.42592 -2.005021,-0.42592 -2.856726,0 -1.204503,0.60235 -1.65223,2.2548 -2.85674,2.85715 -0.851706,0.42592 -2.005005,-0.42592 -2.856726,0 -0.75849,0.37929 -8.190938,7.81283 -8.570184,8.57143 -0.425845,0.85183 0.425846,2.00531 0,2.85714 -0.602236,1.20468 -2.254473,1.65247 -2.856725,2.85715 -0.897761,1.79577 0.897762,9.6328 0,11.42857 -0.602237,1.20467 -2.254482,1.65246 -2.856725,2.85714 -0.434677,0.86953 0,7.28469 0,8.57144 0,6.66666 0,13.33332 0,19.99999 0,2.02516 -0.369313,16.40415 0,17.14286 0.602237,1.20468 2.254474,1.65247 2.856725,2.85715 0.851706,1.70367 -0.851713,4.0106 0,5.71428 0.602237,1.20468 2.254474,1.65247 2.856725,2.85715 0.425846,0.85183 -0.425845,2.00531 0,2.85714 3.53007,7.06117 2.856726,-0.98622 2.856726,5.7143 0,0.95238 -0.425845,2.00529 0,2.85713 1.714038,3.42857 6.856153,5.14286 8.570184,8.57143 0.85172,1.70368 -0.851706,4.01061 0,5.71428 0.602236,1.20468 2.109738,1.73648 2.85674,2.85715 1.181105,1.77192 1.675613,3.94237 2.856726,5.71429 0.747003,1.12066 2.254473,1.65246 2.856725,2.85715 0.897754,1.79576 -0.897763,9.63278 0,11.42856 0.602236,1.20467 2.254481,1.65247 2.856725,2.85715 0.851713,1.70366 -0.851706,4.0106 0,5.71428 0.602236,1.20467 2.254481,1.65247 2.856732,2.85715 0.425846,0.85182 -0.952241,2.85714 0,2.85714 0.952242,0 0,-3.80953 0,-2.85714 0,1.90476 -0.602235,3.90726 0,5.71428 0.425846,1.27775 2.254474,1.65246 2.856726,2.85715 0.425845,0.85182 0,1.90475 0,2.85713 0,2.7682 -0.567818,15.43923 0,17.14287 0.673337,2.02029 2.183396,3.69398 2.856725,5.71429 0.301156,0.90351 -0.952242,2.85714 0,2.85714 1.172675,0 -3.048008,-14.85965 2.856741,2.85713 0.377992,1.13417 -0.365312,11.42858 0,11.42858 0.952242,0 0,-3.80952 0,-2.85714 0,4.7619 0,9.52381 0,14.28572 0,0.95237 0,1.90475 0,2.85713 0,0.95238 0.425845,2.00532 0,2.85714 -0.602237,1.20469 -2.254488,1.65247 -2.856741,2.85715 -0.851705,1.70367 0.851722,4.01062 0,5.71429 -0.602236,1.20467 -2.254473,1.65247 -2.856725,2.85715 -0.851713,1.70367 0.851721,4.0106 0,5.71427 -9.474573,9.47595 1.346673,-2.69374 -2.856726,5.71429 -0.602235,1.20469 -2.25448,1.65248 -2.856732,2.85714 -0.375577,0.75127 0,9.93452 0,11.42858 0,8.57143 0,17.14286 0,25.71429 0,12.38095 0,24.7619 0,37.14287 0,5.71427 0,11.42856 0,17.14284 0,0.95238 0,1.90477 0,2.85715 0,0.95239 -0.425845,2.00531 0,2.85715 0.602236,1.20467 2.254481,1.65247 2.856732,2.85714 0.375578,0.75126 0,9.93452 0,11.42856 0,10.4762 0,20.9524 0,31.42859 0,1.49405 -0.375576,10.67731 0,11.42857 0.602237,1.20467 2.254474,1.65246 2.856726,2.85715 0.425845,0.85183 0,1.90476 0,2.85714 0,4.7619 0,9.5238 0,14.28572 0,0.95238 0,1.90476 0,2.85714 0,0.95238 -0.425845,2.0053 0,2.85713 0.602237,1.20469 2.254474,1.65248 2.856725,2.85716 0.434677,0.86953 0,7.28469 0,8.57142 0,6.66666 0,13.33334 0,20 0,4.76192 0,9.52381 0,14.28572 0,0.95238 0,1.90476 0,2.85714 0,0.95238 -0.425844,2.0053 0,2.85714 0.602237,1.20468 2.254482,1.65248 2.856741,2.85716 0.935312,1.87089 -0.845063,11.75018 0,14.2857 0.673337,2.02032 2.183381,3.69399 2.856725,5.71429 0.602237,1.80701 -0.85172,4.01062 0,5.71429 0.602237,1.20467 2.254467,1.65247 2.856726,2.85715 0.425845,0.85182 0,1.90476 0,2.85714 0.952241,0.95238 2.254481,1.65245 2.856725,2.85714 0.897755,1.79578 -0.897754,9.63279 0,11.42857 1.204504,2.40936 4.508952,3.30493 5.713452,5.71429 0.42585,0.85184 -0.42583,2.00531 0,2.85714 0.60224,1.20468 2.25448,1.65248 2.85673,2.85714 0.85171,1.70367 -0.8517,4.01061 0,5.71429 9.47457,9.47595 -1.34667,-2.69374 2.85674,5.71429 0.76286,1.52596 7.06621,7.06724 8.57017,8.57142 1.68018,1.68042 10.10403,10.76704 11.42692,11.42859 0.85171,0.42591 2.00502,-0.42593 2.85673,0 2.40899,1.20467 3.30445,4.50959 5.71346,5.71427 0.85171,0.42593 2.00501,-0.42591 2.85673,0 1.20449,0.60235 1.65222,2.25482 2.85672,2.85714 0.86941,0.43477 7.28363,0 8.57019,0 1.90448,0 7.61795,0 5.71345,0 -1.90448,0 -7.06012,1.34687 -5.71345,0 15.39833,-15.40057 3.68534,1.01421 11.42691,-2.85714 1.2045,-0.60234 1.90449,-1.90476 2.85672,-2.85713 0.95224,-0.95238 3.80898,-1.90476 2.85675,-2.85714 -0.95226,-0.95239 -3.80898,3.80951 -2.85675,2.85714 2.85675,-2.85714 5.71347,-5.71429 8.5702,-8.57144 2.24472,-2.24505 13.37382,-12.46579 14.28364,-14.28571 0.43468,-0.86952 0,-7.2847 0,-8.57142 0,-9.52382 0,-19.04764 0,-28.57144 0,-1.49407 -0.37558,-10.67732 0,-11.42858 0.60224,-1.20468 2.25447,-1.65247 2.85672,-2.85714 0.86734,-1.73493 -0.86733,-15.40793 0,-17.14285 0.60224,-1.20468 2.25448,-1.65248 2.85672,-2.85716 0.85173,-1.70366 -0.8517,-4.01062 0,-5.71428 0.60225,-1.20468 2.43089,-1.57939 2.85674,-2.85714 0.60223,-1.80702 -0.46193,-3.8664 0,-5.71428 0.51642,-2.06601 2.18339,-3.69399 2.85674,-5.7143 0.30115,-0.9035 0,-1.90476 0,-2.85714 0.95223,-1.90476 2.18338,-3.69397 2.85672,-5.71428 0.60223,-1.80702 -0.60224,-3.90727 0,-5.7143 0.67334,-2.0203 2.18339,-3.69397 2.85673,-5.71428 0.30115,-0.9035 -0.42585,-2.00531 0,-2.85714 1.2045,-2.40935 4.50895,-3.30493 5.71345,-5.71428 0.84276,-1.68578 -0.65499,-6.6062 0,-8.57143 0.67334,-2.02032 2.1834,-3.69398 2.85673,-5.7143 0.30116,-0.90351 -0.42585,-2.0053 0,-2.85714 0.60224,-1.20468 2.25448,-1.65246 2.85672,-2.85714 1.1427,-2.28572 -1.14268,-6.28572 0,-8.57143 0.60224,-1.20467 2.25449,-1.65246 2.85673,-2.85715 1.14269,-2.28571 -1.14269,-6.28571 0,-8.57142 0.60225,-1.20468 2.25448,-1.65247 2.85673,-2.85715 0.42585,-0.85182 -0.30115,-1.95363 0,-2.85715 0.67334,-2.0203 2.1834,-3.69397 2.85672,-5.71427 0.59938,-1.79829 0,-11.71039 0,-14.28572 0,-0.95238 -0.30115,-1.95364 0,-2.85714 0.67335,-2.02031 2.1834,-3.69398 2.85675,-5.7143 0.60223,-1.807 -0.85172,-4.0106 0,-5.71427 1.2045,-2.40937 4.50895,-3.30495 5.71345,-5.71429 0.92607,-1.85242 -0.89712,-14.4511 0,-17.14287 0.67334,-2.0203 2.18339,-3.69397 2.85673,-5.71427 0.60223,-1.80703 -0.85171,-4.01063 0,-5.7143 0.60223,-1.20467 2.25447,-1.65246 2.85673,-2.85714 0.8517,-1.70367 -0.85172,-4.01062 0,-5.71429 0.60223,-1.20467 2.10972,-1.73648 2.85672,-2.85714 5.41187,0.32538 1.90448,-6.66667 2.85673,-8.57143 0.60224,-1.20469 2.25448,-1.65246 2.85674,-2.85713 0.42584,-0.85185 -0.42585,-2.00533 0,-2.85715 0.60224,-1.20467 2.25447,-1.65247 2.85672,-2.85715 0.85171,-1.70367 -0.85171,-4.01062 0,-5.71429 1.49012,-2.98068 6.90918,-4.51839 5.71345,-5.71428 -0.95224,-0.95238 -2.85672,4.204 -2.85672,2.85714 0,-2.12959 1.67561,-3.94237 2.85672,-5.71429 0.747,-1.12066 1.9045,-1.90475 2.85674,-2.85713 0.95224,-0.95239 1.65222,-2.25481 2.85673,-2.85715 0.8517,-0.42592 2.85672,0.95238 2.85672,0 0,-0.95238 -3.80897,0 -2.85672,0 3.80896,0 7.61793,0 11.4269,0 1.28656,0 7.70079,-0.43476 8.57019,0 1.52573,0.76298 7.06622,7.06724 8.57019,8.57143 0.95224,0.95238 1.90448,1.90476 2.85672,2.85714 0.95224,0.95237 2.25448,1.65247 2.85673,2.85714 0.92607,1.85243 -0.89713,14.45111 0,17.14286 0.67333,2.02031 2.1834,3.69399 2.85673,5.71429 0.84505,2.53552 -0.93531,12.41481 0,14.28572 0.60223,1.20467 2.25447,1.65245 2.85673,2.85715 0.85172,1.70367 -0.85172,4.0106 0,5.71427 0.60224,1.20468 2.25447,1.65247 2.85672,2.85715 0.85173,1.70368 -0.8517,4.01062 0,5.71429 0.60224,1.20467 2.25449,1.65246 2.85674,2.85713 0.85171,1.70367 -0.60223,3.90728 0,5.7143 0.67333,2.0203 2.18338,3.69398 2.85672,5.71429 0.60224,1.807 -0.85171,4.0106 0,5.71427 0.60224,1.20469 2.25448,1.65248 2.85673,2.85714 0.85172,1.70368 -0.8517,4.01063 0,5.7143 0.60224,1.20468 2.25448,1.65247 2.85672,2.85714 1.1427,2.28572 -1.14268,6.28572 0,8.57143 0.60224,1.20468 2.25449,1.65247 2.85674,2.85715 1.14269,2.28571 -1.14269,6.28572 0,8.57142 0.60224,1.20468 2.25447,1.65247 2.85673,2.85715 0.89775,1.79578 -0.89776,9.63279 0,11.42857 0.60223,1.20467 2.25447,1.65246 2.85672,2.85715 0.42585,0.85183 0,1.90476 0,2.85714 0.95224,0.95238 2.25448,1.65246 2.85674,2.85714 0.8517,1.70368 -0.60224,3.90728 0,5.71428 0.67334,2.02032 2.18339,3.69398 2.85673,5.7143 0.60223,1.80701 -0.85173,4.01061 0,5.71427 0.60223,1.20469 2.25447,1.65248 2.85672,2.85716 0.85172,1.70366 -0.60224,3.90726 0,5.71428 0.67334,2.02031 2.18339,3.69399 2.85673,5.71428 0.30116,0.9035 0,1.90476 0,2.85714 0.95225,1.90477 2.18339,3.69399 2.85673,5.7143 0.60224,1.80701 -0.85171,4.01062 0,5.71428 0.60224,1.20468 2.25448,1.65247 2.85672,2.85714 0.85172,1.70367 -0.85171,4.01062 0,5.7143 0.60224,1.20467 2.25448,1.65246 2.85673,2.85713 0.89776,1.79578 -0.89776,9.6328 0,11.42857 1.2045,2.40936 4.50896,3.30494 5.71346,5.7143 0.8517,1.70367 -0.85171,4.0106 0,5.71429 0.60223,1.20466 2.25447,1.65245 2.85673,2.85713 0.42584,0.85183 -0.42585,2.00531 0,2.85714 0.60223,1.20469 2.25448,1.65247 2.85672,2.85715 0.42585,0.85184 -0.42585,2.00531 0,2.85714 0.60223,1.20468 2.25449,1.65247 2.85674,2.85714 0.8517,1.70367 -0.85172,4.01062 0,5.7143 0.60223,1.20467 2.25447,1.65246 2.85673,2.85714 0.85171,1.70367 -0.85173,4.0106 0,5.71428 0.60224,1.20468 2.25447,1.65247 2.85672,2.85714 1.1427,2.28571 -1.14269,6.28572 0,8.57143 0.60224,1.20468 2.25449,1.65247 2.85673,2.85715 0.85171,1.70366 -0.60223,3.90727 0,5.71428 3.45215,10.35798 1.35542,2.03342 5.71345,8.57143 7.28201,3.41545 1.06814,4.99372 2.85673,8.57143 0.60224,1.20468 2.25448,1.65247 2.85674,2.85714 0.42584,0.85185 -0.42585,2.00531 0,2.85715 0.60223,1.20467 2.25447,1.65247 2.85672,2.85714 0.42584,0.85185 -0.42585,2.00531 0,2.85715 0.99725,1.9948 4.7162,3.71947 5.71347,5.71429 0.42584,0.85182 -0.42585,2.00531 0,2.85713 0.37927,0.7586 7.81168,8.19213 8.57017,8.57144 1.70343,0.85184 4.01004,-0.85184 5.71346,0 1.2045,0.60233 1.65223,2.2548 2.85672,2.85714 1.70343,0.85184 4.01004,-0.85184 5.71347,0 1.20451,0.60233 1.65222,2.25481 2.85673,2.85714 0.73862,0.36936 15.11551,0 17.14036,0 1.90449,0 3.80897,0 5.71345,0 0.95226,0 2.85675,0.95238 2.85675,0 0,-0.95239 -3.80899,0 -2.85675,0 1.9045,0 3.80898,0 5.71347,0 0.95224,0 2.00502,0.42592 2.85673,0 1.52574,-0.76297 7.06623,-7.06724 8.57019,-8.57143 4.39138,-4.39202 9.38452,-8.15777 11.42687,-14.28571 0.59779,-1.79329 0,-9.12848 0,-11.42858 0,-9.52381 0,-19.04762 0,-28.57143 0,-1.49406 0.37588,-10.67732 0,-11.42857 -0.60231,-1.20469 -2.25444,-1.65246 -2.85668,-2.85714 -1.14273,-2.28573 1.14266,-6.28572 0,-8.57144 -0.60231,-1.20467 -2.25451,-1.65246 -2.85675,-2.85714 -0.4257,-0.85183 0.30116,-1.95364 0,-2.85714 -0.67326,-2.0203 -2.18342,-3.69399 -2.85676,-5.71429 -0.30115,-0.90351 0.42569,-2.0053 0,-2.85713 -0.60231,-1.20469 -2.25444,-1.65248 -2.85668,-2.85716 -0.85169,-1.70367 0.60231,-3.90727 0,-5.71427 -0.67325,-2.02032 -2.18342,-3.69398 -2.85674,-5.7143 -0.30116,-0.90351 0.42585,-2.0053 0,-2.85714 -0.60224,-1.20468 -2.25448,-1.65246 -2.85672,-2.85714 -0.42585,-0.85184 0.42585,-2.00531 0,-2.85715 -0.60224,-1.20467 -2.25449,-1.65246 -2.85673,-2.85713 -0.85171,-1.70368 0.85171,-4.01063 0,-5.7143 -0.60224,-1.20467 -2.25448,-1.65246 -2.85673,-2.85714 -0.85172,-1.70366 0.85171,-4.01061 0,-5.71428 -0.60224,-1.20468 -2.25447,-1.65248 -2.85672,-2.85715 -0.42585,-0.85182 0,-1.90477 0,-2.85715 0,-1.90476 0.60223,-3.90726 0,-5.71428 -0.42585,-1.27775 -2.25449,-1.65246 -2.85675,-2.85714 -1.14268,-2.28572 1.14269,-6.28572 0,-8.57144 -0.60223,-1.20466 -2.25446,-1.65245 -2.85673,-2.85713 -0.8517,-1.70367 0.60225,-3.90728 0,-5.7143 -6.89748,-20.69546 0.82362,4.5046 -5.71344,-8.57142 -1.1427,-2.28572 1.14268,-6.28572 0,-8.57143 -0.60224,-1.20467 -2.25448,-1.65246 -2.85674,-2.85715 -0.8517,-1.70367 0.85172,-4.01061 0,-5.71428 -0.60224,-1.20467 -2.25447,-1.65247 -2.85672,-2.85714 -1.14269,-2.28571 1.14269,-6.28572 0,-8.57142 -0.60224,-1.2047 -2.25448,-1.65248 -2.85672,-2.85715 -0.89777,-1.79578 0.89775,-9.6328 0,-11.42858 -0.60225,-1.20467 -2.25449,-1.65246 -2.85674,-2.85714 -0.9089,-1.81806 0.82327,-11.81556 0,-14.28571 -0.67333,-2.02031 -2.18339,-3.69399 -2.85672,-5.71429 -0.60224,-1.80702 0.60223,-3.90728 0,-5.7143 -0.67335,-2.02029 -2.1834,-3.69397 -2.85673,-5.71428 -0.60224,-1.80702 0,-3.80953 0,-5.71429 0,-5.71427 0,-11.42857 0,-17.14285 0,-0.95239 0,-1.90476 0,-2.85715 0,-0.95238 0.42584,-2.0053 0,-2.85714 -0.60224,-1.20468 -2.25449,-1.65247 -2.85673,-2.85714 -0.91275,-1.82578 0.76646,-9.12885 0,-11.42857 -0.67333,-2.02031 -2.18339,-3.69399 -2.85674,-5.71429 -0.53725,-1.612 0,-6.69398 0,-8.57143 0,-7.61905 0,-15.23809 0,-22.85715 0,-12.38094 0,-24.76191 0,-37.14285 0,-5.71429 0,-11.42858 0,-17.14287 0,-0.95238 0,-1.90476 0,-2.85715 0,-0.95238 -0.42584,-2.0053 0,-2.85714 0.60224,-1.20468 2.25449,-1.65245 2.85674,-2.85713 0.42585,-0.85184 0,-1.90476 0,-2.85714 0,-0.95239 0,-1.90477 0,-2.85715 0,-0.95238 0.95224,-2.85714 0,-2.85714 -0.95225,0 0,3.80952 0,2.85714 0,-1.90476 0,-3.80952 0,-5.71429 0,-0.95239 0,-1.90476 0,-2.85714 0,-0.95238 -0.42584,-2.00531 0,-2.85714 0.60224,-1.20468 2.25448,-1.65248 2.85673,-2.85714 0.42584,-0.85184 0,-1.90478 0,-2.85716 0,-0.95238 0,-1.90476 0,-2.85714 0,-0.95238 0.95224,-2.85713 0,-2.85713 -0.95224,0 0,3.80951 0,2.85713 0,-13.00653 -1.34668,-0.1634 2.85673,-8.57142 0.42584,-0.85184 -0.85171,-2.43123 0,-2.85714 3.51169,-1.75611 7.61793,-1.90477 11.4269,-14.28573 z"
       id="path2816" />
  </g>
</svg>
