<?xml version="1.0" encoding="UTF-8" standalone="no"?>
<!-- Created with Inkscape (http://www.inkscape.org/) -->

<svg
   xmlns:dc="http://purl.org/dc/elements/1.1/"
   xmlns:cc="http://creativecommons.org/ns#"
   xmlns:rdf="http://www.w3.org/1999/02/22-rdf-syntax-ns#"
   xmlns:svg="http://www.w3.org/2000/svg"
   xmlns="http://www.w3.org/2000/svg"
   xmlns:sodipodi="http://sodipodi.sourceforge.net/DTD/sodipodi-0.dtd"
   xmlns:inkscape="http://www.inkscape.org/namespaces/inkscape"
   width="744.09448819"
   height="1052.3622047"
   id="svg2"
   version="1.1"
   inkscape:version="0.47pre4 r22446"
   sodipodi:docname="ll6.svg">
  <defs
     id="defs4">
    <inkscape:perspective
       sodipodi:type="inkscape:persp3d"
       inkscape:vp_x="0 : 526.18109 : 1"
       inkscape:vp_y="0 : 1000 : 0"
       inkscape:vp_z="744.09448 : 526.18109 : 1"
       inkscape:persp3d-origin="372.04724 : 350.78739 : 1"
       id="perspective10" />
  </defs>
  <sodipodi:namedview
     id="base"
     pagecolor="#ffffff"
     bordercolor="#666666"
     borderopacity="1.0"
     inkscape:pageopacity="0.0"
     inkscape:pageshadow="2"
     inkscape:zoom="0.35"
     inkscape:cx="375"
     inkscape:cy="520"
     inkscape:document-units="px"
     inkscape:current-layer="layer1"
     showgrid="false"
     inkscape:window-width="841"
     inkscape:window-height="603"
     inkscape:window-x="325"
     inkscape:window-y="80"
     inkscape:window-maximized="0" />
  <metadata
     id="metadata7">
    <rdf:RDF>
      <cc:Work
         rdf:about="">
        <dc:format>image/svg+xml</dc:format>
        <dc:type
           rdf:resource="http://purl.org/dc/dcmitype/StillImage" />
        <dc:title></dc:title>
      </cc:Work>
    </rdf:RDF>
  </metadata>
  <g
     inkscape:label="Layer 1"
     inkscape:groupmode="layer"
     id="layer1">
    <path
       style="fill:none;stroke:#000000;stroke-width:0.9722293px;stroke-linecap:butt;stroke-linejoin:miter;stroke-opacity:1"
       d="m 403.54675,340.92699 c 0.41741,-2.27978 -0.62395,-12.96592 0,-14.28635 0.56931,-1.20473 2.13122,-1.65255 2.70055,-2.85727 0.85184,-1.80258 -0.85185,-12.48381 0,-14.28638 0.56931,-1.20471 2.1312,-1.65252 2.70052,-2.85726 0.84869,-1.79586 -0.84866,-9.63323 0,-11.42909 0.56931,-1.20473 2.13122,-1.65254 2.70053,-2.85728 0.86286,-1.82585 -0.72454,-9.12926 0,-11.42909 0.63653,-2.02039 2.21235,-3.64844 2.70053,-5.71453 0.43668,-1.84798 -0.5693,-3.90745 0,-5.71455 0.80516,-2.55563 4.26244,-3.30508 5.40108,-5.71455 0.48832,-1.03328 0,-12.29901 0,-14.28637 0,-1.49412 0.35505,-10.67779 0,-11.42908 -1.19679,-2.53251 -6.4627,-5.9708 -8.10161,-8.57182 -1.11652,-1.772 -1.584,-3.94254 -2.70053,-5.71454 -0.70616,-1.12072 -1.80035,-1.90486 -2.70052,-2.85728 -2.70055,-2.85727 -5.40108,-5.71454 -8.1016,-8.57181 -0.90019,-0.95243 -1.80036,-1.90485 -2.70055,-2.85728 -0.90017,-0.95243 -1.56188,-2.2549 -2.70052,-2.85727 -0.80515,-0.42594 -1.89541,0.42593 -2.70054,0 -1.40952,-0.74566 -3.99155,-4.96888 -5.40108,-5.71454 -0.80513,-0.42593 -1.84654,0.30117 -2.70053,0 -1.90957,-0.67346 -3.49149,-2.1838 -5.40107,-2.85728 -0.85397,-0.30118 -1.89538,0.42594 -2.70052,0 -1.13866,-0.60237 -1.5619,-2.25489 -2.70054,-2.85726 -0.80515,-0.42594 -1.84656,0.30118 -2.70053,0 -1.90958,-0.67348 -3.49151,-2.18382 -5.40108,-2.85727 -1.70797,-0.60237 -3.79076,0.85186 -5.40107,0 -1.13864,-0.60237 -1.56189,-2.25491 -2.70053,-2.85729 -0.80514,-0.42594 -1.80035,0 -2.70053,0 -0.90017,0 -1.80035,0 -2.70054,0 -6.30124,0 -12.6025,0 -18.90374,0 -5.40107,0 -10.80213,0 -16.20319,0 -1.77455,0 -6.57797,-0.53734 -8.10161,0 -19.5611,6.89881 4.25769,-0.82376 -8.1016,5.71456 -0.80514,0.42593 -1.8954,-0.42594 -2.70054,0 -1.13864,0.60237 -1.56189,2.25489 -2.70053,2.85726 -1.73043,0.91544 -14.52608,-0.88722 -16.2032,0 -1.13864,0.60237 -1.56189,2.25491 -2.70053,2.85728 -0.80515,0.42594 -2.70055,-0.95244 -2.70055,0 0,1.17288 14.04515,-3.04859 -2.70053,2.85727 -1.61025,0.56789 -13.58674,0 -16.2032,0 -8.10161,0 -16.2032,0 -24.30481,0 -1.41216,0 -10.09206,0.37564 -10.80213,0 -1.13865,-0.60236 -1.56189,-2.25492 -2.70055,-2.85727 -1.70368,-0.90128 -11.79898,0.90129 -13.50266,0 -1.13865,-0.60237 -1.5619,-2.25491 -2.70053,-2.85728 -0.80515,-0.42593 -1.8954,0.42594 -2.70053,0 -1.13865,-0.60237 -1.56189,-2.25489 -2.70054,-2.85726 -0.80515,-0.42594 -1.89539,0.42593 -2.70053,0 -1.13865,-0.60238 -1.64131,-2.11015 -2.70054,-2.85727 -1.67479,-1.18134 -3.60071,-1.90487 -5.40107,-2.85729 -1.80035,-0.95242 -3.49149,-2.18381 -5.40107,-2.85726 -1.70796,-0.60237 -3.79078,0.85188 -5.40107,0 -1.13864,-0.60237 -1.56188,-2.25491 -2.70053,-2.85727 -1.61029,-0.85189 -3.79078,0.85186 -5.40106,0 -1.13866,-0.60238 -1.5619,-2.25491 -2.70053,-2.85729 -0.71009,-0.37565 -9.38999,0 -10.80215,0 -2.71958,0 -14.70976,-0.5267 -16.2032,0 -1.20772,0.42594 -1.56189,2.25491 -2.70053,2.85729 -1.76835,0.93549 -11.10613,-0.84522 -13.50267,0 -1.90958,0.67346 -3.49152,2.18379 -5.40108,2.85727 -2.17366,0.7666 -9.07643,-0.91293 -10.80214,0 -1.138639,0.60236 -1.561879,2.2549 -2.700532,2.85726 -0.805142,0.42595 -1.895386,-0.42594 -2.700525,0 -1.138647,0.60238 -1.561892,2.25492 -2.700539,2.85729 -0.805144,0.42593 -1.895387,-0.42594 -2.70053,0 -1.138654,0.60236 -1.561886,2.25489 -2.700532,2.85727 -0.805152,0.42593 -1.846561,-0.30119 -2.700531,0 -1.909571,0.67345 -3.600724,1.90484 -5.401077,2.85726 -1.800355,0.95242 -3.726265,1.67594 -5.40107,2.85728 -2.118465,1.49428 -3.123777,4.50981 -5.401062,5.71454 -0.805153,0.42593 -1.895394,-0.42594 -2.700532,0 -1.138645,0.60237 -1.561892,2.2549 -2.700545,2.85727 -0.805138,0.42594 -1.895379,-0.42593 -2.700532,0 -0.717019,0.37931 -7.743091,7.81319 -8.101601,8.57182 -0.402562,0.85187 0.402562,2.0054 0,2.85727 -0.569308,1.20474 -2.131208,1.65255 -2.700531,2.85728 -0.848675,1.79585 0.848676,9.63324 0,11.42909 -0.569309,1.20472 -2.131216,1.65253 -2.700531,2.85727 -0.410911,0.86957 0,7.28502 0,8.57183 0,6.66696 0,13.33392 0,20.00089 0,2.02525 -0.34912,16.40489 0,17.14364 0.569309,1.20473 2.131209,1.65254 2.700531,2.85728 0.805138,1.70374 -0.805145,4.01078 0,5.71453 0.569309,1.20474 2.131209,1.65255 2.700531,2.85728 0.402562,0.85187 -0.402562,2.0054 0,2.85727 3.33706,7.06149 2.700532,-0.98626 2.700532,5.71456 0,0.95242 -0.402562,2.00538 0,2.85726 1.620321,3.42873 6.481286,5.14309 8.101601,8.57182 0.805152,1.70376 -0.805138,4.01079 0,5.71454 0.569308,1.20473 1.994386,1.73656 2.700545,2.85728 1.116527,1.772 1.583998,3.94254 2.700532,5.71454 0.70616,1.12072 2.131208,1.65254 2.700531,2.85728 0.848669,1.79585 -0.848677,9.63322 0,11.42908 0.569308,1.20473 2.131215,1.65255 2.700531,2.85728 0.805145,1.70374 -0.805138,4.01078 0,5.71454 0.569308,1.20472 2.131215,1.65254 2.700538,2.85728 0.402562,0.85186 -0.900177,2.85727 0,2.85727 0.900177,0 0,-3.8097 0,-2.85727 0,1.90484 -0.569308,3.90744 0,5.71454 0.402562,1.2778 2.131208,1.65253 2.700532,2.85728 0.402561,0.85185 0,1.90483 0,2.85726 0,2.76832 -0.536772,15.43992 0,17.14364 0.636521,2.02038 2.064016,3.69415 2.700531,5.71455 0.28469,0.90355 -0.900178,2.85727 0,2.85727 1.108558,0 -2.881356,-14.86032 2.700546,2.85726 0.357325,1.13422 -0.345339,11.4291 0,11.4291 0.900177,0 0,-3.8097 0,-2.85727 0,4.76211 0,9.52424 0,14.28636 0,0.95242 0,1.90484 0,2.85726 0,0.95243 0.402561,2.00541 0,2.85727 -0.569309,1.20475 -2.131222,1.65255 -2.700546,2.85728 -0.805138,1.70375 0.805153,4.0108 0,5.71455 -0.569309,1.20472 -2.131208,1.65254 -2.700531,2.85728 -0.805145,1.70375 0.805152,4.01078 0,5.71453 -8.956542,9.47638 1.273042,-2.69386 -2.700532,5.71455 -0.569308,1.20474 -2.131214,1.65255 -2.700538,2.85726 -0.355042,0.75131 0,9.93497 0,11.4291 0,8.57182 0,17.14364 0,25.71546 0,12.38151 0,24.76302 0,37.14455 0,5.71453 0,11.42907 0,17.14361 0,0.95243 0,1.90486 0,2.85728 0,0.95243 -0.402561,2.0054 0,2.85728 0.569308,1.20473 2.131215,1.65255 2.700538,2.85727 0.355043,0.75129 0,9.93497 0,11.42908 0,10.47667 0,20.95335 0,31.43001 0,1.49412 -0.355041,10.67779 0,11.42909 0.569309,1.20472 2.131208,1.65253 2.700532,2.85728 0.402561,0.85186 0,1.90484 0,2.85727 0,4.76211 0,9.52423 0,14.28636 0,0.95242 0,1.90485 0,2.85727 0,0.95242 -0.402562,2.00539 0,2.85726 0.569309,1.20474 2.131208,1.65256 2.700531,2.85729 0.41091,0.86957 0,7.28502 0,8.57181 0,6.66696 0,13.33394 0,20.0009 0,4.76214 0,9.52424 0,14.28637 0,0.95242 0,1.90485 0,2.85727 0,0.95242 -0.402561,2.00539 0,2.85727 0.569309,1.20473 2.131216,1.65255 2.700546,2.85729 0.884173,1.87097 -0.798859,11.75071 0,14.28634 0.636521,2.02041 2.064002,3.69416 2.700531,5.71455 0.569309,1.80709 -0.805152,4.0108 0,5.71455 0.569309,1.20473 2.131202,1.65255 2.700532,2.85728 0.402561,0.85186 0,1.90485 0,2.85727 0.900176,0.95242 2.131215,1.65252 2.70053,2.85727 0.84867,1.79586 -0.848668,9.63322 0,11.42909 1.138647,2.40946 4.262421,3.30508 5.401064,5.71454 0.402567,0.85188 -0.402547,2.0054 0,2.85727 0.569312,1.20474 2.131212,1.65256 2.700532,2.85727 0.80515,1.70375 -0.80513,4.01079 0,5.71455 8.95654,9.47638 -1.273036,-2.69386 2.70055,5.71455 0.72115,1.52603 6.67986,7.06756 8.10159,8.57181 1.58831,1.68049 9.55158,10.76752 10.80214,11.4291 0.80514,0.42593 1.89539,-0.42594 2.70054,0 2.27727,1.20473 3.12377,4.5098 5.40107,5.71453 0.80514,0.42595 1.89538,-0.42593 2.70053,0 1.13864,0.60238 1.56189,2.25493 2.70053,2.85727 0.82187,0.43479 6.88539,0 8.10161,0 1.80035,0 7.20143,0 5.40106,0 -1.80035,0 -6.6741,1.34693 -5.40106,0 14.55641,-15.40126 3.48384,1.01426 10.80213,-2.85727 1.13864,-0.60236 1.80036,-1.90484 2.70053,-2.85726 0.90017,-0.95242 3.60072,-1.90484 2.70055,-2.85727 -0.90019,-0.95243 -3.60072,3.80969 -2.70055,2.85727 2.70055,-2.85727 5.40108,-5.71454 8.10161,-8.57182 2.12199,-2.24516 12.6426,-12.46636 13.50267,-14.28636 0.41091,-0.86956 0,-7.28503 0,-8.57181 0,-9.52425 0,-19.0485 0,-28.57273 0,-1.49414 -0.35504,-10.6778 0,-11.4291 0.56931,-1.20473 2.13121,-1.65254 2.70053,-2.85727 0.81991,-1.73501 -0.81991,-15.40862 0,-17.14362 0.56931,-1.20474 2.13121,-1.65256 2.70052,-2.85729 0.80516,-1.70374 -0.80513,-4.0108 0,-5.71454 0.56932,-1.20474 2.29798,-1.57946 2.70055,-2.85727 0.5693,-1.8071 -0.43668,-3.86658 0,-5.71454 0.48818,-2.0661 2.06401,-3.69416 2.70054,-5.71456 0.28469,-0.90354 0,-1.90484 0,-2.85727 0.90017,-1.90484 2.06401,-3.69413 2.70053,-5.71454 0.5693,-1.8071 -0.56931,-3.90744 0,-5.71455 0.63652,-2.0204 2.06401,-3.69414 2.70054,-5.71454 0.28468,-0.90354 -0.40257,-2.0054 0,-2.85727 1.13864,-2.40946 4.26241,-3.30508 5.40106,-5.71454 0.79668,-1.68586 -0.61918,-6.6065 0,-8.57182 0.63652,-2.02041 2.06402,-3.69415 2.70053,-5.71456 0.2847,-0.90355 -0.40256,-2.00539 0,-2.85727 0.56932,-1.20473 2.13122,-1.65253 2.70053,-2.85727 1.08022,-2.28582 -1.0802,-6.286 0,-8.57181 0.56931,-1.20473 2.13122,-1.65254 2.70053,-2.85728 1.08022,-2.28582 -1.08021,-6.286 0,-8.57181 0.56933,-1.20473 2.13122,-1.65255 2.70054,-2.85728 0.40257,-0.85186 -0.28468,-1.95372 0,-2.85728 0.63653,-2.02039 2.06402,-3.69414 2.70053,-5.71453 0.56661,-1.79837 0,-11.71092 0,-14.28636 0,-0.95243 -0.28469,-1.95373 0,-2.85727 0.63653,-2.0204 2.06402,-3.69415 2.70055,-5.71456 0.5693,-1.80708 -0.80515,-4.01078 0,-5.71453 1.13864,-2.40948 4.26242,-3.3051 5.40106,-5.71455 0.87544,-1.8525 -0.84807,-14.45175 0,-17.14364 0.63653,-2.0204 2.06401,-3.69414 2.70054,-5.71453 0.5693,-1.80712 -0.80514,-4.01081 0,-5.71456 0.5693,-1.20473 2.1312,-1.65254 2.70053,-2.85727 0.80514,-1.70375 -0.80515,-4.0108 0,-5.71455 0.56931,-1.20472 1.99437,-1.73656 2.70053,-2.85727 5.11597,0.3254 1.80035,-6.66697 2.70054,-8.57182 0.56931,-1.20474 2.13121,-1.65253 2.70054,-2.85726 0.40256,-0.85188 -0.40256,-2.00542 0,-2.85728 0.56931,-1.20472 2.13121,-1.65254 2.70053,-2.85727 0.80514,-1.70375 -0.80514,-4.01081 0,-5.71455 1.40864,-2.98082 6.53141,-4.5186 5.40106,-5.71454 -0.90018,-0.95243 -2.70053,4.20419 -2.70053,2.85727 0,-2.12969 1.584,-3.94255 2.70053,-5.71455 0.70616,-1.12071 1.80037,-1.90484 2.70055,-2.85726 0.90017,-0.95243 1.56188,-2.25491 2.70053,-2.85728 0.80513,-0.42594 2.70053,0.95242 2.70053,0 0,-0.95242 -3.60071,0 -2.70053,0 3.6007,0 7.20141,0 10.80212,0 1.21622,0 7.27975,-0.43478 8.10161,0 1.44231,0.76301 6.67987,7.06756 8.10161,8.57182 0.90017,0.95242 1.80035,1.90484 2.70052,2.85727 0.90018,0.95241 2.13122,1.65254 2.70054,2.85727 0.87544,1.85251 -0.84808,14.45176 0,17.14363 0.63652,2.0204 2.06402,3.69416 2.70054,5.71455 0.79884,2.53564 -0.88417,12.41537 0,14.28637 0.5693,1.20472 2.1312,1.65252 2.70053,2.85728 0.80515,1.70374 -0.80515,4.01078 0,5.71453 0.56931,1.20473 2.13121,1.65254 2.70053,2.85727 0.80516,1.70376 -0.80513,4.01081 0,5.71455 0.56931,1.20473 2.13122,1.65254 2.70054,2.85726 0.80515,1.70375 -0.5693,3.90746 0,5.71456 0.63652,2.02039 2.064,3.69415 2.70053,5.71455 0.56931,1.80708 -0.80514,4.01078 0,5.71453 0.56931,1.20474 2.13121,1.65255 2.70054,2.85727 0.80515,1.70375 -0.80514,4.01081 0,5.71456 0.56931,1.20473 2.13121,1.65254 2.70052,2.85727 1.08022,2.28582 -1.0802,6.286 0,8.57181 0.56931,1.20474 2.13123,1.65255 2.70055,2.85728 1.08021,2.28582 -1.08022,6.28601 0,8.57181 0.56931,1.20473 2.1312,1.65255 2.70053,2.85728 0.84867,1.79586 -0.84867,9.63323 0,11.42909 0.5693,1.20472 2.13121,1.65253 2.70053,2.85728 0.40256,0.85186 0,1.90484 0,2.85727 0.90017,0.95242 2.13121,1.65253 2.70054,2.85726 0.80514,1.70376 -0.56931,3.90746 0,5.71454 0.63653,2.02041 2.06401,3.69415 2.70054,5.71456 0.5693,1.80709 -0.80516,4.01079 0,5.71453 0.5693,1.20474 2.1312,1.65256 2.70053,2.85729 0.80515,1.70374 -0.56932,3.90744 0,5.71454 0.63652,2.0204 2.06401,3.69416 2.70053,5.71454 0.28469,0.90354 0,1.90484 0,2.85727 0.90019,1.90485 2.06401,3.69415 2.70054,5.71455 0.56931,1.8071 -0.80515,4.01081 0,5.71454 0.56931,1.20474 2.13121,1.65255 2.70052,2.85727 0.80515,1.70375 -0.80514,4.0108 0,5.71456 0.56932,1.20473 2.13122,1.65254 2.70054,2.85726 0.84867,1.79586 -0.84868,9.63324 0,11.42909 1.13864,2.40947 4.26243,3.30509 5.40107,5.71456 0.80513,1.70374 -0.80514,4.01078 0,5.71454 0.5693,1.20472 2.1312,1.65253 2.70054,2.85726 0.40255,0.85187 -0.40257,2.0054 0,2.85727 0.5693,1.20475 2.13121,1.65255 2.70052,2.85728 0.40257,0.85188 -0.40256,2.0054 0,2.85727 0.5693,1.20474 2.13123,1.65255 2.70055,2.85727 0.80513,1.70375 -0.80515,4.0108 0,5.71456 0.5693,1.20472 2.1312,1.65253 2.70053,2.85727 0.80514,1.70375 -0.80516,4.01078 0,5.71454 0.56931,1.20473 2.13121,1.65254 2.70053,2.85727 1.08022,2.28581 -1.08021,6.286 0,8.57181 0.56931,1.20474 2.13122,1.65255 2.70053,2.85728 0.80515,1.70374 -0.5693,3.90745 0,5.71454 3.26341,10.35845 1.28132,2.03351 5.40107,8.57182 6.88386,3.41561 1.00974,4.99395 2.70053,8.57182 0.56931,1.20473 2.13122,1.65254 2.70055,2.85727 0.40255,0.85189 -0.40257,2.0054 0,2.85728 0.5693,1.20472 2.1312,1.65254 2.70052,2.85727 0.40256,0.85188 -0.40256,2.0054 0,2.85728 0.94273,1.99489 4.45834,3.71963 5.40108,5.71454 0.40256,0.85186 -0.40256,2.0054 0,2.85726 0.35854,0.75864 7.38457,8.1925 8.10159,8.57183 1.6103,0.85188 3.79079,-0.85188 5.40107,0 1.13865,0.60236 1.5619,2.2549 2.70053,2.85727 1.61029,0.85188 3.79079,-0.85188 5.40108,0 1.13865,0.60236 1.56188,2.25491 2.70054,2.85727 0.69823,0.36938 14.28905,0 16.20319,0 1.80036,0 3.60071,0 5.40106,0 0.9002,0 2.70056,0.95242 2.70056,0 0,-0.95243 -3.60073,0 -2.70056,0 1.80037,0 3.60072,0 5.40108,0 0.90018,0 1.8954,0.42594 2.70054,0 1.44232,-0.763 6.67988,-7.06756 8.10161,-8.57182 4.15127,-4.39222 8.87141,-8.15814 10.80209,-14.28635 0.56511,-1.79338 0,-9.1289 0,-11.4291 0,-9.52424 0,-19.04848 0,-28.57272 0,-1.49413 0.35533,-10.67781 0,-11.42909 -0.56938,-1.20475 -2.13117,-1.65254 -2.70049,-2.85727 -1.08025,-2.28583 1.08019,-6.28601 0,-8.57183 -0.56937,-1.20472 -2.13124,-1.65253 -2.70055,-2.85727 -0.40242,-0.85187 0.28469,-1.95373 0,-2.85727 -0.63645,-2.02039 -2.06404,-3.69415 -2.70056,-5.71455 -0.28469,-0.90355 0.40241,-2.00539 0,-2.85726 -0.56938,-1.20474 -2.13118,-1.65255 -2.70049,-2.85728 -0.80513,-1.70375 0.56938,-3.90745 0,-5.71453 -0.63644,-2.02041 -2.06404,-3.69415 -2.70055,-5.71456 -0.28469,-0.90355 0.40257,-2.00539 0,-2.85727 -0.56931,-1.20474 -2.13121,-1.65254 -2.70052,-2.85727 -0.40257,-0.85188 0.40256,-2.0054 0,-2.85728 -0.56932,-1.20472 -2.13123,-1.65253 -2.70054,-2.85726 -0.80514,-1.70376 0.80514,-4.01081 0,-5.71456 -0.56931,-1.20472 -2.13121,-1.65253 -2.70054,-2.85727 -0.80515,-1.70373 0.80515,-4.01079 0,-5.71454 -0.56931,-1.20473 -2.1312,-1.65255 -2.70052,-2.85727 -0.40257,-0.85186 0,-1.90486 0,-2.85728 0,-1.90485 0.5693,-3.90744 0,-5.71454 -0.40257,-1.27781 -2.13123,-1.65254 -2.70056,-2.85727 -1.0802,-2.28583 1.08022,-6.28601 0,-8.57183 -0.5693,-1.20471 -2.13119,-1.65252 -2.70053,-2.85726 -0.80513,-1.70375 0.56932,-3.90746 0,-5.71456 -6.52036,-20.69639 0.77859,4.50481 -5.40105,-8.57181 -1.08023,-2.28582 1.0802,-6.286 0,-8.57181 -0.56932,-1.20473 -2.13122,-1.65254 -2.70055,-2.85728 -0.80513,-1.70375 0.80515,-4.01079 0,-5.71454 -0.56931,-1.20473 -2.1312,-1.65255 -2.70053,-2.85727 -1.08021,-2.28581 1.08022,-6.286 0,-8.57181 -0.56931,-1.20475 -2.13121,-1.65255 -2.70052,-2.85728 -0.84869,-1.79586 0.84866,-9.63323 0,-11.42909 -0.56932,-1.20473 -2.13123,-1.65254 -2.70055,-2.85727 -0.8592,-1.81815 0.77826,-11.8161 0,-14.28636 -0.63651,-2.0204 -2.06401,-3.69416 -2.70052,-5.71455 -0.56932,-1.8071 0.5693,-3.90746 0,-5.71456 -0.63654,-2.02038 -2.06402,-3.69413 -2.70054,-5.71454 -0.56931,-1.8071 0,-3.8097 0,-5.71454 0,-5.71453 0,-11.42909 0,-17.14363 0,-0.95243 0,-1.90485 0,-2.85728 0,-0.95242 0.40256,-2.00539 0,-2.85727 -0.56931,-1.20473 -2.13122,-1.65254 -2.70053,-2.85727 -0.86285,-1.82586 0.72455,-9.12926 0,-11.42909 -0.63652,-2.0204 -2.06402,-3.69415 -2.70055,-5.71454 -0.50788,-1.61208 0,-6.69429 0,-8.57182 0,-7.6194 0,-15.23878 0,-22.85819 0,-12.3815 0,-24.76303 0,-37.14453 0,-5.71455 0,-11.42909 0,-17.14364 0,-0.95243 0,-1.90485 0,-2.85728 0,-0.95243 -0.40256,-2.00539 0,-2.85727 0.56931,-1.20474 2.13122,-1.65253 2.70055,-2.85726 0.40256,-0.85188 0,-1.90485 0,-2.85727 0,-0.95243 0,-1.90486 0,-2.85728 0,-0.95242 0.90017,-2.85727 0,-2.85727 -0.90019,0 0,3.80969 0,2.85727 0,-1.90485 0,-3.80969 0,-5.71455 0,-0.95243 0,-1.90484 0,-2.85727 0,-0.95242 -0.40256,-2.0054 0,-2.85727 0.56931,-1.20473 2.13121,-1.65255 2.70053,-2.85727 0.40256,-0.85187 0,-1.90486 0,-2.85729 0,-0.95242 0,-1.90484 0,-2.85726 0,-0.95243 0.90018,-2.85726 0,-2.85726 -0.90017,0 0,3.80968 0,2.85726 0,-13.00712 -1.27305,-0.16341 2.70054,-8.57181 0.40255,-0.85188 -0.80515,-2.43134 0,-2.85727 3.31968,-1.75619 7.20141,-1.90486 10.80212,-14.28638 z"
       id="path2816" />
  </g>
</svg>
