<?xml version="1.0" encoding="UTF-8" standalone="no"?>
<!-- Created with Inkscape (http://www.inkscape.org/) -->

<svg
   xmlns:dc="http://purl.org/dc/elements/1.1/"
   xmlns:cc="http://creativecommons.org/ns#"
   xmlns:rdf="http://www.w3.org/1999/02/22-rdf-syntax-ns#"
   xmlns:svg="http://www.w3.org/2000/svg"
   xmlns="http://www.w3.org/2000/svg"
   xmlns:sodipodi="http://sodipodi.sourceforge.net/DTD/sodipodi-0.dtd"
   xmlns:inkscape="http://www.inkscape.org/namespaces/inkscape"
   width="744.09448819"
   height="1052.3622047"
   id="svg2"
   version="1.1"
   inkscape:version="0.47pre4 r22446"
   sodipodi:docname="ll7.svg">
  <defs
     id="defs4">
    <inkscape:perspective
       sodipodi:type="inkscape:persp3d"
       inkscape:vp_x="0 : 526.18109 : 1"
       inkscape:vp_y="0 : 1000 : 0"
       inkscape:vp_z="744.09448 : 526.18109 : 1"
       inkscape:persp3d-origin="372.04724 : 350.78739 : 1"
       id="perspective10" />
  </defs>
  <sodipodi:namedview
     id="base"
     pagecolor="#ffffff"
     bordercolor="#666666"
     borderopacity="1.0"
     inkscape:pageopacity="0.0"
     inkscape:pageshadow="2"
     inkscape:zoom="0.35"
     inkscape:cx="375"
     inkscape:cy="520"
     inkscape:document-units="px"
     inkscape:current-layer="layer1"
     showgrid="false"
     inkscape:window-width="841"
     inkscape:window-height="603"
     inkscape:window-x="70"
     inkscape:window-y="68"
     inkscape:window-maximized="0" />
  <metadata
     id="metadata7">
    <rdf:RDF>
      <cc:Work
         rdf:about="">
        <dc:format>image/svg+xml</dc:format>
        <dc:type
           rdf:resource="http://purl.org/dc/dcmitype/StillImage" />
        <dc:title></dc:title>
      </cc:Work>
    </rdf:RDF>
  </metadata>
  <g
     inkscape:label="Layer 1"
     inkscape:groupmode="layer"
     id="layer1">
    <path
       style="fill:none;stroke:#000000;stroke-width:0.9722293px;stroke-linecap:butt;stroke-linejoin:miter;stroke-opacity:1"
       d="m 471.83658,282.06493 c -0.49751,-2.26365 -5.59374,-11.71386 -5.52949,-13.17288 0.0587,-1.33118 1.3255,-2.34863 1.38417,-3.67981 0.0878,-1.99179 -5.61727,-11.18112 -5.52949,-13.1729 0.0587,-1.33117 1.32549,-2.3486 1.38415,-3.67979 0.0875,-1.98438 -4.51103,-8.55395 -4.4236,-10.53831 0.0587,-1.33118 1.32551,-2.34862 1.38415,-3.67982 0.0889,-2.01751 -4.20152,-8.13729 -4.42359,-10.5383 -0.19506,-2.10929 0.6278,-4.22037 0.27826,-6.31438 -0.31261,-1.87296 -2.03729,-3.38255 -2.2118,-5.26915 -0.24674,-2.66808 2.65101,-4.69725 2.76833,-7.35963 0.0503,-1.14175 -4.76029,-11.34043 -5.5295,-13.1729 -0.57829,-1.37766 -3.80542,-9.98298 -4.42358,-10.53829 -2.08372,-1.87192 -8.26998,-3.00407 -10.78787,-4.76804 -1.71534,-1.20174 -2.98649,-3.02217 -4.70184,-4.22391 -1.0849,-0.76006 -2.39731,-1.05958 -3.59595,-1.58936 -3.59596,-1.58934 -7.19191,-3.17868 -10.78785,-4.76803 -1.19866,-0.52978 -2.39731,-1.05956 -3.59597,-1.58934 -1.19865,-0.52979 -2.3129,-1.47463 -3.59594,-1.58935 -0.90725,-0.0811 -1.58283,1.12635 -2.49006,1.04524 -1.58827,-0.142 -5.60364,-3.03669 -7.19191,-3.17868 -0.90724,-0.0811 -1.58606,0.99239 -2.49005,1.04523 -2.0214,0.11812 -4.0646,-0.66223 -6.08602,-0.54412 -0.90398,0.0528 -1.58279,1.12634 -2.49004,1.04523 -1.28306,-0.11471 -2.31291,-1.47462 -3.59595,-1.58933 -0.90726,-0.0811 -1.58607,0.99241 -2.49005,1.04523 -2.02142,0.11811 -4.06463,-0.66224 -6.08602,-0.5441 -1.808,0.10564 -3.1656,2.25266 -4.98011,2.09046 -1.28304,-0.11471 -2.31291,-1.47464 -3.59596,-1.58936 -0.90724,-0.0811 -1.66003,0.69682 -2.49005,1.04523 -0.83001,0.34841 -1.66003,0.69682 -2.49006,1.04524 -5.81012,2.43887 -11.62026,4.87775 -17.43038,7.31663 -4.98011,2.09046 -9.96022,4.18093 -14.94032,6.27139 -1.63624,0.68683 -6.27326,2.05052 -7.47017,3.1357 -15.36635,13.93218 3.60701,-2.40748 -5.25836,8.40487 -0.57753,0.70436 -1.91253,0.34086 -2.49006,1.04523 -0.81675,0.99613 -0.56741,2.68367 -1.38416,3.6798 -1.24124,1.51385 -13.73731,4.8042 -14.94032,6.27139 -0.81675,0.99613 -0.5674,2.68369 -1.38415,3.67982 -0.57754,0.70437 -2.85871,0.16703 -2.49007,1.04524 0.45396,1.08146 11.77052,-8.24711 -1.38416,3.6798 -1.26494,1.14687 -12.52779,5.25871 -14.94032,6.2714 -7.47017,3.1357 -14.94032,6.27139 -22.4105,9.4071 -1.30209,0.54657 -9.16009,4.25246 -9.96021,4.18092 -1.28304,-0.1147 -2.31291,-1.47464 -3.59596,-1.58933 -1.91974,-0.17163 -10.53053,5.3978 -12.45027,5.22616 -1.28305,-0.11471 -2.31292,-1.47463 -3.59595,-1.58935 -0.90725,-0.0811 -1.58281,1.12635 -2.49005,1.04523 -1.28305,-0.11471 -2.31291,-1.47462 -3.59595,-1.58933 -0.90726,-0.0811 -1.58281,1.12634 -2.49006,1.04523 -1.28305,-0.11472 -2.33011,-1.31042 -3.59595,-1.58934 -2.00149,-0.44104 -4.05735,-0.36276 -6.08602,-0.54413 -2.02866,-0.18137 -4.0646,-0.66223 -6.086,-0.5441 -1.80799,0.10564 -3.16561,2.2527 -4.98011,2.09047 -1.28304,-0.11471 -2.31291,-1.47464 -3.59595,-1.58934 -1.81451,-0.16224 -3.16562,2.25267 -4.9801,2.09046 -1.28307,-0.11472 -2.31293,-1.47463 -3.59596,-1.58936 -0.80014,-0.0715 -8.65814,3.63436 -9.96023,4.18093 -2.50762,1.05261 -13.76714,5.20772 -14.94033,6.2714 -0.94873,0.86019 -0.5674,2.68369 -1.38414,3.67982 -1.26845,1.54702 -10.56766,3.51925 -12.45028,5.22617 -1.50008,1.36007 -2.37416,3.36497 -3.87422,4.72504 -1.70753,1.54816 -8.72235,2.67123 -9.96021,4.18093 -0.81675,0.99612 -0.5674,2.68368 -1.38417,3.6798 -0.57752,0.70438 -1.91251,0.34086 -2.49004,1.04523 -0.81676,0.99614 -0.5674,2.6837 -1.38416,3.67983 -0.57753,0.70436 -1.91252,0.34086 -2.49005,1.04523 -0.81676,0.99612 -0.56741,2.68367 -1.38415,3.67981 -0.57754,0.70436 -1.81921,0.43699 -2.49005,1.04523 -1.50008,1.36005 -2.58283,3.15003 -3.87423,4.72503 -1.2914,1.57501 -2.78717,2.98756 -3.87421,4.72505 -1.37499,2.19776 -1.13481,5.36737 -2.76831,7.35962 -0.57754,0.70436 -1.91253,0.34086 -2.49005,1.04523 -0.81676,0.99613 -0.56741,2.68368 -1.38417,3.67981 -0.57753,0.70437 -1.91251,0.34087 -2.49005,1.04523 -0.51433,0.62727 -4.11553,10.20117 -4.15247,11.03943 -0.0415,0.94129 1.14737,1.69329 1.1059,2.63458 -0.0587,1.33119 -1.32549,2.34863 -1.38415,3.67981 -0.0875,1.98436 4.51104,8.55395 4.42359,10.53831 -0.0587,1.33117 -1.32551,2.34861 -1.38415,3.67981 -0.0423,0.96083 2.81964,6.71722 3.31769,7.90374 2.58043,6.14734 5.16085,12.29467 7.74128,18.44202 0.78387,1.8674 6.02755,15.26142 6.63539,15.80747 0.99123,0.89048 2.60472,0.69886 3.59595,1.58935 1.40182,1.25932 0.80997,4.00981 2.21179,5.26914 0.99123,0.89049 2.60472,0.69887 3.59596,1.58935 0.70089,0.62967 0.405,2.00491 1.10589,2.63458 5.8101,5.21952 2.10833,-1.95462 4.70186,4.22393 0.36863,0.87819 0.40499,2.0049 1.10589,2.63457 2.82111,2.53436 7.96675,2.23368 10.78786,4.76804 1.40183,1.25933 0.80997,4.00981 2.21179,5.26914 0.99123,0.89049 2.51108,0.8293 3.59597,1.58935 1.71535,1.20174 2.98648,3.02218 4.70185,4.22392 1.08489,0.76005 2.60471,0.69886 3.59595,1.58935 1.4776,1.32741 2.94597,9.21089 4.42359,10.5383 0.99122,0.89048 2.60471,0.69887 3.59595,1.58935 1.40182,1.25932 0.80997,4.00981 2.21179,5.26915 0.99122,0.89048 2.60472,0.69886 3.59596,1.58935 0.7009,0.62966 0.27588,2.98299 1.1059,2.63457 0.83002,-0.34841 -1.47453,-3.51277 -1.1059,-2.63457 0.73726,1.75638 0.98743,3.82324 2.2118,5.26915 0.86575,1.0224 2.60471,0.69885 3.59595,1.58935 0.70089,0.62965 0.73726,1.75637 1.10589,2.63457 1.07147,2.55255 5.48104,14.44429 6.63539,15.80746 1.36889,1.61655 3.33296,2.60736 4.70185,4.22393 0.61222,0.72294 0.27588,2.98299 1.1059,2.63458 1.02216,-0.42907 -8.40842,-12.5869 3.59596,1.58932 0.76847,0.90752 4.10517,10.67198 4.42359,10.53832 0.83002,-0.34841 -1.47453,-3.51277 -1.10589,-2.63458 1.84316,4.39096 3.68632,8.78193 5.52949,13.17289 0.36863,0.87819 0.73726,1.75637 1.10589,2.63456 0.36863,0.8782 1.14737,1.6933 1.1059,2.63458 -0.0587,1.3312 -1.3255,2.34863 -1.38417,3.67982 -0.083,1.88259 2.29476,3.38657 2.2118,5.26916 -0.0587,1.33117 -1.3255,2.34862 -1.38415,3.67981 -0.083,1.88259 2.29475,3.38655 2.21179,5.26914 -4.59067,12.2044 0.13117,-2.97662 -0.27826,6.31439 -0.0586,1.3312 -1.3255,2.34864 -1.38416,3.6798 -0.0366,0.83017 3.84529,9.16064 4.42359,10.53832 3.3177,7.90373 6.63539,15.80747 9.95309,23.7112 4.79222,11.4165 9.58444,22.83299 14.37667,34.24951 2.21179,5.26914 4.42359,10.53829 6.63538,15.80744 0.36864,0.8782 0.73727,1.75639 1.1059,2.63458 0.36864,0.8782 0.405,2.00491 1.1059,2.63459 0.99123,0.89048 2.60473,0.69886 3.59596,1.58934 0.61815,0.55531 3.8453,9.16063 4.42359,10.53829 4.05496,9.66012 8.10992,19.32025 12.16488,28.98036 0.57829,1.37767 3.80544,9.98298 4.42359,10.53831 0.99122,0.89047 2.60471,0.69885 3.59595,1.58935 0.7009,0.62966 0.73727,1.75638 1.1059,2.63458 1.84316,4.39095 3.68632,8.78191 5.52949,13.17288 0.36863,0.87819 0.73727,1.75639 1.1059,2.63457 0.36863,0.87819 0.40499,2.0049 1.10589,2.63457 0.99123,0.89049 2.60472,0.69888 3.59596,1.58936 0.71544,0.64276 2.81964,6.71723 3.31769,7.90373 2.58042,6.14733 5.16085,12.29469 7.74128,18.44203 1.84317,4.39098 3.68632,8.78192 5.52949,13.17289 0.36863,0.87819 0.73727,1.75639 1.1059,2.63457 0.36863,0.87819 0.40499,2.0049 1.1059,2.63458 0.99122,0.89048 2.60472,0.69887 3.59597,1.58935 1.53941,1.38293 3.81148,11.14406 5.52948,13.17287 1.3689,1.61657 3.33295,2.60737 4.70185,4.22392 1.22437,1.4459 0.80997,4.00983 2.2118,5.26916 0.99122,0.89049 2.60471,0.69888 3.59595,1.58936 0.70089,0.62965 0.73727,1.75638 1.1059,2.63457 1.19865,0.52978 2.60471,0.69884 3.59594,1.58934 1.47761,1.32742 2.94599,9.21089 4.4236,10.53831 1.98247,1.78096 5.20942,1.39773 7.19189,3.17869 0.70091,0.62967 0.40502,2.0049 1.1059,2.63457 0.99124,0.89049 2.60473,0.69888 3.59596,1.58934 1.40182,1.25933 0.80998,4.00981 2.21179,5.26916 11.92626,5.2712 -2.21647,-1.99117 4.70187,4.22392 1.25559,1.12797 8.8947,3.9313 10.78784,4.76803 2.11494,0.93477 12.97466,6.2314 14.38381,6.35739 0.90725,0.0811 1.58281,-1.12635 2.49006,-1.04524 2.56607,0.22943 4.62581,2.94927 7.19191,3.17868 0.90725,0.0811 1.58279,-1.12634 2.49005,-1.04523 1.28304,0.11472 2.31292,1.47465 3.59594,1.58934 0.9261,0.0828 6.34875,-2.66497 7.47018,-3.1357 1.66003,-0.69682 6.64015,-2.78729 4.9801,-2.09046 -1.66003,0.69681 -5.6326,3.82513 -4.9801,2.09046 7.46087,-19.8349 3.60487,-0.4132 8.85431,-6.81551 0.81675,-0.99611 0.92278,-2.4532 1.38416,-3.67979 0.46138,-1.2266 2.58282,-3.15003 1.38417,-3.67982 -1.19866,-0.52978 -1.84555,4.90641 -1.38417,3.67982 1.38417,-3.67982 2.76833,-7.35962 4.15248,-11.03944 1.08762,-2.89148 6.83217,-16.38801 6.92078,-18.39904 0.0423,-0.96083 -2.81965,-6.71724 -3.31769,-7.90373 -3.68633,-8.78193 -7.37266,-17.56386 -11.05898,-26.34577 -0.5783,-1.37769 -4.46018,-9.70816 -4.4236,-10.53832 0.0587,-1.33118 1.3255,-2.34862 1.38416,-3.67981 0.0845,-1.91712 -6.71987,-13.89033 -6.63539,-15.80744 0.0587,-1.3312 1.32549,-2.34864 1.38414,-3.67982 0.083,-1.88259 -2.29474,-3.38658 -2.21179,-5.26915 0.0587,-1.3312 1.50755,-2.34579 1.38417,-3.67982 -0.1745,-1.8866 -1.89919,-3.3962 -2.21179,-5.26915 -0.34955,-2.09401 0.47332,-4.2051 0.27825,-6.3144 -0.0872,-0.94331 -0.73726,-1.75638 -1.10589,-2.63457 0.0928,-2.10479 0.47334,-4.20508 0.27825,-6.31438 -0.1745,-1.88661 -2.0373,-3.38255 -2.21179,-5.26916 -0.19508,-2.1093 0.47333,-4.20509 0.27826,-6.31439 -0.0872,-0.9433 -1.14737,-1.69328 -1.10589,-2.63457 0.11732,-2.66238 2.65097,-4.69724 2.7683,-7.35961 0.0821,-1.86282 -3.12794,-5.85194 -3.31769,-7.90374 -0.19508,-2.1093 0.47334,-4.2051 0.27825,-6.3144 -0.0872,-0.94332 -1.14737,-1.69328 -1.1059,-2.63457 0.0587,-1.33119 1.32551,-2.34862 1.38416,-3.67981 0.1113,-2.52576 -3.42899,-5.37798 -3.3177,-7.90372 0.0587,-1.33118 1.32551,-2.34862 1.38415,-3.67982 0.11131,-2.52576 -3.42899,-5.37797 -3.31769,-7.90372 0.0587,-1.33119 1.3255,-2.34863 1.38416,-3.67982 0.0415,-0.94128 -1.01867,-1.69126 -1.1059,-2.63458 -0.19506,-2.10929 0.47335,-4.20509 0.27826,-6.31438 -0.1736,-1.8775 -4.53267,-10.79817 -5.52949,-13.17288 -0.36863,-0.8782 -1.01868,-1.69127 -1.10589,-2.63457 -0.19507,-2.1093 0.47334,-4.2051 0.27826,-6.31441 -0.17449,-1.88658 -2.29475,-3.38655 -2.21179,-5.26914 0.11732,-2.66239 2.65098,-4.69726 2.76831,-7.35962 0.0902,-2.04695 -6.37548,-12.99714 -6.63539,-15.80747 -0.19507,-2.10929 0.47334,-4.20508 0.27827,-6.31437 -0.17451,-1.88662 -2.29476,-3.38658 -2.2118,-5.26917 0.0586,-1.33118 1.32548,-2.34862 1.38415,-3.67981 0.083,-1.88258 -2.29476,-3.38656 -2.2118,-5.26915 0.0587,-1.33118 1.1668,-2.37313 1.38416,-3.67981 4.84317,-1.68008 -0.9204,-6.84417 -0.82764,-8.94897 0.0587,-1.33119 1.3255,-2.34861 1.38417,-3.6798 0.0415,-0.94129 -1.14738,-1.69331 -1.1059,-2.63458 0.0587,-1.33118 1.32549,-2.34862 1.38415,-3.67981 0.083,-1.88259 -2.29476,-3.38658 -2.21179,-5.26916 0.14513,-3.2937 4.27344,-6.69438 2.7683,-7.35961 -1.19865,-0.52979 -0.86283,4.92175 -1.38415,3.67981 -0.82429,-1.96371 -0.0654,-4.24835 0.27825,-6.31439 0.21736,-1.30668 0.92279,-2.45321 1.38418,-3.67981 0.46137,-1.2266 0.56739,-2.68368 1.38415,-3.67981 0.57752,-0.70437 2.85868,-0.16705 2.49005,-1.04523 -0.36863,-0.87819 -3.32007,1.39364 -2.49005,1.04523 3.32006,-1.39364 6.64013,-2.78729 9.9602,-4.18093 1.12143,-0.47073 6.54409,-3.2185 7.47017,-3.1357 1.62522,0.1453 8.89472,3.93129 10.78787,4.76803 1.19864,0.52978 2.39729,1.05956 3.59594,1.58935 1.19865,0.52977 2.60472,0.69886 3.59596,1.58934 1.52421,1.36929 4.81152,13.65364 6.63538,15.80746 1.3689,1.61656 3.33296,2.60736 4.70186,4.22392 1.71799,2.02882 3.99007,11.78993 5.52949,13.17289 0.99121,0.89048 2.6047,0.69885 3.59595,1.58935 1.40183,1.25932 0.80997,4.00981 2.21179,5.26914 0.99123,0.89049 2.60472,0.69887 3.59595,1.58935 1.40184,1.25933 0.80999,4.00983 2.2118,5.26916 0.99123,0.89048 2.60472,0.69886 3.59595,1.58933 1.40183,1.25933 0.98744,3.82325 2.21181,5.26916 1.36889,1.61656 3.33294,2.60737 4.70184,4.22393 1.22437,1.44589 0.80998,4.00981 2.21179,5.26914 0.99123,0.89049 2.60472,0.69887 3.59596,1.58934 1.40183,1.25933 0.80998,4.00984 2.2118,5.26917 0.99123,0.89048 2.60472,0.69886 3.59594,1.58935 1.88075,1.68956 1.43697,6.21415 3.31769,7.90372 0.99123,0.89049 2.60474,0.69886 3.59597,1.58934 1.88074,1.68958 1.43695,6.21418 3.31769,7.90373 0.99123,0.89048 2.60471,0.69887 3.59596,1.58935 1.4776,1.32742 2.94598,9.21089 4.42359,10.53831 0.99121,0.89048 2.60471,0.69885 3.59595,1.58935 0.70089,0.62966 0.73726,1.75638 1.1059,2.63458 1.19864,0.52978 2.60471,0.69885 3.59595,1.58933 1.40182,1.25934 0.98743,3.82326 2.21179,5.26915 1.36892,1.61657 3.33295,2.60736 4.70187,4.22393 1.22435,1.4459 0.80995,4.00982 2.21179,5.26914 0.99122,0.8905 2.60471,0.69888 3.59595,1.58936 1.40183,1.25932 0.98742,3.82325 2.2118,5.26915 1.36889,1.61657 3.33295,2.60737 4.70184,4.22392 0.61221,0.72293 0.73726,1.75637 1.1059,2.63457 1.56729,1.40797 3.33295,2.60736 4.70186,4.22393 1.22437,1.4459 0.80997,4.00983 2.21179,5.26915 0.99123,0.89049 2.60472,0.69887 3.59594,1.58934 1.40183,1.25933 0.80998,4.00983 2.2118,5.26917 0.99123,0.89048 2.60472,0.69886 3.59595,1.58933 1.47761,1.32742 2.94598,9.21091 4.4236,10.53831 1.98247,1.78097 5.20944,1.39773 7.19191,3.1787 1.4018,1.25933 0.80997,4.00981 2.21179,5.26915 0.99121,0.89048 2.6047,0.69886 3.59596,1.58933 0.70088,0.62967 0.40498,2.00491 1.10589,2.63457 0.99123,0.89051 2.60472,0.69888 3.59594,1.58936 0.70092,0.62967 0.405,2.00491 1.1059,2.63458 0.99122,0.89049 2.60474,0.69886 3.59597,1.58933 1.40181,1.25934 0.80997,4.00983 2.2118,5.26917 0.99121,0.89048 2.6047,0.69886 3.59595,1.58934 1.40182,1.25934 0.80995,4.00982 2.21179,5.26915 0.99123,0.89049 2.60472,0.69886 3.59595,1.58934 1.88074,1.68956 1.43696,6.21417 3.31769,7.90373 0.99123,0.89049 2.60473,0.69887 3.59595,1.58935 1.40183,1.25932 0.98744,3.82325 2.2118,5.26915 7.01826,8.28802 1.96851,1.37909 8.2978,5.81327 7.66934,0.48502 2.86394,4.2139 5.80775,6.8585 0.99122,0.89048 2.60472,0.69886 3.59596,1.58934 0.7009,0.62968 0.40499,2.00491 1.10591,2.63458 0.99121,0.89048 2.6047,0.69887 3.59593,1.58935 0.70091,0.62967 0.405,2.00491 1.10591,2.63458 1.64136,1.47453 5.55052,1.70414 7.19191,3.17868 0.70089,0.62966 0.405,2.00491 1.10589,2.63456 0.62423,0.56074 9.9799,4.69581 10.78785,4.76805 1.81452,0.16223 3.16562,-2.25269 4.98012,-2.09046 1.28304,0.1147 2.31291,1.47462 3.59594,1.58934 1.81451,0.16223 3.16562,-2.2527 4.98012,-2.09047 1.28305,0.1147 2.31291,1.47464 3.59596,1.58934 0.78678,0.0703 13.17536,-5.53053 14.94032,-6.27139 1.66004,-0.69683 3.32007,-1.39365 4.9801,-2.09046 0.83004,-0.34842 2.85871,-0.16706 2.49008,-1.04525 -0.36864,-0.8782 -3.32009,1.39365 -2.49008,1.04525 1.66005,-0.69683 3.32008,-1.39365 4.98012,-2.09047 0.83002,-0.34842 1.91253,-0.34087 2.49006,-1.04524 1.03459,-1.26178 3.42377,-9.10214 4.15248,-11.03943 2.12772,-5.65663 5.02239,-10.95595 4.43069,-17.35379 -0.17306,-1.87233 -3.53331,-8.4174 -4.4236,-10.53832 -3.68633,-8.78192 -7.37265,-17.56384 -11.05898,-26.34576 -0.5783,-1.37768 -3.80517,-9.98312 -4.42359,-10.53831 -0.9913,-0.89048 -2.60468,-0.69888 -3.59591,-1.58936 -1.88078,-1.68957 -1.43698,-6.21416 -3.3177,-7.90374 -0.99127,-0.89045 -2.60474,-0.69885 -3.59596,-1.58934 -0.70077,-0.62972 -0.49369,-1.91164 -1.1059,-2.63457 -1.36883,-1.61659 -3.33298,-2.60735 -4.70188,-4.22392 -0.61222,-0.72294 -0.40513,-2.00484 -1.10589,-2.63456 -0.99129,-0.89047 -2.60469,-0.69889 -3.59592,-1.58937 -1.40181,-1.25934 -0.98736,-3.82328 -2.21179,-5.26914 -1.36883,-1.61661 -3.33297,-2.60735 -4.70187,-4.22393 -0.61222,-0.72294 -0.40498,-2.00491 -1.10589,-2.63458 -0.99123,-0.89049 -2.60472,-0.69886 -3.59594,-1.58934 -0.70091,-0.62967 -0.405,-2.00491 -1.1059,-2.63459 -0.99123,-0.89047 -2.60473,-0.69884 -3.59596,-1.58933 -1.40182,-1.25934 -0.80998,-4.00983 -2.2118,-5.26917 -0.99122,-0.89047 -2.60471,-0.69885 -3.59596,-1.58934 -1.40182,-1.25931 -0.80996,-4.00982 -2.21179,-5.26914 -0.99123,-0.89049 -2.60471,-0.69888 -3.59594,-1.58935 -0.7009,-0.62965 -0.73727,-1.7564 -1.1059,-2.63459 -0.73727,-1.75638 -0.98743,-3.82324 -2.21179,-5.26914 -0.86577,-1.02241 -2.60474,-0.69886 -3.59598,-1.58934 -1.88073,-1.68958 -1.43695,-6.21417 -3.3177,-7.90374 -0.99121,-0.89047 -2.60469,-0.69885 -3.59594,-1.58933 -1.40181,-1.25934 -0.98742,-3.82327 -2.2118,-5.26917 -14.02264,-16.55963 2.46147,3.85235 -8.29779,-5.81327 -1.88075,-1.68956 -1.43696,-6.21415 -3.31769,-7.90372 -0.99123,-0.89048 -2.60472,-0.69886 -3.59597,-1.58935 -1.40181,-1.25933 -0.80997,-4.00982 -2.21179,-5.26914 -0.99123,-0.89049 -2.60471,-0.69888 -3.59595,-1.58935 -1.88073,-1.68956 -1.43695,-6.21416 -3.31769,-7.90372 -0.99123,-0.8905 -2.60472,-0.69887 -3.59594,-1.58936 -1.47763,-1.32741 -2.946,-9.21089 -4.4236,-10.53831 -0.99123,-0.89048 -2.60473,-0.69885 -3.59596,-1.58933 -1.49595,-1.3439 -3.85578,-11.19638 -5.52949,-13.17288 -1.36889,-1.61658 -3.33296,-2.60737 -4.70184,-4.22394 -1.22438,-1.4459 -0.98744,-3.82325 -2.2118,-5.26916 -1.36891,-1.61654 -3.33295,-2.60734 -4.70186,-4.22392 -1.22437,-1.4459 -1.47453,-3.51277 -2.21179,-5.26915 -2.21179,-5.26914 -4.42359,-10.53831 -6.63539,-15.80745 -0.36863,-0.8782 -0.73726,-1.75639 -1.1059,-2.63459 -0.36863,-0.87819 -0.40499,-2.0049 -1.10589,-2.63457 -0.99123,-0.89049 -2.60473,-0.69886 -3.59595,-1.58935 -1.5023,-1.34959 -2.86537,-8.69816 -4.42359,-10.5383 -1.3689,-1.61657 -3.33296,-2.60736 -4.70187,-4.22391 -1.09224,-1.28987 -2.591,-6.17254 -3.31769,-7.90374 -2.94907,-7.02554 -5.89812,-14.05107 -8.84719,-21.07662 -4.79222,-11.41649 -9.58445,-22.833 -14.37667,-34.24949 -2.2118,-5.26916 -4.42359,-10.53831 -6.63539,-15.80747 -0.36863,-0.8782 -0.73726,-1.75638 -1.1059,-2.63458 -0.36863,-0.8782 -1.14736,-1.69328 -1.1059,-2.63458 0.0587,-1.33119 1.32551,-2.34861 1.38418,-3.6798 0.0415,-0.9413 -0.73727,-1.75639 -1.1059,-2.63458 -0.36863,-0.87819 -0.73727,-1.75639 -1.1059,-2.63458 -0.36863,-0.87819 -0.27588,-2.98298 -1.10589,-2.63457 -0.83003,0.34841 1.47452,3.51276 1.10589,2.63457 -0.73726,-1.75639 -1.47453,-3.51276 -2.2118,-5.26916 -0.36863,-0.8782 -0.73726,-1.75638 -1.10589,-2.63457 -0.36863,-0.87819 -1.14737,-1.69329 -1.1059,-2.63458 0.0587,-1.33118 1.32549,-2.34863 1.38415,-3.6798 0.0415,-0.94129 -0.73727,-1.7564 -1.1059,-2.6346 -0.36863,-0.87819 -0.73726,-1.75637 -1.10589,-2.63456 -0.36864,-0.8782 -0.27588,-2.98298 -1.1059,-2.63457 -0.83001,0.34841 1.47453,3.51276 1.1059,2.63457 -5.03437,-11.99335 -1.23708,0.34205 -0.82763,-8.94896 0.0414,-0.94129 -1.68344,-1.93021 -1.1059,-2.63458 2.38122,-2.90418 5.90286,-4.54367 4.43071,-17.35382 z"
       id="path2816" />
  </g>
</svg>
