<?xml version="1.0" encoding="UTF-8" standalone="no"?>
<!-- Created with Inkscape (http://www.inkscape.org/) -->

<svg
   xmlns:dc="http://purl.org/dc/elements/1.1/"
   xmlns:cc="http://creativecommons.org/ns#"
   xmlns:rdf="http://www.w3.org/1999/02/22-rdf-syntax-ns#"
   xmlns:svg="http://www.w3.org/2000/svg"
   xmlns="http://www.w3.org/2000/svg"
   xmlns:sodipodi="http://sodipodi.sourceforge.net/DTD/sodipodi-0.dtd"
   xmlns:inkscape="http://www.inkscape.org/namespaces/inkscape"
   width="744.09448819"
   height="1052.3622047"
   id="svg2"
   version="1.1"
   inkscape:version="0.47pre4 r22446"
   sodipodi:docname="ll1.svg">
  <defs
     id="defs4">
    <inkscape:perspective
       sodipodi:type="inkscape:persp3d"
       inkscape:vp_x="0 : 526.18109 : 1"
       inkscape:vp_y="0 : 1000 : 0"
       inkscape:vp_z="744.09448 : 526.18109 : 1"
       inkscape:persp3d-origin="372.04724 : 350.78739 : 1"
       id="perspective10" />
  </defs>
  <sodipodi:namedview
     id="base"
     pagecolor="#ffffff"
     bordercolor="#666666"
     borderopacity="1.0"
     inkscape:pageopacity="0.0"
     inkscape:pageshadow="2"
     inkscape:zoom="0.35"
     inkscape:cx="375"
     inkscape:cy="520"
     inkscape:document-units="px"
     inkscape:current-layer="layer1"
     showgrid="false"
     inkscape:window-width="841"
     inkscape:window-height="603"
     inkscape:window-x="70"
     inkscape:window-y="68"
     inkscape:window-maximized="0" />
  <metadata
     id="metadata7">
    <rdf:RDF>
      <cc:Work
         rdf:about="">
        <dc:format>image/svg+xml</dc:format>
        <dc:type
           rdf:resource="http://purl.org/dc/dcmitype/StillImage" />
        <dc:title></dc:title>
      </cc:Work>
    </rdf:RDF>
  </metadata>
  <g
     inkscape:label="Layer 1"
     inkscape:groupmode="layer"
     id="layer1">
    <path
       style="fill:none;stroke:#000000;stroke-width:0.95859116px;stroke-linecap:butt;stroke-linejoin:miter;stroke-opacity:1"
       d="m 687.58697,156.12936 c -13.12299,-0.43777 -26.246,-0.87555 -39.369,-1.31332 -1.18201,-0.0394 -7.06549,-0.67062 -7.8738,-0.26268 -1.11987,0.56517 -1.50428,2.3818 -2.6874,2.76839 -1.71741,0.56116 -15.98809,-0.53336 -18.3722,-0.61289 -0.87486,-0.0292 -1.78801,-0.36091 -2.6246,-0.0876 -1.87067,0.61124 -3.44132,2.06959 -5.31199,2.68083 -1.49261,0.48771 -6.14916,-0.20514 -7.87381,-0.26267 -4.37432,-0.14592 -8.74867,-0.29184 -13.12299,-0.43777 -5.24921,-0.17511 -10.4984,-0.35023 -15.74761,-0.52534 -1.72464,-0.0575 -6.40481,0.32384 -7.87379,-0.26266 -1.84108,-0.73505 -3.45761,-2.0207 -5.18641,-3.03105 -1.7288,-1.01035 -3.58466,-1.79596 -5.1864,-3.03104 -1.01303,-0.78114 -1.666,-3.8663 -2.56179,-2.94351 -0.89581,0.9228 3.79904,2.98478 2.56179,2.94351 -1.95627,-0.0653 -3.34533,-2.296 -5.1864,-3.03106 -1.64669,-0.65746 -3.49947,-0.11675 -5.2492,-0.17512 -4.37433,-0.14593 -8.74866,-0.29184 -13.123,-0.43777 -0.87487,-0.0292 -1.74973,-0.0584 -2.6246,-0.0875 -0.87487,-0.0292 -2.60366,-1.03954 -2.62459,-0.0875 -0.0209,0.95198 3.49947,0.11674 2.62459,0.0875 -1.74972,-0.0584 -3.49947,-0.11674 -5.24919,-0.17511 -5.24921,-0.17511 -10.49841,-0.35022 -15.7476,-0.52533 -0.87488,-0.0292 -2.60367,-1.03954 -2.6246,-0.0875 -0.021,0.95197 3.49947,0.11673 2.6246,0.0875 -1.74973,-0.0584 -3.49948,-0.11675 -5.24921,-0.17511 -0.87487,-0.0292 -1.788,-0.36092 -2.6246,-0.0876 -1.87067,0.61125 -3.44132,2.06959 -5.312,2.68084 -0.83658,0.27334 -1.83273,-0.4872 -2.6246,-0.0875 -1.11987,0.56516 -1.56752,2.20321 -2.68739,2.76839 -0.79188,0.39963 -1.83274,-0.4872 -2.6246,-0.0876 -1.11987,0.56518 -1.56754,2.20322 -2.68741,2.76839 -0.79186,0.39964 -2.60367,-1.03953 -2.62459,-0.0875 -0.0209,0.95197 3.49945,0.11674 2.62459,0.0875 -1.03753,-0.0346 -12.01548,0.20948 -13.12299,-0.43777 -1.0934,-0.63901 -1.32456,-2.90222 -2.5618,-2.9435 -1.23725,-0.0413 -1.79161,1.84558 -2.68741,2.76838 -0.8958,0.92279 -2.1076,1.58268 -2.6874,2.76838 -1.10007,2.24974 0.91169,6.3181 -0.1884,8.56783 -0.57979,1.18571 -2.1076,1.58268 -2.68739,2.76839 -0.36158,0.73943 -0.21836,9.93033 -0.25121,11.42376 -0.0436,1.98641 -0.76585,13.23106 -0.31399,14.2797 0.52683,1.22263 2.03496,1.72088 2.5618,2.9435 0.37252,0.86453 -0.31961,1.94358 -0.0629,2.85594 0.57422,2.04008 1.92478,3.75935 2.49899,5.79943 0.51361,1.82472 -0.87065,3.98283 -0.12559,5.71189 0.52684,1.22263 2.03497,1.72086 2.56181,2.94349 0.37251,0.86453 -0.43533,1.99142 -0.0629,2.85594 0.52684,1.22263 2.03497,1.72086 2.56181,2.9435 0.9996,2.31977 -1.18801,6.24804 -0.18841,8.56782 0.52684,1.22262 2.03497,1.72086 2.5618,2.94349 0.37253,0.86453 -0.0419,1.90397 -0.0628,2.85594 -0.0209,0.95198 -0.0419,1.90396 -0.0628,2.85594 -0.10466,4.75991 -0.20933,9.5198 -0.314,14.27971 -0.0412,1.87666 -0.64656,6.94004 -0.1884,8.56782 0.57423,2.04009 1.92479,3.75934 2.499,5.79943 0.45817,1.62779 -0.14713,6.69117 -0.1884,8.56783 -0.0436,1.98642 -0.76585,13.23106 -0.314,14.27971 0.52684,1.22261 2.19863,1.65323 2.56181,2.94349 -0.28588,13.00105 -1.24085,0.12205 2.4362,8.65537 0.37253,0.86452 -0.0419,1.90396 -0.0629,2.85594 -0.0419,1.90396 -0.6392,3.88717 -0.1256,5.71189 0.36317,1.29026 2.03495,1.72086 2.5618,2.94349 0.9996,2.31977 -1.188,6.24804 -0.1884,8.56782 0.52683,1.22262 2.03497,1.72086 2.5618,2.94349 0.75873,1.76078 -1.13553,15.37487 -0.3768,17.13565 0.52683,1.22262 2.03497,1.72086 2.5618,2.94349 0.38026,0.88249 -0.16012,7.28163 -0.1884,8.56783 -0.14654,6.66385 -0.29307,13.32771 -0.43959,19.99158 -0.0283,1.28619 -0.56867,7.68533 -0.18842,8.56783 5.71849,13.27086 -0.82133,-12.15525 5.06081,8.74292 0.5136,1.82471 -0.63919,3.88717 -0.1256,5.71188 0.57422,2.0401 1.92479,3.75934 2.49901,5.79944 0.55856,1.98448 -0.92564,6.85693 -0.1884,8.56782 0.52683,1.22263 2.03495,1.72087 2.56178,2.9435 0.37254,0.86452 -0.43531,1.99141 -0.0628,2.85593 0.52685,1.22263 2.03497,1.72088 2.5618,2.9435 0.9996,2.31978 -1.18799,6.24805 -0.18839,8.56783 0.52683,1.22263 2.03496,1.72086 2.56179,2.9435 0.9996,2.31976 -1.18799,6.24803 -0.18839,8.56781 0.52683,1.22263 2.03497,1.72087 2.5618,2.9435 0.74505,1.72906 -0.87066,3.98282 -0.1256,5.71188 0.52683,1.22263 2.03495,1.72086 2.5618,2.9435 0.73723,1.71089 -0.74697,6.58333 -0.1884,8.56781 0.57422,2.0401 0.72833,6.69305 2.499,5.79944 1.77066,-0.89361 -2.45219,-7.92812 -2.499,-5.79944 -0.0863,3.92512 1.11386,7.82225 2.37339,11.51132 0.76282,2.23422 9.14263,9.2106 10.24721,11.77399 0.37253,0.86452 -0.0419,1.90396 -0.0627,2.85594 -0.0209,0.95197 -0.0419,1.90396 -0.0629,2.85594 -0.10468,4.7599 -0.20934,9.5198 -0.31401,14.2797 -0.0419,1.90397 -0.63919,3.88717 -0.1256,5.71188 0.57422,2.04009 1.92478,3.75934 2.499,5.79943 0.76964,2.73438 -1.08364,11.54534 -0.314,14.27971 0.57421,2.04009 1.92479,3.75934 2.499,5.79943 0.51112,1.8159 -0.25739,11.70547 -0.314,14.27971 -0.23027,10.47178 -0.46053,20.94356 -0.6908,31.41534 -0.6908,31.41536 -1.3816,62.8307 -2.0724,94.24604 -0.27213,12.37574 -0.54427,24.75148 -0.81639,37.12723 -0.0437,1.98641 -0.76588,13.23106 -0.314,14.2797 0.52683,1.22263 2.03496,1.72087 2.56179,2.94349 0.79846,1.85298 -0.90484,9.10153 -0.2512,11.42376 0.57423,2.0401 1.92478,3.75934 2.49901,5.79944 0.72066,2.56036 -1.13219,12.38092 -0.31401,14.2797 0.52684,1.22263 2.03497,1.72087 2.56181,2.9435 0.37253,0.86453 -0.0419,1.90396 -0.0628,2.85594 -0.0209,0.95198 -0.0419,1.90396 -0.0629,2.85594 -0.10467,4.7599 -0.20933,9.5198 -0.31401,14.27971 -0.0209,0.95198 -0.0419,1.90395 -0.0629,2.85594 -0.0209,0.95197 -0.43533,1.99141 -0.0629,2.85593 0.52684,1.22264 2.03497,1.72087 2.56181,2.9435 0.79845,1.85298 -0.90484,9.10153 -0.25121,11.42377 0.57423,2.04008 1.92479,3.75934 2.49901,5.79942 0.73086,2.59662 -0.91927,5.97121 -0.18841,8.56783 0.57422,2.0401 1.92478,3.75934 2.49901,5.79944 0.76506,2.71812 -1.18691,15.25562 -0.37681,17.13564 0.52685,1.22263 2.03497,1.72086 2.56181,2.9435 0.37253,0.86452 -0.0419,1.90395 -0.0628,2.85593 -0.021,0.95199 -0.0419,1.90396 -0.0629,2.85594 -0.0608,2.76703 -0.86102,15.41533 -0.3768,17.13565 0.57422,2.04009 1.92478,3.75934 2.499,5.79944 0.51359,1.82471 -0.0837,3.80792 -0.12561,5.71188 -0.0209,0.95197 -0.0419,1.90395 -0.0629,2.85593 -0.0209,0.95198 -0.43531,1.99141 -0.0628,2.85595 0.52684,1.22262 2.03498,1.72086 2.56181,2.94349 0.73921,1.71549 -0.89968,14.59961 -0.3768,17.13565 0.42904,2.08096 1.92477,3.75934 2.499,5.79943 0.72065,2.56035 -1.13219,12.38091 -0.31401,14.27971 0.52685,1.22262 2.03497,1.72086 2.56181,2.94349 0.9996,2.31977 -1.18801,6.24804 -0.18841,8.56782 0.52684,1.22264 2.03498,1.72086 2.56181,2.94349 -0.0209,0.95199 -0.0419,1.90396 -0.0629,2.85594 -0.0209,0.95199 -0.43533,1.99142 -0.0628,2.85595 0.52683,1.22262 2.03497,1.72086 2.5618,2.94349 0.37253,0.86454 -0.43533,1.99142 -0.0628,2.85594 0.52683,1.22263 2.03496,1.72088 2.56179,2.94351 0.37253,0.86452 -0.43533,1.99139 -0.0629,2.85594 0.52684,1.22263 2.03497,1.72085 2.5618,2.94349 0.74506,1.72905 -0.87066,3.98282 -0.1256,5.71188 1.05366,2.44526 4.06992,3.44174 5.1236,5.88699 0.74506,1.72905 -0.87066,3.98282 -0.1256,5.71188 0.52684,1.22263 2.03496,1.72087 2.5618,2.9435 0.74506,1.72905 -0.87066,3.98282 -0.12561,5.71188 0.52684,1.22263 2.03497,1.72086 2.56181,2.94349 0.37253,0.86453 -0.43533,1.99142 -0.0628,2.85594 0.52682,1.22263 1.70787,1.96233 2.5618,2.9435 0.85393,0.98117 1.4684,2.3045 2.56179,2.9435 0.77315,0.45184 1.83274,0.48719 2.6246,0.0875 0.7052,-0.35589 7.6971,-7.5585 8.0622,-8.30515 0.40998,-0.83844 0.0419,-1.90397 0.0628,-2.85594 0.0209,-0.95198 0.0419,-1.90397 0.0629,-2.85595 0.20933,-9.5198 0.41867,-19.0396 0.62801,-28.5594 0.0566,-2.57424 0.82511,-12.46381 0.31399,-14.2797 -0.57421,-2.04009 -1.92478,-3.75935 -2.49899,-5.79944 -0.45817,-1.62779 0.14713,-6.69115 0.1884,-8.56781 0.14652,-6.66387 0.29306,-13.32773 0.4396,-19.99159 0.20932,-9.5198 0.41866,-19.03961 0.62799,-28.5594 0.0566,-2.57425 -0.27617,-12.50055 0.31399,-14.27972 0.66305,-1.99881 2.08718,-3.62551 2.7502,-5.62431 0.88869,-2.67905 -0.57466,-11.60065 0.31401,-14.27971 0.66303,-1.99882 2.08717,-3.62551 2.75021,-5.62432 0.83211,-2.50856 -0.58645,-12.43825 0.314,-14.27971 0.57978,-1.18571 2.1076,-1.58267 2.68739,-2.76839 0.83499,-1.7076 -0.45818,-15.42802 0.3768,-17.13564 0.5798,-1.1857 2.1076,-1.58267 2.6874,-2.76838 0.40998,-0.83842 -0.23372,-1.96203 0.0628,-2.85594 0.66304,-1.99882 2.23033,-3.57501 2.75019,-5.62433 0.46501,-1.83295 -0.46742,-3.92408 0.12561,-5.71187 0.41934,-1.26417 2.10761,-1.58268 2.68741,-2.7684 1.10007,-2.24972 -0.91168,-6.31808 0.1884,-8.5678 0.57979,-1.18572 2.1076,-1.58269 2.68739,-2.7684 0.40998,-0.83842 -0.34717,-2.01751 0.0628,-2.85594 0.57978,-1.18572 2.10761,-1.58267 2.68739,-2.76838 0.87226,-1.78381 -0.57929,-12.45286 0.31401,-14.27971 6.29328,-12.87016 -1.3543,12.08266 5.4376,-8.39271 0.75473,-2.27525 -0.62753,-9.62673 0.2512,-11.42376 0.57979,-1.1857 2.10761,-1.58266 2.68739,-2.76838 0.81996,-1.67685 -0.69434,-4.03504 0.1256,-5.71189 0.5798,-1.1857 2.10762,-1.58267 2.6874,-2.76838 0.36157,-0.73943 0.21836,-9.93033 0.25121,-11.42376 0.0413,-1.87666 -0.34063,-6.97297 0.18839,-8.56782 0.66304,-1.99882 2.08717,-3.62551 2.75021,-5.62432 0.29651,-0.89391 0.0419,-1.90397 0.0629,-2.85595 0.0419,-1.90396 -0.46743,-3.92409 0.1256,-5.71187 0.41933,-1.26417 2.1076,-1.58268 2.6874,-2.7684 1.10009,-2.24973 -0.91169,-6.31809 0.1884,-8.56782 0.5798,-1.1857 2.1076,-1.58267 2.6874,-2.76838 0.75202,-1.53794 -0.30088,-6.63912 0.1884,-8.56783 5.98419,-23.58928 -0.257,3.44139 5.5632,-14.10459 0.64496,-1.94433 -0.62294,-6.90858 0.18841,-8.56781 0.57978,-1.18572 2.10759,-1.58267 2.68738,-2.76839 0.86751,-1.77412 -0.5535,-12.50559 0.31401,-14.27971 0.57979,-1.1857 2.10761,-1.58266 2.6874,-2.76838 0.89154,-1.82326 -0.5066,-14.47251 0.3768,-17.13565 0.66303,-1.99881 2.08717,-3.6255 2.75021,-5.62431 0.29651,-0.89391 0.0419,-1.90396 0.0628,-2.85594 0.0566,-2.57425 -0.27617,-12.50055 0.314,-14.27971 0.66304,-1.99882 2.08717,-3.6255 2.7502,-5.62432 0.29652,-0.8939 0.0419,-1.90397 0.0629,-2.85594 0.0566,-2.57425 -0.27617,-12.50055 0.314,-14.27971 0.66303,-1.99882 2.08717,-3.62551 2.75019,-5.62432 0.59304,-1.7878 0.0837,-3.80792 0.1256,-5.71188 0.1256,-5.71188 0.2512,-11.42376 0.3768,-17.13565 0.0413,-1.87666 -0.34063,-6.97297 0.1884,-8.56782 0.66305,-1.99881 2.08717,-3.6255 2.75022,-5.62432 0.99636,-3.00375 -0.74519,-8.42002 0.25119,-11.42377 0.66302,-1.99881 2.08717,-3.6255 2.75019,-5.62432 0.55912,-1.68551 0.31596,-14.36862 0.37681,-17.13565 0.021,-0.95197 -0.23372,-1.96203 0.0629,-2.85593 0.66302,-1.99882 2.08717,-3.6255 2.75019,-5.62433 0.55911,-1.68551 0.31595,-14.36861 0.37681,-17.13564 0.0209,-0.95198 -0.34719,-2.01752 0.0627,-2.85595 0.5798,-1.18569 2.10761,-1.58266 2.68741,-2.76838 0.40997,-0.83842 0.0419,-1.90395 0.0628,-2.85593 0.0209,-0.95199 0.0419,-1.90397 0.0628,-2.85595 0.10467,-4.7599 0.20934,-9.5198 0.31399,-14.2797 0.0209,-0.95198 0.0419,-1.90396 0.0628,-2.85594 0.021,-0.95197 -0.34718,-2.01751 0.0628,-2.85595 0.5798,-1.1857 2.10761,-1.58266 2.6874,-2.76838 0.40998,-0.83842 0.93767,-2.82675 0.0629,-2.85593 -0.87486,-0.0292 -0.0837,3.80792 -0.0629,2.85593 0.0351,-1.59569 -0.23934,-12.61156 0.314,-14.2797 0.66303,-1.99881 2.08717,-3.6255 2.7502,-5.62432 0.83211,-2.50855 -0.58644,-12.43826 0.314,-14.2797 0.5798,-1.18572 2.10761,-1.58269 2.6874,-2.76839 0.40998,-0.83842 0.0419,-1.90397 0.0629,-2.85594 0.0209,-0.95198 0.0419,-1.90397 0.0628,-2.85594 0.1256,-5.71188 0.2512,-11.42376 0.37679,-17.13565 0.1256,-5.71187 0.2512,-11.42376 0.3768,-17.13564 0.0209,-0.95198 0.0419,-1.90396 0.0629,-2.85594 0.0209,-0.95198 -0.34718,-2.01752 0.0628,-2.85593 0.57979,-1.18572 2.1076,-1.58268 2.68741,-2.76839 0.81994,-1.67686 -0.46744,-3.92408 0.1256,-5.71189 0.66302,-1.99881 2.08716,-3.6255 2.75019,-5.62432 0.59303,-1.7878 0.0837,-3.80792 0.1256,-5.71188 0.10467,-4.7599 0.20933,-9.5198 0.314,-14.27971 0.39774,-18.08761 0.79547,-36.17524 1.19319,-54.26286 0.10468,-4.75991 0.20935,-9.51981 0.314,-14.2797 0.0413,-1.87666 -0.34062,-6.97298 0.18841,-8.56782 1.32606,-3.99764 4.17433,-7.25101 5.50039,-11.24866 0.64496,-1.94433 -0.62293,-6.90858 0.1884,-8.56782 0.5798,-1.18571 2.10761,-1.58267 2.68741,-2.76839 0.40997,-0.83842 -0.34718,-2.01751 0.0628,-2.85594 0.57981,-1.18571 2.10761,-1.58267 2.68741,-2.76837 1.46387,-2.99371 -1.33826,-2.71819 0.1256,-5.71189 0.57979,-1.18571 2.10759,-1.58267 2.68739,-2.76839 0.40998,-0.83842 -0.34717,-2.01752 0.0628,-2.85593 0.57979,-1.18572 1.7916,-1.8456 2.6874,-2.76839 0.89579,-0.9228 1.7916,-1.84559 2.68739,-2.76839 0.89581,-0.92279 1.7916,-1.84559 2.6874,-2.76838 0.8958,-0.9228 2.10761,-1.58268 2.6874,-2.76838 0.40998,-0.83843 0.0419,-1.90397 0.0628,-2.85595 0.0209,-0.95197 0.0419,-1.90396 0.0629,-2.85594 0.10466,-4.7599 0.20933,-9.5198 -10.1844,-14.62992 z"
       id="path3159" />
  </g>
</svg>
