<?xml version="1.0" encoding="UTF-8" standalone="no"?>
<!-- Created with Inkscape (http://www.inkscape.org/) -->

<svg
   xmlns:dc="http://purl.org/dc/elements/1.1/"
   xmlns:cc="http://creativecommons.org/ns#"
   xmlns:rdf="http://www.w3.org/1999/02/22-rdf-syntax-ns#"
   xmlns:svg="http://www.w3.org/2000/svg"
   xmlns="http://www.w3.org/2000/svg"
   xmlns:sodipodi="http://sodipodi.sourceforge.net/DTD/sodipodi-0.dtd"
   xmlns:inkscape="http://www.inkscape.org/namespaces/inkscape"
   width="744.09448819"
   height="1052.3622047"
   id="svg2"
   version="1.1"
   inkscape:version="0.47pre4 r22446"
   sodipodi:docname="lr1.svg">
  <defs
     id="defs4">
    <inkscape:perspective
       sodipodi:type="inkscape:persp3d"
       inkscape:vp_x="0 : 526.18109 : 1"
       inkscape:vp_y="0 : 1000 : 0"
       inkscape:vp_z="744.09448 : 526.18109 : 1"
       inkscape:persp3d-origin="372.04724 : 350.78739 : 1"
       id="perspective10" />
  </defs>
  <sodipodi:namedview
     id="base"
     pagecolor="#ffffff"
     bordercolor="#666666"
     borderopacity="1.0"
     inkscape:pageopacity="0.0"
     inkscape:pageshadow="2"
     inkscape:zoom="0.35"
     inkscape:cx="375"
     inkscape:cy="520"
     inkscape:document-units="px"
     inkscape:current-layer="layer1"
     showgrid="false"
     inkscape:window-width="841"
     inkscape:window-height="603"
     inkscape:window-x="70"
     inkscape:window-y="68"
     inkscape:window-maximized="0" />
  <metadata
     id="metadata7">
    <rdf:RDF>
      <cc:Work
         rdf:about="">
        <dc:format>image/svg+xml</dc:format>
        <dc:type
           rdf:resource="http://purl.org/dc/dcmitype/StillImage" />
        <dc:title></dc:title>
      </cc:Work>
    </rdf:RDF>
  </metadata>
  <g
     inkscape:label="Layer 1"
     inkscape:groupmode="layer"
     id="layer1">
    <path
       style="fill:none;stroke:#000000;stroke-width:0.95859116px;stroke-linecap:butt;stroke-linejoin:miter;stroke-opacity:1"
       d="m 699.40593,159.39446 c -13.10512,-0.81266 -26.21025,-1.62532 -39.31538,-2.43798 -1.1804,-0.0732 -7.04344,-0.87229 -7.86308,-0.48762 -1.13556,0.53294 -1.57174,2.33784 -2.76542,2.69045 -1.73275,0.51185 -15.96632,-0.99009 -18.34718,-1.13773 -0.87367,-0.0542 -1.77696,-0.41187 -2.62102,-0.16258 -1.88738,0.55753 -3.49907,1.97039 -5.38644,2.52791 -1.50594,0.44486 -6.14079,-0.3808 -7.86309,-0.4876 -4.36836,-0.27088 -8.73675,-0.54177 -13.10512,-0.81266 -5.24206,-0.32506 -10.4841,-0.65014 -15.72616,-0.9752 -1.72229,-0.10677 -6.41145,0.14065 -7.86307,-0.4876 -1.81931,-0.78737 -3.39844,-2.11869 -5.09766,-3.17804 -1.69921,-1.05935 -3.53186,-1.89768 -5.09765,-3.17804 -0.99029,-0.80977 -1.55481,-3.91233 -2.47661,-3.01552 -0.92182,0.89682 3.71218,3.09214 2.47661,3.01552 -1.9536,-0.12118 -3.27834,-2.39067 -5.09765,-3.17805 -1.62722,-0.70426 -3.4947,-0.21672 -5.24205,-0.32508 -4.36837,-0.27089 -8.73674,-0.54176 -13.10513,-0.81265 -0.87367,-0.0542 -1.74734,-0.10839 -2.62102,-0.16248 -0.87368,-0.0542 -2.57289,-1.11353 -2.62102,-0.16248 -0.0481,0.95099 3.4947,0.21671 2.62102,0.16248 -1.74734,-0.10839 -3.49471,-0.21671 -5.24204,-0.32507 -5.24206,-0.32506 -10.48412,-0.65013 -15.72616,-0.97519 -0.87368,-0.0542 -2.57289,-1.11354 -2.62102,-0.16248 -0.0482,0.95098 3.4947,0.2167 2.62102,0.16248 -1.74734,-0.10839 -3.49471,-0.21673 -5.24206,-0.32507 -0.87367,-0.0542 -1.77695,-0.41188 -2.62102,-0.16258 -1.88738,0.55754 -3.49907,1.97039 -5.38645,2.52792 -0.84405,0.24932 -1.81806,-0.53938 -2.62103,-0.16247 -1.13556,0.53292 -1.62985,2.15751 -2.76541,2.69045 -0.80298,0.37683 -1.81807,-0.53939 -2.62103,-0.16258 -1.13556,0.53294 -1.62987,2.15752 -2.76543,2.69045 -0.80296,0.37684 -2.5729,-1.11352 -2.62102,-0.16248 -0.0481,0.95099 3.49468,0.21671 2.62102,0.16248 -1.03612,-0.0642 -12.01656,-0.13402 -13.10512,-0.81266 -1.07469,-0.67 -1.24107,-2.93889 -2.47663,-3.01552 -1.23556,-0.0766 -1.84362,1.79363 -2.76543,2.69045 -0.92181,0.89681 -2.15197,1.52179 -2.76543,2.69044 -1.16392,2.21738 0.73074,6.34157 -0.4332,8.55894 -0.61344,1.16866 -2.15197,1.5218 -2.76541,2.69045 -0.38257,0.7288 -0.50209,9.92003 -0.57761,11.41192 -0.10036,1.98435 -1.14369,13.20376 -0.72199,14.26489 0.49167,1.23719 1.98494,1.77834 2.47663,3.01551 0.34765,0.87483 -0.37503,1.93366 -0.1445,2.85298 0.51567,2.05566 1.81654,3.81283 2.33221,5.86848 0.46125,1.83866 -0.98413,3.95632 -0.28879,5.70597 0.49168,1.23719 1.98496,1.77832 2.47664,3.01551 0.34765,0.87482 -0.49207,1.97816 -0.1445,2.85297 0.49168,1.23719 1.98495,1.77832 2.47663,3.01552 0.93289,2.34739 -1.3661,6.21153 -0.43321,8.55893 0.49168,1.23718 1.98496,1.77832 2.47663,3.01551 0.34767,0.87482 -0.0963,1.902 -0.1444,2.85298 -0.0481,0.95099 -0.0963,1.90198 -0.1444,2.85298 -0.24066,4.75497 -0.48133,9.50993 -0.722,14.2649 -0.0948,1.87472 -0.84465,6.91873 -0.4332,8.55893 0.51569,2.05567 1.81656,3.81282 2.33223,5.86849 0.41146,1.64022 -0.33831,6.68423 -0.4332,8.55894 -0.10036,1.98437 -1.1437,13.20377 -0.722,14.26491 0.49168,1.23716 2.15048,1.71539 2.47663,3.0155 -0.65734,12.98757 -1.24383,0.0865 2.18783,8.72147 0.34767,0.87481 -0.0963,1.90198 -0.1445,2.85297 -0.0963,1.90199 -0.75004,3.86731 -0.2888,5.70597 0.32614,1.30011 1.98493,1.77832 2.47663,3.0155 0.93289,2.3474 -1.36609,6.21154 -0.4332,8.55894 0.49167,1.23718 1.98495,1.77832 2.47662,3.01551 0.7081,1.78174 -1.57449,15.33613 -0.8664,17.11788 0.49167,1.23717 1.98496,1.77832 2.47663,3.0155 0.35488,0.893 -0.36817,7.27408 -0.4332,8.55895 -0.33694,6.65694 -0.67387,13.31389 -1.01079,19.97085 -0.065,1.28485 -0.78809,7.66593 -0.43322,8.55894 5.33686,13.42888 -0.47359,-12.17376 4.80886,8.88399 0.46124,1.83865 -0.75003,3.86732 -0.2888,5.70596 0.51568,2.05568 1.81656,3.81282 2.33224,5.86849 0.50161,1.99964 -1.12124,6.82768 -0.4332,8.55894 0.49167,1.23719 1.98493,1.77833 2.4766,3.01552 0.34768,0.87481 -0.49205,1.97815 -0.1444,2.85296 0.49169,1.23719 1.98496,1.77834 2.47663,3.01552 0.93289,2.3474 -1.36608,6.21154 -0.43319,8.55895 0.49167,1.23718 1.98494,1.77831 2.47661,3.01551 0.9329,2.34738 -1.36607,6.21153 -0.43318,8.55893 0.49167,1.23719 1.98495,1.77833 2.47662,3.01551 0.69533,1.74965 -0.98414,3.95631 -0.2888,5.70596 0.49167,1.23719 1.98494,1.77832 2.47663,3.01552 0.68803,1.73126 -0.93483,6.55929 -0.4332,8.55892 0.51567,2.05568 0.53674,6.71113 2.33222,5.8685 1.79548,-0.84264 -2.22459,-7.99497 -2.33222,-5.8685 -0.19845,3.92105 0.88983,7.85089 2.04341,11.57445 0.69866,2.25511 8.87565,9.46815 9.90652,12.06206 0.34766,0.87481 -0.0963,1.90198 -0.1443,2.85298 -0.0481,0.95098 -0.0963,1.90198 -0.1445,2.85297 -0.24068,4.75497 -0.48134,9.50993 -0.72201,14.2649 -0.0963,1.90199 -0.75003,3.86731 -0.2888,5.70595 0.51567,2.05567 1.81654,3.81282 2.33222,5.86849 0.69118,2.75526 -1.41317,11.50965 -0.722,14.2649 0.51567,2.05567 1.81656,3.81282 2.33223,5.86848 0.45901,1.82977 -0.59184,11.69334 -0.722,14.26491 -0.52947,10.46092 -1.05893,20.92184 -1.5884,31.38276 -1.5884,31.38278 -3.1768,62.76554 -4.76519,94.14831 -0.62573,12.3629 -1.25147,24.72581 -1.87719,37.08873 -0.10046,1.98435 -1.14372,13.20376 -0.722,14.26489 0.49167,1.23719 1.98494,1.77833 2.47662,3.0155 0.74517,1.87505 -1.16461,9.07196 -0.5776,11.41192 0.51568,2.05568 1.81654,3.81281 2.33223,5.86849 0.64719,2.57991 -1.48558,12.34351 -0.72201,14.26489 0.49168,1.23719 1.98496,1.77833 2.47664,3.01552 0.34767,0.87483 -0.0963,1.90199 -0.1444,2.85298 -0.0481,0.95099 -0.0963,1.90198 -0.1445,2.85298 -0.24067,4.75496 -0.48133,9.50992 -0.72201,14.2649 -0.0481,0.95099 -0.0963,1.90197 -0.1445,2.85297 -0.0481,0.95099 -0.49207,1.97816 -0.1445,2.85297 0.49168,1.2372 1.98495,1.77833 2.47663,3.01551 0.74517,1.87505 -1.1646,9.07196 -0.5776,11.41193 0.51568,2.05566 1.81655,3.81281 2.33223,5.86847 0.65635,2.61645 -1.08956,5.9425 -0.43321,8.55895 0.51568,2.05568 1.81655,3.81281 2.33224,5.86849 0.68706,2.73888 -1.62245,15.21547 -0.86641,17.11787 0.49169,1.23719 1.98495,1.77832 2.47663,3.01552 0.34767,0.87481 -0.0963,1.90197 -0.1444,2.85297 -0.0482,0.951 -0.0963,1.90198 -0.1445,2.85297 -0.13986,2.76417 -1.30125,15.38443 -0.8664,17.11788 0.51568,2.05567 1.81655,3.81282 2.33223,5.8685 0.46123,1.83864 -0.1925,3.80397 -0.28881,5.70595 -0.0481,0.95099 -0.0963,1.90198 -0.1445,2.85297 -0.0481,0.95099 -0.49205,1.97816 -0.1444,2.85299 0.49168,1.23718 1.98497,1.77832 2.47664,3.01551 0.68987,1.73591 -1.31659,14.56793 -0.8664,17.11788 0.36939,2.09237 1.81654,3.81281 2.33222,5.86848 0.64718,2.5799 -1.48558,12.34349 -0.72201,14.2649 0.4917,1.23718 1.98496,1.77832 2.47664,3.01551 0.93289,2.34739 -1.3661,6.21153 -0.43321,8.55893 0.49168,1.2372 1.98497,1.77832 2.47664,3.01551 -0.0481,0.951 -0.0963,1.90198 -0.1445,2.85298 -0.0481,0.951 -0.49207,1.97816 -0.1444,2.85298 0.49167,1.23718 1.98495,1.77832 2.47662,3.01551 0.34767,0.87483 -0.49207,1.97816 -0.1444,2.85298 0.49167,1.23719 1.98495,1.77834 2.47662,3.01552 0.34767,0.87482 -0.49207,1.97814 -0.1445,2.85298 0.49168,1.23719 1.98495,1.77831 2.47662,3.01551 0.69534,1.74963 -0.98413,3.95631 -0.2888,5.70595 0.98335,2.47438 3.96989,3.55666 4.95325,6.03103 0.69534,1.74963 -0.98413,3.9563 -0.2888,5.70595 0.49169,1.23719 1.98495,1.77833 2.47663,3.01552 0.69534,1.74964 -0.98414,3.95631 -0.28881,5.70596 0.49168,1.23718 1.98496,1.77831 2.47664,3.0155 0.34767,0.87483 -0.49207,1.97817 -0.1444,2.85298 0.49166,1.23719 1.65108,2.01034 2.47662,3.01552 0.82554,1.00517 1.40194,2.34552 2.47662,3.01551 0.75992,0.47376 1.81806,0.53937 2.62102,0.16248 0.71509,-0.33559 7.90999,-7.33542 8.29628,-8.07133 0.43378,-0.82638 0.0963,-1.902 0.1444,-2.85298 0.0481,-0.95099 0.0963,-1.90199 0.1445,-2.85299 0.48133,-9.50992 0.96267,-19.01985 1.44401,-28.52978 0.13015,-2.57157 1.181,-12.43514 0.72199,-14.26489 -0.51567,-2.05567 -1.81655,-3.81283 -2.33222,-5.8685 -0.41146,-1.64022 0.33831,-6.68421 0.4332,-8.55892 0.33692,-6.65696 0.67386,-13.31391 1.0108,-19.97086 0.48132,-9.50993 0.96266,-19.01987 1.44399,-28.52978 0.13015,-2.57159 0.0812,-12.50334 0.72199,-14.26492 0.7199,-1.97904 2.18995,-3.56437 2.90982,-5.54341 0.9649,-2.65255 -0.24287,-11.61233 0.72201,-14.2649 0.71989,-1.97905 2.18994,-3.56437 2.90984,-5.54342 0.90346,-2.48375 -0.23072,-12.44993 0.722,-14.2649 0.61343,-1.16865 2.15197,-1.52178 2.76541,-2.69045 0.88346,-1.68304 -0.017,-15.43481 0.8664,-17.11787 0.61345,-1.16864 2.15197,-1.52179 2.76543,-2.69044 0.43377,-0.82636 -0.17755,-1.96791 0.1444,-2.85298 0.71989,-1.97905 2.33159,-3.5098 2.90981,-5.54343 0.51721,-1.81891 -0.35507,-3.93583 0.28881,-5.70594 0.4553,-1.25167 2.15198,-1.5218 2.76544,-2.69047 1.16392,-2.21736 -0.73074,-6.34155 0.43319,-8.55891 0.61345,-1.16867 2.15198,-1.52181 2.76542,-2.69046 0.43378,-0.82636 -0.28937,-2.02661 0.1444,-2.85298 0.61343,-1.16866 2.15198,-1.52179 2.76542,-2.69044 0.92288,-1.75815 -0.22314,-12.46433 0.722,-14.2649 6.65856,-12.68504 -1.69908,12.03901 5.67526,-8.23387 0.81945,-2.25275 -0.35214,-9.64073 0.57759,-11.41192 0.61345,-1.16864 2.15199,-1.52177 2.76542,-2.69044 0.86755,-1.65273 -0.57873,-4.05323 0.2888,-5.70596 0.61345,-1.16865 2.15199,-1.52179 2.76542,-2.69044 0.38256,-0.7288 0.50209,-9.92004 0.57761,-11.41192 0.0949,-1.87471 -0.14119,-6.97985 0.43319,-8.55893 0.7199,-1.97906 2.18994,-3.56438 2.90984,-5.54342 0.32194,-0.88507 0.0963,-1.902 0.1445,-2.85299 0.0963,-1.90198 -0.35509,-3.93584 0.2888,-5.70594 0.45529,-1.25167 2.15197,-1.5218 2.76542,-2.69046 1.16394,-2.21737 -0.73074,-6.34157 0.4332,-8.55894 0.61345,-1.16864 2.15198,-1.52179 2.76543,-2.69044 0.79567,-1.51582 -0.11101,-6.64501 0.4332,-8.55895 6.65595,-23.40861 -0.35526,3.43264 5.96405,-13.93982 0.70026,-1.9251 -0.42523,-6.92356 0.43321,-8.55893 0.61343,-1.16866 2.15196,-1.52178 2.7654,-2.69045 0.91786,-1.7486 -0.19585,-12.5163 0.72201,-14.2649 0.61344,-1.16864 2.15198,-1.52178 2.76543,-2.69044 0.94328,-1.79703 -0.0928,-14.48108 0.8664,-17.11788 0.71988,-1.97904 2.18993,-3.56437 2.90983,-5.54341 0.32194,-0.88507 0.0963,-1.90198 0.1444,-2.85298 0.13015,-2.57158 0.0812,-12.50333 0.722,-14.2649 0.7199,-1.97905 2.18994,-3.56437 2.90982,-5.54342 0.32195,-0.88506 0.0963,-1.90199 0.1445,-2.85297 0.13016,-2.57159 0.0812,-12.50334 0.722,-14.26491 0.71989,-1.97905 2.18994,-3.56437 2.90982,-5.54342 0.64389,-1.77012 0.1925,-3.80397 0.2888,-5.70595 0.2888,-5.70596 0.5776,-11.41192 0.8664,-17.11788 0.0949,-1.87472 -0.1412,-6.97986 0.4332,-8.55894 0.7199,-1.97904 2.18993,-3.56436 2.90984,-5.54342 1.08181,-2.97404 -0.50423,-8.43788 0.57759,-11.41192 0.71988,-1.97904 2.18994,-3.56437 2.90982,-5.54342 0.60706,-1.66884 0.7265,-14.35372 0.86641,-17.11788 0.0482,-0.95098 -0.17755,-1.96791 0.1445,-2.85297 0.71987,-1.97905 2.18993,-3.56436 2.90981,-5.54343 0.60706,-1.66884 0.72649,-14.35371 0.86641,-17.11787 0.0481,-0.95099 -0.28939,-2.02661 0.1443,-2.85299 0.61345,-1.16863 2.15198,-1.52177 2.76543,-2.69044 0.43377,-0.82636 0.0963,-1.90197 0.1444,-2.85297 0.0481,-0.951 0.0963,-1.90199 0.1444,-2.85298 0.24067,-4.75497 0.48134,-9.50993 0.72199,-14.2649 0.0481,-0.95099 0.0963,-1.90198 0.1444,-2.85297 0.0482,-0.95099 -0.28937,-2.02661 0.1444,-2.85299 0.61346,-1.16865 2.15199,-1.52178 2.76543,-2.69044 0.43377,-0.82636 1.01808,-2.7988 0.1445,-2.85297 -0.87367,-0.0542 -0.1925,3.80397 -0.1445,2.85297 0.0807,-1.59404 0.12121,-12.61325 0.722,-14.2649 0.71988,-1.97904 2.18994,-3.56436 2.90982,-5.54341 0.90347,-2.48375 -0.2307,-12.44994 0.722,-14.2649 0.61345,-1.16866 2.15199,-1.5218 2.76543,-2.69045 0.43377,-0.82636 0.0963,-1.90199 0.1445,-2.85297 0.0481,-0.951 0.0963,-1.902 0.1444,-2.85298 0.2888,-5.70596 0.5776,-11.41192 0.86639,-17.11788 0.2888,-5.70595 0.5776,-11.41192 0.8664,-17.11787 0.0481,-0.951 0.0963,-1.90199 0.14449,-2.85298 0.0481,-0.95099 -0.28937,-2.02662 0.1444,-2.85297 0.61345,-1.16866 2.15198,-1.52179 2.76544,-2.69045 0.86753,-1.65274 -0.3551,-3.93583 0.2888,-5.70596 0.71988,-1.97905 2.18993,-3.56437 2.90981,-5.54342 0.64389,-1.77012 0.1925,-3.80398 0.2888,-5.70596 0.24067,-4.75496 0.48133,-9.50993 0.722,-14.2649 0.91454,-18.06886 1.82907,-36.13773 2.74359,-54.20659 0.24068,-4.75498 0.48135,-9.50994 0.722,-14.26489 0.0949,-1.87472 -0.14119,-6.97987 0.43321,-8.55894 1.43977,-3.95811 4.37986,-7.12874 5.81964,-11.08686 0.70027,-1.9251 -0.42522,-6.92356 0.4332,-8.55893 0.61345,-1.16866 2.15198,-1.52179 2.76543,-2.69045 0.43377,-0.82636 -0.28937,-2.02661 0.1444,-2.85298 0.61347,-1.16866 2.15199,-1.52179 2.76544,-2.69043 1.54883,-2.95065 -1.26003,-2.75533 0.2888,-5.70597 0.61344,-1.16865 2.15196,-1.52179 2.76541,-2.69045 0.43378,-0.82636 -0.28936,-2.02662 0.1444,-2.85297 0.61345,-1.16866 1.84362,-1.79364 2.76543,-2.69045 0.9218,-0.89682 1.84362,-1.79363 2.76541,-2.69045 0.92182,-0.89681 1.84362,-1.79363 2.76543,-2.69044 0.92181,-0.89682 2.15198,-1.5218 2.76542,-2.69044 0.43378,-0.82637 0.0963,-1.902 0.1444,-2.85299 0.0481,-0.95098 0.0963,-1.90198 0.1445,-2.85297 0.24066,-4.75497 0.48133,-9.50993 -9.7621,-14.91503 z"
       id="path3159" />
  </g>
</svg>
