<?xml version="1.0" encoding="UTF-8" standalone="no"?>
<!-- Created with Inkscape (http://www.inkscape.org/) -->

<svg
   xmlns:dc="http://purl.org/dc/elements/1.1/"
   xmlns:cc="http://creativecommons.org/ns#"
   xmlns:rdf="http://www.w3.org/1999/02/22-rdf-syntax-ns#"
   xmlns:svg="http://www.w3.org/2000/svg"
   xmlns="http://www.w3.org/2000/svg"
   xmlns:sodipodi="http://sodipodi.sourceforge.net/DTD/sodipodi-0.dtd"
   xmlns:inkscape="http://www.inkscape.org/namespaces/inkscape"
   width="744.09448819"
   height="1052.3622047"
   id="svg2"
   version="1.1"
   inkscape:version="0.47pre4 r22446"
   sodipodi:docname="lr5.svg">
  <defs
     id="defs4">
    <inkscape:perspective
       sodipodi:type="inkscape:persp3d"
       inkscape:vp_x="0 : 526.18109 : 1"
       inkscape:vp_y="0 : 1000 : 0"
       inkscape:vp_z="744.09448 : 526.18109 : 1"
       inkscape:persp3d-origin="372.04724 : 350.78739 : 1"
       id="perspective10" />
  </defs>
  <sodipodi:namedview
     id="base"
     pagecolor="#ffffff"
     bordercolor="#666666"
     borderopacity="1.0"
     inkscape:pageopacity="0.0"
     inkscape:pageshadow="2"
     inkscape:zoom="0.35"
     inkscape:cx="375"
     inkscape:cy="520"
     inkscape:document-units="px"
     inkscape:current-layer="layer1"
     showgrid="false"
     inkscape:window-width="841"
     inkscape:window-height="603"
     inkscape:window-x="70"
     inkscape:window-y="68"
     inkscape:window-maximized="0" />
  <metadata
     id="metadata7">
    <rdf:RDF>
      <cc:Work
         rdf:about="">
        <dc:format>image/svg+xml</dc:format>
        <dc:type
           rdf:resource="http://purl.org/dc/dcmitype/StillImage" />
        <dc:title></dc:title>
      </cc:Work>
    </rdf:RDF>
  </metadata>
  <g
     inkscape:label="Layer 1"
     inkscape:groupmode="layer"
     id="layer1">
    <path
       style="fill:none;stroke:#000000;stroke-width:0.93177968px;stroke-linecap:butt;stroke-linejoin:miter;stroke-opacity:1"
       d="m 452.67713,313 c -1.00226,-4.09166 3.21386,-5.44259 5.103,-8.64181 1.05489,-1.78645 1.45948,-3.86053 2.51438,-5.64699 1.33438,-2.25973 4.11697,-3.6086 5.17713,-5.98961 0.37484,-0.84181 -0.44897,-1.81039 -0.0742,-2.65219 5.7537,-12.92208 -0.78898,11.39639 5.10296,-8.6418 0.25722,-0.87482 -0.0494,-1.76817 -0.0742,-2.6522 0.86285,-0.99827 2.05846,-1.80432 2.58856,-2.99481 0.37483,-0.84181 -0.449,-1.81041 -0.0742,-2.65219 0.53009,-1.1905 2.05848,-1.80433 2.58857,-2.9948 0.33058,-0.74243 -0.25778,-9.22195 -0.29664,-10.60882 -0.17304,-6.18845 -0.34599,-12.37695 -0.51906,-18.56541 -0.0488,-1.74278 -0.68137,-6.39581 -0.22243,-7.9566 0.57519,-1.95616 1.93923,-3.69087 2.51439,-5.64702 0.55951,-1.90282 -0.9642,-6.29069 -0.22242,-7.95661 0.53009,-1.19051 2.05847,-1.80432 2.58856,-2.99478 0.37482,-0.84182 -0.44899,-1.81041 -0.0742,-2.65222 0.53011,-1.19048 2.0585,-1.80431 2.58858,-2.99481 0.74966,-1.6836 -0.89797,-3.62077 -0.14832,-5.3044 0.53007,-1.19049 2.05849,-1.8043 2.58859,-2.9948 0.37478,-0.84181 -0.449,-1.81038 -0.0742,-2.6522 0.53009,-1.19052 2.05848,-1.80432 2.58857,-2.99479 0.37483,-0.84182 -0.449,-1.81041 -0.0742,-2.65222 0.5301,-1.19049 2.05848,-1.80429 2.58856,-2.99479 0.32507,-0.73001 -0.39235,-14.03334 -0.44491,-15.91323 -0.17389,-6.21987 0.66257,1.16952 -2.81101,-4.9618 -0.41906,-0.73967 -0.0494,-1.76815 -0.0742,-2.6522 -0.93697,-1.65394 -1.66411,-3.45864 -2.81097,-4.96179 -0.72537,-0.95068 -2.01154,-1.35894 -2.73688,-2.30961 -1.14689,-1.5032 -1.66414,-3.45864 -2.81103,-4.96183 -0.72536,-0.95069 -2.14424,-1.26354 -2.73686,-2.30959 -0.41904,-0.73965 0.34489,-1.91253 -0.0742,-2.65219 -1.68662,-2.9771 -6.52398,-3.95173 -8.2106,-6.92883 -0.41903,-0.73965 0.34489,-1.91251 -0.0742,-2.65218 -0.5926,-1.04605 -1.82458,-1.53973 -2.73685,-2.3096 -0.91231,-0.76987 -1.82459,-1.53973 -2.73688,-2.30961 -3.64915,-3.07948 -7.29831,-6.15896 -10.94747,-9.23839 -3.64915,-3.07949 -7.29829,-6.15895 -10.94744,-9.23844 -1.82457,-1.53974 -3.34614,-3.50093 -5.47372,-4.61921 -1.682,-0.88407 -3.7176,-1.08292 -5.39956,-1.967 -2.12758,-1.11828 -3.19707,-3.78985 -5.47375,-4.6192 -0.80492,-0.29322 -1.85778,0.63583 -2.66272,0.34255 -1.2502,-0.45547 -9.33778,-7.880041 -10.94745,-9.238441 -0.91229,-0.769875 -1.59855,-1.894902 -2.73685,-2.309597 -0.80493,-0.293206 -1.85778,0.635821 -2.66273,0.342556 -1.44191,-0.525307 -6.76972,-5.712936 -8.21058,-6.928816 -2.73688,-2.309614 -5.47374,-4.619229 -8.21061,-6.928814 -0.91228,-0.769896 -2.01151,-1.358924 -2.73685,-2.309626 -2.24799,-2.946341 -2.09946,-5.680773 -5.54787,-7.27141 -3.59975,-1.311335 -7.19946,-2.622663 -10.79915,-3.934003 -0.88757,0.114231 -1.81288,0.513807 -2.66273,0.342575 -19.46615,-3.922081 4.21943,0.224497 -8.13642,-4.276611 -1.60988,-0.586442 -3.7156,1.271648 -5.32543,0.685199 -1.13834,-0.414677 -1.59854,-1.89492 -2.73687,-2.309602 -0.97634,-0.355665 -11.46153,1.474704 -13.31357,1.712999 -11.53841,1.484596 -23.07682,2.969191 -34.61524,4.453788 -7.10058,0.913598 -14.20111,1.827193 -21.30171,2.740796 -3.55027,0.456796 -7.10053,0.913594 -10.65084,1.370396 -0.88755,0.114209 -2.6874,-0.541472 -2.6627,0.342596 0.0251,0.884036 3.27285,-1.048482 2.6627,-0.342596 -1.36428,1.578399 -3.63057,2.028379 -5.25125,3.337397 -1.02501,0.827901 -1.72573,1.996549 -2.58857,2.994815 -8.58517,9.93251 1.18529,-2.662037 -2.5144,5.647001 -1.06018,2.380991 -3.84276,3.729861 -5.17714,5.989608 -1.05488,1.786467 -1.45948,3.860529 -2.51439,5.64701 -1.54844,2.622241 -6.65139,6.48181 -7.76569,8.98442 -0.37481,0.84178 0.44897,1.81037 0.0742,2.65218 -0.53009,1.19049 -2.05849,1.8043 -2.58855,2.99481 -0.37483,0.84181 0.44898,1.81038 0.0742,2.65217 -0.53009,1.1905 -2.05848,1.80433 -2.58856,2.99481 -0.37483,0.84181 0.0495,1.76812 0.0742,2.6522 0.0251,0.88401 0.0494,1.76812 0.0742,2.65219 0.11038,3.94758 0.49154,3.33422 -2.44025,8.29922 -0.66718,1.12985 -1.72573,1.99653 -2.58857,2.99479 -2.58857,2.9948 -5.17712,5.98961 -7.7657,8.98442 -2.58854,2.99478 -5.1771,5.98962 -7.76566,8.98441 -1.72572,1.99654 -3.12708,4.33381 -5.17712,5.98961 -1.62066,1.309 -3.6967,1.94701 -5.25126,3.33739 -1.9664,1.75872 -3.21073,4.2309 -5.17714,5.98959 -1.55456,1.39041 -3.63057,2.02838 -5.25128,3.33744 -1.02498,0.82786 -1.48147,2.29119 -2.58854,2.99479 -0.7828,0.49749 -1.82849,-0.0453 -2.6627,0.34255 -4.79121,2.22789 -4.87814,2.90567 -7.83984,6.33218 -0.86284,0.99828 -2.05848,1.80431 -2.58859,2.99482 -0.33056,0.74241 0.25788,9.22191 0.29664,10.60879 0.0387,1.3869 0.6272,9.8664 0.29662,10.60883 -0.53007,1.19048 -2.05844,1.80431 -2.58853,2.99479 -0.74179,1.66592 0.78189,6.05379 0.22242,7.95662 -3.27971,11.15412 -1.74912,0.13974 -5.02881,11.294 -0.51446,1.74963 0.89796,3.6208 0.14831,5.30441 -0.53009,1.19051 -2.05848,1.8043 -2.58857,2.99478 -0.37482,0.84183 0.33136,1.77741 0.0742,2.65221 -0.57518,1.95614 -2.08668,3.66728 -2.51441,5.64703 -0.61277,2.8361 0.21154,7.56762 0.29662,10.60879 0.17305,6.18846 0.346,12.37696 0.51905,18.56544 0.0526,1.87987 0.0815,15.27177 0.44492,15.91319 1.6866,2.97708 6.52399,3.95172 8.21059,6.92882 1.12439,1.98474 -0.90196,5.97189 0.22242,7.9566 1.18522,2.0921 4.28852,2.52713 5.4737,4.61924 0.0251,0.88403 0.0494,1.76812 0.0742,2.6522 0.0251,0.88402 -0.34489,1.91251 0.0742,2.65218 0.59262,1.04604 2.14427,1.26355 2.73688,2.30959 0.83809,1.47932 -0.68978,3.82507 0.14831,5.30442 0.59262,1.04604 2.14425,1.26354 2.73686,2.30958 0.41906,0.73967 -0.22999,1.84963 0.0742,2.6522 1.36009,3.58929 4.26197,6.33434 5.62205,9.92363 0.30411,0.80258 -0.22999,1.84963 0.0742,2.65218 0.68001,1.79465 2.13096,3.16717 2.81098,4.96183 0.30415,0.80257 -0.34486,1.91254 0.0742,2.65218 1.18521,2.0921 4.28849,2.52714 5.47372,4.61921 0.41903,0.73967 0.0494,1.76815 0.0742,2.65222 0.937,1.65392 1.66414,3.45863 2.81101,4.96178 0.72535,0.9507 2.01151,1.3589 2.73687,2.3096 1.14687,1.50318 1.66413,3.45863 2.81101,4.96182 1.45071,1.90138 4.28851,2.52713 5.47374,4.61922 0.41903,0.73966 -0.3449,1.91252 0.0742,2.65218 0.59261,1.04604 2.14423,1.26355 2.73686,2.30961 0.11974,0.21149 0.40378,10.3681 0.29663,10.60881 -0.5301,1.1905 -2.05849,1.80431 -2.58858,2.99479 -0.74964,1.68363 0.89797,3.62079 0.14832,5.30442 -0.53009,1.19051 -2.0585,1.80432 -2.58858,2.9948 -0.38258,0.85927 0.18911,6.76217 0.22242,7.95662 0.12358,4.42034 0.24716,8.84068 0.37074,13.26102 0.0494,1.76812 -0.45994,3.69922 0.14831,5.30439 0.68006,1.79465 2.131,3.16717 2.81102,4.96182 0.90605,2.39108 -0.46632,14.30472 0.44493,15.91321 0.5926,1.04603 2.14422,1.26356 2.73685,2.3096 0.85346,1.50643 -0.40855,14.40676 0.44491,15.91322 0.59261,1.04603 2.14424,1.26357 2.73685,2.30961 0.88672,1.56511 -0.5159,11.69586 0.37074,13.26099 0.59263,1.04607 2.14427,1.26359 2.73688,2.30962 0.88668,1.56513 -0.51592,11.69589 0.37073,13.261 0.59263,1.04607 2.14427,1.26358 2.73688,2.3096 1.12438,1.98476 -0.90195,5.9719 0.22243,7.95663 0.59262,1.04603 2.0115,1.35889 2.73684,2.3096 5.90374,0.58083 1.56006,5.27499 2.88518,7.614 0.5926,1.04607 2.14425,1.26358 2.73686,2.3096 0.8834,1.55932 -0.58677,9.04954 0.29662,10.60886 0.59261,1.04601 2.14423,1.26353 2.73686,2.30957 1.12439,1.9847 -0.90195,5.97188 0.22242,7.9566 0.59263,1.04606 2.14426,1.26357 2.73686,2.30964 0.83808,1.47931 -0.68978,3.82508 0.14832,5.30439 0.5926,1.04603 2.14423,1.26358 2.73685,2.30961 0.37455,0.66115 0.41135,14.71338 0.44492,15.91323 0.0251,0.88403 -0.3449,1.91252 0.0742,2.65219 0.59262,1.04602 2.14425,1.26355 2.73687,2.30957 0.88338,1.55933 -0.58679,9.04953 0.29663,10.60882 0.59259,1.04605 2.14423,1.26356 2.73682,2.30962 0.41906,0.73965 0.0495,1.76813 0.0742,2.65218 0.0719,2.56963 -0.12852,14.39989 0.4449,15.91323 0.68007,1.79464 2.13102,3.16718 2.81102,4.96181 0.30414,0.80259 0.0494,1.76815 0.0742,2.6522 0.0866,3.09558 -0.13227,13.91086 0.44491,15.91319 0.53499,1.85588 2.13099,3.16719 2.81102,4.96185 0.60825,1.60514 -0.45994,3.69922 0.14832,5.30436 0.68006,1.79465 2.13097,3.16718 2.811,4.96184 0.66151,1.7457 -0.60681,6.4928 0.22242,7.9566 0.59261,1.04606 2.14426,1.26356 2.73686,2.3096 0.83809,1.47933 -0.68977,3.82508 0.14831,5.30441 0.59264,1.04604 2.14428,1.26355 2.73688,2.30961 0.83809,1.47932 -0.68977,3.82507 0.14832,5.3044 0.5926,1.04603 2.14423,1.26356 2.73686,2.3096 0.83808,1.47934 -0.45995,3.69922 0.14832,5.30439 0.68006,1.79467 2.13098,3.16717 2.81101,4.96183 0.60825,1.60516 -0.68976,3.82506 0.14831,5.30441 0.59262,1.04601 2.14428,1.26355 2.73688,2.30959 0.36339,0.64142 0.39235,14.03332 0.44491,15.91322 0.37074,13.261 0.74151,26.52201 1.11228,39.78305 0.0494,1.76812 -0.45993,3.69922 0.14831,5.3044 0.86022,2.27005 4.2885,2.52713 5.47374,4.6192 0.42774,0.75503 0.18902,6.76218 0.22242,7.95662 0.19769,7.07254 0.39546,14.14507 0.59319,21.21761 0.0251,0.88403 0.0495,1.76815 0.0742,2.6522 0.0251,0.88404 -0.34489,1.91255 0.0742,2.6522 0.59263,1.04605 2.14427,1.26357 2.73687,2.3096 0.41904,0.73968 0.0494,1.76815 0.0742,2.65221 0.0251,0.88402 0.0494,1.76811 0.0742,2.65219 0.12358,4.42033 0.24715,8.84069 0.37073,13.26102 0.0251,0.88404 0.0494,1.76814 0.0742,2.65218 0.0251,0.88405 -0.34486,1.91254 0.0742,2.65222 0.59261,1.04604 2.14426,1.26358 2.73687,2.3096 0.83807,1.47931 -0.45994,3.69922 0.14832,5.30438 0.68003,1.79465 2.13095,3.16719 2.811,4.96182 0.6615,1.74572 -0.60682,6.49284 0.22242,7.95661 0.59261,1.04605 2.14425,1.26356 2.73686,2.30962 0.42777,0.75503 0.18902,6.76216 0.22242,7.95659 0.19769,7.07257 0.39548,14.14508 0.59322,21.21763 0.0596,2.13512 -0.30703,9.01585 0.29663,10.60882 0.68005,1.79462 2.131,3.16718 2.81104,4.96179 0.30409,0.8026 -0.34491,1.91256 0.0742,2.6522 1.68659,2.97708 6.52397,3.95174 8.21058,6.92881 0.41906,0.73967 -0.3449,1.91256 0.0742,2.65223 0.75066,1.32499 6.76971,5.71287 8.21056,6.92878 0.9123,0.76987 1.82459,1.53973 2.73689,2.30961 0.91228,0.76986 1.59851,1.89494 2.73687,2.30959 0.80492,0.29323 1.85779,-0.6358 2.6627,-0.34255 1.13833,0.41469 1.59854,1.89492 2.73685,2.30961 0.82165,0.29929 6.78899,-0.8735 7.98814,-1.0278 15.08872,-1.9414 -17.7514,2.28399 -2.6627,0.34256 7.98812,-1.0278 15.97626,-2.05561 23.9644,-3.0834 1.19916,-0.15431 7.18906,-0.51996 7.98814,-1.0278 1.10706,-0.70359 1.48148,-2.2912 2.58855,-2.9948 1.56564,-0.99503 3.65702,0.0906 5.32542,-0.6852 1.86537,-0.86738 6.1883,-1.68345 5.25127,-3.33738 -0.93699,-1.65393 -5.196,5.31421 -5.25127,3.33738 -0.0699,-2.50051 3.84277,-3.72985 5.1771,-5.9896 0.25346,-0.42917 -0.19805,-7.08561 -0.22242,-7.95659 -0.19778,-7.07256 -0.39548,-14.14508 -0.59321,-21.21763 -0.0335,-1.19444 -0.60505,-7.09732 -0.22242,-7.95661 0.53011,-1.19049 2.05849,-1.80432 2.58856,-2.99482 0.74965,-1.6836 -0.66273,-3.55477 -0.14832,-5.30439 0.57517,-1.95615 1.93923,-3.69087 2.51441,-5.64702 0.51442,-1.7496 -0.89797,-3.62079 -0.14832,-5.3044 0.53009,-1.19048 2.05848,-1.80429 2.58858,-2.99481 0.37482,-0.84179 -0.0494,-1.76812 -0.0742,-2.65219 -0.12358,-4.42031 -0.24716,-8.84069 -0.37074,-13.261 -0.0251,-0.88405 -0.0495,-1.76812 -0.0742,-2.65219 -0.0251,-0.88407 -0.44898,-1.81042 -0.0742,-2.65222 0.5301,-1.1905 2.05848,-1.80429 2.58857,-2.9948 0.74966,-1.68361 -0.89797,-3.62079 -0.14832,-5.3044 1.06018,-2.38101 4.11696,-3.60862 5.17712,-5.98962 1.00575,-2.2588 -1.22822,-5.6978 -0.22242,-7.9566 0.53008,-1.19049 2.05848,-1.80431 2.58858,-2.99481 0.3748,-0.84179 -0.0494,-1.76814 -0.0742,-2.6522 -0.0494,-1.76814 -0.53088,-3.53367 -0.14831,-5.30439 0.42772,-1.97975 1.93925,-3.69087 2.51439,-5.64702 0.51446,-1.74962 -0.66275,-3.55477 -0.14832,-5.30439 0.5752,-1.95614 1.93926,-3.69088 2.51442,-5.647 0.51445,-1.74963 -0.89797,-3.6208 -0.14831,-5.30442 0.53009,-1.1905 2.05848,-1.8043 2.58857,-2.9948 0.74966,-1.68361 -0.66276,-3.55477 -0.14832,-5.3044 5.89194,-20.03822 -0.65076,4.28025 5.10296,-8.64183 0.80341,-1.80426 -0.95137,-8.3821 -0.29662,-10.60879 0.57518,-1.95616 1.93923,-3.69086 2.51441,-5.647 0.25723,-0.87481 -0.44897,-1.81039 -0.0742,-2.65219 0.53006,-1.19051 2.05844,-1.8043 2.58853,-2.99482 0.74178,-1.66591 -0.78188,-6.05378 -0.22242,-7.95659 0.57518,-1.95615 1.93925,-3.69086 2.5144,-5.647 0.25726,-0.87483 -0.33136,-1.77741 -0.0742,-2.65219 0.57519,-1.95617 1.93925,-3.69087 2.51441,-5.64702 0.25722,-0.87481 -0.0494,-1.76817 -0.0742,-2.65223 -0.12358,-4.42032 -0.24716,-8.84065 -0.37074,-13.26098 -0.0494,-1.76815 -0.66274,-3.55479 -0.14831,-5.30443 0.57517,-1.95614 1.93923,-3.69086 2.51443,-5.647 0.65472,-2.22667 -1.10002,-8.80453 -0.29663,-10.6088 0.53008,-1.19049 2.05846,-1.80431 2.58853,-2.99481 0.28179,-0.63282 -0.27901,-9.97855 -0.29663,-10.6088 -0.17305,-6.18846 -0.3461,-12.37695 -0.51908,-18.56543 -0.0335,-1.19443 -0.60505,-7.09731 -0.22242,-7.95661 0.53012,-1.19048 2.05851,-1.80431 2.58858,-2.99479 0.7634,-1.71448 -1.20831,-14.19873 -0.44493,-15.91324 0.5301,-1.19046 2.0585,-1.8043 2.58856,-2.99479 0.83434,-1.87373 -1.23381,-13.23016 -0.4449,-15.91322 0.57519,-1.95613 2.08668,-3.66725 2.51441,-5.64699 0.43589,-2.01751 -1.10732,-11.6068 -0.37073,-13.26103 0.53008,-1.19048 2.05848,-1.80431 2.58855,-2.9948 0.37484,-0.84179 -0.0494,-1.76815 -0.0742,-2.65218 -0.0309,-1.11573 -0.81892,-15.0733 -0.44493,-15.91325 0.5301,-1.19048 2.2248,-1.75762 2.58857,-2.99479 0.46274,-1.5737 -0.3009,-10.76305 -0.37074,-13.26102 -0.0488,-1.74278 -0.68137,-6.3958 -0.22243,-7.9566 0.57518,-1.95614 1.93923,-3.69088 2.5144,-5.64701 0.86435,-2.9396 -1.16095,-7.66921 -0.29662,-10.60881 0.57517,-1.95615 1.93923,-3.69084 2.51443,-5.64702 0.2572,-0.8748 -0.449,-1.81036 -0.0742,-2.65217 0.53007,-1.19052 2.05847,-1.80433 2.58855,-2.99479 0.74968,-1.68363 -0.89796,-3.62083 -0.14832,-5.30443 0.5301,-1.1905 2.05851,-1.80432 2.58858,-2.99478 0.74964,-1.68363 -0.89795,-3.62081 -0.14832,-5.30444 0.53009,-1.19048 2.05849,-1.80429 2.58858,-2.9948 0.74964,-1.6836 -0.89798,-3.62079 -0.14831,-5.30439 0.5301,-1.19049 2.05849,-1.80433 2.58857,-2.99481 0.37482,-0.84179 -0.33136,-1.77737 -0.0742,-2.65219 0.57518,-1.95616 2.08667,-3.66725 2.51441,-5.64701 0.4359,-2.01752 -1.10733,-11.60681 -0.37073,-13.261 0.53009,-1.1905 2.05848,-1.80432 2.58857,-2.99482 0.74964,-1.68361 -0.89796,-3.6208 -0.14831,-5.30441 0.53008,-1.19048 2.05848,-1.80429 2.58853,-2.99478 0.38264,-0.85931 -0.18911,-6.76218 -0.22242,-7.95661 -0.17305,-6.18848 -0.346,-12.37696 -0.51907,-18.56543 -0.46962,-16.79726 -0.93925,-33.59457 -1.40887,-50.39187 -0.0989,-3.53625 -0.1978,-7.07251 -0.29664,-10.60881 -0.12358,-4.42033 4.06711,-13.832 -0.37073,-13.261 -4.43784,0.57099 0.24715,8.84067 -0.29664,-10.60882 z"
       id="path3029" />
  </g>
</svg>
