<?xml version="1.0" encoding="UTF-8" standalone="no"?>
<!-- Created with Inkscape (http://www.inkscape.org/) -->

<svg
   xmlns:dc="http://purl.org/dc/elements/1.1/"
   xmlns:cc="http://creativecommons.org/ns#"
   xmlns:rdf="http://www.w3.org/1999/02/22-rdf-syntax-ns#"
   xmlns:svg="http://www.w3.org/2000/svg"
   xmlns="http://www.w3.org/2000/svg"
   xmlns:sodipodi="http://sodipodi.sourceforge.net/DTD/sodipodi-0.dtd"
   xmlns:inkscape="http://www.inkscape.org/namespaces/inkscape"
   width="744.09448819"
   height="1052.3622047"
   id="svg2"
   version="1.1"
   inkscape:version="0.47pre4 r22446"
   sodipodi:docname="ll4.svg">
  <defs
     id="defs4">
    <inkscape:perspective
       sodipodi:type="inkscape:persp3d"
       inkscape:vp_x="0 : 526.18109 : 1"
       inkscape:vp_y="0 : 1000 : 0"
       inkscape:vp_z="744.09448 : 526.18109 : 1"
       inkscape:persp3d-origin="372.04724 : 350.78739 : 1"
       id="perspective10" />
  </defs>
  <sodipodi:namedview
     id="base"
     pagecolor="#ffffff"
     bordercolor="#666666"
     borderopacity="1.0"
     inkscape:pageopacity="0.0"
     inkscape:pageshadow="2"
     inkscape:zoom="0.35"
     inkscape:cx="375"
     inkscape:cy="520"
     inkscape:document-units="px"
     inkscape:current-layer="layer1"
     showgrid="false"
     inkscape:window-width="841"
     inkscape:window-height="603"
     inkscape:window-x="70"
     inkscape:window-y="68"
     inkscape:window-maximized="0" />
  <metadata
     id="metadata7">
    <rdf:RDF>
      <cc:Work
         rdf:about="">
        <dc:format>image/svg+xml</dc:format>
        <dc:type
           rdf:resource="http://purl.org/dc/dcmitype/StillImage" />
        <dc:title></dc:title>
      </cc:Work>
    </rdf:RDF>
  </metadata>
  <g
     inkscape:label="Layer 1"
     inkscape:groupmode="layer"
     id="layer1">
    <path
       style="fill:none;stroke:#000000;stroke-width:0.90274632px;stroke-linecap:butt;stroke-linejoin:miter;stroke-opacity:1"
       d="m 465.17244,330.48201 c -0.74366,-3.89156 3.52748,-5.02405 5.60096,-7.97724 1.15784,-1.64908 1.68742,-3.59113 2.84526,-5.24021 1.46458,-2.08596 4.31164,-3.26456 5.51132,-5.47405 0.42415,-0.78117 -0.33452,-1.72204 0.0896,-2.5032 6.51085,-11.99124 -1.48531,10.71905 5.60094,-7.97724 0.30935,-0.81623 0.0598,-1.66882 0.0896,-2.50321 0.91855,-0.91234 2.1558,-1.63228 2.75565,-2.73701 0.42416,-0.78118 -0.33454,-1.72206 0.0896,-2.5032 0.59985,-1.10475 2.15582,-1.6323 2.75566,-2.73701 0.37408,-0.68895 0.31164,-8.70388 0.35851,-10.01285 0.20913,-5.8408 0.41826,-11.68164 0.62738,-17.52244 0.0589,-1.64488 -0.28308,-6.05335 0.26888,-7.50962 0.69177,-1.82516 2.1535,-3.41508 2.84526,-5.24023 0.67292,-1.7754 -0.57048,-5.96371 0.26889,-7.50963 0.59985,-1.10474 2.15581,-1.63229 2.75565,-2.737 0.42415,-0.78118 -0.33453,-1.72204 0.0896,-2.50322 0.59985,-1.10472 2.15583,-1.63228 2.75566,-2.73702 0.84831,-1.56232 -0.66905,-3.44406 0.17925,-5.00641 0.59982,-1.10473 2.15582,-1.63228 2.75566,-2.73701 0.42413,-0.78117 -0.33453,-1.72203 0.0896,-2.50322 0.59983,-1.10475 2.15581,-1.63229 2.75564,-2.737 0.42416,-0.78117 -0.33453,-1.72205 0.0896,-2.50322 0.59985,-1.10474 2.15582,-1.63227 2.75566,-2.73701 0.36783,-0.67742 0.47422,-13.24498 0.53776,-15.01925 0.21018,-5.87046 0.58614,1.12492 -2.48679,-4.7726 -0.37071,-0.71147 0.0598,-1.66882 0.0896,-2.5032 -0.8289,-1.59088 -1.44007,-3.31687 -2.48675,-4.7726 -0.66199,-0.92069 -1.91444,-1.34871 -2.57641,-2.2694 -1.04668,-1.45577 -1.4401,-3.31686 -2.48678,-4.77262 -0.66199,-0.92071 -2.05214,-1.26323 -2.5764,-2.26939 -0.37071,-0.71145 0.46034,-1.79175 0.0896,-2.5032 -1.49206,-2.86358 -6.23713,-3.94463 -7.72919,-6.80821 -0.3707,-0.71145 0.46032,-1.79173 0.0896,-2.50319 -0.52426,-1.00616 -1.71761,-1.51293 -2.5764,-2.26939 -0.85881,-0.75647 -1.71761,-1.51293 -2.57641,-2.2694 -3.4352,-3.02588 -6.87039,-6.05175 -10.30561,-9.07758 -3.43519,-3.02588 -6.87039,-6.05173 -10.30559,-9.07761 -1.71759,-1.51294 -3.10827,-3.41309 -5.1528,-4.5388 -1.61634,-0.88994 -3.62609,-1.14563 -5.24241,-2.03558 -2.04452,-1.1257 -2.9424,-3.68052 -5.15281,-4.53879 -0.7815,-0.30345 -1.88452,0.53726 -2.66603,0.23379 -1.21382,-0.47134 -8.7903,-7.74286 -10.3056,-9.07761 -0.8588,-0.75647 -1.47122,-1.84024 -2.57638,-2.26939 -0.78151,-0.30344 -1.88453,0.53726 -2.66605,0.2338 -1.39994,-0.54361 -6.37281,-5.61347 -7.72918,-6.80819 -2.57642,-2.26941 -5.15281,-4.53881 -7.72921,-6.8082 -0.8588,-0.75649 -1.91443,-1.34871 -2.5764,-2.26941 -2.05159,-2.85339 -1.7357,-5.42667 -5.06316,-7.04201 -3.49498,-1.357048 -6.98992,-2.714111 -10.48486,-4.071165 -0.88867,0.078 -1.8324,0.423711 -2.66604,0.233792 -19.09472,-4.350345 4.17744,0.353053 -7.8188,-4.304991 -1.56302,-0.606891 -3.76909,1.074517 -5.33206,0.46762 -1.10521,-0.429136 -1.47121,-1.840256 -2.57641,-2.269396 -0.94792,-0.368067 -11.47579,1.006424 -13.33013,1.169051 -11.55278,1.013175 -23.10555,2.026351 -34.65833,3.039526 -7.10941,0.623493 -14.2188,1.246985 -21.32823,1.870481 -3.55468,0.311744 -7.10937,0.62349 -10.66409,0.935238 -0.88866,0.07794 -2.63614,-0.600594 -2.66601,0.233808 -0.0299,0.834407 3.31553,-0.878929 2.66601,-0.233808 -1.45235,1.442535 -3.73122,1.790876 -5.42167,2.970824 -1.06913,0.74627 -1.83711,1.82468 -2.75566,2.73702 -9.13935,9.07755 1.34128,-2.47027 -2.84527,5.24022 -1.19968,2.20948 -4.04673,3.38808 -5.51132,5.47404 -1.15783,1.64909 -1.68741,3.59113 -2.84526,5.24023 -1.69954,2.42059 -7.00603,5.88873 -8.26697,8.21106 -0.42414,0.78114 0.33452,1.72203 -0.0896,2.5032 -0.59984,1.10473 -2.15582,1.63227 -2.75564,2.73702 -0.42416,0.78117 0.33452,1.72202 -0.0896,2.50318 -0.59984,1.10475 -2.15581,1.6323 -2.75566,2.73703 -0.42414,0.78117 -0.0597,1.66879 -0.0896,2.5032 -0.0299,0.83439 -0.0598,1.6688 -0.0896,2.5032 -0.13341,3.72582 0.28299,3.16025 -2.9349,7.74345 -0.73228,1.04296 -1.83712,1.82467 -2.75566,2.737 -2.75565,2.73702 -5.5113,5.47404 -8.26697,8.21106 -2.75563,2.737 -5.51128,5.47405 -8.26695,8.21106 -1.8371,1.82468 -3.37301,3.9815 -5.51129,5.47403 -1.69044,1.17993 -3.79189,1.71194 -5.42167,2.97083 -2.06155,1.59238 -3.44976,3.88166 -5.51132,5.47402 -1.62979,1.2589 -3.73121,1.79088 -5.42169,2.97085 -1.06911,0.74624 -1.61264,2.11069 -2.75564,2.73701 -0.8082,0.44285 -1.81349,-0.104 -2.66601,0.23379 -4.89638,1.9401 -5.02445,2.57626 -8.17734,5.70782 -0.91854,0.91235 -2.15582,1.63228 -2.75567,2.73703 -0.37406,0.68893 -0.31163,8.70384 -0.35849,10.01281 -0.0469,1.30899 0.0156,9.32391 -0.35851,10.01285 -0.59983,1.10473 -2.1558,1.63228 -2.75564,2.73701 -0.83939,1.54591 0.40398,5.73423 -0.26888,7.50963 -3.94451,10.40716 -1.74603,0.0732 -5.69055,10.48044 -0.61873,1.63246 0.66905,3.44409 -0.17925,5.00642 -0.59984,1.10474 -2.15581,1.63227 -2.75565,2.737 -0.42416,0.78119 0.21973,1.68699 -0.0896,2.50322 -0.69176,1.82514 -2.29852,3.3879 -2.84528,5.24024 -0.78327,2.65358 -0.25573,7.14248 -0.3585,10.01281 -0.20913,5.84081 -0.41826,11.68165 -0.62739,17.52247 -0.0635,1.77427 -0.85923,14.40225 -0.53775,15.01922 1.49206,2.86356 6.23714,3.94463 7.72919,6.8082 0.9947,1.90906 -1.26359,5.60058 -0.26887,7.50962 1.04851,2.01232 4.1043,2.52648 5.15278,4.53881 -0.0299,0.8344 -0.0598,1.6688 -0.0896,2.50321 -0.0299,0.8344 -0.46032,1.79172 -0.0896,2.50319 0.52427,1.00616 2.05217,1.26324 2.57642,2.26939 0.74142,1.42291 -0.92066,3.58349 -0.17925,5.00643 0.52426,1.00615 2.05214,1.26322 2.5764,2.26937 0.37071,0.71147 -0.34232,1.73628 -0.0896,2.50321 1.13003,3.42986 3.84354,6.11537 4.97356,9.54523 0.25267,0.76693 -0.34233,1.73627 -0.0896,2.50318 0.56499,1.71494 1.92175,3.05769 2.48675,4.77262 0.2527,0.76693 -0.46031,1.79176 -0.0896,2.50319 1.04851,2.01233 4.10428,2.52651 5.1528,4.53881 0.3707,0.71146 -0.0598,1.66881 -0.0896,2.50322 0.82892,1.59085 1.4401,3.31685 2.48677,4.77259 0.66198,0.9207 1.91441,1.34868 2.5764,2.26938 1.04669,1.45576 1.44009,3.31686 2.48678,4.77262 1.32396,1.8414 4.10429,2.52649 5.1528,4.53881 0.3707,0.71146 -0.46034,1.79173 -0.0896,2.50318 0.52425,1.00616 2.05213,1.26324 2.5764,2.26941 0.10596,0.20342 -0.23723,9.78946 -0.3585,10.01283 -0.59985,1.10474 -2.15583,1.63228 -2.75566,2.73701 -0.8483,1.56235 0.66905,3.44408 -0.17925,5.00642 -0.59984,1.10475 -2.15583,1.63229 -2.75566,2.73702 -0.43294,0.79737 -0.22851,6.38229 -0.26888,7.50963 -0.14938,4.17201 -0.29875,8.34402 -0.44813,12.51603 -0.0598,1.6688 -0.6846,3.47254 -0.17925,5.00641 0.56502,1.71494 1.92178,3.05768 2.48678,4.77262 0.75278,2.28487 -1.34389,13.47209 -0.53775,15.01923 0.52425,1.00615 2.05212,1.26324 2.57639,2.2694 0.75501,1.44899 -1.29277,13.57023 -0.53776,15.01924 0.52426,1.00615 2.05214,1.26325 2.57639,2.26941 0.78445,1.50543 -1.23252,11.01057 -0.44813,12.51601 0.52428,1.00618 2.05216,1.26327 2.57641,2.26942 0.78441,1.50544 -1.23253,11.01059 -0.44812,12.51601 0.52426,1.00619 2.05214,1.26327 2.5764,2.2694 0.99469,1.90907 -1.26359,5.6006 -0.26888,7.50964 0.52427,1.00615 1.91442,1.34869 2.57638,2.26939 5.82857,0.74548 1.22489,5.02599 2.39716,7.27581 0.52425,1.00617 2.05214,1.26325 2.5764,2.2694 0.7815,1.49985 -1.13999,8.513 -0.3585,10.01286 0.52426,1.00613 2.05212,1.26322 2.57639,2.26938 0.99471,1.90902 -1.26358,5.60056 -0.26887,7.50961 0.52426,1.00616 2.05215,1.26325 2.5764,2.26942 0.74141,1.4229 -0.92066,3.5835 -0.17925,5.00641 0.52425,1.00614 2.05213,1.26325 2.57639,2.2694 0.33136,0.63594 -0.49721,13.88681 -0.53775,15.01925 -0.0299,0.8344 -0.46033,1.79174 -0.0896,2.5032 0.52427,1.00614 2.05214,1.26323 2.57641,2.26937 0.78149,1.49987 -1.14001,8.51301 -0.3585,10.01284 0.52425,1.00616 2.05213,1.26324 2.57637,2.26941 0.37071,0.71145 -0.0597,1.6688 -0.0896,2.5032 -0.0868,2.42526 -1.01418,13.57313 -0.53776,15.01924 0.56503,1.71493 1.92179,3.05769 2.48678,4.77262 0.25269,0.76693 -0.0598,1.66881 -0.0896,2.50319 -0.10461,2.92169 -0.98781,13.11192 -0.53776,15.01923 0.41716,1.76781 1.92177,3.0577 2.48678,4.77263 0.50536,1.53386 -0.68461,3.47254 -0.17925,5.00639 0.56502,1.71494 1.92175,3.05768 2.48677,4.77263 0.54961,1.66816 -1.00249,6.10163 -0.26887,7.50961 0.52425,1.00618 2.05214,1.26324 2.57639,2.2694 0.74142,1.42292 -0.92066,3.5835 -0.17926,5.00642 0.52428,1.00615 2.05217,1.26323 2.57642,2.2694 0.74141,1.42291 -0.92067,3.58349 -0.17925,5.00641 0.52424,1.00614 2.05213,1.26324 2.5764,2.26939 0.74141,1.42293 -0.68463,3.47254 -0.17926,5.00641 0.56502,1.71495 1.92176,3.05767 2.48676,4.77263 0.50537,1.53386 -0.92064,3.58348 -0.17925,5.00641 0.52427,1.00613 2.05217,1.26323 2.57641,2.26939 0.32147,0.61696 -0.47423,13.24496 -0.53776,15.01925 -0.44813,12.51602 -0.89627,25.03206 -1.34439,37.54811 -0.0598,1.6688 -0.6846,3.47254 -0.17926,5.00641 0.71471,2.16923 4.10429,2.5265 5.1528,4.5388 0.37841,0.72623 -0.22851,6.38228 -0.26887,7.50962 -0.23901,6.67522 -0.47801,13.35042 -0.71702,20.02565 -0.0299,0.8344 -0.0597,1.66881 -0.0896,2.50321 -0.0299,0.8344 -0.46033,1.79175 -0.0896,2.5032 0.52427,1.00616 2.05217,1.26325 2.57641,2.2694 0.3707,0.71147 -0.0598,1.66881 -0.0896,2.50321 -0.0299,0.83439 -0.0598,1.66879 -0.0896,2.5032 -0.14938,4.17201 -0.29876,8.34403 -0.44814,12.51604 -0.0299,0.83441 -0.0598,1.6688 -0.0896,2.5032 -0.0299,0.8344 -0.46032,1.79174 -0.0896,2.50322 0.52425,1.00614 2.05215,1.26325 2.57641,2.26939 0.7414,1.4229 -0.68462,3.47253 -0.17925,5.00639 0.565,1.71494 1.92174,3.0577 2.48676,4.77262 0.54961,1.66818 -1.0025,6.10166 -0.26888,7.50962 0.52426,1.00616 2.05214,1.26324 2.57639,2.26941 0.37843,0.72624 -0.22851,6.38227 -0.26887,7.50961 -0.23901,6.67523 -0.47801,13.35044 -0.71701,20.02566 -0.0722,2.01517 -0.86003,8.49062 -0.35851,10.01284 0.56503,1.71491 1.92179,3.05769 2.4868,4.77259 0.25266,0.76695 -0.46035,1.79176 -0.0896,2.50321 1.49204,2.86355 6.23712,3.94463 7.72918,6.80819 0.37072,0.71146 -0.46034,1.79176 -0.0896,2.50323 0.66407,1.27447 6.37281,5.61342 7.72918,6.80817 0.85881,0.75647 1.71761,1.51292 2.57642,2.2694 0.85879,0.75646 1.47118,1.84028 2.57641,2.26939 0.78149,0.30345 1.88452,-0.53724 2.66601,-0.23379 1.1052,0.42915 1.47121,1.84025 2.57639,2.2694 0.79773,0.30974 6.79743,-0.59612 7.99807,-0.70143 15.10751,-1.32492 -17.77349,1.55873 -2.66601,0.23379 7.99807,-0.70143 15.99615,-1.40286 23.99424,-2.10429 1.20066,-0.10528 7.17306,-0.24937 7.99807,-0.70143 1.14299,-0.62631 1.61266,-2.1107 2.75566,-2.73702 1.61643,-0.88573 3.62702,0.20799 5.33204,-0.46761 1.90631,-0.75535 6.25061,-1.37995 5.42167,-2.97082 -0.8289,-1.59086 -5.48847,4.83659 -5.42167,2.97082 0.0845,-2.36004 4.04673,-3.38807 5.51129,-5.47404 0.27819,-0.39617 0.23945,-6.68755 0.26889,-7.5096 0.23899,-6.67524 0.478,-13.35044 0.71701,-20.02567 0.0404,-1.12734 -0.16407,-6.71223 0.26887,-7.50962 0.59988,-1.10473 2.15584,-1.63229 2.75566,-2.73703 0.8483,-1.56233 -0.43946,-3.37395 0.17926,-5.0064 0.69177,-1.82515 2.15352,-3.41509 2.84528,-5.24024 0.61872,-1.63243 -0.66905,-3.44407 0.17925,-5.00641 0.59983,-1.10473 2.15581,-1.63226 2.75566,-2.73702 0.42415,-0.78116 0.0598,-1.6688 0.0896,-2.5032 0.14938,-4.172 0.29875,-8.34403 0.44814,-12.51603 0.0299,-0.83441 0.0597,-1.66879 0.0896,-2.5032 0.0299,-0.83442 -0.33452,-1.72206 0.0896,-2.50322 0.59983,-1.10474 2.1558,-1.63226 2.75564,-2.73701 0.84831,-1.56233 -0.66905,-3.44409 0.17926,-5.00642 1.19968,-2.20948 4.31163,-3.26455 5.51131,-5.47404 1.1381,-2.09609 -0.86924,-5.41353 0.26887,-7.50961 0.59983,-1.10474 2.15582,-1.63228 2.75566,-2.73702 0.42413,-0.78116 0.0598,-1.66882 0.0896,-2.50321 0.0598,-1.66881 -0.30978,-3.34964 0.17926,-5.00641 0.54674,-1.85234 2.15351,-3.41508 2.84526,-5.24023 0.61874,-1.63246 -0.43948,-3.37395 0.17925,-5.00641 0.69178,-1.82514 2.15353,-3.41509 2.84529,-5.24022 0.61873,-1.63245 -0.66905,-3.44409 0.17925,-5.00642 0.59984,-1.10474 2.15582,-1.63228 2.75565,-2.73702 0.84831,-1.56233 -0.43947,-3.37395 0.17925,-5.00641 7.08624,-18.69631 -0.90993,4.01398 5.60092,-7.97726 0.90912,-1.67429 -0.42894,-7.93525 0.35851,-10.01281 0.69177,-1.82516 2.15352,-3.41508 2.84529,-5.24022 0.30937,-0.81623 -0.33451,-1.72204 0.0896,-2.50321 0.59982,-1.10474 2.15579,-1.63227 2.75564,-2.73703 0.83938,-1.5459 -0.40397,-5.73422 0.26888,-7.5096 0.69176,-1.82515 2.15352,-3.41508 2.84527,-5.24023 0.30938,-0.81623 -0.21973,-1.68699 0.0896,-2.50319 0.69178,-1.82517 2.15354,-3.41509 2.84528,-5.24024 0.30936,-0.81623 0.0598,-1.66883 0.0896,-2.50323 0.14937,-4.17199 0.29875,-8.344 0.44812,-12.51601 0.0598,-1.66881 -0.43947,-3.37396 0.17926,-5.00643 0.69176,-1.82514 2.15351,-3.41508 2.8453,-5.24022 0.78743,-2.07755 -0.55062,-8.33852 0.3585,-10.01282 0.59983,-1.10473 2.1558,-1.63228 2.75563,-2.73702 0.31887,-0.58724 0.33721,-9.41799 0.35851,-10.01283 0.20912,-5.84081 0.41825,-11.68163 0.62738,-17.52246 0.0404,-1.12734 -0.16407,-6.71222 0.26887,-7.50963 0.59986,-1.10471 2.15584,-1.63227 2.75566,-2.737 0.86386,-1.59097 -0.3261,-13.42826 0.53775,-15.01926 0.59985,-1.10471 2.15583,-1.63227 2.75565,-2.73701 0.94411,-1.73875 -0.41105,-12.51586 0.53776,-15.01924 0.69177,-1.82514 2.29853,-3.38788 2.84529,-5.24021 0.55718,-1.88768 -0.38537,-10.98098 0.44812,-12.51605 0.59984,-1.10472 2.15582,-1.63228 2.75565,-2.73702 0.42416,-0.78115 0.0598,-1.66881 0.0896,-2.50319 0.0377,-1.05302 0.11454,-14.23983 0.53775,-15.01927 0.59984,-1.10473 2.31815,-1.58269 2.75565,-2.73701 0.55654,-1.46831 0.36372,-10.1584 0.44813,-12.51603 0.0589,-1.64488 -0.28308,-6.05334 0.26889,-7.50962 0.69176,-1.82514 2.15351,-3.41509 2.84527,-5.24023 1.03955,-2.74274 -0.68104,-7.27008 0.3585,-10.01283 0.69176,-1.82515 2.15351,-3.41506 2.8453,-5.24023 0.30934,-0.81622 -0.33455,-1.72201 0.0896,-2.50319 0.59983,-1.10475 2.15581,-1.6323 2.75563,-2.73701 0.84833,-1.56234 -0.66903,-3.44411 0.17925,-5.00643 0.59985,-1.10474 2.15584,-1.63228 2.75566,-2.737 0.8483,-1.56235 -0.66903,-3.44409 0.17925,-5.00644 0.59985,-1.10472 2.15582,-1.63227 2.75567,-2.73702 0.84828,-1.56232 -0.66907,-3.44407 0.17924,-5.0064 0.59985,-1.10474 2.15582,-1.63229 2.75565,-2.73702 0.42415,-0.78116 -0.21973,-1.68697 0.0896,-2.5032 0.69178,-1.82516 2.29852,-3.38787 2.84529,-5.24023 0.5572,-1.88768 -0.38536,-10.98099 0.44813,-12.51602 0.59984,-1.10475 2.15582,-1.6323 2.75566,-2.73704 0.84829,-1.56232 -0.66905,-3.44407 0.17925,-5.00641 0.59984,-1.10473 2.15582,-1.63227 2.75563,-2.737 0.43298,-0.79741 0.22851,-6.3823 0.26888,-7.50962 0.20912,-5.84083 0.41825,-11.68165 0.62738,-17.52247 0.56764,-15.85362 1.13526,-31.70728 1.7029,-47.56094 0.11949,-3.3376 0.23899,-6.6752 0.3585,-10.01283 0.14938,-4.17202 4.89152,-12.90572 0.44813,-12.51603 -4.44336,0.38968 -0.29875,8.34401 0.3585,-10.01284 z"
       id="path3029" />
  </g>
</svg>
