<?xml version="1.0" encoding="UTF-8" standalone="no"?>
<!-- Created with Inkscape (http://www.inkscape.org/) -->

<svg
   xmlns:dc="http://purl.org/dc/elements/1.1/"
   xmlns:cc="http://creativecommons.org/ns#"
   xmlns:rdf="http://www.w3.org/1999/02/22-rdf-syntax-ns#"
   xmlns:svg="http://www.w3.org/2000/svg"
   xmlns="http://www.w3.org/2000/svg"
   xmlns:sodipodi="http://sodipodi.sourceforge.net/DTD/sodipodi-0.dtd"
   xmlns:inkscape="http://www.inkscape.org/namespaces/inkscape"
   width="744.09448819"
   height="1052.3622047"
   id="svg2"
   version="1.1"
   inkscape:version="0.47pre4 r22446"
   sodipodi:docname="lr4.svg">
  <defs
     id="defs4">
    <inkscape:perspective
       sodipodi:type="inkscape:persp3d"
       inkscape:vp_x="0 : 526.18109 : 1"
       inkscape:vp_y="0 : 1000 : 0"
       inkscape:vp_z="744.09448 : 526.18109 : 1"
       inkscape:persp3d-origin="372.04724 : 350.78739 : 1"
       id="perspective10" />
  </defs>
  <sodipodi:namedview
     id="base"
     pagecolor="#ffffff"
     bordercolor="#666666"
     borderopacity="1.0"
     inkscape:pageopacity="0.0"
     inkscape:pageshadow="2"
     inkscape:zoom="0.35"
     inkscape:cx="375"
     inkscape:cy="520"
     inkscape:document-units="px"
     inkscape:current-layer="layer1"
     showgrid="false"
     inkscape:window-width="841"
     inkscape:window-height="603"
     inkscape:window-x="70"
     inkscape:window-y="68"
     inkscape:window-maximized="0" />
  <metadata
     id="metadata7">
    <rdf:RDF>
      <cc:Work
         rdf:about="">
        <dc:format>image/svg+xml</dc:format>
        <dc:type
           rdf:resource="http://purl.org/dc/dcmitype/StillImage" />
        <dc:title></dc:title>
      </cc:Work>
    </rdf:RDF>
  </metadata>
  <g
     inkscape:label="Layer 1"
     inkscape:groupmode="layer"
     id="layer1">
    <path
       style="fill:none;stroke:#000000;stroke-width:0.90274632px;stroke-linecap:butt;stroke-linejoin:miter;stroke-opacity:1"
       d="m 472.87666,336.57832 c -0.54599,-3.92417 3.77693,-4.83931 5.99705,-7.68391 1.23972,-1.58844 1.86679,-3.50124 3.10651,-5.08968 1.56816,-2.00926 4.47116,-3.04243 5.78099,-5.18845 0.4631,-0.75873 -0.24704,-1.73675 0.21603,-2.49547 7.10868,-11.64678 -2.02527,10.63026 5.99703,-7.68391 0.35021,-0.79955 0.14408,-1.66367 0.21602,-2.49548 0.9635,-0.86474 2.23556,-1.52122 2.89048,-2.59422 0.46311,-0.75873 -0.24706,-1.73676 0.21603,-2.49547 0.65493,-1.07301 2.23557,-1.52123 2.89049,-2.59421 0.40843,-0.66916 0.75123,-8.677 0.86421,-9.98192 0.50411,-5.82276 1.00823,-11.64556 1.51234,-17.46833 0.14197,-1.6398 0.0233,-6.05992 0.64815,-7.48642 0.78315,-1.78786 2.32338,-3.30186 3.10652,-5.08971 0.7618,-1.73911 -0.26829,-5.98492 0.64816,-7.48643 0.65492,-1.07301 2.23556,-1.52123 2.89048,-2.5942 0.4631,-0.75874 -0.24705,-1.73675 0.21602,-2.49549 0.65493,-1.07299 2.23559,-1.52122 2.8905,-2.59423 0.9262,-1.51744 -0.4941,-3.47347 0.43209,-4.99094 0.6549,-1.073 2.23558,-1.52122 2.8905,-2.59421 0.46307,-0.75874 -0.24706,-1.73674 0.21602,-2.49549 0.65491,-1.07302 2.23557,-1.52123 2.89048,-2.59421 0.4631,-0.75873 -0.24706,-1.73676 0.21602,-2.49549 0.65493,-1.073 2.23557,-1.5212 2.89049,-2.59421 0.40161,-0.65796 1.14315,-13.20407 1.2963,-14.97286 0.50667,-5.85233 0.52853,1.15311 -2.24235,-4.89221 -0.33427,-0.7293 0.14408,-1.66366 0.21602,-2.49547 -0.74742,-1.63075 -1.27056,-3.38543 -2.24231,-4.8922 -0.6146,-0.95298 -1.84382,-1.44377 -2.4584,-2.39674 -0.97175,-1.50682 -1.27059,-3.38542 -2.24234,-4.89223 -0.6146,-0.95299 -1.98566,-1.36535 -2.45839,-2.39672 -0.33427,-0.72928 0.55032,-1.76619 0.21602,-2.49547 -1.3454,-2.93535 -6.02975,-4.25488 -7.37515,-7.19022 -0.33426,-0.72928 0.55031,-1.76617 0.21602,-2.49546 -0.47272,-1.03138 -1.63893,-1.59782 -2.45838,-2.39673 -0.81948,-0.79892 -1.63894,-1.59782 -2.4584,-2.39674 -3.27785,-3.19566 -6.55569,-6.39131 -9.83356,-9.58692 -3.27784,-3.19566 -6.55569,-6.3913 -9.83354,-9.58696 -1.63891,-1.59783 -2.93176,-3.56585 -4.91677,-4.79347 -1.56929,-0.97051 -3.56355,-1.32747 -5.13281,-2.29798 -1.985,-1.22762 -2.75259,-3.82456 -4.91679,-4.79347 -0.76516,-0.34256 -1.90927,0.44131 -2.67444,0.0987 -1.18844,-0.5321 -8.38765,-8.17732 -9.83355,-9.58696 -0.81946,-0.79892 -1.37631,-1.91226 -2.45836,-2.39673 -0.76517,-0.34255 -1.90928,0.44131 -2.67446,0.0987 -1.37067,-0.61369 -6.0809,-5.92845 -7.37515,-7.1902 -2.4584,-2.39675 -4.91678,-4.79349 -7.37517,-7.19021 -0.81946,-0.79894 -1.8438,-1.44376 -2.45838,-2.39675 -1.90473,-2.95345 -1.45916,-5.50747 -4.70071,-7.28895 -3.42192,-1.53199 -6.84379,-3.06398 -10.26566,-4.595974 -0.89148,0.03298 -1.85148,0.330544 -2.67445,0.09872 -18.8504,-5.310027 4.15425,0.56377 -7.59119,-4.69473 -1.53034,-0.685126 -3.81858,0.882615 -5.34888,0.197485 -1.0821,-0.484456 -1.3763,-1.912273 -2.45839,-2.396733 -0.92811,-0.415514 -11.512,0.425032 -13.37219,0.493714 -11.58922,0.427883 -23.17844,0.855767 -34.76767,1.28365 -7.13184,0.263313 -14.26365,0.526626 -21.39551,0.789941 -3.5659,0.131655 -7.1318,0.263312 -10.69774,0.394969 -0.89146,0.03292 -2.6024,-0.733084 -2.67442,0.09874 -0.072,0.831828 3.35573,-0.710205 2.67442,-0.09874 -1.52341,1.367274 -3.81697,1.599972 -5.56491,2.692959 -1.10549,0.691271 -1.927,1.729485 -2.89049,2.594225 -9.58654,8.60394 1.46443,-2.399314 -3.10653,5.08969 -1.30984,2.14601 -4.21283,3.17918 -5.78099,5.18844 -1.23971,1.58845 -1.86679,3.50124 -3.10652,5.0897 -1.81973,2.33158 -7.29475,5.52705 -8.67147,7.78267 -0.46308,0.7587 0.24704,1.73673 -0.21602,2.49547 -0.65492,1.07299 -2.23558,1.5212 -2.89048,2.59422 -0.4631,0.75873 0.24705,1.73673 -0.21602,2.49545 -0.65492,1.07301 -2.23557,1.52124 -2.89049,2.59423 -0.46309,0.75873 -0.14399,1.66364 -0.21603,2.49547 -0.072,0.83181 -0.14408,1.66364 -0.21602,2.49547 -0.32158,3.71431 0.12288,3.17052 -3.32258,7.58519 -0.78407,1.00461 -1.92701,1.72947 -2.89049,2.5942 -2.89049,2.59422 -5.78097,5.18845 -8.67148,7.78267 -2.89046,2.5942 -5.78095,5.18845 -8.67145,7.78266 -1.92699,1.72948 -3.56996,3.8059 -5.78096,5.18844 -1.74792,1.09297 -3.87358,1.51807 -5.56491,2.69296 -2.13941,1.48613 -3.64157,3.70231 -5.78099,5.18842 -1.69134,1.17491 -3.81697,1.59998 -5.56494,2.69299 -1.10546,0.69124 -1.71727,2.02647 -2.89047,2.59421 -0.82955,0.40143 -1.80591,-0.19554 -2.67442,0.0987 -4.98819,1.69011 -5.14826,2.31898 -8.45542,5.28716 -0.96348,0.86475 -2.23557,1.52121 -2.8905,2.59423 -0.40841,0.66914 -0.75121,8.67696 -0.86418,9.98189 -0.11301,1.30494 -0.45575,9.31277 -0.86421,9.98192 -0.65491,1.073 -2.23555,1.52122 -2.89047,2.59421 -0.91646,1.50151 0.11359,5.74732 -0.64815,7.48644 -4.46555,10.19446 -1.7475,-0.0152 -6.21307,10.17938 -0.70046,1.5991 0.4941,3.47351 -0.43209,4.99096 -0.65492,1.07301 -2.23557,1.52121 -2.89049,2.5942 -0.4631,0.75875 0.13417,1.69594 -0.21602,2.49549 -0.78314,1.78784 -2.46684,3.26738 -3.10654,5.08971 -0.91641,2.6106 -0.61646,7.12042 -0.86419,9.98189 -0.50412,5.82277 -1.00824,11.64557 -1.51236,17.46835 -0.1531,1.76879 -1.58617,14.34041 -1.29628,14.97284 1.34539,2.93532 6.02976,4.25487 7.37515,7.19021 0.89692,1.9569 -1.54509,5.52954 -0.64814,7.48642 0.94544,2.06275 3.97134,2.73073 4.91675,4.79349 -0.072,0.83182 -0.14408,1.66364 -0.21602,2.49548 -0.072,0.83182 -0.55031,1.76616 -0.21602,2.49546 0.47273,1.03137 1.98568,1.36536 2.4584,2.39672 0.66855,1.45857 -1.10063,3.53237 -0.43209,4.99097 0.47272,1.03137 1.98566,1.36534 2.45838,2.39671 0.33428,0.7293 -0.42965,1.71676 -0.21602,2.49548 0.95521,3.4826 3.52949,6.30184 4.48469,9.78444 0.21358,0.77872 -0.42966,1.71675 -0.21602,2.49545 0.47757,1.74131 1.76472,3.15093 2.24231,4.89223 0.21361,0.77872 -0.5503,1.7662 -0.21602,2.49546 0.94544,2.06276 3.97131,2.73075 4.91677,4.79348 0.33426,0.72929 -0.14408,1.66365 -0.21602,2.49549 0.74744,1.63072 1.27059,3.38541 2.24233,4.89219 0.61459,0.95299 1.84379,1.44373 2.45839,2.39672 0.97176,1.50681 1.27058,3.38542 2.24234,4.89223 1.22919,1.90597 3.97133,2.73073 4.91678,4.79348 0.33426,0.72929 -0.55033,1.76617 -0.21603,2.49545 0.47272,1.03138 1.98565,1.36536 2.45839,2.39675 0.0955,0.20851 -0.73179,9.76495 -0.86419,9.9819 -0.65493,1.07301 -2.23559,1.52122 -2.8905,2.59421 -0.92619,1.51748 0.4941,3.4735 -0.43209,4.99096 -0.65492,1.07302 -2.23559,1.52123 -2.8905,2.59422 -0.47269,0.77447 -0.55084,6.36258 -0.64815,7.48644 -0.36008,4.15913 -0.72016,8.31825 -1.08024,12.47738 -0.14409,1.66364 -0.85927,3.43349 -0.4321,4.99094 0.47761,1.74131 1.76476,3.15092 2.24234,4.89223 0.63632,2.32 -2.02319,13.38693 -1.29629,14.97285 0.47272,1.03136 1.98564,1.36536 2.45838,2.39673 0.6808,1.4853 -1.9771,13.48753 -1.2963,14.97286 0.47273,1.03136 1.98566,1.36537 2.45838,2.39674 0.70734,1.54316 -1.78753,10.93419 -1.08025,12.47736 0.47275,1.03139 1.98568,1.36539 2.4584,2.39675 0.7073,1.54317 -1.78754,10.93421 -1.08024,12.47736 0.47273,1.0314 1.98566,1.36539 2.45839,2.39674 0.89691,1.95691 -1.54509,5.52956 -0.64815,7.48644 0.47274,1.03137 1.84379,1.44374 2.45837,2.39673 5.78343,1.03916 0.96926,5.08148 2.0263,7.38768 0.47271,1.03139 1.98566,1.36538 2.45838,2.39674 0.70469,1.53744 -1.56886,8.44449 -0.86419,9.98194 0.47273,1.03134 1.98564,1.36534 2.45838,2.39671 0.89693,1.95686 -1.54508,5.52953 -0.64814,7.48642 0.47273,1.03138 1.98567,1.36537 2.45838,2.39676 0.66854,1.45856 -1.10063,3.53238 -0.43209,4.99094 0.47272,1.03136 1.98565,1.36538 2.45838,2.39674 0.29878,0.65188 -1.19856,13.84392 -1.29629,14.97287 -0.072,0.83182 -0.55032,1.76617 -0.21603,2.49547 0.47274,1.03135 1.98566,1.36535 2.4584,2.3967 0.70467,1.53746 -1.56889,8.4445 -0.86419,9.98192 0.47271,1.03137 1.98565,1.36536 2.45835,2.39674 0.33428,0.72928 -0.14398,1.66365 -0.21602,2.49547 -0.20929,2.41778 -1.69901,13.50451 -1.2963,14.97286 0.47762,1.7413 1.76477,3.15093 2.24234,4.89222 0.2136,0.77873 -0.14408,1.66366 -0.21602,2.49547 -0.25217,2.91266 -1.64936,13.04522 -1.2963,14.97284 0.32727,1.78664 1.76475,3.15094 2.24234,4.89224 0.42718,1.55744 -0.85927,3.43349 -0.43209,4.99092 0.47761,1.74131 1.76473,3.15092 2.24233,4.89224 0.46458,1.69381 -1.30965,6.04315 -0.64814,7.48642 0.47272,1.03139 1.98566,1.36536 2.45838,2.39673 0.66854,1.45858 -1.10063,3.53238 -0.43211,4.99096 0.47275,1.03137 1.98569,1.36535 2.45841,2.39674 0.66853,1.45857 -1.10064,3.53237 -0.4321,4.99095 0.47271,1.03135 1.98565,1.36536 2.45839,2.39672 0.66853,1.45859 -0.85929,3.43349 -0.43211,4.99095 0.47761,1.74132 1.76474,3.15091 2.24233,4.89223 0.42718,1.55745 -1.10061,3.53236 -0.4321,4.99095 0.47274,1.03135 1.98569,1.36536 2.4584,2.39673 0.28987,0.63242 -1.14316,13.20405 -1.2963,14.97286 -1.08025,12.47737 -2.1605,24.95475 -3.24074,37.43215 -0.14408,1.66364 -0.85926,3.43349 -0.43211,4.99095 0.60414,2.20258 3.97133,2.73074 4.91678,4.79347 0.34121,0.74443 -0.55085,6.36257 -0.64814,7.48643 -0.57614,6.6546 -1.15227,13.30919 -1.72841,19.9638 -0.072,0.83182 -0.14398,1.66366 -0.21602,2.49548 -0.072,0.83182 -0.55032,1.76619 -0.21603,2.49547 0.47274,1.03138 1.98569,1.36537 2.4584,2.39674 0.33426,0.7293 -0.14408,1.66365 -0.21602,2.49548 -0.072,0.83181 -0.14408,1.66363 -0.21603,2.49547 -0.36008,4.15912 -0.72017,8.31826 -1.08025,12.47738 -0.072,0.83184 -0.14408,1.66365 -0.21603,2.49547 -0.072,0.83183 -0.5503,1.76618 -0.21602,2.49549 0.47272,1.03136 1.98567,1.36538 2.4584,2.39673 0.66852,1.45856 -0.85928,3.43348 -0.4321,4.99093 0.47759,1.74131 1.76472,3.15093 2.24233,4.89222 0.46458,1.69383 -1.30966,6.04319 -0.64815,7.48643 0.47272,1.03138 1.98565,1.36536 2.45837,2.39675 0.34124,0.74444 -0.55084,6.36256 -0.64814,7.48641 -0.57614,6.65462 -1.15226,13.30921 -1.72839,19.96382 -0.17398,2.00894 -1.28814,8.43629 -0.86421,9.98191 0.47762,1.74128 1.76477,3.15093 2.24237,4.8922 0.21356,0.77874 -0.55034,1.7662 -0.21603,2.49548 1.34538,2.93531 6.02975,4.25488 7.37515,7.1902 0.33428,0.72929 -0.55033,1.7662 -0.21603,2.4955 0.5988,1.30641 6.0809,5.92839 7.37514,7.19018 0.81948,0.79891 1.63894,1.59781 2.45841,2.39673 0.81945,0.79891 1.37627,1.9123 2.4584,2.39673 0.76515,0.34257 1.90927,-0.44129 2.67442,-0.0987 1.08209,0.48447 1.3763,1.91227 2.45838,2.39673 0.78105,0.34967 6.81887,-0.25174 8.0233,-0.29622 15.15517,-0.55954 -17.82956,0.65828 -2.67442,0.0987 8.0233,-0.29623 16.04661,-0.59246 24.06993,-0.88868 1.20445,-0.0445 7.1765,0.11355 8.02331,-0.29623 1.17319,-0.56773 1.71729,-2.02648 2.89049,-2.59422 1.65914,-0.80289 3.61187,0.39107 5.34886,-0.19748 1.94206,-0.65802 6.31238,-1.06221 5.56492,-2.69295 -0.74743,-1.63073 -5.72595,4.55296 -5.56492,2.69295 0.20369,-2.35275 4.21283,-3.17917 5.78096,-5.18844 0.29786,-0.3816 0.5772,-6.6669 0.64816,-7.48641 0.57612,-6.65462 1.15226,-13.30921 1.7284,-19.96382 0.0973,-1.12386 0.17544,-6.71194 0.64814,-7.48643 0.65495,-1.07299 2.23559,-1.52122 2.89049,-2.59423 0.92619,-1.51745 -0.26834,-3.39185 0.43211,-4.99094 0.78314,-1.78785 2.3234,-3.30186 3.10654,-5.08971 0.70044,-1.59907 -0.4941,-3.47349 0.43209,-4.99095 0.65491,-1.07299 2.23557,-1.52119 2.8905,-2.59422 0.46309,-0.75872 0.14408,-1.66364 0.21602,-2.49547 0.36008,-4.15911 0.72016,-8.31826 1.08026,-12.47737 0.072,-0.83184 0.14398,-1.66364 0.21602,-2.49547 0.072,-0.83185 -0.24704,-1.73677 0.21602,-2.49549 0.65491,-1.07301 2.23556,-1.5212 2.89048,-2.59422 0.9262,-1.51745 -0.4941,-3.4735 0.4321,-4.99095 1.30984,-2.14602 4.47114,-3.04243 5.78098,-5.18845 1.2426,-2.03588 -0.59447,-5.45055 0.64814,-7.48642 0.65491,-1.073 2.23558,-1.52121 2.89049,-2.59422 0.46308,-0.75872 0.14409,-1.66366 0.21603,-2.49548 0.14408,-1.66365 -0.14006,-3.36101 0.4321,-4.99094 0.63968,-1.82234 2.3234,-3.30186 3.10652,-5.08971 0.70047,-1.59909 -0.26836,-3.39185 0.4321,-4.99094 0.78316,-1.78784 2.32341,-3.30187 3.10655,-5.08969 0.70046,-1.59909 -0.4941,-3.47351 0.43209,-4.99096 0.65492,-1.07301 2.23558,-1.52122 2.89049,-2.59422 0.9262,-1.51745 -0.26836,-3.39186 0.43209,-4.99095 8.02229,-18.3142 -1.11167,3.96285 5.99702,-7.68394 0.99259,-1.62619 -0.0273,-7.94678 0.8642,-9.98188 0.78315,-1.78786 2.3234,-3.30185 3.10655,-5.08969 0.35023,-0.79955 -0.24704,-1.73675 0.21602,-2.49548 0.6549,-1.07301 2.23554,-1.52121 2.89047,-2.59423 0.91646,-1.5015 -0.11358,-5.74731 0.64815,-7.48641 0.78314,-1.78785 2.3234,-3.30185 3.10653,-5.0897 0.35025,-0.79955 -0.13417,-1.69594 0.21602,-2.49546 0.78316,-1.78787 2.32342,-3.30186 3.10654,-5.08971 0.35023,-0.79955 0.14408,-1.66368 0.21603,-2.4955 0.36007,-4.15911 0.72016,-8.31823 1.08023,-12.47736 0.14408,-1.66365 -0.26835,-3.39186 0.43211,-4.99097 0.78314,-1.78784 2.32339,-3.30185 3.10656,-5.08969 0.89144,-2.03509 -0.12841,-8.35569 0.86419,-9.98189 0.65491,-1.073 2.23555,-1.52122 2.89046,-2.59423 0.34815,-0.57037 0.81286,-9.3889 0.86421,-9.9819 0.5041,-5.82277 1.00822,-11.64556 1.51234,-17.46835 0.0973,-1.12385 0.17544,-6.71193 0.64814,-7.48643 0.65494,-1.07298 2.2356,-1.52121 2.89049,-2.5942 0.94318,-1.54527 0.35312,-13.42758 1.29629,-14.97288 0.65493,-1.07297 2.23559,-1.5212 2.89049,-2.59421 1.0308,-1.6888 0.22215,-12.52064 1.2963,-14.97286 0.78315,-1.78783 2.46685,-3.26735 3.10654,-5.08968 0.6519,-1.8571 0.17022,-10.98642 1.08024,-12.47739 0.65492,-1.07299 2.23558,-1.52122 2.89049,-2.59422 0.4631,-0.75871 0.14408,-1.66366 0.21602,-2.49546 0.0909,-1.04977 0.83422,-14.21584 1.29629,-14.97289 0.65492,-1.07299 2.39519,-1.46348 2.89048,-2.59421 0.63006,-1.4383 0.87677,-10.12703 1.08025,-12.47738 0.14197,-1.6398 0.0233,-6.05991 0.64816,-7.48642 0.78314,-1.78784 2.32339,-3.30187 3.10653,-5.0897 1.17687,-2.68669 -0.31267,-7.29522 0.86419,-9.98191 0.78314,-1.78785 2.32339,-3.30183 3.10656,-5.0897 0.3502,-0.79954 -0.24707,-1.73672 0.21602,-2.49546 0.65491,-1.07302 2.23557,-1.52124 2.89047,-2.59421 0.92622,-1.51746 -0.49408,-3.47353 0.43209,-4.99097 0.65493,-1.07301 2.2356,-1.52122 2.8905,-2.5942 0.92619,-1.51747 -0.49408,-3.47351 0.43209,-4.99098 0.65493,-1.07299 2.23558,-1.52121 2.89051,-2.59422 0.92617,-1.51744 -0.49412,-3.47349 0.43208,-4.99094 0.65493,-1.073 2.23558,-1.52123 2.89049,-2.59422 0.46309,-0.75872 -0.13417,-1.69592 0.21602,-2.49547 0.78316,-1.78786 2.46684,-3.26735 3.10655,-5.0897 0.65191,-1.8571 0.17022,-10.98643 1.08024,-12.47737 0.65492,-1.07301 2.23558,-1.52123 2.8905,-2.59424 0.92618,-1.51744 -0.4941,-3.47349 0.4321,-4.99095 0.65491,-1.07299 2.23557,-1.5212 2.89046,-2.5942 0.47274,-0.7745 0.55084,-6.36259 0.64815,-7.48643 0.50411,-5.82279 1.00823,-11.64557 1.51234,-17.46835 1.36832,-15.80466 2.73663,-31.60936 4.10495,-47.41405 0.28805,-3.32729 0.57612,-6.65459 0.86419,-9.98191 0.36009,-4.15913 5.53766,-12.64195 1.08025,-12.47737 -4.45738,0.16456 -0.72016,8.31824 0.86419,-9.98192 z"
       id="path3029" />
  </g>
</svg>
