<?xml version="1.0" encoding="UTF-8" standalone="no"?>
<!-- Created with Inkscape (http://www.inkscape.org/) -->

<svg
   xmlns:dc="http://purl.org/dc/elements/1.1/"
   xmlns:cc="http://creativecommons.org/ns#"
   xmlns:rdf="http://www.w3.org/1999/02/22-rdf-syntax-ns#"
   xmlns:svg="http://www.w3.org/2000/svg"
   xmlns="http://www.w3.org/2000/svg"
   xmlns:sodipodi="http://sodipodi.sourceforge.net/DTD/sodipodi-0.dtd"
   xmlns:inkscape="http://www.inkscape.org/namespaces/inkscape"
   width="744.09448819"
   height="1052.3622047"
   id="svg2"
   version="1.1"
   inkscape:version="0.47pre4 r22446"
   sodipodi:docname="lr6.svg">
  <defs
     id="defs4">
    <inkscape:perspective
       sodipodi:type="inkscape:persp3d"
       inkscape:vp_x="0 : 526.18109 : 1"
       inkscape:vp_y="0 : 1000 : 0"
       inkscape:vp_z="744.09448 : 526.18109 : 1"
       inkscape:persp3d-origin="372.04724 : 350.78739 : 1"
       id="perspective10" />
  </defs>
  <sodipodi:namedview
     id="base"
     pagecolor="#ffffff"
     bordercolor="#666666"
     borderopacity="1.0"
     inkscape:pageopacity="0.0"
     inkscape:pageshadow="2"
     inkscape:zoom="0.35"
     inkscape:cx="375"
     inkscape:cy="520"
     inkscape:document-units="px"
     inkscape:current-layer="layer1"
     showgrid="false"
     inkscape:window-width="841"
     inkscape:window-height="603"
     inkscape:window-x="325"
     inkscape:window-y="80"
     inkscape:window-maximized="0" />
  <metadata
     id="metadata7">
    <rdf:RDF>
      <cc:Work
         rdf:about="">
        <dc:format>image/svg+xml</dc:format>
        <dc:type
           rdf:resource="http://purl.org/dc/dcmitype/StillImage" />
        <dc:title></dc:title>
      </cc:Work>
    </rdf:RDF>
  </metadata>
  <g
     inkscape:label="Layer 1"
     inkscape:groupmode="layer"
     id="layer1">
    <path
       style="fill:none;stroke:#000000;stroke-width:1px;stroke-linecap:butt;stroke-linejoin:miter;stroke-opacity:1"
       d="m 157.14286,343.79075 c -0.44161,-2.27968 0.66018,-12.96534 0,-14.28571 -0.60234,-1.20468 -2.25481,-1.65247 -2.85715,-2.85714 -0.90124,-1.80249 0.90125,-12.48323 0,-14.28572 -0.60233,-1.20467 -2.2548,-1.65246 -2.85714,-2.85714 -0.89789,-1.79578 0.89789,-9.63279 0,-11.42857 -0.60234,-1.20468 -2.2548,-1.65247 -2.85714,-2.85714 -0.91289,-1.82578 0.76657,-9.12886 0,-11.42858 -0.67344,-2.0203 -2.34064,-3.64828 -2.85714,-5.71428 -0.46198,-1.84789 0.60233,-3.90727 0,-5.71429 -0.85184,-2.5555 -4.50961,-3.30493 -5.71429,-5.71428 -0.51662,-1.03324 0,-12.29846 0,-14.28572 0,-1.49406 -0.37563,-10.67731 0,-11.42857 1.2662,-2.53239 6.8375,-5.97053 8.57143,-8.57143 1.18128,-1.77192 1.67586,-3.94236 2.85714,-5.71428 0.74711,-1.12067 1.90476,-1.90477 2.85714,-2.85715 2.85715,-2.85714 5.71429,-5.71428 8.57143,-8.57142 0.95238,-0.95239 1.90476,-1.90477 2.85715,-2.85715 0.95238,-0.95238 1.65246,-2.2548 2.85714,-2.85714 0.85183,-0.42592 2.00531,0.42592 2.85714,0 1.49126,-0.74563 4.22303,-4.96865 5.71429,-5.71429 0.85183,-0.42591 1.95363,0.30117 2.85714,0 2.02031,-0.67343 3.69398,-2.1837 5.71429,-2.85714 0.9035,-0.30117 2.0053,0.42592 2.85714,0 1.20468,-0.60234 1.65246,-2.2548 2.85714,-2.85714 0.85184,-0.42592 1.95364,0.30117 2.85714,0 2.02031,-0.67344 3.69398,-2.18371 5.71429,-2.85714 1.80702,-0.60234 4.01061,0.85183 5.71429,0 1.20467,-0.60234 1.65246,-2.25481 2.85714,-2.85715 0.85183,-0.42592 1.90476,0 2.85714,0 0.95238,0 1.90476,0 2.85714,0 6.66667,0 13.33334,0 20,0 5.71429,0 11.42858,0 17.14286,0 1.87745,0 6.95943,-0.53733 8.57143,0 20.69548,6.89849 -4.50459,-0.82372 8.57143,5.71429 0.85183,0.42592 2.00531,-0.42592 2.85714,0 1.20468,0.60234 1.65247,2.2548 2.85714,2.85714 1.83079,0.9154 15.36848,-0.88719 17.14286,0 1.20468,0.60234 1.65247,2.25481 2.85714,2.85714 0.85184,0.42592 2.85715,-0.95238 2.85715,0 0,1.17284 -14.85965,-3.04845 2.85714,2.85715 1.70363,0.56787 14.37467,0 17.14286,0 8.57143,0 17.14285,0 25.71428,0 1.49406,0 10.67731,0.37563 11.42857,0 1.20468,-0.60234 1.65247,-2.25481 2.85715,-2.85715 1.80248,-0.90124 12.48323,0.90125 14.28571,0 1.20468,-0.60233 1.65247,-2.2548 2.85714,-2.85714 0.85184,-0.42592 2.00531,0.42592 2.85715,0 1.20467,-0.60234 1.65246,-2.2548 2.85714,-2.85714 0.85184,-0.42592 2.00531,0.42592 2.85714,0 1.20468,-0.60234 1.73648,-2.11004 2.85715,-2.85714 1.77192,-1.18129 3.80952,-1.90477 5.71428,-2.85715 1.90476,-0.95238 3.69398,-2.18371 5.71429,-2.85714 1.80701,-0.60234 4.01061,0.85184 5.71428,0 1.20468,-0.60234 1.65247,-2.2548 2.85715,-2.85714 1.70367,-0.85184 4.01061,0.85183 5.71428,0 1.20468,-0.60234 1.65247,-2.25481 2.85714,-2.85715 0.75127,-0.37563 9.93452,0 11.42858,0 2.87729,0 15.5628,-0.52668 17.14285,0 1.27776,0.42592 1.65247,2.25481 2.85715,2.85715 1.8709,0.93545 11.75019,-0.84518 14.28571,0 2.02031,0.67343 3.69398,2.1837 5.71429,2.85714 2.29971,0.76657 9.60279,-0.91289 11.42857,0 1.20467,0.60234 1.65246,2.2548 2.85714,2.85714 0.85184,0.42592 2.00531,-0.42592 2.85714,0 1.20468,0.60234 1.65247,2.25481 2.85715,2.85715 0.85183,0.42591 2.0053,-0.42592 2.85714,0 1.20468,0.60233 1.65246,2.2548 2.85714,2.85714 0.85184,0.42592 1.95364,-0.30117 2.85714,0 2.02031,0.67343 3.80953,1.90476 5.71429,2.85714 1.90476,0.95238 3.94236,1.67586 5.71429,2.85714 2.24132,1.49422 3.30493,4.50961 5.71428,5.71429 0.85184,0.42592 2.00531,-0.42592 2.85714,0 1.20468,0.60234 1.65247,2.2548 2.85715,2.85714 0.85183,0.42592 2.0053,-0.42592 2.85714,0 0.7586,0.3793 8.19213,7.81283 8.57143,8.57143 0.42592,0.85184 -0.42592,2.00531 0,2.85714 0.60234,1.20468 2.2548,1.65247 2.85714,2.85715 0.89789,1.79577 -0.89789,9.63279 0,11.42857 0.60234,1.20468 2.25481,1.65246 2.85714,2.85714 0.43477,0.86953 0,7.28469 0,8.57143 0,6.66667 0,13.33333 0,20 0,2.02515 0.36936,16.40414 0,17.14286 -0.60233,1.20467 -2.2548,1.65246 -2.85714,2.85714 -0.85183,1.70367 0.85184,4.01061 0,5.71429 -0.60234,1.20467 -2.2548,1.65246 -2.85714,2.85714 -0.42592,0.85183 0.42592,2.00531 0,2.85714 -3.53058,7.06116 -2.85714,-0.98622 -2.85714,5.71429 0,0.95238 0.42591,2.0053 0,2.85714 -1.71429,3.42857 -6.85715,5.14286 -8.57143,8.57143 -0.85184,1.70367 0.85183,4.01061 0,5.71428 -0.60234,1.20468 -2.11004,1.73648 -2.85715,2.85715 -1.18128,1.77192 -1.67586,3.94236 -2.85714,5.71428 -0.74711,1.12067 -2.2548,1.65247 -2.85714,2.85715 -0.89789,1.79577 0.89789,9.63279 0,11.42857 -0.60234,1.20467 -2.25481,1.65246 -2.85714,2.85714 -0.85184,1.70367 0.85183,4.01061 0,5.71429 -0.60234,1.20467 -2.25481,1.65246 -2.85715,2.85714 -0.42591,0.85183 0.95238,2.85714 0,2.85714 -0.95238,0 0,-3.80952 0,-2.85714 0,1.90476 0.60234,3.90727 0,5.71428 -0.42591,1.27776 -2.2548,1.65247 -2.85714,2.85715 -0.42592,0.85183 0,1.90476 0,2.85714 0,2.76819 0.56788,15.43923 0,17.14286 -0.67344,2.0203 -2.18371,3.69398 -2.85714,5.71428 -0.30117,0.90351 0.95238,2.85715 0,2.85715 -1.17284,0 3.04845,-14.85965 -2.85715,2.85714 -0.37805,1.13416 0.36538,11.42857 0,11.42857 -0.95238,0 0,-3.80952 0,-2.85714 0,4.7619 0,9.52381 0,14.28571 0,0.95238 0,1.90476 0,2.85714 0,0.95238 -0.42591,2.00531 0,2.85715 0.60234,1.20467 2.25481,1.65246 2.85715,2.85714 0.85183,1.70367 -0.85184,4.01061 0,5.71429 0.60234,1.20467 2.2548,1.65246 2.85714,2.85714 0.85184,1.70367 -0.85184,4.01061 0,5.71428 9.47595,9.47595 -1.34687,-2.69374 2.85714,5.71429 0.60234,1.20468 2.25481,1.65247 2.85715,2.85714 0.37563,0.75126 0,9.93452 0,11.42857 0,8.57143 0,17.14286 0,25.71429 0,12.38095 0,24.7619 0,37.14286 0,5.71428 0,11.42857 0,17.14285 0,0.95238 0,1.90477 0,2.85715 0,0.95238 0.42591,2.0053 0,2.85714 -0.60234,1.20468 -2.25481,1.65247 -2.85715,2.85714 -0.37563,0.75126 0,9.93452 0,11.42857 0,10.47619 0,20.95238 0,31.42858 0,1.49405 0.37563,10.67731 0,11.42857 -0.60234,1.20467 -2.2548,1.65246 -2.85714,2.85714 -0.42592,0.85184 0,1.90476 0,2.85714 0,4.76191 0,9.52381 0,14.28572 0,0.95238 0,1.90476 0,2.85714 0,0.95238 0.42592,2.00531 0,2.85714 -0.60234,1.20468 -2.2548,1.65247 -2.85714,2.85715 -0.43477,0.86952 0,7.28469 0,8.57142 0,6.66667 0,13.33334 0,20 0,4.76191 0,9.52381 0,14.28572 0,0.95238 0,1.90476 0,2.85714 0,0.95238 0.42591,2.00531 0,2.85714 -0.60234,1.20468 -2.25481,1.65247 -2.85715,2.85715 -0.93545,1.8709 0.84518,11.75019 0,14.28571 -0.67343,2.02031 -2.1837,3.69398 -2.85714,5.71429 -0.60234,1.80701 0.85184,4.01061 0,5.71428 -0.60234,1.20468 -2.2548,1.65247 -2.85714,2.85715 -0.42592,0.85183 0,1.90476 0,2.85714 -0.95238,0.95238 -2.25481,1.65246 -2.85714,2.85714 -0.89789,1.79578 0.89788,9.63279 0,11.42857 -1.20468,2.40936 -4.50961,3.30493 -5.71429,5.71429 -0.42592,0.85183 0.42592,2.00531 0,2.85714 -0.60234,1.20468 -2.2548,1.65247 -2.85714,2.85714 -0.85184,1.70367 0.85183,4.01062 0,5.71429 -9.47595,9.47595 1.34687,-2.69374 -2.85715,5.71429 -0.76297,1.52595 -7.06724,7.06724 -8.57142,8.57142 -1.68042,1.68042 -10.10549,10.76703 -11.42858,11.42858 -0.85183,0.42591 -2.0053,-0.42592 -2.85714,0 -2.40935,1.20467 -3.30493,4.5096 -5.71428,5.71428 -0.85184,0.42592 -2.00531,-0.42592 -2.85715,0 -1.20467,0.60234 -1.65246,2.25481 -2.85714,2.85714 -0.86953,0.43477 -7.28469,0 -8.57143,0 -1.90476,0 -7.61905,0 -5.71428,0 1.90476,0 7.06115,1.34687 5.71428,0 -15.40057,-15.40057 -3.68588,1.01421 -11.42857,-2.85714 -1.20468,-0.60234 -1.90476,-1.90476 -2.85714,-2.85714 -0.95238,-0.95238 -3.80953,-1.90476 -2.85715,-2.85714 0.95239,-0.95239 3.80953,3.80952 2.85715,2.85714 -2.85715,-2.85714 -5.71429,-5.71429 -8.57143,-8.57143 -2.24505,-2.24505 -13.37576,-12.46579 -14.28572,-14.28571 -0.43476,-0.86953 0,-7.2847 0,-8.57143 0,-9.52381 0,-19.04762 0,-28.57143 0,-1.49406 0.37563,-10.67731 0,-11.42857 -0.60233,-1.20468 -2.2548,-1.65247 -2.85714,-2.85715 -0.86746,-1.73492 0.86746,-15.40793 0,-17.14285 -0.60234,-1.20468 -2.2548,-1.65247 -2.85714,-2.85715 -0.85184,-1.70367 0.85183,-4.01061 0,-5.71428 -0.60234,-1.20468 -2.43123,-1.57939 -2.85714,-2.85714 -0.60234,-1.80702 0.46197,-3.8664 0,-5.71429 -0.51651,-2.066 -2.18371,-3.69398 -2.85715,-5.71429 -0.30117,-0.9035 0,-1.90476 0,-2.85714 -0.95238,-1.90476 -2.1837,-3.69398 -2.85714,-5.71428 -0.60234,-1.80702 0.60234,-3.90727 0,-5.71429 -0.67344,-2.02031 -2.18371,-3.69398 -2.85714,-5.71429 -0.30117,-0.9035 0.42591,-2.0053 0,-2.85714 -1.20468,-2.40935 -4.50961,-3.30493 -5.71429,-5.71428 -0.84288,-1.68578 0.65508,-6.6062 0,-8.57143 -0.67343,-2.02031 -2.18371,-3.69398 -2.85714,-5.71429 -0.30117,-0.90351 0.42592,-2.00531 0,-2.85714 -0.60234,-1.20468 -2.25481,-1.65247 -2.85714,-2.85714 -1.14286,-2.28572 1.14285,-6.28572 0,-8.57143 -0.60234,-1.20468 -2.25481,-1.65247 -2.85715,-2.85715 -1.14285,-2.28571 1.14286,-6.28571 0,-8.57142 -0.60234,-1.20468 -2.2548,-1.65247 -2.85714,-2.85715 -0.42592,-0.85183 0.30117,-1.95363 0,-2.85714 -0.67344,-2.02031 -2.18371,-3.69398 -2.85714,-5.71429 -0.59943,-1.79828 0,-11.71038 0,-14.28571 0,-0.95238 0.30117,-1.95364 0,-2.85714 -0.67344,-2.02031 -2.18371,-3.69398 -2.85715,-5.71429 -0.60233,-1.80701 0.85184,-4.01061 0,-5.71428 -1.20467,-2.40936 -4.5096,-3.30494 -5.71428,-5.71429 -0.92621,-1.85242 0.89725,-14.4511 0,-17.14286 -0.67344,-2.0203 -2.18371,-3.69398 -2.85714,-5.71428 -0.60234,-1.80702 0.85183,-4.01062 0,-5.71429 -0.60234,-1.20468 -2.25481,-1.65246 -2.85715,-2.85714 -0.85183,-1.70367 0.85184,-4.01062 0,-5.71429 -0.60234,-1.20467 -2.11003,-1.73648 -2.85714,-2.85714 -5.41265,0.32537 -1.90476,-6.66667 -2.85714,-8.57143 -0.60234,-1.20468 -2.25481,-1.65246 -2.85715,-2.85714 -0.42591,-0.85184 0.42592,-2.00531 0,-2.85714 -0.60233,-1.20468 -2.2548,-1.65247 -2.85714,-2.85715 -0.85183,-1.70367 0.85184,-4.01061 0,-5.71428 -1.49034,-2.98069 -6.91018,-4.51839 -5.71428,-5.71429 0.95238,-0.95238 2.85714,4.20401 2.85714,2.85714 0,-2.12958 -1.67586,-3.94236 -2.85714,-5.71428 -0.74711,-1.12067 -1.90477,-1.90476 -2.85715,-2.85714 -0.95238,-0.95239 -1.65246,-2.25481 -2.85714,-2.85715 -0.85184,-0.42592 -2.85714,0.95238 -2.85714,0 0,-0.95238 3.80952,0 2.85714,0 -3.80952,0 -7.61905,0 -11.42857,0 -1.28674,0 -7.7019,-0.43476 -8.57143,0 -1.52595,0.76298 -7.06724,7.06725 -8.57143,8.57143 -0.95238,0.95238 -1.90476,1.90476 -2.85714,2.85714 -0.95238,0.95238 -2.25481,1.65247 -2.85714,2.85715 -0.92621,1.85241 0.89725,14.4511 0,17.14285 -0.67344,2.02031 -2.18371,3.69398 -2.85715,5.71429 -0.84517,2.53552 0.93545,12.41481 0,14.28571 -0.60234,1.20468 -2.2548,1.65247 -2.85714,2.85715 -0.85184,1.70367 0.85184,4.01061 0,5.71428 -0.60234,1.20468 -2.2548,1.65247 -2.85714,2.85715 -0.85184,1.70367 0.85183,4.01061 0,5.71428 -0.60234,1.20468 -2.25481,1.65247 -2.85715,2.85714 -0.85183,1.70367 0.60234,3.90727 0,5.71429 -0.67343,2.0203 -2.1837,3.69398 -2.85714,5.71429 -0.60234,1.80701 0.85184,4.01061 0,5.71428 -0.60234,1.20468 -2.2548,1.65247 -2.85714,2.85714 -0.85184,1.70367 0.85183,4.01062 0,5.71429 -0.60234,1.20468 -2.25481,1.65247 -2.85714,2.85714 -1.14286,2.28572 1.14285,6.28572 0,8.57143 -0.60234,1.20468 -2.25481,1.65247 -2.85715,2.85714 -1.14285,2.28572 1.14286,6.28572 0,8.57143 -0.60234,1.20468 -2.2548,1.65247 -2.85714,2.85715 -0.89789,1.79577 0.89789,9.63279 0,11.42857 -0.60234,1.20467 -2.2548,1.65246 -2.85714,2.85714 -0.42592,0.85184 0,1.90476 0,2.85714 -0.95238,0.95238 -2.25481,1.65247 -2.85715,2.85715 -0.85183,1.70367 0.60234,3.90727 0,5.71428 -0.67343,2.02031 -2.1837,3.69398 -2.85714,5.71429 -0.60234,1.80701 0.85184,4.01061 0,5.71428 -0.60234,1.20468 -2.2548,1.65247 -2.85714,2.85715 -0.85184,1.70367 0.60234,3.90727 0,5.71428 -0.67344,2.02031 -2.18371,3.69398 -2.85714,5.71429 -0.30117,0.9035 0,1.90476 0,2.85714 -0.95239,1.90476 -2.18371,3.69398 -2.85715,5.71429 -0.60234,1.80701 0.85184,4.01061 0,5.71428 -0.60234,1.20468 -2.2548,1.65247 -2.85714,2.85714 -0.85184,1.70367 0.85184,4.01062 0,5.71429 -0.60234,1.20468 -2.2548,1.65247 -2.85714,2.85714 -0.89789,1.79578 0.89789,9.6328 0,11.42857 -1.20468,2.40936 -4.50961,3.30494 -5.71429,5.71429 -0.85183,1.70367 0.85184,4.01061 0,5.71429 -0.60234,1.20467 -2.2548,1.65246 -2.85714,2.85714 -0.42592,0.85183 0.42592,2.00531 0,2.85714 -0.60234,1.20468 -2.25481,1.65247 -2.85714,2.85714 -0.42592,0.85184 0.42591,2.00531 0,2.85715 -0.60234,1.20467 -2.25481,1.65246 -2.85715,2.85714 -0.85183,1.70367 0.85184,4.01061 0,5.71429 -0.60234,1.20467 -2.2548,1.65246 -2.85714,2.85714 -0.85184,1.70367 0.85184,4.01061 0,5.71428 -0.60234,1.20468 -2.2548,1.65247 -2.85714,2.85715 -1.14286,2.28571 1.14285,6.28571 0,8.57143 -0.60234,1.20467 -2.25481,1.65246 -2.85715,2.85714 -0.85183,1.70367 0.60234,3.90727 0,5.71428 -3.45265,10.35798 -1.35561,2.03342 -5.71428,8.57143 -7.28306,3.41545 -1.06829,4.99372 -2.85714,8.57143 -0.60234,1.20468 -2.25481,1.65247 -2.85715,2.85714 -0.42591,0.85184 0.42592,2.00531 0,2.85715 -0.60234,1.20467 -2.2548,1.65246 -2.85714,2.85714 -0.42592,0.85184 0.42592,2.00531 0,2.85714 -0.9974,1.99481 -4.71688,3.71948 -5.71429,5.71429 -0.42591,0.85183 0.42592,2.00531 0,2.85714 -0.3793,0.7586 -7.81282,8.19213 -8.57142,8.57143 -1.70368,0.85184 -4.01062,-0.85184 -5.71429,0 -1.20468,0.60234 -1.65247,2.2548 -2.85714,2.85714 -1.70367,0.85184 -4.01062,-0.85183 -5.71429,0 -1.20468,0.60234 -1.65246,2.25481 -2.85714,2.85715 -0.73872,0.36935 -15.11771,0 -17.14286,0 -1.90476,0 -3.80952,0 -5.71428,0 -0.95239,0 -2.85715,0.95238 -2.85715,0 0,-0.95239 3.80953,0 2.85715,0 -1.90477,0 -3.80953,0 -5.71429,0 -0.95238,0 -2.00531,0.42591 -2.85714,0 -1.52596,-0.76298 -7.06725,-7.06725 -8.57143,-8.57143 -4.39203,-4.39203 -9.38592,-8.15777 -11.42857,-14.28572 -0.59777,-1.79329 0,-9.12847 0,-11.42857 0,-9.52381 0,-19.04762 0,-28.57143 0,-1.49406 -0.37563,-10.67731 0,-11.42857 0.60234,-1.20468 2.2548,-1.65246 2.85714,-2.85714 1.14286,-2.28572 -1.14286,-6.28572 0,-8.57143 0.60234,-1.20468 2.2548,-1.65247 2.85714,-2.85714 0.42592,-0.85184 -0.30117,-1.95364 0,-2.85715 0.67344,-2.0203 2.18371,-3.69398 2.85715,-5.71428 0.30117,-0.90351 -0.42592,-2.00531 0,-2.85714 0.60233,-1.20468 2.2548,-1.65247 2.85714,-2.85715 0.85183,-1.70367 -0.60234,-3.90727 0,-5.71428 0.67343,-2.02031 2.18371,-3.69398 2.85714,-5.71429 0.30117,-0.90351 -0.42592,-2.00531 0,-2.85714 0.60234,-1.20468 2.25481,-1.65247 2.85714,-2.85714 0.42592,-0.85184 -0.42591,-2.00531 0,-2.85715 0.60234,-1.20467 2.25481,-1.65246 2.85715,-2.85714 0.85183,-1.70367 -0.85184,-4.01062 0,-5.71429 0.60234,-1.20467 2.2548,-1.65246 2.85714,-2.85714 0.85184,-1.70367 -0.85184,-4.01061 0,-5.71428 0.60234,-1.20468 2.2548,-1.65247 2.85714,-2.85715 0.42592,-0.85183 0,-1.90476 0,-2.85714 0,-1.90476 -0.60234,-3.90727 0,-5.71429 0.42592,-1.27775 2.25481,-1.65246 2.85715,-2.85714 1.14285,-2.28571 -1.14286,-6.28571 0,-8.57143 0.60233,-1.20467 2.2548,-1.65246 2.85714,-2.85714 0.85183,-1.70367 -0.60234,-3.90727 0,-5.71429 6.89849,-20.69547 -0.82373,4.5046 5.71428,-8.57142 1.14286,-2.28572 -1.14285,-6.28572 0,-8.57143 0.60234,-1.20468 2.25481,-1.65247 2.85715,-2.85715 0.85183,-1.70367 -0.85184,-4.01061 0,-5.71428 0.60234,-1.20468 2.2548,-1.65247 2.85714,-2.85714 1.14286,-2.28572 -1.14286,-6.28572 0,-8.57143 0.60234,-1.20468 2.2548,-1.65247 2.85714,-2.85715 0.89789,-1.79577 -0.89789,-9.63279 0,-11.42857 0.60234,-1.20467 2.25481,-1.65246 2.85715,-2.85714 0.90903,-1.81806 -0.82339,-11.81556 0,-14.28571 0.67343,-2.02031 2.1837,-3.69399 2.85714,-5.71429 0.60234,-1.80702 -0.60234,-3.90727 0,-5.71429 0.67343,-2.0203 2.18371,-3.69398 2.85714,-5.71428 0.60234,-1.80702 0,-3.80953 0,-5.71429 0,-5.71428 0,-11.42857 0,-17.14285 0,-0.95239 0,-1.90477 0,-2.85715 0,-0.95238 -0.42592,-2.0053 0,-2.85714 0.60234,-1.20468 2.25481,-1.65247 2.85714,-2.85714 0.91289,-1.82578 -0.76657,-9.12886 0,-11.42857 0.67344,-2.02031 2.18371,-3.69399 2.85715,-5.71429 0.53733,-1.612 0,-6.69398 0,-8.57143 0,-7.61905 0,-15.23809 0,-22.85714 0,-12.38095 0,-24.76191 0,-37.14286 0,-5.71428 0,-11.42857 0,-17.14286 0,-0.95238 0,-1.90476 0,-2.85714 0,-0.95238 0.42591,-2.00531 0,-2.85714 -0.60234,-1.20468 -2.25481,-1.65247 -2.85715,-2.85714 -0.42591,-0.85184 0,-1.90477 0,-2.85715 0,-0.95238 0,-1.90476 0,-2.85714 0,-0.95238 -0.95238,-2.85714 0,-2.85714 0.95239,0 0,3.80952 0,2.85714 0,-1.90476 0,-3.80952 0,-5.71429 0,-0.95238 0,-1.90476 0,-2.85714 0,-0.95238 0.42592,-2.00531 0,-2.85714 -0.60233,-1.20468 -2.2548,-1.65247 -2.85714,-2.85714 -0.42592,-0.85184 0,-1.90477 0,-2.85715 0,-0.95238 0,-1.90476 0,-2.85714 0,-0.95238 -0.95238,-2.85714 0,-2.85714 0.95238,0 0,3.80952 0,2.85714 0,-13.00653 1.34687,-0.1634 -2.85714,-8.57143 -0.42592,-0.85183 0.85183,-2.43122 0,-2.85714 -3.51221,-1.75611 -7.61905,-1.90476 -11.42857,-14.28572 z"
       id="path2816" />
  </g>
</svg>
