<?xml version="1.0" encoding="UTF-8" standalone="no"?>
<!-- Created with Inkscape (http://www.inkscape.org/) -->

<svg
   xmlns:dc="http://purl.org/dc/elements/1.1/"
   xmlns:cc="http://creativecommons.org/ns#"
   xmlns:rdf="http://www.w3.org/1999/02/22-rdf-syntax-ns#"
   xmlns:svg="http://www.w3.org/2000/svg"
   xmlns="http://www.w3.org/2000/svg"
   xmlns:sodipodi="http://sodipodi.sourceforge.net/DTD/sodipodi-0.dtd"
   xmlns:inkscape="http://www.inkscape.org/namespaces/inkscape"
   width="744.09448819"
   height="1052.3622047"
   id="svg2"
   version="1.1"
   inkscape:version="0.47pre4 r22446"
   sodipodi:docname="lr7.svg">
  <defs
     id="defs4">
    <inkscape:perspective
       sodipodi:type="inkscape:persp3d"
       inkscape:vp_x="0 : 526.18109 : 1"
       inkscape:vp_y="0 : 1000 : 0"
       inkscape:vp_z="744.09448 : 526.18109 : 1"
       inkscape:persp3d-origin="372.04724 : 350.78739 : 1"
       id="perspective10" />
  </defs>
  <sodipodi:namedview
     id="base"
     pagecolor="#ffffff"
     bordercolor="#666666"
     borderopacity="1.0"
     inkscape:pageopacity="0.0"
     inkscape:pageshadow="2"
     inkscape:zoom="0.35"
     inkscape:cx="375"
     inkscape:cy="520"
     inkscape:document-units="px"
     inkscape:current-layer="layer1"
     showgrid="false"
     inkscape:window-width="841"
     inkscape:window-height="603"
     inkscape:window-x="325"
     inkscape:window-y="80"
     inkscape:window-maximized="0" />
  <metadata
     id="metadata7">
    <rdf:RDF>
      <cc:Work
         rdf:about="">
        <dc:format>image/svg+xml</dc:format>
        <dc:type
           rdf:resource="http://purl.org/dc/dcmitype/StillImage" />
        <dc:title></dc:title>
      </cc:Work>
    </rdf:RDF>
  </metadata>
  <g
     inkscape:label="Layer 1"
     inkscape:groupmode="layer"
     id="layer1">
    <path
       style="fill:none;stroke:#000000;stroke-width:1px;stroke-linecap:butt;stroke-linejoin:miter;stroke-opacity:1"
       d="m 276.53797,306.083 c 0.25433,-2.30809 4.47554,-12.18628 4.23663,-13.64303 -0.21797,-1.32912 -1.6633,-2.24683 -1.88128,-3.57594 -0.32615,-1.98868 4.56278,-11.65436 4.23663,-13.64304 -0.21797,-1.32911 -1.6633,-2.24682 -1.88128,-3.57594 -0.32493,-1.98127 3.71425,-8.93315 3.38931,-10.91443 -0.21797,-1.32911 -1.66329,-2.24682 -1.88127,-3.57593 -0.33036,-2.01437 3.43938,-8.49084 3.38931,-10.91444 -0.044,-2.12913 -1.15339,-4.1783 -1.03396,-6.30454 0.10683,-1.90176 1.734,-3.55286 1.69466,-5.45722 -0.0556,-2.69316 -3.32661,-4.49364 -3.76257,-7.15186 -0.18695,-1.13997 3.64729,-11.74519 4.23664,-13.64305 0.44309,-1.42684 2.80778,-10.30836 3.38931,-10.91443 1.96026,-2.04295 8.30055,-3.67417 10.72781,-5.64384 1.65363,-1.34188 2.76963,-3.268 4.42326,-4.60988 1.04585,-0.84869 2.38395,-1.2542 3.57593,-1.88129 3.57594,-1.88128 7.15188,-3.76256 10.72781,-5.64384 1.19198,-0.6271 2.38395,-1.25419 3.57594,-1.88128 1.19198,-0.62709 2.24682,-1.6633 3.57593,-1.88128 0.93982,-0.15414 1.78879,1.00146 2.72861,0.84733 1.6453,-0.26984 5.50657,-3.49273 7.15187,-3.76257 0.93982,-0.15413 1.77643,0.867 2.72861,0.84733 2.12914,-0.044 4.17541,-0.98996 6.30455,-1.03395 0.95217,-0.0197 1.78877,1.00146 2.7286,0.84733 1.32912,-0.21798 2.24682,-1.66331 3.57593,-1.88128 0.93983,-0.15414 1.77644,0.867 2.72861,0.84732 2.12914,-0.044 4.17541,-0.98996 6.30455,-1.03395 1.90436,-0.0393 3.57756,2.00292 5.45722,1.69466 1.3291,-0.21798 2.24681,-1.66331 3.57593,-1.88129 0.93982,-0.15413 1.81907,0.56489 2.72861,0.84733 0.90953,0.28244 1.81907,0.56488 2.7286,0.84732 6.36676,1.9771 12.73351,3.9542 19.10026,5.9313 5.45722,1.69465 10.91444,3.38931 16.37165,5.08396 1.79299,0.55679 6.8057,1.55076 8.18582,2.54198 17.7186,12.7257 -4.05765,-2.12256 6.49117,7.99921 0.6872,0.65938 2.04141,0.18794 2.72861,0.84732 0.97185,0.93251 0.90943,2.64343 1.88128,3.57593 1.47695,1.41717 14.9402,3.71047 16.37165,5.08397 0.97185,0.93251 0.90943,2.64344 1.88128,3.57593 0.6872,0.65939 3.01105,-0.0622 2.72861,0.84733 -0.34782,1.12008 -13.28709,-7.31815 1.88128,3.57594 1.45857,1.04756 13.72799,4.26302 16.37165,5.08397 8.18582,2.54198 16.37164,5.08396 24.55746,7.62594 1.42685,0.44309 10.08557,3.52524 10.91443,3.38931 1.32912,-0.21798 2.24683,-1.66331 3.57595,-1.88128 1.98867,-0.32615 11.65436,4.56278 13.64303,4.23663 1.32912,-0.21797 2.24683,-1.6633 3.57594,-1.88128 0.93983,-0.15413 1.78878,1.00146 2.72861,0.84733 1.32911,-0.21798 2.24682,-1.6633 3.57593,-1.88128 0.93983,-0.15413 1.78879,1.00147 2.72861,0.84733 1.32912,-0.21798 2.28412,-1.50014 3.57594,-1.88128 2.04253,-0.60265 4.20303,-0.68931 6.30454,-1.03396 2.10151,-0.34465 4.17541,-0.98997 6.30455,-1.03395 1.90435,-0.0393 3.57755,2.00293 5.45721,1.69466 1.32911,-0.21798 2.24682,-1.6633 3.57594,-1.88128 1.87965,-0.30827 3.57756,2.00291 5.45721,1.69465 1.32912,-0.21797 2.24683,-1.66331 3.57593,-1.88129 0.82887,-0.13593 9.4876,2.94623 10.91444,3.38932 2.74785,0.8533 15.01887,4.11239 16.37165,5.08396 1.09396,0.7857 0.90943,2.64343 1.88128,3.57594 1.50931,1.44821 11.47223,2.67753 13.64304,4.23664 1.7297,1.24228 2.88019,3.18096 4.60989,4.42326 1.96892,1.4141 9.44152,1.97602 10.91443,3.38931 0.97184,0.9325 0.90943,2.64342 1.88128,3.57593 0.6872,0.65938 2.04141,0.18794 2.7286,0.84733 0.97186,0.9325 0.90944,2.64343 1.88129,3.57594 0.6872,0.65937 2.0414,0.18794 2.72861,0.84733 0.97185,0.9325 0.90942,2.64342 1.88127,3.57593 0.68721,0.65938 1.95507,0.29176 2.72861,0.84733 1.72971,1.24228 3.07327,2.94884 4.60989,4.42326 1.53663,1.47442 3.26801,2.76963 4.6099,4.42326 1.69735,2.09169 1.81886,5.28686 3.76255,7.15187 0.68721,0.65939 2.04141,0.18795 2.72861,0.84733 0.97185,0.93251 0.90943,2.64342 1.88128,3.57593 0.6872,0.65938 2.0414,0.18794 2.72861,0.84733 0.61199,0.58721 5.50658,9.89085 5.64384,10.72781 0.15414,0.93983 -1.00146,1.78878 -0.84732,2.7286 0.21797,1.32912 1.6633,2.24683 1.88127,3.57594 0.32494,1.98127 -3.71424,8.93316 -3.38931,10.91443 0.21798,1.32912 1.66331,2.24682 1.88128,3.57594 0.15734,0.95935 -2.16038,6.95697 -2.54198,8.18582 -1.9771,6.36676 -3.95419,12.7335 -5.93129,19.10026 -0.60059,1.93404 -4.51215,15.7757 -5.08397,16.37165 -0.93249,0.97184 -2.64342,0.90942 -3.57593,1.88128 -1.31876,1.3744 -0.37589,4.08281 -1.69465,5.45722 -0.93251,0.97184 -2.64343,0.90942 -3.57594,1.88128 -0.65938,0.68719 -0.18794,2.04141 -0.84732,2.7286 -5.46584,5.69645 -2.43613,-1.78918 -4.42326,4.60989 -0.28245,0.90954 -0.18796,2.0414 -0.84733,2.72861 -2.65396,2.76593 -8.07386,2.87791 -10.72781,5.64384 -1.31876,1.3744 -0.37589,4.08281 -1.69465,5.45721 -0.93251,0.97186 -2.5301,1.0326 -3.57595,1.88129 -1.65362,1.34188 -2.76963,3.268 -4.42325,4.60988 -1.04585,0.84869 -2.64343,0.90944 -3.57594,1.88129 -1.39006,1.4487 -1.99925,9.46572 -3.38931,10.91443 -0.9325,0.97184 -2.64343,0.90943 -3.57593,1.88128 -1.31877,1.3744 -0.3759,4.08281 -1.69466,5.45722 -0.9325,0.97184 -2.64343,0.90942 -3.57594,1.88128 -0.65937,0.6872 0.0622,3.01104 -0.84732,2.7286 -0.90954,-0.28244 1.12977,-3.63814 0.84732,-2.7286 -0.56488,1.81907 -0.58351,3.91012 -1.69465,5.45721 -0.78569,1.09396 -2.64343,0.90943 -3.57593,1.88129 -0.65939,0.68719 -0.56489,1.81907 -0.84733,2.7286 -0.82095,2.64366 -4.0364,14.91308 -5.08397,16.37165 -1.24229,1.7297 -3.18097,2.88019 -4.42325,4.60989 -0.55557,0.77354 0.0622,3.01105 -0.84733,2.72861 -1.12008,-0.34782 7.31815,-13.28709 -3.57595,1.88128 -0.69739,0.97102 -3.04036,11.02279 -3.3893,10.91443 -0.90954,-0.28245 1.12976,-3.63814 0.84732,-2.72861 -1.41221,4.54768 -2.82442,9.09536 -4.23663,13.64304 -0.28245,0.90953 -0.56489,1.81907 -0.84733,2.7286 -0.28244,0.90954 -1.00145,1.78879 -0.84733,2.72862 0.21798,1.32911 1.66331,2.24681 1.88129,3.57593 0.30826,1.87965 -2.00292,3.57756 -1.69466,5.45722 0.21798,1.32911 1.6633,2.24682 1.88128,3.57593 0.30827,1.87966 -2.00292,3.57756 -1.69465,5.45721 6.23942,11.85989 -0.48741,-2.97199 1.03395,6.30455 0.21797,1.32912 1.66331,2.24683 1.88129,3.57594 0.13593,0.82886 -2.94623,9.48759 -3.38931,10.91443 -2.54199,8.18582 -5.08397,16.37165 -7.62595,24.55747 -3.67175,11.82397 -7.3435,23.64793 -11.01526,35.47191 -1.69465,5.45721 -3.38931,10.91443 -5.08396,16.37164 -0.28244,0.90954 -0.56489,1.81908 -0.84733,2.72862 -0.28244,0.90953 -0.18795,2.04139 -0.84732,2.7286 -0.93251,0.97185 -2.64344,0.90943 -3.57595,1.88128 -0.58152,0.60606 -2.94622,9.48759 -3.38931,10.91443 -3.10686,10.00489 -6.21373,20.00979 -9.3206,30.01469 -0.44308,1.42684 -2.80778,10.30837 -3.38931,10.91443 -0.9325,0.97185 -2.64342,0.90943 -3.57593,1.88128 -0.65938,0.68721 -0.56488,1.81907 -0.84733,2.72861 -1.41221,4.54768 -2.82442,9.09536 -4.23663,13.64304 -0.28245,0.90954 -0.56489,1.81907 -0.84733,2.72861 -0.28244,0.90953 -0.18795,2.04141 -0.84733,2.7286 -0.93251,0.97186 -2.64342,0.90944 -3.57593,1.88129 -0.67308,0.70147 -2.16038,6.95698 -2.54198,8.18582 -1.9771,6.36675 -3.9542,12.73351 -5.93129,19.10025 -1.41222,4.54769 -2.82443,9.09537 -4.23664,13.64305 -0.28244,0.90954 -0.56489,1.81907 -0.84733,2.72861 -0.28244,0.90953 -0.18795,2.0414 -0.84732,2.7286 -0.93251,0.97185 -2.64344,0.90943 -3.57595,1.88129 -1.44821,1.50931 -2.67753,11.47223 -4.23663,13.64303 -1.24229,1.72971 -3.18097,2.88019 -4.42327,4.6099 -1.11113,1.54708 -0.37588,4.08281 -1.69465,5.45721 -0.93251,0.97185 -2.64343,0.90943 -3.57593,1.88128 -0.65939,0.6872 -0.56489,1.81907 -0.84733,2.72861 -1.19198,0.62709 -2.64343,0.90942 -3.57593,1.88128 -1.39006,1.44871 -1.99926,9.46572 -3.38931,10.91443 -1.86502,1.9437 -5.28686,1.81886 -7.15188,3.76256 -0.65938,0.6872 -0.18794,2.04141 -0.84732,2.72861 -0.93251,0.97185 -2.64343,0.90943 -3.57594,1.88128 -1.31876,1.3744 -0.37589,4.08281 -1.69465,5.45722 -11.85989,6.23942 2.08514,-2.17312 -4.42327,4.60989 -1.18119,1.23103 -8.8452,4.65341 -10.7278,5.64383 -2.10317,1.10647 -12.84399,7.28573 -14.30375,7.52513 -0.93982,0.15413 -1.78877,-1.00146 -2.7286,-0.84732 -2.65823,0.43594 -4.49364,3.3266 -7.15187,3.76255 -0.93983,0.15414 -1.78878,-1.00146 -2.72861,-0.84733 -1.32911,0.21798 -2.24682,1.66332 -3.57594,1.88128 -0.95934,0.15734 -6.95697,-2.16038 -8.18582,-2.54198 -1.81907,-0.56488 -7.27629,-2.25954 -5.45721,-1.69465 1.81907,0.56488 6.34405,3.38036 5.45721,1.69465 -10.14048,-19.275 -3.82084,-0.12452 -10.0671,-6.11791 -0.97186,-0.93251 -1.25419,-2.38396 -1.88128,-3.57594 -0.6271,-1.19197 -3.07327,-2.94884 -1.88129,-3.57593 1.19199,-0.6271 2.50838,4.76791 1.88129,3.57593 -1.88129,-3.57593 -3.76257,-7.15187 -5.64385,-10.7278 -1.47825,-2.80986 -9.07711,-15.87177 -9.40641,-17.87968 -0.15733,-0.95934 2.16039,-6.95698 2.54199,-8.18582 2.82442,-9.09536 5.64885,-18.19072 8.47327,-27.28608 0.44309,-1.42685 3.52524,-10.08557 3.38931,-10.91444 -0.21797,-1.32911 -1.6633,-2.24682 -1.88128,-3.57594 -0.31392,-1.91413 5.39789,-14.45751 5.08397,-16.37164 -0.21798,-1.32912 -1.6633,-2.24682 -1.88128,-3.57594 -0.30827,-1.87965 2.00291,-3.57756 1.69465,-5.45721 -0.21797,-1.32912 -1.85346,-2.22935 -1.88128,-3.57593 -0.0393,-1.90436 1.58783,-3.55546 1.69466,-5.45722 0.11943,-2.12624 -0.98997,-4.17541 -1.03396,-6.30455 -0.0197,-0.95217 0.56489,-1.81907 0.84733,-2.72861 -0.34465,-2.10151 -0.98996,-4.1754 -1.03395,-6.30453 -0.0394,-1.90436 1.734,-3.55286 1.69465,-5.45722 -0.044,-2.12914 -0.98997,-4.17541 -1.03395,-6.30455 -0.0197,-0.95217 1.00145,-1.78878 0.84733,-2.72861 -0.43596,-2.65822 -3.32661,-4.49364 -3.76257,-7.15186 -0.30502,-1.85991 2.58478,-6.11473 2.54198,-8.18583 -0.044,-2.12913 -0.98996,-4.17541 -1.03395,-6.30454 -0.0197,-0.95218 1.00147,-1.78879 0.84733,-2.72861 -0.21798,-1.32912 -1.66331,-2.24683 -1.88128,-3.57593 -0.41358,-2.52182 2.95556,-5.66402 2.54198,-8.18583 -0.21797,-1.32911 -1.6633,-2.24682 -1.88128,-3.57594 -0.41358,-2.52181 2.95556,-5.664 2.54198,-8.18582 -0.21798,-1.32911 -1.6633,-2.24682 -1.88128,-3.57594 -0.15413,-0.93982 0.867,-1.77642 0.84733,-2.7286 -0.044,-2.12914 -0.98997,-4.17541 -1.03395,-6.30455 -0.0392,-1.89515 3.47288,-11.18356 4.23664,-13.64304 0.28244,-0.90953 0.867,-1.77643 0.84732,-2.7286 -0.044,-2.12914 -0.98996,-4.17541 -1.03396,-6.30455 -0.0393,-1.90435 2.00293,-3.57756 1.69466,-5.45721 -0.43595,-2.65823 -3.3266,-4.49365 -3.76256,-7.15187 -0.33518,-2.04377 5.14257,-13.5349 5.08397,-16.37166 -0.044,-2.12913 -0.98997,-4.1754 -1.03396,-6.30453 -0.0393,-1.90436 2.00292,-3.57757 1.69466,-5.45722 -0.21798,-1.32912 -1.66331,-2.24682 -1.88129,-3.57594 -0.30826,-1.87965 2.00293,-3.57756 1.69466,-5.45722 -0.21798,-1.32911 -1.50013,-2.28412 -1.88128,-3.57593 -5.26564,-1.29447 0.15803,-6.93164 -0.18662,-9.03315 -0.21798,-1.32912 -1.66331,-2.24682 -1.88129,-3.57594 -0.15413,-0.93982 1.00146,-1.78878 0.84733,-2.7286 -0.21797,-1.32912 -1.6633,-2.24682 -1.88128,-3.57594 -0.30826,-1.87965 2.00292,-3.57756 1.69465,-5.45721 -0.53932,-3.28858 -5.25931,-6.36444 -3.76255,-7.15188 1.19198,-0.62709 1.48184,4.86221 1.88128,3.57594 0.63155,-2.03378 -0.43131,-4.26201 -1.03396,-6.30454 -0.38114,-1.29182 -1.25419,-2.38396 -1.88128,-3.57594 -0.62709,-1.19198 -0.90943,-2.64343 -1.88128,-3.57594 -0.68721,-0.65938 -3.01105,0.0622 -2.72861,-0.84732 0.28245,-0.90954 3.63815,1.12976 2.72861,0.84732 -3.63814,-1.12977 -7.27629,-2.25954 -10.91443,-3.38931 -1.22885,-0.3816 -7.22648,-2.69931 -8.18583,-2.54198 -1.68357,0.27611 -8.8452,4.65342 -10.7278,5.64384 -1.19198,0.6271 -2.38396,1.25419 -3.57594,1.88128 -1.19197,0.6271 -2.64343,0.90944 -3.57593,1.88129 -1.4339,1.4944 -3.4288,14.06708 -5.08396,16.37164 -1.2423,1.72971 -3.18098,2.88019 -4.42327,4.60989 -1.5591,2.17081 -2.78843,12.13373 -4.23664,13.64304 -0.93251,0.97185 -2.64343,0.90944 -3.57593,1.88129 -1.31877,1.3744 -0.37589,4.08281 -1.69466,5.45721 -0.9325,0.97185 -2.64342,0.90943 -3.57593,1.88129 -1.31877,1.3744 -0.3759,4.0828 -1.69465,5.45721 -0.93251,0.97185 -2.64344,0.90943 -3.57595,1.88127 -1.31875,1.37441 -0.58351,3.91013 -1.69465,5.45722 -1.24229,1.7297 -3.18097,2.88019 -4.42326,4.6099 -1.11114,1.54708 -0.37589,4.08281 -1.69466,5.45721 -0.9325,0.97185 -2.64342,0.90943 -3.57593,1.88128 -1.31876,1.3744 -0.3759,4.08281 -1.69465,5.45722 -0.93251,0.97185 -2.64344,0.90943 -3.57594,1.88127 -1.7693,1.84396 -0.77268,6.34188 -2.54198,8.18583 -0.93251,0.97185 -2.64343,0.90943 -3.57594,1.88128 -1.7693,1.84396 -0.77268,6.34187 -2.54198,8.18582 -0.93251,0.97185 -2.64343,0.90944 -3.57594,1.88129 -1.39005,1.4487 -1.99924,9.46572 -3.38931,10.91443 -0.9325,0.97184 -2.64342,0.90943 -3.57593,1.88128 -0.65938,0.6872 -0.56488,1.81907 -0.84732,2.7286 -1.19198,0.6271 -2.64344,0.90944 -3.57595,1.88129 -1.31875,1.3744 -0.58351,3.91012 -1.69465,5.45721 -1.24229,1.72971 -3.18097,2.88019 -4.42326,4.60989 -1.11114,1.54709 -0.37589,4.08281 -1.69466,5.45721 -0.9325,0.97186 -2.64342,0.90944 -3.57593,1.88129 -1.31877,1.3744 -0.58352,3.91013 -1.69465,5.45721 -1.2423,1.72971 -3.18098,2.88019 -4.42326,4.6099 -0.55557,0.77353 -0.56489,1.81907 -0.84733,2.7286 -1.47443,1.53663 -3.18098,2.88019 -4.42327,4.60989 -1.11114,1.54709 -0.37589,4.08281 -1.69465,5.45721 -0.93251,0.97186 -2.64343,0.90944 -3.57594,1.88128 -1.31876,1.3744 -0.37589,4.08282 -1.69465,5.45722 -0.93251,0.97185 -2.64343,0.90944 -3.57593,1.88128 -1.39007,1.44871 -1.99926,9.46573 -3.38931,10.91443 -1.86502,1.94371 -5.28687,1.81887 -7.15188,3.76257 -1.31876,1.3744 -0.37589,4.0828 -1.69466,5.45722 -0.9325,0.97184 -2.64342,0.90942 -3.57593,1.88127 -0.65938,0.6872 -0.18794,2.04141 -0.84732,2.72861 -0.93251,0.97185 -2.64344,0.90943 -3.57594,1.88128 -0.65938,0.6872 -0.18795,2.0414 -0.84733,2.72861 -0.9325,0.97185 -2.64343,0.90943 -3.57594,1.88128 -1.31875,1.3744 -0.37588,4.08281 -1.69465,5.45722 -0.93251,0.97184 -2.64343,0.90943 -3.57593,1.88128 -1.31877,1.3744 -0.37589,4.08281 -1.69466,5.45721 -0.9325,0.97185 -2.64342,0.90943 -3.57593,1.88129 -1.76931,1.84395 -0.77268,6.34186 -2.54198,8.18582 -0.93251,0.97184 -2.64344,0.90943 -3.57595,1.88128 -1.31875,1.3744 -0.58351,3.91012 -1.69465,5.45721 -6.36913,8.86807 -1.89766,1.53991 -7.99919,6.49117 -7.96832,1.1019 -2.50119,4.45225 -5.27059,7.3385 -0.93251,0.97185 -2.64344,0.90943 -3.57594,1.88128 -0.65938,0.6872 -0.18795,2.04141 -0.84733,2.72861 -0.93251,0.97184 -2.64342,0.90943 -3.57593,1.88128 -0.65939,0.6872 -0.18795,2.04141 -0.84733,2.7286 -1.54412,1.60928 -5.60775,2.1533 -7.15187,3.76257 -0.65938,0.6872 -0.18795,2.04141 -0.84733,2.7286 -0.58721,0.61199 -9.89084,5.50659 -10.7278,5.64385 -1.87966,0.30827 -3.57757,-2.00293 -5.45722,-1.69466 -1.32912,0.21798 -2.24682,1.6633 -3.57593,1.88128 -1.87965,0.30827 -3.57757,-2.00291 -5.45722,-1.69465 -1.32912,0.21797 -2.24682,1.66331 -3.57594,1.88128 -0.81502,0.13366 -14.4376,-4.48337 -16.37165,-5.08396 -1.81907,-0.56488 -3.63814,-1.12977 -5.45721,-1.69465 -0.90954,-0.28245 -3.01105,0.0622 -2.72861,-0.84733 0.28244,-0.90955 3.63815,1.12977 2.72861,0.84733 -1.81908,-0.56489 -3.63815,-1.12977 -5.45722,-1.69466 -0.90953,-0.28244 -2.0414,-0.18795 -2.7286,-0.84733 -1.23104,-1.1812 -4.65342,-8.84521 -5.64385,-10.7278 -2.89192,-5.49697 -6.54436,-10.57431 -6.67779,-17.03236 -0.0391,-1.88989 2.70718,-8.7178 3.38931,-10.91443 2.82443,-9.09536 5.64885,-18.19072 8.47327,-27.28608 0.44309,-1.42685 2.80779,-10.30837 3.38931,-10.91443 0.93251,-0.97185 2.64343,-0.90943 3.57594,-1.88128 1.76931,-1.84396 0.77267,-6.34187 2.54198,-8.18582 0.93251,-0.97186 2.64343,-0.90944 3.57593,-1.88128 0.65938,-0.68721 0.29176,-1.95507 0.84733,-2.72862 1.24229,-1.72969 3.18097,-2.88019 4.42327,-4.60988 0.55557,-0.77355 0.18794,-2.04141 0.84732,-2.7286 0.9325,-0.97186 2.64343,-0.90944 3.57594,-1.88129 1.31876,-1.37441 0.58351,-3.91013 1.69465,-5.45721 1.24229,-1.72971 3.18098,-2.88019 4.42326,-4.6099 0.55557,-0.77354 0.18795,-2.04141 0.84733,-2.7286 0.93251,-0.97185 2.64344,-0.90944 3.57593,-1.88128 0.65939,-0.68721 0.18796,-2.04141 0.84733,-2.72862 0.93251,-0.97184 2.64343,-0.90942 3.57594,-1.88127 1.31876,-1.37441 0.37589,-4.08282 1.69466,-5.45722 0.9325,-0.97184 2.64342,-0.90943 3.57593,-1.88128 1.31877,-1.3744 0.37589,-4.08281 1.69465,-5.45721 0.93251,-0.97185 2.64343,-0.90944 3.57594,-1.88129 0.65938,-0.6872 0.56488,-1.81907 0.84732,-2.72861 0.56489,-1.81907 0.58352,-3.91012 1.69466,-5.45722 0.78569,-1.09395 2.64343,-0.90942 3.57594,-1.88127 1.7693,-1.84395 0.77267,-6.34187 2.54198,-8.18583 0.9325,-0.97184 2.64343,-0.90942 3.57594,-1.88128 1.31875,-1.3744 0.58351,-3.91012 1.69465,-5.45722 12.72569,-17.71859 -2.12258,4.05767 7.99919,-6.49116 1.76931,-1.84396 0.77269,-6.34187 2.54198,-8.18582 0.93251,-0.97186 2.64344,-0.90944 3.57595,-1.88129 1.31876,-1.3744 0.37589,-4.08281 1.69465,-5.45721 0.93251,-0.97185 2.64343,-0.90944 3.57593,-1.88128 1.76931,-1.84396 0.77268,-6.34187 2.54199,-8.18582 0.9325,-0.97186 2.64342,-0.90944 3.57593,-1.88129 1.39006,-1.4487 1.99925,-9.46572 3.38931,-10.91443 0.9325,-0.97185 2.64343,-0.90943 3.57594,-1.88128 1.40731,-1.46668 2.71773,-11.5282 4.23664,-13.64303 1.24228,-1.72971 3.18096,-2.8802 4.42326,-4.6099 1.11114,-1.54709 0.58351,-3.91012 1.69465,-5.45722 1.24229,-1.72969 3.18098,-2.88019 4.42326,-4.60988 1.11114,-1.5471 1.12977,-3.63815 1.69466,-5.45722 1.69465,-5.45721 3.38931,-10.91443 5.08396,-16.37164 0.28245,-0.90955 0.56489,-1.81908 0.84733,-2.72862 0.28244,-0.90953 0.18794,-2.0414 0.84733,-2.7286 0.9325,-0.97186 2.64343,-0.90944 3.57593,-1.88128 1.41328,-1.47291 1.97521,-8.94552 3.38931,-10.91443 1.24229,-1.72971 3.18097,-2.8802 4.42327,-4.60989 0.99122,-1.38013 1.98519,-6.39284 2.54198,-8.18583 2.25954,-7.27629 4.51908,-14.55257 6.77862,-21.82886 3.67175,-11.82397 7.3435,-23.64794 11.01525,-35.47191 1.69466,-5.45721 3.38931,-10.91443 5.08397,-16.37165 0.28244,-0.90953 0.56488,-1.81907 0.84733,-2.7286 0.28244,-0.90954 1.00145,-1.78879 0.84732,-2.72861 -0.21797,-1.32912 -1.66331,-2.24683 -1.88129,-3.57593 -0.15412,-0.93983 0.56489,-1.81908 0.84733,-2.72862 0.28245,-0.90953 0.56489,-1.81907 0.84733,-2.7286 0.28244,-0.90954 -0.0622,-3.01105 0.84733,-2.72861 0.90954,0.28245 -1.12977,3.63814 -0.84733,2.72861 0.56488,-1.81907 1.12977,-3.63814 1.69466,-5.45722 0.28244,-0.90954 0.56488,-1.81907 0.84732,-2.72861 0.28244,-0.90953 1.00147,-1.78878 0.84733,-2.7286 -0.21797,-1.32912 -1.6633,-2.24683 -1.88128,-3.57594 -0.15413,-0.93983 0.56489,-1.81908 0.84733,-2.72861 0.28244,-0.90954 0.56488,-1.81907 0.84733,-2.72861 0.28244,-0.90953 -0.0622,-3.01104 0.84732,-2.7286 0.90954,0.28244 -1.12977,3.63814 -0.84732,2.7286 3.85727,-12.4214 1.33473,0.24339 -0.18663,-9.03315 -0.15413,-0.93982 1.53453,-2.06922 0.84733,-2.7286 -2.83341,-2.71871 -6.71141,-4.07861 -6.67779,-17.03236 z"
       id="path2816" />
  </g>
</svg>
