<?xml version="1.0" encoding="UTF-8" standalone="no"?>
<!-- Created with Inkscape (http://www.inkscape.org/) -->

<svg
   xmlns:svg="http://www.w3.org/2000/svg"
   xmlns="http://www.w3.org/2000/svg"
   version="1.1"
   width="68"
   height="150"
   id="svg2">
  <defs
     id="defs6" />
  <g
     transform="matrix(1,0,0,1.0127043,1.2711864,-0.63446254)"
     id="g2819">
    <path
       d="m 6,148.65499 c 0,-1.98104 2.9113329,-4.25633 8,-6.25225 2.475,-0.97077 4.725,-2.04656 5,-2.39066 0.275,-0.3441 2.075,-1.238 4,-1.98645 6.517243,-2.53395 6.577861,-3.17702 0.531363,-5.637 C 10.852904,127.23047 1.8680758,120.30687 0.43307302,114.58936 -0.53844406,110.71853 3.6390073,104.16955 7.4350301,103.61241 c 0.8439494,-0.12386 2.6491499,-1.19442 4.0115559,-2.37902 1.362406,-1.1846 4.294272,-3.080862 6.515258,-4.213924 4.022882,-2.052321 5.538876,-3.532577 2.374111,-2.318142 -0.916026,0.351512 -1.407068,0.222756 -1.092374,-0.28643 0.31442,-0.508741 -2.083821,-2.21492 -5.329423,-3.791508 C 6.726038,87.131674 1,81.155462 1,77.145002 1,71.920207 4.829916,68.017559 15.5,62.369639 30.58872,54.382834 30.178198,55.204189 21.214619,50.936086 6.8565329,44.099333 1.1706434,38.234388 2.4239519,31.553679 3.0671451,28.125165 6.925078,23.831576 11,22.009183 c 1.375,-0.614929 4.053081,-1.935161 5.95129,-2.933847 l 3.451291,-1.815793 -3.31565,-1.714589 C 12.695017,13.273807 5.2094312,6.3056755 3.3975425,2.8018691 L 1.9486397,0 27.096765,0 C 50.896964,0 52.172251,0.09379902 50.889678,1.75 49.599,3.4166667 49.632633,3.4166667 51.595974,1.75 53.736555,-0.06712473 61,-0.70659288 61,0.92207676 61,2.5434637 52.720453,9.0479043 45.689695,12.949905 l -6.810304,3.779651 8.540669,4.230844 c 15.854209,7.853797 19.663858,16.508694 10.903442,24.770829 -1.946901,1.836164 -5.38533,4.279989 -7.640954,5.430723 l -4.101134,2.092243 5.17926,2.62453 C 71.214824,65.736888 68.517879,78.126493 44.25,90.382323 41.3625,91.840576 39,93.244633 39,93.502451 c 0,0.257817 2.8125,1.886823 6.25,3.620014 8.801682,4.437815 17.226222,10.333215 19.669523,13.764515 C 66.197041,112.68109 67,115.35984 67,117.82765 c 0,5.29277 -3.442481,9.35733 -11.273091,13.31021 l -6.006139,3.03189 4.889615,2.79612 C 61.03741,140.64117 65,144.71089 65,147.63636 L 65,150 35.5,150 C 11.455255,150 6,149.75128 6,148.65499 z M 52,144 c -0.825,-0.53316 -7.125,-0.96937 -14,-0.96937 -6.875,0 -13.175,0.43621 -14,0.96937 -1.003722,0.64866 3.628202,0.96937 14,0.96937 10.371798,0 15.003722,-0.32071 14,-0.96937 z m 0.5,-17.90486 c 2.2,-1.21694 3.1,-1.863 2,-1.4357 -1.1,0.4273 -7.4,1.01623 -14,1.30874 -12.342971,0.54702 -12.428871,0.66764 -2.5,3.51058 4.885137,1.39877 6.561509,1.00758 14.5,-3.38362 z M 58.8,119.8 c 0.66,-0.66 1.2,-1.56 1.2,-2 0,-0.44 -10.9125,-0.78999 -24.25,-0.77776 L 11.5,117.04447 14,119 c 2.293901,1.79432 4.19413,1.95736 23.05,1.97776 C 51.726121,120.99364 57.943,120.657 58.8,119.8 z M 51.645724,109.37169 C 48.968745,107.06905 48.372536,107 31.166743,107 c -14.477785,0 -18.13162,0.2871 -19.960967,1.56842 -1.2315795,0.86263 -1.9711423,2.00221 -1.6434726,2.53239 0.3582297,0.57963 9.4160846,0.89989 22.7182176,0.80327 l 22.122455,-0.1607 -2.757252,-2.37169 z M 34.22583,99.996262 C 30.239878,97.566026 29.445215,97.566348 25,100 l -3.5,1.91617 8,0.0382 8,0.0382 -3.27417,-1.996258 z M 35.5,88 c 0.339919,-0.55 0.168034,-1 -0.381966,-1 -0.55,0 -1.278115,0.45 -1.618034,1 -0.339919,0.55 -0.168034,1 0.381966,1 0.55,0 1.278115,-0.45 1.618034,-1 z m 6.285188,-3.5 c 2.023495,-1.375 4.223063,-2.5 4.88793,-2.5 0.664866,0 1.418179,-0.3375 1.674028,-0.75 0.255848,-0.4125 -7.701531,-0.617043 -17.683065,-0.454539 l -18.148245,0.29546 3.287445,2.081462 c 2.727371,1.72685 4.71378,2.053363 11.659572,1.916529 4.889429,-0.09632 8.638995,0.266865 9.013655,0.873077 0.888186,1.437116 1.147263,1.365768 5.30868,-1.461989 z M 55,75.581787 c 0,-0.230016 0.273145,-1.130016 0.606989,-2 C 56.149435,72.168195 53.813864,72 33.642173,72 12.093823,72 11.021835,72.090684 10,74 8.9440314,75.973095 9.23951,76 31.964816,76 44.634167,76 55,75.811804 55,75.581787 z M 52.139216,64.917786 c -2.033269,-1.651729 -3.975508,-1.911971 -14,-1.87587 C 28.563787,63.076399 25.879404,63.426426 23,65.015978 l -3.5,1.932148 17.5,-0.05628 c 17.407818,-0.05598 17.487565,-0.06638 15.139216,-1.974062 z M 44.5,47.473914 l 4,-2.463667 -10.5,0.07375 -10.5,0.07375 5,2.40826 c 6.185022,2.97903 7.024197,2.972589 12,-0.09209 z M 55,38.5 c 0,-1.287272 -3.013643,-1.49549 -21.25,-1.468197 -18.903272,0.02829 -21.035633,0.193943 -19.30887,1.5 C 17.351615,40.733184 55,40.703663 55,38.5 z M 48.5,30 C 45.820631,28.225524 43.784624,28.012474 29.45,28.006589 14.012297,28.000251 11,28.521634 11,31.2 c 0,0.44 9.1125,0.797035 20.25,0.793411 L 51.5,31.986822 48.5,30 z M 29.787676,21.850278 c -1.826451,-0.667886 -3.296198,-0.652033 -4.5,0.04854 -1.422813,0.828028 -0.869231,1.030459 2.712324,0.991827 4.153568,-0.0448 4.291192,-0.124894 1.787676,-1.040366 z M 42.5,7.5260862 46.5,5.0624191 31.035714,5.0312095 C 16.309521,5.0014896 15.654738,5.0835254 17.3169,6.75 18.622157,8.0586426 21.387396,8.6449034 28.281186,9.0745478 33.351534,9.3905491 37.725,9.7257436 38,9.8194244 c 0.275,0.093681 2.3,-0.9383213 4.5,-2.2933382 z"
       id="path2835"
       style="fill:#cfcfcf" />
    <path
       d="m 6,149.43426 c 0,-1.94016 2.407603,-4.43528 4.285184,-4.44096 1.218149,-0.004 6.637157,-2.20831 12.04224,-4.89918 l 9.827423,-4.89249 -5.827423,-2.17906 C 17.661989,129.78228 7.6354972,124.27275 4.5575955,121.06012 1.6114707,117.98503 -0.064938,110.7762 1.8857201,109.57063 2.5463453,109.16234 3,109.61119 3,110.67312 c 0,1.21771 0.8010107,0.61236 2.5019716,-1.89083 1.486771,-2.18798 5.8053534,-5.7149 10.6431874,-8.69213 l 8.141216,-5.010149 -7.393188,-3.379547 C 7.5724204,87.439788 3.343048,83.877031 1.9039562,79.073771 0.73027209,75.156363 1.857806,71 4.0942008,71 4.657309,71 4.8002959,71.5625 4.4119494,72.25 4.0236029,72.9375 4.6588947,72.520431 5.8237091,71.323181 9.6559525,67.384223 15.042765,63.701746 23.140039,59.485571 L 31.120567,55.330185 21.310283,50.58985 C 15.914628,47.982666 9.9897526,44.699055 8.1438947,43.292936 4.2611624,40.335188 1.6172877,34.821045 2.5741904,31.676596 3.401335,28.958542 6.0226517,25.895966 7.0032287,26.501995 7.407993,26.752154 9.0353519,25.812962 10.619582,24.414903 12.203812,23.016845 15.1875,21.177697 17.25,20.327909 19.3125,19.478122 20.99107,18.494201 20.980156,18.14142 20.969242,17.788639 18.667589,16.15 15.865373,14.5 7.244402,9.4238035 -1.84892,-2.5588343 6,1.5 8.2882237,2.6832865 9.000117,2.748694 9.0004931,1.7756801 9.0008772,0.78195364 13.642424,0.5 30.000856,0.5 c 11.549929,0 20.999707,0.22925395 20.999507,0.5094532 -2e-4,0.2801993 -1.012863,1.1801993 -2.250363,2 C 47.086083,4.1117402 42.332297,4.6302407 30.5,5 14.589936,5.4971895 14.517989,5.5098368 17.70034,7.25 c 2.277667,1.2454669 5.593171,1.7712299 11.5,1.8236369 L 37.5,9.1472737 33.25,10.780291 C 28.851942,12.470199 27.677231,14 30.777636,14 33.215876,14 47.390819,6.650539 52.012526,2.9900793 56.438454,-0.51532078 61.729282,-1.2311936 60.052309,1.9022606 58.671579,4.4821778 50.589296,10.304447 43.46649,13.850258 l -5.849783,2.912087 7.869961,3.636146 c 9.368788,4.328646 13.980259,7.66998 16.014383,11.603542 3.684722,7.125466 1.266327,10.945593 -12.952521,20.459969 -1.809323,1.210687 -1.517957,1.525902 4,4.32741 6.37752,3.237914 10.806194,7.31888 11.911496,10.976288 1.916699,6.342293 -4.87516,14.105866 -18.576239,21.23395 l -8.046795,4.186403 9.331504,5.160153 c 11.430203,6.320694 16.503444,10.118714 18.39045,13.767784 4.098074,7.9248 -0.582657,14.85253 -14.008251,20.73295 l -2.949305,1.2918 5.449305,2.93925 C 60.312843,140.45566 65,145.13789 65,148.01578 65,149.9499 64.255149,150 35.5,150 19.275,150 6,149.74542 6,149.43426 z m 32.809017,-4.42061 C 48.090393,145.0048 52.90088,144.64864 52.5,144 52.134871,143.40921 46.279501,143.0145 38.190983,143.03544 27.719113,143.06254 23.912184,143.42996 22,144.59811 l -2.5,1.52723 2.5,-0.54901 c 1.375,-0.30196 8.939058,-0.55517 16.809017,-0.56268 z m 19.274316,-3.68032 C 58.0375,140.875 57.6625,140.4993 57.25,140.49845 c -0.4125,-8.6e-4 -2.179812,-1.02072 -3.92736,-2.26637 -1.747549,-1.24565 -4.999669,-3.08069 -7.226934,-4.07787 l -4.049574,-1.81305 7.504605,-3.29803 c 8.400475,-3.69173 11.434147,-6.67137 10.700386,-10.5098 L 59.766846,116 35.383423,116 C 21.97254,116 11,116.35298 11,116.78439 c 0,0.43142 1.306931,1.55642 2.904292,2.5 2.488496,1.46999 5.888687,1.72008 23.75,1.74682 l 20.845708,0.0312 -4,2.46367 c -3.706053,2.28262 -4.946137,2.46404 -16.874954,2.46879 -11.776497,0.005 -13.397528,-0.22337 -19,-2.67304 -3.368775,-1.47298 -7.025046,-3.38548 -8.125046,-4.25 -1.9614964,-1.54158 -1.9652416,-1.53064 -0.194536,0.56819 2.02878,2.40472 10.723882,6.84612 21.194536,10.82601 13.516061,5.13746 19.63243,7.82301 22.801668,10.01167 3.221212,2.22455 3.934701,2.38598 3.781665,0.85562 z M 42.64759,139.68574 c 1.228506,-1.2285 -5.022764,-1.53839 -7.840432,-0.38866 -3.230435,1.31815 -3.223056,1.32199 2.076462,1.07853 2.925131,-0.13437 5.518917,-0.44481 5.76397,-0.68987 z M 55,111.58156 c 0,-0.23014 -1.515615,-1.35514 -3.368034,-2.5 C 48.547292,107.17513 46.753114,107 30.30628,107 12.444419,107 12.3361,107.01334 10,109.5 L 7.6513719,112 31.325686,112 C 44.346559,112 55,111.8117 55,111.58156 z M 57.361626,106.5 C 56.734477,104.86567 55,104.43725 55,105.91667 c 0,0.759 0.700837,1.27571 2.718615,2.00438 0.120239,0.0434 -0.04041,-0.59605 -0.356989,-1.42105 z m -3.444959,-2.87123 C 51.040704,101.06639 23,87.79592 23,88.997222 c 0,0.477401 1.0125,1.173116 2.25,1.546032 3.555671,1.071489 26.754039,12.654266 27.383167,13.672216 0.311907,0.50468 0.822043,0.66265 1.133635,0.35106 0.311592,-0.31159 0.379031,-0.73359 0.149865,-0.93776 z M 41,103.51685 c 0,-0.88147 -9.901875,-5.517404 -11.716756,-5.48564 -0.980784,0.01716 -3.564477,1.125388 -5.741539,2.46272 l -3.958296,2.4315 10.458296,0.32639 c 5.752062,0.17951 10.570795,0.42129 10.708295,0.53728 0.1375,0.116 0.25,-0.007 0.25,-0.27225 z M 40.674116,86.75 C 45.3784,84.4125 50.828673,81.119243 52.785834,79.43165 56.905501,75.879404 57.839795,72.008141 54.582881,71.985557 19.333966,71.741136 11.802725,71.918834 10.468147,73.026435 6.6843788,76.166684 8.8223784,76.502028 30.999285,76.246732 43.099678,76.107435 53,76.183233 53,76.415172 c 0,0.23194 -1.515615,1.358411 -3.368034,2.503269 -3.073107,1.899284 -4.890113,2.081886 -20.75,2.085297 L 11.5,81.007476 15,83.219386 c 2.755376,1.741327 5.391113,2.294677 12.388911,2.600945 8.754715,0.383162 8.841734,0.411884 5.76399,1.90248 -1.718707,0.832394 -2.879659,1.910287 -2.579894,2.395317 C 31.35772,91.38782 31.304986,91.405404 40.674116,86.75 z M 53,65 C 50.831559,63.303821 48.908515,63.047082 38.5,63.064151 28.584444,63.080413 25.892037,63.416677 23,65 l -3.5,1.916169 18,0.01968 18,0.01968 L 53,65 z M 38.729167,58.395833 c -0.332292,-0.332291 -1.194792,-0.367818 -1.916667,-0.07895 -0.797733,0.319226 -0.560776,0.556183 0.604167,0.604167 1.054166,0.04342 1.644791,-0.192928 1.3125,-0.52522 z m 8.056258,-10.849378 c 5.660335,-3.317432 9.414755,-6.55367 7.58702,-6.539866 C 53.8926,41.010213 52.15,41.907248 50.5,43 c -2.509396,1.661908 -4.703485,1.987899 -13.416667,1.993411 -5.729166,0.0036 -10.158388,0.264867 -9.842715,0.58054 0.672078,0.672078 11.932466,5.367436 12.955806,5.402314 0.383033,0.01305 3.348083,-1.53036 6.589001,-3.42981 z M 55.361626,38.5 C 55.862603,37.194477 53.064194,37 33.777486,37 14.078529,37 11.833299,37.16304 13.55887,38.468197 16.463477,40.665131 54.519677,40.694084 55.361626,38.5 z M 51,31.52568 c 0,-0.260876 -1.327653,-1.160876 -2.95034,-2 C 45.768107,28.345843 41.496293,28 29.204647,28 14.579967,28 13.165357,28.159801 11.5,30 9.6955754,31.993867 9.7533665,32 30.345012,32 41.705256,32 51,31.786556 51,31.52568 z M 32.5,22.463885 c -3.932271,-1.800557 -6.674346,-1.799252 -9.05887,0.0043 -1.764849,1.334864 -1.305434,1.463709 5.05887,1.418781 6.741383,-0.04759 6.889164,-0.100167 4,-1.423093 z"
       id="path2833"
       style="fill:#b5b5b5" />
    <path
       d="M 6.2261857,148.82144 C 6.6757051,147.47288 6.1275798,147.76642 20,141.44516 c 5.775,-2.63151 10.853718,-5.08441 11.28604,-5.4509 0.432322,-0.36649 -3.167678,-2.33013 -8,-4.36366 C 8.4471852,125.38615 1,119.15456 1,112.98227 1,111.3203 1.4299146,111.00167 3,111.5 c 1.3915945,0.44167 2,0.1797 2,-0.86118 0,-2.05378 2.9194347,-4.80665 4.2351283,-3.9935 0.5906388,0.36503 0.7976497,0.21673 0.4600242,-0.32956 -0.6353769,-1.02806 3.9133385,-4.74383 10.7213105,-8.758062 L 24.332927,95.248407 16.97384,91.555138 C 7.0180462,86.558672 4.5390449,84.655725 2.5641032,80.493845 0.97832236,77.15206 1.2224102,72.401389 2.9258007,73.454142 3.355795,73.719893 5.733568,71.996116 8.2097407,69.623525 10.685913,67.250934 17.008103,63.118637 22.259051,60.440643 l 9.547179,-4.869082 -10.653115,-5.2587 C 9.5530967,44.58674 8.536595,43.903967 5.2265119,39.615141 2.4728825,36.047304 2.202902,30.216564 4.75,29.323964 c 0.9625,-0.337296 3.1,-1.861523 4.75,-3.387171 1.65,-1.525648 5.136573,-3.899426 7.747941,-5.275063 l 4.74794,-2.501156 -3.74794,-2.247708 C 12.006151,12.169552 6.0540409,7.0051837 4.4853862,3.9717401 L 3.0018031,1.1028067 6.5009016,2.5648234 C 9.4063051,3.7787785 10,3.7955941 10,2.6639306 10,1.56684 13.842821,1.2587116 29.702961,1.0840906 40.53959,0.96477872 49.87709,0.63574543 50.452961,0.35290549 51.028833,0.07006555 50.237406,0.99995457 48.694236,2.4193255 c -2.763651,2.5419401 -3.041325,2.5811739 -18.5,2.6139438 L 14.5,5.0665386 16.860784,7.0332693 c 1.930556,1.6083151 3.935188,1.977915 11,2.0281023 L 36.5,9.1227432 31.762647,11.311372 c -4.93886,2.281723 -5.373872,4.616228 -0.92267,4.951527 C 32.02799,16.352389 33,16.669997 33,16.968693 c 0,0.98775 9.089333,4.290602 15.02027,5.458017 4.309438,0.848248 11.680996,6.423982 13.465911,10.185411 2.91544,6.143834 0.08234,11.182383 -9.801711,17.431928 -5.30612,3.354985 -6.273321,3.646637 -8.972665,2.705641 L 39.686334,51.695005 44.593167,49.20413 C 52.281003,45.301523 55.75,42.276956 55.75,39.476653 c 0,-1.613967 -0.566032,-2.481329 -1.625,-2.490078 -0.89375,-0.0074 -10.737719,-0.119884 -21.875487,-0.25 -11.137767,-0.130116 -20.250267,0.08509 -20.25,0.478241 2.68e-4,0.393149 0.913091,1.203227 2.028495,1.800174 1.115405,0.596946 1.794268,1.463556 1.508586,1.925799 -0.645506,1.044451 2.332226,2.922168 9.463406,5.967493 3.025,1.291808 7.166601,3.207958 9.203558,4.258112 5.882118,3.03253 14.702244,5.797132 16.577325,5.196038 1.459566,-0.467892 1.492648,-0.388187 0.219117,0.527923 -1.230384,0.885072 -1.050639,1.082444 1,1.09807 3.214271,0.02449 8.42789,3.208791 10.545666,6.440926 2.487156,3.795879 2.095534,9.04121 -0.97565,13.06774 -3.164812,4.149283 -8.662784,8.029328 -18.09651,12.771124 -6.100117,3.06618 -7.267301,3.355734 -8.853,2.196243 C 32.961115,91.251081 33.466758,90.791736 40.147,87.443984 48.514153,83.250849 56.520116,77.69294 57.365169,75.490768 57.679803,74.670845 57.678209,73.325 57.361626,72.5 56.873856,71.228891 53.39264,71 34.547999,71 13.80082,71 12.192144,71.130201 10.552366,72.942136 7.0229884,76.842055 8.5503596,77.159066 30.525969,77.087734 L 51.5,77.019653 49.139216,79.009827 C 46.978935,80.830974 45.292149,81 29.278432,81 l -17.5,0 2.360784,1.966731 c 1.298431,1.081702 1.888284,1.981702 1.310784,2 -0.5775,0.0183 -1.7025,-0.526017 -2.5,-1.209588 -1.099008,-0.942007 -1.086905,-0.842256 0.05,0.412089 0.825,0.91022 7.35,4.266902 14.5,7.459292 7.15,3.192391 13.225,6.075482 13.5,6.406869 0.275,0.331387 2.604338,1.608081 5.176306,2.837097 2.571968,1.22902 6.813754,3.86664 9.426191,5.86138 3.15541,2.40934 4.522897,3.03528 4.073694,1.86468 C 59.304286,107.62938 59,106.62167 59,106.3592 c 0,-0.26248 -0.359932,-0.25478 -0.799849,0.0171 -0.439916,0.27188 -1.381244,-0.43663 -2.091839,-1.57447 -1.286026,-2.05926 -1.278257,-2.05903 1.682974,0.0496 12.91396,9.19555 12.147237,18.38062 -2.148633,25.73984 -4.549173,2.34182 -7.949795,3.5049 -9.032684,3.08935 -0.955203,-0.36654 -1.468042,-1.1012 -1.139641,-1.63256 0.827645,-1.33916 12.744962,-6.59982 14.196093,-6.26658 0.65052,0.14939 1.46507,-0.18517 1.810109,-0.74346 0.378077,-0.61174 -0.03552,-0.76069 -1.040926,-0.37489 -1.383346,0.53084 -1.493481,0.31358 -0.644854,-1.27209 0.56288,-1.05175 0.787771,-3.14499 0.499757,-4.65163 L 59.766846,116 34.633423,116.03327 9.5,116.06654 l 2.391663,1.99173 c 1.315414,1.09546 2.167039,2.21636 1.8925,2.4909 -0.274539,0.27454 -1.068387,-0.18671 -1.764107,-1.025 C 11.324336,118.68587 10.290466,118 9.7225677,118 c -0.5678985,0 -0.1752984,0.96225 0.8724443,2.13834 1.954653,2.19409 16.78598,9.86166 19.075339,9.86166 0.701881,0 3.200684,0.85694 5.552898,1.9043 2.352213,1.04737 6.301751,2.70737 8.776751,3.68889 2.475,0.98153 6.511194,2.92519 8.969321,4.31925 5.843465,3.31398 7.791419,3.61257 5.367064,0.82269 -1.71,-1.96781 -1.607933,-1.95451 1.483054,0.19335 C 62.788938,142.99191 65,146.46462 65,149.0651 65,149.6239 53.09891,150 35.416667,150 13.150876,150 5.9305068,149.70848 6.2261857,148.82144 z m 35.6633853,-3.85185 c 9.241985,-0.0223 12.131808,-0.30892 10.818619,-1.07309 -2.764195,-1.60852 -30.271098,-0.76108 -31.911036,0.98313 -1.096186,1.16588 -0.539613,1.28208 3.592417,0.75 2.689264,-0.3463 10.564264,-0.64331 17.5,-0.66004 z m 0.569612,-4.90355 c 0.949434,-1.53621 -4.339499,-2.12064 -7.501576,-0.82893 L 31.8661,140.5 l 5.033044,0.20937 c 2.768174,0.11515 5.270192,-0.17434 5.560039,-0.64333 z m 12.54131,-28.33074 c -2.71e-4,-0.42058 -1.462993,-1.6564 -3.250493,-2.74626 -2.920276,-1.78053 -5.069627,-1.98194 -21.185549,-1.9853 -17.041214,-0.004 -18.050956,0.10468 -20.25,2.17057 -1.272948,1.19588 -2.314059,2.43338 -2.31358,2.75 4.791e-4,0.31663 10.575701,0.57569 23.500493,0.57569 12.924792,0 23.4994,-0.34411 23.499129,-0.7647 z M 40.445996,102.91262 C 39.757868,101.79921 31.163595,98 29.333044,98 c -1.838397,0 -9.005977,3.66178 -9.85428,5.03436 -0.451005,0.72974 2.815211,1.01137 10.419567,0.89844 6.092075,-0.0905 10.838524,-0.54956 10.547665,-1.02018 z M 53.503784,65.25 C 51.093607,63.176481 49.909272,63 38.404398,63 c -10.552495,0 -13.096804,0.312592 -16.444236,2.020324 -2.178089,1.111178 -3.960236,2.123678 -3.960326,2.25 -9e-5,0.126322 8.576707,0.229676 19.059548,0.229676 l 19.059712,0 -2.615312,-2.25 z M 40.376393,58.8 C 39.748064,57.783342 36.875776,57.791947 35.26459,58.815313 34.528681,59.282735 35.412287,59.6 37.45,59.6 c 1.881451,0 3.198328,-0.36 2.926393,-0.8 z m 14.352774,0.595833 c -0.332292,-0.332291 -1.194792,-0.367818 -1.916667,-0.07895 -0.797733,0.319226 -0.560776,0.556183 0.604167,0.604167 1.054166,0.04342 1.644791,-0.192928 1.3125,-0.52522 z M 49,30 C 46.750777,28.240632 44.835342,28.042241 29.904988,28.022236 14.564326,28.001681 13.173166,28.151172 11.5,30 9.6954533,31.994002 9.7527226,31.999933 30.595012,31.977764 L 51.5,31.955528 49,30 z M 32.965156,22.435767 c -3.067914,-1.698628 -6.108799,-1.783072 -9.446481,-0.262322 -3.680889,1.677125 -1.690813,2.380242 5.595308,1.976887 5.950362,-0.329409 6.173498,-0.42875 3.851173,-1.714565 z m -10.888078,102.151073 -2.422923,-1.3423 2.320448,-0.73648 c 2.699921,-0.85692 32.815099,-1.05169 33.649165,-0.21763 0.309151,0.30916 -0.807379,1.27028 -2.481178,2.13583 -4.014817,2.07615 -27.389701,2.19697 -31.065512,0.16058 z M 24,88 l -3.5,-1.916169 7,-0.01968 7,-0.01968 L 32,88 c -3.069464,2.400969 -3.614483,2.400969 -8,0 z m -4.5,-44.945276 -4,-1.892829 19,-0.07721 19,-0.07721 -3.27417,1.996262 C 45.554765,45.851688 25.481046,45.884998 19.5,43.054724 z M 33.44113,15.574704 C 31.554692,14.189567 31.570438,14.121581 34,13.161749 41.029593,10.384612 44.074704,8.7852142 50.32826,4.585581 54.083802,2.0635115 58.114996,0 59.286468,0 62.935488,0 53.98203,8.0915481 45.091121,12.828823 36.302668,17.511507 36.133265,17.551435 33.44113,15.574704 z"
       id="path2831"
       style="fill:#a2a2a2" />
    <path
       d="m 6.6154489,148.55974 c 0.4384391,-1.14255 1.051219,-1.21311 2.9645527,-0.34134 1.9023134,0.86676 2.7824574,0.77398 4.1659364,-0.43915 2.531756,-2.22 8.341114,-5.02553 9.013659,-4.35299 0.315555,0.31556 0.134745,0.57374 -0.401801,0.57374 -0.536545,0 -1.790937,0.59624 -2.787537,1.32497 -1.523406,1.11394 0.875004,1.2624 15.05887,0.93213 18.198704,-0.42375 20.789904,-0.74804 18.342846,-2.29558 -1.273765,-0.80554 -1.26152,-0.93296 0.09093,-0.94621 0.8596,-0.008 2.825633,1.30269 4.368963,2.91358 1.54333,1.61089 3.622721,2.86737 4.620868,2.79218 1.723177,-0.1298 1.729793,-0.2889 0.131036,-3.15089 C 61.257699,143.91238 59.6,141.72919 58.5,140.71865 c -1.949815,-1.79125 -1.929713,-1.7945 0.801112,-0.1295 C 61.957072,142.2085 65,146.67297 65,148.95034 65,149.65947 55.439911,150 35.531385,150 10.291164,150 6.1420725,149.79334 6.6154489,148.55974 z m 23.4573841,-8.89784 6.362149,-2.86438 -5.467491,-2.3586 c -6.882309,-2.96893 -5.586279,-3.11674 2.429838,-0.27711 6.455061,2.28664 8.615854,3.50486 6.216676,3.50486 -0.798964,0 -3.608675,0.82339 -6.243801,1.82975 -3.924262,1.49869 -4.436425,1.95682 -2.830672,2.53204 1.239786,0.44412 0.344961,0.6647 -2.43419,0.60005 l -4.394658,-0.10223 6.362149,-2.86438 z M 34.75,142.33772 c 0.6875,-0.27741 1.8125,-0.27741 2.5,0 0.6875,0.27741 0.125,0.50439 -1.25,0.50439 -1.375,0 -1.9375,-0.22698 -1.25,-0.50439 z M 44.300128,142.10809 48.100257,141.5 44.9927,140.14076 c -1.709157,-0.74758 -2.912884,-1.55391 -2.674949,-1.79184 C 43.006294,137.66037 51,141.12188 51,142.10858 c 0,0.49028 -2.3625,0.82756 -5.25,0.74951 -4.936748,-0.13343 -5.023258,-0.17818 -1.449872,-0.75 z m 4.20174,-9.11111 C 48.840759,132.44864 49.69671,132 50.403981,132 c 2.175298,0 13.738132,-7.96104 13.088804,-9.01167 -0.33595,-0.54358 -0.02176,-1.00264 0.698198,-1.02013 0.807354,-0.0196 0.565105,-0.59447 -0.632113,-1.5 C 62.491249,119.66069 62.180307,119 62.867887,119 c 0.687581,0 0.995786,-0.41157 0.684899,-0.91459 -0.310886,-0.50302 -0.08437,-1.07488 0.503375,-1.2708 1.425264,-0.47509 -0.473077,-5.48256 -3.341631,-8.81461 -1.183735,-1.375 -0.445571,-0.88431 1.640365,1.09042 5.170081,4.89445 5.976015,10.17443 2.232162,14.62375 -2.624692,3.11927 -9.095016,7.38786 -14.059659,9.27541 -1.745334,0.66358 -2.432622,0.66609 -2.02553,0.007 z M 21,130.5 c -1.375,-0.78602 -2.05,-1.42913 -1.5,-1.42913 0.55,0 2.125,0.64311 3.5,1.42913 1.375,0.78602 2.05,1.42913 1.5,1.42913 -0.55,0 -2.125,-0.64311 -3.5,-1.42913 z m -8.25,-4.07197 C 9.0115591,124.39989 9.2391165,123.55517 13,125.5 c 1.65,0.85325 3,1.7648 3,2.02568 0,0.6435 -0.107447,0.60721 -3.25,-1.09765 z m 12.399997,-2.10821 c -0.840512,-0.90309 2.459598,-1.19959 14.055268,-1.26281 8.334526,-0.0454 14.812338,0.26064 14.395139,0.68018 -1.361009,1.36866 -27.225855,1.89834 -28.450407,0.58263 z M 8.3333333,122.54399 c 0,-0.80081 0.3823404,-1.21971 0.8496453,-0.9309 0.4673048,0.28881 0.5907472,0.94401 0.2743163,1.45601 -0.8086245,1.30838 -1.1239616,1.16106 -1.1239616,-0.52511 z m -4.329629,-3.04005 c -1.2897081,-1.37283 -2.1236839,-2.71729 -1.8532796,-2.9877 0.2704043,-0.2704 1.4856505,0.85282 2.7005472,2.49606 2.6909907,3.63976 2.315129,3.85786 -0.8472676,0.49164 z m 1.7266865,-1.80984 c -0.9015353,-2.29139 1.5059764,-8.15489 3.9259116,-9.56157 1.0140336,-0.58944 1.4007186,-1.0854 0.8592996,-1.10212 -0.5414193,-0.0167 0.583581,-0.8909 2.5,-1.94261 1.916419,-1.05171 3.377296,-2.38551 3.246394,-2.96401 -0.134156,-0.59288 0.482832,-0.7752 1.414045,-0.41786 1.197134,0.45938 1.426649,0.26924 0.833495,-0.6905 -0.537009,-0.8689 -0.431557,-1.08527 0.306588,-0.62907 1.522944,0.94123 7.410127,-2.200875 6.92315,-3.695022 -0.213556,-0.655236 -2.604757,-2.235965 -5.313779,-3.51273 C 11.485274,88.965069 4.9988225,84.640467 5.2541111,83.063646 5.38935,82.228327 4.825,81.534785 4,81.522442 3.0454838,81.508161 2.3862428,80.320766 2.1871845,78.25728 1.93758,75.669821 2.1873605,75.134667 3.423286,75.608936 4.4797263,76.01433 5.2983993,75.34535 5.9981419,73.504887 6.5624083,72.020754 7.9136013,70.573849 9.000793,70.289542 10.087985,70.005235 10.764948,69.428695 10.505155,69.008341 9.8925093,68.017059 15.804288,64.130886 24.869904,59.565515 31.191861,56.381829 33.274836,54 29.737101,54 29.107425,54 24.486232,52.002546 19.467783,49.561214 8.247016,44.10263 2.9922445,38.892055 3.0153128,33.247119 c 0.00978,-2.392247 0.3170861,-3.27122 0.8499164,-2.430942 0.6233678,0.983056 1.5686068,0.422089 3.7346872,-2.216407 1.595046,-1.94292 5.5011946,-5.079093 8.6803306,-6.969273 l 5.780247,-3.43669 -7.004781,-4.656769 C 8.8813936,9.4323585 6.2725124,6.8595408 3.5963429,2.236075 3.1939689,1.5409162 5.1451842,2.3167401 7.9323769,3.960128 10.71957,5.6035159 13,6.5097821 13,5.974053 13,5.4383238 12.55,5 12,5 11.45,5 11,4.325 11,3.5 11,2.2251654 13.589402,1.9979503 28.25,1.9863453 37.7375,1.9788352 46.625,1.7196477 48,1.4103731 L 50.5,0.84805556 48.139216,2.9240278 C 45.958811,4.8413829 44.549794,5 29.698086,5 15.565281,5 13.852837,5.1719065 15.55887,6.4193886 16.626492,7.2000524 17.5,8.4357717 17.5,9.1654315 c 0,1.6765115 7.417146,5.7383775 18.992904,10.4011215 4.946098,1.9923 11.668048,5.190222 14.937668,7.106494 3.26962,1.916272 5.346187,2.762891 4.614595,1.881376 -2.237797,-2.696381 -0.618451,-2.641326 2.31498,0.07871 3.848062,3.568124 4.947047,6.906035 3.608811,10.960929 C 59.967242,45.659318 47.797952,54.107897 43.698261,52.278564 41.890009,51.471699 42.25221,51.038049 47.086796,48.221605 56.016234,43.019657 57.577938,41.149161 55.829689,37.75 55.014824,36.16564 52.897953,36 33.464816,36 21.659167,36 12,36.36 12,36.8 c 0,0.44 0.5625,1.406017 1.25,2.146704 1.009551,1.087654 0.984596,1.19553 -0.129732,0.560805 -0.936312,-0.533327 -1.237943,-0.339439 -0.938547,0.603295 0.559704,1.762389 9.972775,6.860572 20.318279,11.004518 14.436027,5.782426 25.055444,11.09902 26.734687,13.384678 0.404078,0.55 0.741578,0.585433 0.75,0.07874 0.0084,-0.506693 -0.729431,-1.744193 -1.639675,-2.75 C 57.434769,60.822933 57.169767,60 57.756119,60 c 0.586351,0 2.231096,1.384526 3.654987,3.076725 3.42292,4.06791 3.442043,9.203484 0.05284,14.19114 -3.838982,5.649571 -5.510869,5.033778 -3.328688,-1.226029 0.911213,-2.613908 0.861874,-3.429749 -0.25,-4.133911 -0.761894,-0.482515 -11.380231,-0.88419 -23.596306,-0.892612 -21.620614,-0.01491 -22.265647,0.0433 -24.265083,2.189438 -1.1297208,1.212613 -1.897825,2.675113 -1.7068981,3.25 0.2189406,0.659237 7.8875131,1.2299 20.7650831,1.545249 16.566265,0.405679 20.023027,0.726636 18.324475,1.70141 -1.390949,0.798246 -8.298231,1.255951 -20.583333,1.363937 -14.352406,0.126158 -18.4898657,0.45135 -18.4898657,1.453249 0,0.709897 0.6,1.060481 1.3333334,0.779074 C 10.4,83.016264 11,83.284167 11,83.893011 c 0,0.608844 -0.7875,1.142515 -1.75,1.185936 -1.3853638,0.0625 -1.4374547,0.193869 -0.25,0.630488 0.825,0.303347 2.248913,1.202644 3.16425,1.998438 0.915338,0.795794 2.490338,1.360255 3.5,1.254358 1.009663,-0.105897 2.51075,-0.13383 3.33575,-0.06207 1.297061,0.112816 1.304117,0.254393 0.05215,1.046448 -1.14272,0.722942 -0.826601,1.162356 1.5,2.085045 1.621316,0.642986 4.905382,2.039935 7.297924,3.104331 2.447004,1.088626 5.290627,1.672284 6.5,1.334136 1.705064,-0.476746 1.839545,-0.383826 0.649923,0.449063 -1.015127,0.710719 -1.095939,1.055143 -0.25,1.065506 0.6875,0.0084 1.25,0.476869 1.25,1.040993 0,0.584931 -1.284396,0.361493 -2.988957,-0.519969 -2.846955,-1.472218 -3.274536,-1.401491 -9,1.488715 C 20.704969,101.66333 18,103.24731 18,103.5144 c 0,0.26708 5.5125,0.48263 12.25,0.47901 L 42.5,103.98682 39.5,102 c -1.65,-1.09275 -2.675331,-1.98979 -2.278513,-1.99341 1.480649,-0.01352 11.547583,4.81074 12.182521,5.83809 0.363023,0.58739 1.433131,0.79093 2.378017,0.45232 0.944886,-0.33861 1.420343,-0.28383 1.056572,0.12174 -0.363772,0.40557 -9.542653,0.68619 -20.397513,0.6236 -19.063895,-0.10993 -19.816235,-0.0385 -22.088597,2.09624 -3.4654975,3.25567 -2.9215878,5.69532 1.095519,4.91384 0.521404,-0.10143 10.724738,-0.14241 22.674076,-0.0911 12.593774,0.0541 21.970317,-0.30184 22.307144,-0.84684 0.319591,-0.5171 -0.658743,-1.90122 -2.174076,-3.07581 L 51.5,107.90309 l 3,1.45314 c 4.18379,2.02655 7.493832,6.04447 6.400931,7.76983 -0.632189,0.99803 -0.874495,1.03194 -0.885618,0.12394 -0.01184,-0.96642 -5.714635,-1.25 -25.137758,-1.25 -23.37519,0 -25.0269915,0.11647 -23.75,1.67465 1.236047,1.50821 1.107567,1.5023 -1.2927793,-0.0595 -2.542185,-1.65405 -2.6820431,-1.65057 -3.0295444,0.0754 -0.3509969,1.74329 -0.3903034,1.74342 -1.0748405,0.004 z M 60.806872,75.473539 c -0.307887,-0.307888 -0.867048,0.247112 -1.242579,1.233333 -0.542685,1.425198 -0.427821,1.540062 0.559795,0.559795 0.683418,-0.678334 0.990671,-1.485241 0.682784,-1.793128 z M 53.694236,65.414928 C 51.051691,63.140483 50.162242,63 38.404398,63 27.851903,63 25.307594,63.312592 21.960162,65.020324 19.782073,66.131502 18,67.190973 18,67.374703 c 0,0.18373 6.4125,0.14717 14.25,-0.08124 7.8375,-0.228415 16.275,-0.01668 18.75,0.470518 2.475,0.4872 4.725,0.701332 5,0.475849 0.275,-0.225483 -0.762594,-1.496687 -2.305764,-2.824898 z M 40.25,58.779505 c -1.617682,-0.780178 -2.882318,-0.780178 -4.5,0 -1.975508,0.952752 -1.701016,1.085134 2.25,1.085134 3.951016,0 4.225508,-0.132382 2.25,-1.085134 z M 52.447214,33.08541 c 0.310886,-0.503024 -0.953172,-1.853024 -2.809017,-3 C 46.573489,28.191316 44.744661,28 29.703395,28 15.981694,28 12.87348,28.269377 11.571429,29.571429 c -0.864286,0.864285 -1.5718879,1.876785 -1.5724488,2.25 -5.609e-4,0.373214 8.5272658,0.531302 18.9507268,0.351306 11.990037,-0.207047 19.612689,0.05729 20.75102,0.719592 2.231449,1.298305 2.070418,1.286984 2.746487,0.193083 z M 37,24.546794 C 37,24.297531 34.94474,23.18445 32.432756,22.07328 l -4.567243,-2.020309 -4.432757,2.083641 C 20.99474,23.282615 19,24.395697 19,24.610127 19,24.824557 23.05,25 28,25 c 4.95,0 9,-0.203943 9,-0.453206 z M 16.5,8 C 16.160081,7.45 15.431966,7 14.881966,7 14.331966,7 14.160081,7.45 14.5,8 c 0.339919,0.55 1.068034,1 1.618034,1 0.55,0 0.721885,-0.45 0.381966,-1 z M 1.0789474,113.41667 c 0.047984,-1.16495 0.2849403,-1.4019 0.6041666,-0.60417 0.2888706,0.72187 0.2533443,1.58437 -0.078947,1.91667 -0.3322917,0.33229 -0.5686404,-0.25834 -0.5252193,-1.3125 z M 36.5,92 c 0.339919,-0.55 1.378976,-1.006891 2.309017,-1.015313 C 40.273457,90.971426 40.299043,90.831868 39,89.942989 37.686108,89.04395 37.695096,88.952796 39.072435,89.208302 40.997494,89.565414 48,86.927139 48,85.844739 c 0,-0.430083 -0.7875,-0.499394 -1.75,-0.154025 -1.885766,0.676661 -1.776728,0.518981 1.191958,-1.723682 1.214297,-0.917327 1.660565,-0.998651 1.190983,-0.217032 -0.902973,1.503001 1.210591,1.650318 3.367059,0.234687 1.18641,-0.778828 1.232742,-1.157487 0.221622,-1.811242 -0.935865,-0.605099 -0.62348,-1.124947 1.165936,-1.940259 1.936217,-0.8822 2.556333,-0.821788 2.983206,0.290626 0.659329,1.718184 -2.52444,4.047796 -12.0958,8.850682 C 36.599874,93.225836 35.516233,93.591768 36.5,92 z m -8.6875,-3.683114 c 0.721875,-0.288871 1.584375,-0.253344 1.916667,0.07895 0.332291,0.332292 -0.258334,0.568641 -1.3125,0.52522 -1.164943,-0.04798 -1.4019,-0.284941 -0.604167,-0.604167 z M 13.25,86.968838 C 12.0125,86.471424 11,85.824948 11,85.532224 c 0,-0.970614 1.591536,-0.552044 3.55887,0.935973 2.212313,1.673309 1.902957,1.791637 -1.30887,0.500641 z M 21,43 l -3.5,-1.916169 18,-0.03818 18,-0.03818 -3.27417,1.996262 C 45.533806,45.864466 26.227613,45.861997 21,43 z M 34.207055,15.610812 c -2.169068,-1.16085 -2.019204,-1.320644 3.310232,-3.529572 3.070187,-1.272522 8.9487,-4.5113776 13.063362,-7.1974578 9.216487,-6.0165867 12.412933,-6.5097209 7.130552,-1.1000712 -3.863701,3.9567881 -11.740698,9.107141 -17.721711,11.587293 -2.820239,1.16947 -3.957239,1.216624 -5.782435,0.239808 z M 23.5,11.054724 19.5,9.1618951 28,9.1551111 36.5,9.1483272 32.5,11 c -4.973004,2.302094 -4.259931,2.297758 -9,0.05472 z"
       id="path2829"
       style="fill:#8e8e8e" />
    <path
       d="m 6.6705483,148.41615 c 0.3496274,-0.91111 0.8709402,-1.15804 1.2273536,-0.58135 0.3407662,0.55137 2.1906431,1.19209 4.1108361,1.42381 3.00202,0.36228 2.830027,0.44374 -1.227353,0.58135 -3.9311447,0.13333 -4.6171857,-0.10428 -4.1108367,-1.42381 z M 16.8125,149.31689 c 0.721875,-0.28887 1.584375,-0.25335 1.916667,0.0789 0.332291,0.33229 -0.258334,0.56864 -1.3125,0.52522 -1.164943,-0.048 -1.4019,-0.28494 -0.604167,-0.60416 z m 8.456532,-0.01 c 0.972967,-0.25354 2.322967,-0.23687 3,0.0371 0.677032,0.27393 -0.119032,0.48137 -1.769032,0.46099 -1.65,-0.0204 -2.203936,-0.2445 -1.230968,-0.49804 z M 36.75,149.2596 c 3.4375,-0.19527 9.0625,-0.19527 12.5,0 3.4375,0.19527 0.625,0.35504 -6.25,0.35504 -6.875,0 -9.6875,-0.15977 -6.25,-0.35504 z M 59.744252,149.09981 63.988504,148.5 62.51626,145.67811 c -0.809734,-1.55203 -2.494648,-3.71624 -3.744252,-4.80935 L 56.5,138.8813 l 2.801112,1.70785 C 61.957072,142.2085 65,146.67297 65,148.95034 c 0,0.60664 -2.004791,0.98627 -4.75,0.89947 l -4.75,-0.1502 4.244252,-0.5998 z M 27.25,146.31067 c 0.9625,-0.25152 2.5375,-0.25152 3.5,0 0.9625,0.25153 0.175,0.45733 -1.75,0.45733 -1.925,0 -2.7125,-0.2058 -1.75,-0.45733 z m 22.019032,-0.004 c 0.972967,-0.25354 2.322967,-0.23687 3,0.0371 0.677032,0.27393 -0.119032,0.48137 -1.769032,0.46099 -1.65,-0.0204 -2.203936,-0.2445 -1.230968,-0.49804 z M 19.44113,144.55517 C 20.508751,143.69982 21.821251,143 22.357796,143 c 1.270543,0 0.703236,0.4619 -2.357796,1.91971 -2.357268,1.12265 -2.389176,1.10183 -0.55887,-0.36454 z M 26,141.5 c 1.375,-0.78602 2.95,-1.42913 3.5,-1.42913 0.55,0 -0.125,0.64311 -1.5,1.42913 -1.375,0.78602 -2.95,1.42913 -3.5,1.42913 -0.55,0 0.125,-0.64311 1.5,-1.42913 z m 3.8125,0.81689 c 0.721875,-0.28887 1.584375,-0.25335 1.916667,0.0789 0.332291,0.33229 -0.258334,0.56864 -1.3125,0.52522 -1.164943,-0.048 -1.4019,-0.28494 -0.604167,-0.60416 z m 4.9375,0.0208 c 0.6875,-0.27741 1.8125,-0.27741 2.5,0 0.6875,0.27741 0.125,0.50439 -1.25,0.50439 -1.375,0 -1.9375,-0.22698 -1.25,-0.50439 z m 9.520938,-0.0674 c 2.578327,-0.26905 3.545474,-0.76935 3.058041,-1.58189 -0.392093,-0.65362 0.160985,-0.52823 1.229063,0.27864 1.068077,0.80687 2.129458,1.59437 2.358625,1.75 0.229166,0.15563 -2.020834,0.20732 -5,0.11487 -4.339855,-0.13469 -4.66702,-0.24633 -1.645729,-0.56162 z M 35,138 c 0.825,-0.53316 1.95,-0.96937 2.5,-0.96937 0.55,0 0.325,0.43621 -0.5,0.96937 -0.825,0.53316 -1.95,0.96937 -2.5,0.96937 -0.55,0 -0.325,-0.43621 0.5,-0.96937 z m 20.705139,-8.54805 c 11.022931,-6.24804 12.652438,-11.54878 6.129105,-19.9378 L 58.712828,105.5 l 3.717338,3.59042 c 5.10877,4.93434 5.872012,10.20858 2.122189,14.66499 -2.470906,2.93651 -12.188661,9.26403 -14.174082,9.22917 -0.48305,-0.008 1.91404,-1.59816 5.326866,-3.53263 z M 2.4588815,117.93347 c -0.3625339,-0.58659 -0.4446839,-1.281 -0.1825556,-1.54313 0.2621283,-0.26213 0.7430661,0.21781 1.0687507,1.06653 0.676184,1.76211 0.099854,2.07206 -0.8861951,0.4766 z m 6.7296799,-0.97243 C 5.1438832,113.19285 6.967521,109.41053 15.5,103.87079 c 5.65122,-3.66908 13.73621,-7.967913 14.169905,-7.534218 0.201171,0.201171 -2.22976,1.755636 -5.40207,3.454367 -11.687172,6.258331 -11.83672,6.141731 7.923148,6.177261 9.730041,0.0175 17.900261,0.3693 18.156046,0.7818 0.255784,0.4125 -8.105664,0.61825 -18.580996,0.45722 -18.588466,-0.28574 -19.103758,-0.23857 -21.447634,1.96339 -2.5602634,2.40524 -2.7974233,6.5574 -0.3434064,6.01231 2.2606484,-0.50215 44.3636094,-0.17765 44.8872114,0.34595 C 55.121325,115.78799 45.078233,116 32.544222,116 12.400617,116 9.8996253,116.17413 11,117.5 c 1.789605,2.15634 0.749434,1.84686 -1.8114386,-0.53896 z m 50.0220116,-0.5619 C 58.501389,115.62961 58.362331,115 58.901556,115 c 1.038441,0 2.541728,1.90221 1.94858,2.46567 -0.192575,0.18294 -0.930378,-0.297 -1.639563,-1.06653 z M 1.0789474,113.41667 c 0.047984,-1.16495 0.2849403,-1.4019 0.6041666,-0.60417 0.2888706,0.72187 0.2533443,1.58437 -0.078947,1.91667 -0.3322917,0.33229 -0.5686404,-0.25834 -0.5252193,-1.3125 z M 38.55887,101.4682 C 37.491249,100.66069 37.098649,100 37.686426,100 c 0.587776,0 1.628885,0.675 2.313574,1.5 1.557204,1.87632 1.067337,1.86551 -1.44113,-0.0318 z M 33,98.5 c -1.375,-0.786021 -2.023508,-1.445075 -1.44113,-1.464565 0.582379,-0.01949 1.932379,0.625253 3,1.432762 C 37.027847,100.33564 36.239254,100.35173 33,98.5 z M 16.229295,90.994724 C 6.7280539,86.239203 2,81.838679 2,77.751145 2,76.093003 2.4220849,75.142829 3,75.5 3.55,75.839919 4,77.376211 4,78.913982 4,82.52097 8.1905571,86.121587 17.75,90.728278 24.070005,93.773885 26.040698,95 24.615795,95 c -0.211312,0 -3.985237,-1.802374 -8.3865,-4.005276 z m 19.886395,1.556252 c 0.246963,-0.246962 4.146963,-2.2999 8.666667,-4.562083 C 49.302061,85.726709 53,83.45377 53,82.937916 53,82.422062 53.537877,82 54.195281,82 55.627733,82 61,77.018676 61,75.690464 c 0,-0.514444 -0.7875,-0.331371 -1.75,0.40683 -0.993861,0.762254 -0.797709,0.268382 0.453972,-1.143012 1.212185,-1.366858 1.887185,-2.928241 1.5,-3.469739 C 60.757829,70.860587 51.450427,70.683124 35.791151,71 12.567206,71.469952 10.991596,71.620192 9.5729542,73.5 c -0.8301411,1.1 -1.523659,2.321667 -1.5411508,2.714816 -0.051108,1.14872 3.3418076,2.559928 4.8573926,2.020325 0.950123,-0.338279 1.140802,-0.05852 0.603295,0.885127 C 12.857766,80.234596 12.965642,80.259551 14.053296,79.25 15.02095,78.351832 20.184909,78 32.4,78 45.998143,78 49.15056,78.250137 48.153482,79.25 47.287591,80.11831 41.351906,80.652676 28.714652,81 11.27682,81.479264 10.420874,81.412581 8.0757474,79.392131 5.9330481,77.546082 5.7466521,76.87457 6.5751076,73.985914 7.1585189,71.951678 8.2442308,70.581429 9.4079722,70.410628 10.445773,70.258311 11.905142,69.430215 12.651013,68.570415 13.396884,67.710616 13.465536,67.455536 12.803571,68.003571 12.141607,68.551607 11.179314,69 10.665141,69 8.753575,69 15.71488,64.465742 25.289083,59.47467 31.268925,56.357353 33.18421,54 29.737101,54 29.107425,54 24.486232,52.002546 19.467783,49.561214 8.3117336,44.134114 3,38.890941 3,33.30599 3,29.848309 3.0917831,29.739089 4.4681966,31.55887 5.5880126,33.0394 5.9451183,33.144073 5.9731638,32 6.0357256,29.447883 10.239287,25.218035 16.280247,21.628462 l 5.780247,-3.434655 -7.004781,-4.656769 C 8.8464833,9.4091501 6.2977076,6.8878449 3.5408425,2.1462733 2.730178,0.75200009 4.6486414,1.7769134 12.268113,6.8087003 14.340576,8.1773239 16.317483,9.0158502 16.661241,8.672092 17.004999,8.3283339 16.434349,7.7241641 15.393128,7.3294925 13.018549,6.4294153 11,4.4729251 11,3.0714286 11,2.3514594 16.658496,1.9955209 28.25,1.9863453 37.7375,1.9788352 46.625,1.7196477 48,1.4103731 L 50.5,0.84805556 48.139216,2.9240278 C 45.958403,4.8417411 44.550177,5 29.66671,5 14.747659,5 13.720747,5.1161026 15.794224,6.568422 17.025803,7.4310541 17.784337,8.5399334 17.479853,9.0325982 16.63462,10.400214 23.375352,14.216611 35,18.951974 c 5.775,2.352478 13.17195,5.836025 16.437667,7.741217 3.265718,1.905193 5.339092,2.742747 4.6075,1.861232 -2.237797,-2.696381 -0.618451,-2.641326 2.31498,0.07871 3.848062,3.568124 4.947047,6.906035 3.608811,10.960929 C 59.967242,45.659322 47.797952,54.107901 43.698261,52.278568 41.892759,51.47293 42.259562,51.04106 47.086796,48.288952 52.207064,45.369774 57,41.553276 57,40.395303 57,40.105571 56.534167,38.998101 55.964816,37.934259 54.991794,36.11615 53.668182,36 33.92261,36 11.45734,36 8.7956187,36.51809 11.927547,40.281219 13.91817,42.673027 23.521413,47.550093 37,53.014419 c 5.775,2.34123 13.153002,6.00526 16.39556,8.142288 6.074507,4.003442 8.298971,4.37321 5.109988,0.849424 C 57.50701,60.902759 57.169767,60 57.756119,60 c 0.586351,0 2.231096,1.384526 3.654987,3.076725 4.938968,5.86963 2.712363,13.633839 -5.619374,19.594853 -5.768984,4.12747 -22.148131,12.351488 -19.676042,9.879398 z M 34.673239,67.291505 c 6.145281,-0.225498 13.457781,0.0052 16.25,0.512735 5.685563,1.033384 6.322526,0.320839 2.441902,-2.73166 C 51.021146,63.228793 49.360891,63 38.325303,63 27.92965,63 25.319362,63.317689 22.210162,64.96132 15.656851,68.425626 15.064081,69.1781 19.5,68.40165 21.7,68.016568 28.527958,67.517003 34.673239,67.291505 z M 60,67.559017 C 60,67.316476 59.55,66.839919 59,66.5 58.45,66.160081 58,66.358524 58,66.940983 58,67.523442 58.45,68 59,68 c 0.55,0 1,-0.198442 1,-0.440983 z M 17.492921,66.011454 C 17.84326,65.444594 17.441863,65.276947 16.551938,65.618443 14.819521,66.283234 14.502551,67 15.940983,67 c 0.517541,0 1.215913,-0.444846 1.551938,-0.988546 z m 4.03354,-2.818326 c -0.307887,-0.307887 -1.114794,-6.34e-4 -1.793128,0.682784 -0.980267,0.987616 -0.865403,1.10248 0.559795,0.559795 0.986221,-0.375531 1.541221,-0.934692 1.233333,-1.242579 z m 34.390206,0.523904 C 55.6875,63.5614 54.6,62.7739 53.5,61.967032 51.649994,60.610023 51.602929,60.631245 52.872445,62.25 c 0.754844,0.9625 1.842344,1.75 2.416666,1.75 0.574322,0 0.856722,-0.127335 0.627556,-0.282968 z M 41.55887,59.468197 c -2.180224,-1.649039 -3.559693,-1.808853 -6.227083,-0.721419 -1.673992,0.682448 0.678904,1.365028 7.168213,2.079513 0.55,0.06056 0.126492,-0.550586 -0.94113,-1.358094 z M 30.526461,58.193128 c -0.307887,-0.307887 -1.114794,-6.34e-4 -1.793128,0.682784 -0.980267,0.987616 -0.865403,1.10248 0.559795,0.559795 0.986221,-0.375531 1.541221,-0.934692 1.233333,-1.242579 z M 52.447214,33.08541 c 0.310886,-0.503024 -0.953172,-1.853024 -2.809017,-3 C 46.573489,28.191316 44.744661,28 29.703395,28 15.981694,28 12.87348,28.269377 11.571429,29.571429 c -0.864286,0.864285 -1.5718879,1.876785 -1.5724488,2.25 -5.609e-4,0.373214 8.5272658,0.531302 18.9507268,0.351306 11.990037,-0.207047 19.612689,0.05729 20.75102,0.719592 2.231449,1.298305 2.070418,1.286984 2.746487,0.193083 z M 33.182278,22.469104 27.864557,20.05342 23.432278,22.136837 C 20.994525,23.282716 19,24.395697 19,24.610127 c 0,0.21443 4.3875,0.36395 9.75,0.332267 L 38.5,24.884784 33.182278,22.4691 z M 27.8125,88.316886 c 0.721875,-0.288871 1.584375,-0.253344 1.916667,0.07895 0.332291,0.332292 -0.258334,0.568641 -1.3125,0.52522 -1.164943,-0.04798 -1.4019,-0.284941 -0.604167,-0.604167 z M 21,43 l -3.5,-1.916169 18,-0.03818 18,-0.03818 -3.27417,1.996262 C 45.533806,45.864466 26.227613,45.861997 21,43 z M 34.207055,15.610812 c -2.169068,-1.16085 -2.019204,-1.320644 3.310232,-3.529572 3.070187,-1.272522 8.9487,-4.5113776 13.063362,-7.1974578 9.216487,-6.0165867 12.412933,-6.5097209 7.130552,-1.1000712 -3.863701,3.9567881 -11.740698,9.107141 -17.721711,11.587293 -2.820239,1.16947 -3.957239,1.216624 -5.782435,0.239808 z M 23.5,11.054724 19.5,9.1618951 28,9.1551111 36.5,9.1483272 32.5,11 c -4.973004,2.302094 -4.259931,2.297758 -9,0.05472 z"
       id="path2827"
       style="fill:#757575" />
    <path
       d="m 64.078947,149.33179 c -0.04342,-0.64252 -0.337924,-1.99252 -0.654452,-3 -0.547051,-1.74122 -0.518831,-1.7434 0.570774,-0.0441 0.630454,0.98322 0.924958,2.33322 0.654453,3 -0.354977,0.87499 -0.513794,0.88727 -0.570775,0.0441 z M 59,141.32487 l -2.5,-2.55424 2.75,1.7297 c 1.5125,0.95133 2.75,2.12794 2.75,2.61468 0,1.21112 -0.150193,1.1215 -3,-1.79014 z m 4.08599,-16.94309 c 1.327706,-1.71502 2.615146,-2.93888 2.86098,-2.71969 0.245833,0.21918 -0.840471,1.62238 -2.41401,3.11821 L 60.671981,127.5 63.08599,124.38178 z M 66.194949,117.5 c 0.02038,-1.65 0.244498,-2.20394 0.498042,-1.23097 0.253543,0.97297 0.236869,2.32297 -0.03705,3 C 66.382014,119.94606 66.174569,119.15 66.194949,117.5 z M 7.979944,115.47583 c -0.69572,-0.83829 -1.0712854,-1.71782 -0.8345898,-1.95452 0.2366956,-0.23669 0.9796342,0.44918 1.6509746,1.52417 1.4518132,2.32472 0.9676283,2.57996 -0.8163848,0.43035 z m 53.573559,-6.29803 -2.946496,-3.6778 3.696496,3.44617 c 3.819963,3.56127 4.221897,4.10441 2.946497,3.98163 -0.4125,-0.0397 -2.075924,-1.72721 -3.696497,-3.75 z M 9.0036337,109.65818 C 10.376635,108.09518 12.4,106.35259 13.5,105.78577 c 2.105281,-1.08483 2.043816,-1.0194 -3.496366,3.72198 L 6.5072674,112.5 9.0036337,109.65818 z M 22,100.57037 c 0,-0.275 0.9,-0.981668 2,-1.57037 1.1,-0.588702 2,-0.845368 2,-0.570368 0,0.275 -0.9,0.981666 -2,1.570368 -1.1,0.5887 -2,0.84537 -2,0.57037 z m 15.733333,-8.694458 c 0.678334,-0.683418 1.485241,-0.990671 1.793128,-0.682784 0.307888,0.307887 -0.247112,0.867048 -1.233333,1.242579 -1.425198,0.542685 -1.540062,0.427821 -0.559795,-0.559795 z M 11.5,88.526086 C 9.3,87.171069 7.8117779,86.048375 8.1928398,86.03121 9.059452,85.992172 16,90.052729 16,90.598776 c 0,0.650946 -0.308974,0.508633 -4.5,-2.07269 z m 32.233333,0.349826 c 0.678334,-0.683418 1.485241,-0.990671 1.793128,-0.682784 0.307888,0.307887 -0.247112,0.867048 -1.233333,1.242579 -1.425198,0.542685 -1.540062,0.427821 -0.559795,-0.559795 z M 47.5,87.319757 c 0.55,-0.550173 3.25,-2.462587 6,-4.249809 2.75,-1.787221 4.1,-2.377026 3,-1.310676 -1.1,1.06635 -3.8,2.978764 -6,4.249809 -2.2,1.271044 -3.55,1.860848 -3,1.310676 z M 4.4049876,82.75 2.5,80.5 4.75,82.404988 C 5.9875,83.452731 7,84.465231 7,84.654988 7,85.455241 6.1952058,84.864445 4.4049876,82.75 z m 4.25,-3.578741 C 6.7107922,77.022948 6.593249,75.079165 8.2818034,73 10.199864,70.638238 19.819271,64.659465 27.719932,60.918573 c 3.970963,-1.880215 7.233463,-3.703809 7.25,-4.05243 C 34.98647,56.517522 32.4125,55.213861 29.25,53.969117 12.296342,47.296249 2.9648432,39.906173 3.0438928,33.215204 L 3.0877856,29.5 l 1.4410509,4 c 0.7925779,2.2 1.4478262,4.139058 1.4561072,4.309017 0.00828,0.169959 0.43443,0.04983 0.9469979,-0.266955 0.5125679,-0.316784 1.0750679,0.669158 1.25,2.190983 C 8.3568737,41.25487 9.025,42.5 9.6666667,42.5 c 0.6416663,0 1.5041663,0.3375 1.9166663,0.75 1.501168,1.501168 2.623462,0.70376 1.289112,-0.915935 -0.841493,-1.021441 0.05926,-0.731291 2.328334,0.75 2.732273,1.783677 3.297615,2.558451 2.160241,2.960506 -0.925034,0.326995 2.790356,2.477127 9.299221,5.381549 5.961868,2.660337 10.994723,4.970244 11.184124,5.133127 0.189401,0.162882 -1.385599,1.208797 -3.5,2.324255 C 32.229964,59.99896 30.725,60.954106 31,61.006048 c 3.234008,0.610838 15.988913,0.560979 14.352327,-0.0561 C 43.550274,60.270472 41.138317,58 42.218557,58 43.64395,58 54.860952,64.522946 56.25,66.159609 c 2.858058,3.367541 2.193158,4.601857 -2.5,4.640981 -2.3375,0.01949 -12.902126,0.07233 -23.476947,0.11742 L 11.046106,71 9.3418713,73.600991 c -1.2588067,1.921182 -1.4328637,3.031985 -0.6659528,4.25 0.8819055,1.40065 3.8084515,1.729471 19.4311815,2.183244 L 46.5,80.56847 28.404988,80.784235 C 11.983026,80.980051 10.156956,80.830916 8.6549876,79.171259 z M 55.686858,69.267157 C 57.514667,68.60082 56.072326,66.088762 52.928479,64.463015 50.890851,63.409317 46.623462,63 37.675613,63 c -11.495492,0 -12.768622,0.192776 -17.040221,2.580219 -2.539083,1.419121 -4.892664,3.027039 -5.230181,3.573153 -0.599494,0.970002 37.63671,1.07801 40.281647,0.113785 z m -25.39527,-2.009655 c 3.735374,-0.192928 9.585374,-0.191497 13,0.0032 C 46.706215,67.455359 43.65,67.613209 36.5,67.61146 29.35,67.609711 26.556215,67.450429 30.291588,67.257502 z M 16,45 c 0,-0.55 -0.476558,-1 -1.059017,-1 -0.582459,0 -0.780902,0.45 -0.440983,1 0.339919,0.55 0.816476,1 1.059017,1 C 15.801558,46 16,45.55 16,45 z M 2.1949487,77.5 c 0.02038,-1.65 0.2444986,-2.203936 0.498042,-1.230968 0.2535434,0.972967 0.2368691,2.322967 -0.037054,3 C 2.3820136,79.946064 2.174569,79.15 2.1949487,77.5 z M 60.918441,76.631966 C 62.063298,74.779547 63,72.28662 63,71.092128 63,68.371668 59.484429,61.357752 57.776736,60.671193 56.939122,60.334439 56.899352,60.130742 57.661106,60.078947 59.974998,59.921618 64,66.036208 64,69.708691 64,72.807204 60.740856,80 59.336881,80 c -0.275,0 0.436702,-1.515615 1.58156,-3.368034 z M 44,51.890355 c -1.301488,-0.93622 -1.286867,-1.011604 0.110477,-0.569612 0.885762,0.280174 3.890911,-0.793003 6.678109,-2.384837 C 55.922579,46.003761 58.038184,44 56,44 c -0.614919,0 -0.820959,-0.480678 -0.457866,-1.068174 0.363092,-0.587495 1.388433,-0.788711 2.278536,-0.447147 0.890103,0.341565 1.30158,0.304237 0.914393,-0.08295 -0.387187,-0.387187 0.07653,-1.344342 1.030481,-2.127011 0.953951,-0.782668 1.236962,-1.178281 0.628913,-0.879139 -0.721009,0.354716 -0.931446,-0.366834 -0.605012,-2.074467 0.379419,-1.984801 0.182361,-2.421722 -0.814395,-1.805693 -0.967626,0.598025 -1.134844,0.34338 -0.633109,-0.96412 0.415734,-1.083387 -0.175836,-3.196249 -1.515852,-5.414045 L 54.628419,25.5 l 2.435791,2 c 9.041237,7.423658 6.213509,16.726213 -7.157902,23.547798 C 45.443913,53.324342 45.902513,53.258921 44,51.890355 z m 7.733333,-6.014443 c 0.678334,-0.683418 1.485241,-0.990671 1.793128,-0.682784 0.307888,0.307887 -0.247112,0.867048 -1.233333,1.242579 -1.425198,0.542685 -1.540062,0.427821 -0.559795,-0.559795 z M 21,42.939794 l -3.5,-1.843731 18,-0.04429 18,-0.04429 -3.27417,1.996262 C 45.651301,45.79283 26.335762,45.750569 21,42.939794 z M 10.500495,37.590219 C 8.850767,36.270303 7.2446918,35.348772 6.9314389,35.542373 5.9979128,36.119324 7.1677118,29.604818 8.2389411,28.26101 8.782161,27.579566 9.6367751,27.275515 10.138083,27.58534 10.639392,27.895166 10.925904,27.55271 10.774777,26.82433 10.613953,26.049213 11.395626,25.5 12.659642,25.5 c 1.187804,0 2.524087,-0.361284 2.96952,-0.802853 0.445432,-0.441569 -0.07641,-0.487838 -1.159643,-0.102821 -1.607049,0.571197 -1.741966,0.454593 -0.733086,-0.633581 0.680038,-0.733486 2.255038,-1.471947 3.5,-1.641024 7.602858,-1.032536 8.588345,-2.416908 3.642073,-5.116231 C 14.403594,13.669943 6.429921,7.177363 4.551356,3.9090731 L 2.6027121,0.51886101 5.7460268,3.0094305 C 7.4748499,4.3792437 8.9142397,6.0625 8.9446708,6.75 8.9751018,7.4375 9.4765576,8 10.059017,8 10.641476,8 10.796948,7.4804712 10.404508,6.8454915 9.9724409,6.1463914 10.129164,5.9617936 10.801818,6.3775165 11.412777,6.7551099 11.623052,7.8371388 11.269095,8.782025 10.686691,10.336752 10.803656,10.357465 12.5,9 c 1.68446,-1.3479549 1.812845,-1.3352845 1.266583,0.125 -0.457014,1.221701 -0.0032,1.625 1.828643,1.625 1.340088,0 4.116879,1.131221 6.170648,2.513824 2.053769,1.382604 4.409126,2.753327 5.234126,3.046053 1.130744,0.401209 1.04566,0.551663 -0.34563,0.611176 -1.015096,0.04342 -3.040096,-0.757251 -4.5,-1.77927 C 18.942832,12.893515 15,10.784731 15,11.315341 c 0,0.212139 2.168531,1.733741 4.818958,3.381337 4.916955,3.056547 10.821045,5.147886 9.780648,3.464488 -0.312384,-0.505448 1.899911,-0.0099 4.916212,1.101231 C 37.532118,20.373522 40,21.65491 40,22.109927 c 0,0.455017 -0.7875,0.573977 -1.75,0.264356 -1.477138,-0.475172 -1.516118,-0.394705 -0.25,0.516072 2.424217,1.743851 -0.414542,1.289527 -5.462338,-0.874211 L 27.909514,20.032288 23.204757,22.266144 18.5,24.5 28,25 c 5.225,0.275 10.243357,0.08182 11.151904,-0.429285 1.142908,-0.642947 2.446068,-0.408929 4.229297,0.759488 1.417567,0.928825 3.82421,1.763091 5.348096,1.853923 4.06333,0.242199 8.288516,4.498956 8.191756,8.252965 C 56.877632,37.121691 56.615132,37.9375 56.337719,37.25 55.955744,36.303365 50.514327,36 33.916667,36 21.8625,36 12,36.36 12,36.8 c 0,0.44 0.54,1.34 1.2,2 2.021127,2.021127 0.469747,1.325877 -2.699505,-1.209781 z M 15.99772,32.7011 c 0.0027,-0.957941 29.117203,-0.285856 33.75228,0.779146 4.293997,0.986632 4.235134,-0.708281 -0.118034,-3.398687 C 46.565388,28.18631 44.740828,28 29.246976,28 12.417086,28 12.212838,28.026222 10.667058,30.385381 9.8074289,31.697341 9.3155892,32.982256 9.5740807,33.240747 10.361715,34.028381 15.995282,33.555108 15.99772,32.7011 z M 56,32.622445 c 0,-0.207656 -0.7875,-0.995156 -1.75,-1.75 C 52.663944,29.628574 52.628574,29.663944 53.872445,31.25 55.178814,32.915748 56,33.445479 56,32.622445 z M 47.25,26.294267 C 46.0125,26.055914 45,25.442196 45,24.930449 45,23.58429 46.334775,23.785975 48.55887,25.468197 49.626492,26.275705 50.275,26.889423 50,26.832015 49.725,26.774606 48.4875,26.53262 47.25,26.294267 z m -5.742921,-3.282813 c -0.350339,-0.56686 0.05106,-0.734507 0.940983,-0.393011 C 44.180479,23.283234 44.497449,24 43.059017,24 42.541476,24 41.843104,23.555154 41.507079,23.011454 z M 20,20 c 0.825,-0.533156 1.95,-0.969374 2.5,-0.969374 0.55,0 0.325,0.436218 -0.5,0.969374 -0.825,0.533156 -1.95,0.969374 -2.5,0.969374 -0.55,0 -0.325,-0.436218 0.5,-0.969374 z m 13.5,-5 c -1.1,-0.472686 -1.474304,-0.891058 -0.831787,-0.929715 0.642516,-0.03866 1.953837,-0.371757 2.914044,-0.740224 1.143569,-0.438828 1.5101,-0.288514 1.062493,0.435728 -0.486923,0.787859 0.223551,0.845574 2.471766,0.200795 C 43.24639,12.782151 44.376082,11.515268 40.5,12.415088 l -3,0.69644 2.34277,-1.677447 c 1.288524,-0.922596 3.763524,-1.7983571 5.5,-1.9461366 1.736477,-0.1477794 3.446585,-0.3180222 3.800241,-0.3783172 0.353656,-0.060295 0.935522,-0.8718971 1.293035,-1.8035603 0.568386,-1.4811903 0.392666,-1.4610285 -1.399142,0.1605359 -1.127041,1.0199579 -2.28545,1.6181841 -2.574243,1.3293914 -0.981195,-0.9811948 4.690108,-3.9513488 6.337647,-3.319129 0.901302,0.3458621 1.310831,0.3009406 0.910065,-0.099825 C 52.570636,4.2373023 57.110265,-0.00437775 59.424314,0.03812191 62.506223,0.09472402 53.0066,8.651843 45.304557,12.756989 39.048179,16.091604 36.962534,16.487902 33.5,15 z M 23.445367,10.889888 19.5,9.1483272 27.916667,9.0741636 c 4.629166,-0.04079 8.227709,0.1147941 7.99676,0.3457425 -0.230948,0.2309483 -2.243033,1.0480239 -4.471299,1.8157249 -3.608263,1.243147 -4.482927,1.205331 -7.996761,-0.345743 z M 13.962226,6.0975465 C 12.058002,4.501197 10.734182,2.9545155 11.020403,2.6604764 11.306625,2.3664372 20.193047,1.9850413 30.768007,1.8129299 49.153167,1.5137045 49.896775,1.5756661 47.747604,3.2277642 c -1.908988,1.4674649 -4.637137,1.7311141 -18.108388,1.75 L 13.778432,5 16.139216,6.9667307 c 1.298431,1.0817019 2.118786,1.9817019 1.82301,2 -0.295776,0.018298 -2.095776,-1.2728348 -4,-2.8691842 z"
       id="path2825"
       style="fill:#626262" />
    <path
       d="M 61.419871,76.027494 C 63.558553,72.680992 63.401987,68.171569 61.01096,64.25 59.9211,62.4625 59.254397,61 59.529397,61 c 0.275,0 1.391703,1.4625 2.481563,3.25 2.569323,4.213995 2.533339,8.910695 -0.09109,11.889216 L 59.839742,78.5 61.419871,76.027494 z M 15.43257,68.109104 C 16.146025,66.954709 20,64.626427 20,65.349806 c 0,0.231096 -1.180406,1.193606 -2.623124,2.138911 -1.442718,0.945305 -2.317655,1.224479 -1.944306,0.620387 z M 26,62.606989 c 0,-0.216156 0.675,-0.652033 1.5,-0.968615 C 28.325,61.321791 29,61.498646 29,62.031385 29,62.564123 28.325,63 27.5,63 26.675,63 26,62.823145 26,62.606989 z m 5.8125,-0.290103 c 0.721875,-0.288871 1.584375,-0.253344 1.916667,0.07895 0.332291,0.332292 -0.258334,0.568641 -1.3125,0.52522 -1.164943,-0.04798 -1.4019,-0.284941 -0.604167,-0.604167 z m 4.9375,0.02083 c 0.6875,-0.277412 1.8125,-0.277412 2.5,0 0.6875,0.277413 0.125,0.504386 -1.25,0.504386 -1.375,0 -1.9375,-0.226973 -1.25,-0.504386 z m 7.5,-0.02705 c 0.9625,-0.251527 2.5375,-0.251527 3.5,0 0.9625,0.251528 0.175,0.457323 -1.75,0.457323 -1.925,0 -2.7125,-0.205795 -1.75,-0.457323 z M 47,51.606989 c 0,-0.216156 0.698372,-0.661002 1.551938,-0.988546 0.889925,-0.341496 1.291322,-0.173849 0.940983,0.393011 C 48.905663,51.961658 47,52.416902 47,51.606989 z m 4,-2.036621 c 0,-0.275 0.9,-0.981666 2,-1.570368 1.1,-0.588702 2,-0.845368 2,-0.570368 0,0.275 -0.9,0.981666 -2,1.570368 -1.1,0.588702 -2,0.845368 -2,0.570368 z m 7.405671,-5.659267 c 2.029162,-2.816162 2.501085,-4.469982 2.191799,-7.681005 -0.216784,-2.250658 -0.69827,-4.685653 -1.069969,-5.411101 -0.371699,-0.725447 0.03256,-0.445487 0.898342,0.622135 2.692939,3.320725 2.012333,9.064236 -1.515983,12.793093 L 55.819719,47.5 58.405671,43.911101 z M 7.5175593,41.671417 c -3.0322124,-2.90537 -4.4925453,-5.124731 -4.4414814,-6.75 0.065662,-2.08991 0.2442841,-1.956281 1.3047025,0.976066 0.6757436,1.868616 3.0040085,4.899421 5.1739221,6.735123 2.1699135,1.835702 3.6156995,3.344335 3.2128565,3.352517 -0.402842,0.0082 -2.765342,-1.932985 -5.2499997,-4.313706 z M 23.75,43.428025 C 22.2375,42.60748 21,41.69894 21,41.409046 c 0,-0.289894 0.531375,-0.198672 1.180833,0.202715 0.649459,0.401388 5.711959,0.734252 11.25,0.7397 l 10.069167,0.0099 -9,0.535499 -9,0.5355 10.5,0.588072 10.5,0.588071 -10,0.155709 C 29.285567,44.876551 25.733969,44.504346 23.75,43.428025 z M 46.5,42.99525 c -1.746004,-0.75443 -1.659912,-0.84556 0.677907,-0.717573 1.472848,0.08063 2.45879,0.501142 2.190983,0.934464 -0.267808,0.433323 -0.572866,0.756231 -0.677907,0.717574 C 48.585942,43.891058 47.6,43.470549 46.5,42.99525 z M 9.1033738,36.123507 C 8.1057299,34.312469 8.0596771,33.164439 8.9098233,31.298571 9.5233951,29.951928 9.7713195,28.439004 9.4607664,27.936519 9.1502133,27.434033 9.5775783,27.284407 10.410466,27.604016 c 1.341212,0.514672 1.331664,0.85991 -0.08352,3.019754 -0.8788247,1.341256 -1.3459569,2.690552 -1.038072,2.998437 0.846044,0.846045 43.699965,1.204869 44.215802,0.370228 0.528367,-0.854916 -2.04682,-3.239408 -5.340551,-4.945079 -1.578154,-0.817253 -7.660361,-1.173227 -18.75,-1.097385 -9.027769,0.06174 -16.413667,-0.239244 -16.413108,-0.668857 0.0011,-0.862955 9.288845,-6.305935 10.646363,-6.239198 C 24.116321,21.064969 22.925,21.946107 21,23 c -1.925,1.053893 -3.05,1.941922 -2.5,1.973397 0.55,0.03148 0.480341,0.387838 -0.154798,0.791916 C 17.710063,26.169391 22.531209,26.5 29.05886,26.5 42.155331,26.5 42.635159,25.931056 32.805793,22.057168 29.673979,20.822877 26.56695,20.149606 25.901284,20.56101 25.131506,21.036759 24.950691,20.888801 25.404508,20.154508 25.796948,19.519529 25.646079,19 25.069246,19 23.872119,19 10,10.272166 10,9.5189775 c 0,-0.2717744 2.5875,1.1628865 5.75,3.1881365 3.1625,2.025249 9.35,5.185186 13.75,7.022082 4.4,1.836896 10.025,4.302254 12.5,5.478574 2.475,1.176319 5.587378,2.623293 6.916394,3.215496 2.505925,1.116628 8.082602,6.223384 8.084938,7.403657 C 57.002065,36.197115 46.662773,36.275 34.025127,36 14.13671,35.56722 11.004899,35.701661 10.730049,37 10.5016,38.079154 10.045213,37.833241 9.1033738,36.123507 z M 37.5,15 c 2.749085,-1.181322 4.327966,-1.181322 2.5,0 -0.825,0.533156 -2.175,0.944637 -3,0.914402 C 36.010945,15.878155 36.18126,15.566682 37.5,15 z M 44,12.66246 c 0,-0.208003 2.7,-2.044722 6,-4.0815982 3.3,-2.036876 6,-4.3350047 6,-5.1069526 0,-1.421403 3.786306,-4.02093627 4.629088,-3.17815482 C 61.363151,1.0298182 51.853303,9.0245511 47.75,11.122937 45.6875,12.177678 44,12.870463 44,12.66246 z M 24.654508,11.25 C 24.399569,10.8375 25.385512,10.43104 26.845492,10.346756 28.305471,10.262471 30.85,9.9230538 32.5,9.5924945 l 3,-0.6010171 -3,1.4591576 C 29.224628,12.043729 25.386734,12.434766 24.654508,11.25 z M 6.0037043,5.5039431 C 4.7139962,4.1311117 3.8800204,2.7866462 4.1504247,2.5162419 4.420829,2.2458376 5.6360752,3.3690633 6.8509719,5.0122989 9.5419626,8.6520586 9.1661009,8.8701599 6.0037043,5.5039431 z M 13.655632,3.75 C 13.909953,3.3375 13.566476,3 12.89235,3 12.218224,3 11.854167,2.8875 12.083333,2.75 12.3125,2.6125 19.545761,2.725 28.157247,3 36.768734,3.275 43.63944,3.21875 43.425485,2.875 43.211529,2.53125 44.173087,2.25 45.562281,2.25 c 2.348705,0 2.396555,0.090531 0.682441,1.2911431 C 44.9028,4.4810619 40.156648,4.787091 28.797294,4.6661431 20.215059,4.5747644 13.401311,4.1625 13.655632,3.75 z"
       id="path2823"
       style="fill:#4c4c4c" />
    <path
       d="m 60,77.622445 c 0,-0.207656 0.7875,-0.995156 1.75,-1.75 C 63.336056,74.628574 63.371426,74.663944 62.127555,76.25 60.821186,77.915748 60,78.445479 60,77.622445 z m 3.078947,-9.205778 c 0.04798,-1.164943 0.284941,-1.4019 0.604167,-0.604167 0.288871,0.721875 0.253344,1.584375 -0.07895,1.916667 -0.332292,0.332291 -0.568641,-0.258334 -0.52522,-1.3125 z M 59.872445,62.25 C 58.628574,60.663944 58.663944,60.628574 60.25,61.872445 61.915748,63.178814 62.445479,64 61.622445,64 c -0.207656,0 -0.995156,-0.7875 -1.75,-1.75 z M 58.386477,44.173275 c 2.798268,-3.561886 3.428996,-8.616679 1.558357,-12.489016 -1.019285,-2.109982 -1.002282,-2.11825 0.5,-0.243129 2.68351,3.349507 1.986027,9.075387 -1.558357,12.793093 L 55.772954,47.5 58.386477,44.173275 z m -28.658781,0.104993 c 1.775232,-0.220912 4.925232,-0.224542 7,-0.0081 C 38.802463,44.486677 37.35,44.667423 33.5,44.67186 c -3.85,0.0044 -5.547537,-0.17268 -3.772304,-0.393592 z m 12.541336,0.02874 c 0.972967,-0.253543 2.322967,-0.236869 3,0.03705 C 45.946064,44.617986 45.15,44.825431 43.5,44.805051 41.85,44.784672 41.296064,44.560553 42.269032,44.307009 z M 6.1035922,40.465204 c -1.7069757,-1.944138 -3.0649135,-4.531638 -3.0176395,-5.75 0.071452,-1.841484 0.2321415,-1.726683 0.9524768,0.680474 0.4765883,1.592622 2.0971006,4.180122 3.6011385,5.75 C 9.1436059,42.715555 10.111608,44 9.7906834,44 9.4697589,44 7.8105679,42.409342 6.1035922,40.465204 z m 5.4034868,-5.45375 c -0.350339,-0.56686 0.05106,-0.734507 0.940983,-0.393011 C 14.180479,35.283234 14.497449,36 13.059017,36 12.541476,36 11.843104,35.555154 11.507079,35.011454 z M 9,31.289111 C 9,30.714789 9.7875,29.627289 10.75,28.872445 12.368755,27.602929 12.389977,27.649994 11.032968,29.5 10.2261,30.6 9.4385999,31.6875 9.2829677,31.916667 9.1273354,32.145833 9,31.863433 9,31.289111 z M 30,21 c -0.825,-0.533156 -1.05,-0.969374 -0.5,-0.969374 0.55,0 1.675,0.436218 2.5,0.969374 0.825,0.533156 1.05,0.969374 0.5,0.969374 -0.55,0 -1.675,-0.436218 -2.5,-0.969374 z M 46,11.624456 C 46,11.389659 47.602037,10.252327 49.560083,9.0970516 51.518128,7.9417765 52.839593,7.4505275 52.49667,8.0053873 51.826962,9.0889976 46,12.334995 46,11.624456 z M 31.473008,9.9563261 C 31.147935,9.4303467 31.808524,9 32.940983,9 c 2.414565,0 2.658155,0.5561115 0.591042,1.349337 -0.807386,0.309823 -1.733944,0.132968 -2.059017,-0.3930109 z M 56.567798,3.5 C 58.036067,1.575 59.722243,0 60.314856,0 60.907469,0 59.865783,1.575 58,3.5 56.134217,5.425 54.44804,7 54.252942,7 54.057843,7 55.099529,5.425 56.567798,3.5 z M 4.979944,4.475834 C 4.284224,3.6375427 3.9086586,2.758008 4.1453542,2.5213124 4.3820498,2.2846168 5.1249884,2.9704915 5.7963288,4.0454784 7.2481421,6.370201 6.7639571,6.6254382 4.979944,4.475834 z"
       id="path2821"
       style="fill:#3b3b3b" />
  </g>
  <g
     id="layer1" />
</svg>
