<?xml version="1.0" encoding="UTF-8" standalone="no"?>
<!-- Created with Inkscape (http://www.inkscape.org/) -->

<svg
   xmlns:dc="http://purl.org/dc/elements/1.1/"
   xmlns:cc="http://creativecommons.org/ns#"
   xmlns:rdf="http://www.w3.org/1999/02/22-rdf-syntax-ns#"
   xmlns:svg="http://www.w3.org/2000/svg"
   xmlns="http://www.w3.org/2000/svg"
   xmlns:sodipodi="http://sodipodi.sourceforge.net/DTD/sodipodi-0.dtd"
   xmlns:inkscape="http://www.inkscape.org/namespaces/inkscape"
   width="744.09448819"
   height="1052.3622047"
   id="svg3126"
   version="1.1"
   inkscape:version="0.47pre1 r21720"
   sodipodi:docname="New document 6"
   inkscape:output_extension="org.inkscape.output.svg.inkscape">
  <defs
     id="defs3128">
    <inkscape:perspective
       sodipodi:type="inkscape:persp3d"
       inkscape:vp_x="0 : 526.18109 : 1"
       inkscape:vp_y="0 : 1000 : 0"
       inkscape:vp_z="744.09448 : 526.18109 : 1"
       inkscape:persp3d-origin="372.04724 : 350.78739 : 1"
       id="perspective3134" />
    <inkscape:perspective
       id="perspective3070"
       inkscape:persp3d-origin="0.5 : 0.33333333 : 1"
       inkscape:vp_z="1 : 0.5 : 1"
       inkscape:vp_y="0 : 1000 : 0"
       inkscape:vp_x="0 : 0.5 : 1"
       sodipodi:type="inkscape:persp3d" />
    <pattern
       inkscape:stockid="Stripes 1:1"
       id="Strips1_1"
       patternTransform="matrix(20.470626,35.456163,-35.456163,20.470626,0,0)"
       height="1"
       width="2"
       patternUnits="userSpaceOnUse"
       inkscape:collect="always">
      <rect
         id="rect5098"
         height="2"
         width="1"
         y="-0.5"
         x="0"
         style="fill:black;stroke:none" />
    </pattern>
    <filter
       color-interpolation-filters="sRGB"
       inkscape:collect="always"
       id="filter5854">
      <feGaussianBlur
         inkscape:collect="always"
         stdDeviation="1.7600865"
         id="feGaussianBlur5856" />
    </filter>
    <filter
       color-interpolation-filters="sRGB"
       inkscape:collect="always"
       id="filter4374">
      <feGaussianBlur
         inkscape:collect="always"
         stdDeviation="4.1901708"
         id="feGaussianBlur4376" />
    </filter>
  </defs>
  <sodipodi:namedview
     id="base"
     pagecolor="#ffffff"
     bordercolor="#666666"
     borderopacity="1.0"
     inkscape:pageopacity="0.0"
     inkscape:pageshadow="2"
     inkscape:zoom="0.35"
     inkscape:cx="375"
     inkscape:cy="987.57463"
     inkscape:document-units="px"
     inkscape:current-layer="layer1"
     showgrid="false"
     inkscape:window-width="919"
     inkscape:window-height="593"
     inkscape:window-x="0"
     inkscape:window-y="25"
     inkscape:window-maximized="0" />
  <metadata
     id="metadata3131">
    <rdf:RDF>
      <cc:Work
         rdf:about="">
        <dc:format>image/svg+xml</dc:format>
        <dc:type
           rdf:resource="http://purl.org/dc/dcmitype/StillImage" />
        <dc:title></dc:title>
      </cc:Work>
    </rdf:RDF>
  </metadata>
  <g
     inkscape:label="Layer 1"
     inkscape:groupmode="layer"
     id="layer1">
    <g
       id="g6035"
       transform="matrix(1.7250419,0,0,2.3129065,-4157.5301,-6157.9579)">
      <g
         id="g5898">
        <path
           sodipodi:type="arc"
           style="fill:#424242;fill-opacity:1;fill-rule:nonzero;stroke:none;stroke-width:31.20000076;marker:none;visibility:visible;display:inline;overflow:visible;enable-background:accumulate"
           id="path3639"
           sodipodi:cx="-2672"
           sodipodi:cy="-659.63782"
           sodipodi:rx="880"
           sodipodi:ry="880"
           d="m -1792,-659.63782 c 0,486.01058 -393.9894,880 -880,880 -486.0106,0 -880,-393.98942 -880,-880 0,-486.01058 393.9894,-879.99998 880,-879.99998 486.0106,0 880,393.9894 880,879.99998 z"
           transform="matrix(0.1688925,0.108001,-0.108001,0.1688925,2976.8052,3315.8586)" />
        <path
           transform="matrix(0.145597,0.09310429,-0.09310429,0.145597,2924.3862,3260.6879)"
           d="m -1792,-659.63782 c 0,486.01058 -393.9894,880 -880,880 -486.0106,0 -880,-393.98942 -880,-880 0,-486.01058 393.9894,-879.99998 880,-879.99998 486.0106,0 880,393.9894 880,879.99998 z"
           sodipodi:ry="880"
           sodipodi:rx="880"
           sodipodi:cy="-659.63782"
           sodipodi:cx="-2672"
           id="path3641"
           style="fill:#818181;fill-opacity:1;fill-rule:nonzero;stroke:none;stroke-width:31.20000076;marker:none;visibility:visible;display:inline;overflow:visible;enable-background:accumulate"
           sodipodi:type="arc" />
      </g>
      <g
         transform="matrix(1.1144857,0,0,1.1144857,-317.93496,-875.71638)"
         id="g5858">
        <path
           style="fill:#000000;fill-opacity:1;fill-rule:evenodd;stroke:#000000;stroke-width:4.45499992;stroke-linecap:butt;stroke-linejoin:miter;stroke-miterlimit:4;stroke-opacity:1;stroke-dasharray:none;filter:url(#filter4374)"
           d="m 2641.8438,3199.1562 c -20.0837,-0.074 -23.4607,12.7865 -35.9688,12.9688 -13.802,0.201 -17.3376,-14.8211 -42.5,-10.75 -18.1792,5.8889 -23.5853,18.3708 -24.625,33.125 -0.1686,0.032 -0.3297,0.059 -0.5,0.094 l -1.125,11.6562 c 0.4981,-0.1973 1.0399,-0.3741 1.5625,-0.5312 0.4984,13.1107 2.5791,27.0521 1.3125,39.25 -0.1338,0.038 -0.273,0.054 -0.4062,0.094 -9.682,2.8471 -15.037,13.3967 -19.1876,22.75 -0.7433,0.9281 -1.4717,1.9112 -2.1562,2.9687 -1.0331,0.2307 -2.0529,0.4559 -3.4062,0.75 l 0.7187,2.1876 c -3.0119,1.6065 -6.371,3.6906 -9.2187,6.3124 -9.7192,9.8365 -21.393,29.1815 -13.5938,37.8126 3.6071,5.137 5.5502,8.2891 9.9375,14.4687 -0.5944,0.2084 -1.1933,0.3951 -1.8125,0.5625 2.7499,8.1693 9.9031,13.7924 18.2188,18.7812 0.6639,11.3915 3.2761,24.482 9.6562,40.875 -11.3568,22.2795 -19.3075,55.6515 -19.5938,73.8126 0.039,0.024 0.086,0.038 0.125,0.062 l 0.8438,45.7188 c 6.9024,23.6215 18.8248,9.7231 23.5,-1.75 l 4.7188,-43.7812 c 0.1283,-0.084 0.246,-0.1637 0.375,-0.25 2.6319,-9.7058 5.7557,-18.4125 9.125,-25.9688 13.5125,14.7694 6.7329,30.4876 17.5312,47 l 16,24 c 0.9145,-6.2339 2.7567,-11.0874 5.2812,-14.9062 3.0422,-3.2551 6.3869,-6.0753 8.9376,-8.4688 6.0356,-3.689 13.2906,-5.5247 20.6562,-7.2188 6.3994,14.2836 12.7947,28.6914 23.7188,37.0313 19.6791,13.1972 21.9689,-3.6805 19.5312,-15.4063 -1.727,-12.7805 -5.6842,-23.4793 -10.4688,-33.4062 15.7105,-12.8179 35.354,-8.5176 54.3438,-7.125 15.5197,1.9582 30.8793,4.1432 62,-16 6.978,-6.6668 12.1065,-13.3333 34.5,-20 9.8528,-2.4121 13.1945,-15.6759 19.5,-24 -23.0979,-22.1105 -48.0853,-26.4887 -74.5625,-24.2188 -28.5174,2.445 -49.9848,-16.3521 -68.2187,-47.1874 6.1929,-5.8866 13.314,-13.9239 13.4062,-22.7188 -1.8705,-9.1339 -4.2969,-19.3624 -8.9375,-25.7188 l 1.875,-1.375 c -0.3043,-0.4717 -0.5912,-0.8503 -0.875,-1.25 4.5864,-13.8187 -4.8533,-17.5452 -10.375,-23.3124 -0.2717,-0.1904 -0.5576,-0.3569 -0.8437,-0.5313 2.1288,0.6765 3.1332,1.316 5.2187,4.4063 -4.3252,-9.748 -4.239,-14.8308 -19.5,-18.625 l 0.5625,-0.2188 c 6.6032,-8.0796 11.7176,-20.3942 13.9062,-33.0312 0.581,0.1789 1.1564,0.3702 1.75,0.5624 l 0.4063,-10.5937 c -0.3463,-0.1235 -0.687,-0.2306 -1.0313,-0.3437 0.6882,-18.2235 -5.6756,-34.9013 -23.5312,-38.0938 -2.4642,-0.3129 -4.7036,-0.461 -6.7812,-0.4688 z m -124.25,158 c -2.0817,5.1148 -4.9349,8.9539 -8.4376,11.6563 3.5774,-3.0509 6.3452,-6.9965 8.4376,-11.6563 z"
           id="path4234" />
        <g
           id="g4156"
           transform="translate(0,1094)">
          <g
             id="g4158">
            <path
               style="fill:#ececec;fill-opacity:1;fill-rule:evenodd;stroke:#000000;stroke-width:4.45499992;stroke-linecap:butt;stroke-linejoin:miter;stroke-miterlimit:4;stroke-opacity:1;stroke-dasharray:none"
               d="m 2539.8787,2178.1122 c 3.7274,-30.3738 -14.9007,-72.3107 23.5,-84.75 25.1624,-4.071 28.698,10.951 42.5,10.75 13.802,-0.201 16.4651,-15.8373 42.75,-12.5 33.4961,5.989 26.5162,59.4556 8.5,81.5 l -44.25,18.5 -17.25,25.25 -17.75,-4 -25.75,-30.25 -12.25,-4.5 z"
               id="path4160"
               sodipodi:nodetypes="cczccccccc" />
            <path
               style="fill:#729fcf;fill-opacity:1;fill-rule:evenodd;stroke:#000000;stroke-width:4.45499992;stroke-linecap:butt;stroke-linejoin:miter;stroke-miterlimit:4;stroke-opacity:1;stroke-dasharray:none"
               d="m 2523.8787,2229.3622 c -1.3223,29.2179 -13.0758,49.3087 5,95.5 l 17.5,46 c 15.4773,15.2139 7.8286,31.4171 19,48.5 l 16,24 c 3.7476,-25.5453 23.0907,-27.6973 41,-32 l 24.5,-8.5 c 16.0422,-15.0949 36.6382,-10.4565 56.5,-9 15.5197,1.9583 30.8793,4.1432 62,-16 6.978,-6.6667 12.1065,-13.3333 34.5,-20 9.8528,-2.412 13.1945,-15.6759 19.5,-24 -23.0979,-22.1104 -48.0898,-26.4754 -74.567,-24.2054 -32.0864,2.7509 -55.2646,-21.3658 -74.933,-59.2946 l -15,-40.5 -36.5,14.5 c 0,0 -19.5,12.5 -22.5,12.5 -3,0 -42,-16 -42,-16 l -13.5,-7.5 -14.5,8.5 -2,7.5 z"
               id="path4162"
               sodipodi:nodetypes="cccccccccccscccscccc" />
            <path
               style="fill:#ececec;fill-opacity:1;stroke:#000000;stroke-width:4.45499992;stroke-linecap:round;stroke-linejoin:round;stroke-miterlimit:4;stroke-opacity:1;stroke-dasharray:none"
               d="m 2541.9184,2306.1881 c 7.4823,1.9127 17.7228,-12.1935 18.3536,-25.8058 16.1926,-1.1087 32.3853,-0.8766 48.5779,1.3119 -8.1647,6.7221 -15.4992,13.6435 8.95,28.193 0.408,1.6502 5.4085,-5.2596 5.7737,-2.2825 2.1327,17.3854 5.8755,61.7096 19.4708,81.8037 -7.2833,9.0408 -14.8564,17.6469 -32.5783,11.0297 -18.3785,-33.8823 -22.967,-57.1187 -30.3194,-59.953 -12.1989,-4.7026 -30.7319,18.401 -41.4306,57.8548 -11.8304,7.9247 -21.0224,5.2958 -29.5477,0 0.3877,-24.5968 14.7966,-77.1066 32.75,-92.1518 z"
               id="path4164"
               sodipodi:nodetypes="ccccsccsccc" />
            <path
               style="fill:#494949;fill-opacity:1;stroke:#000000;stroke-width:4.45499992;stroke-linecap:round;stroke-linejoin:round;stroke-miterlimit:4;stroke-opacity:1;stroke-dasharray:none"
               d="m 2509.2537,2397.4873 c 6.5523,4.488 15.256,8.5382 29.125,0.75 l -4.75,44.125 c -4.6752,11.4731 -16.5976,25.3715 -23.5,1.75 l -0.875,-46.625 z"
               id="path4166"
               sodipodi:nodetypes="ccccc" />
            <path
               sodipodi:nodetypes="ccccc"
               id="path4168"
               d="m 2610.355,2400.0788 c 6.1912,3.4797 24.6691,3.943 32.5351,-10.8602 7.354,13.3653 14.1744,27.2288 16.6018,45.1923 2.4377,11.7257 0.1458,28.6081 -19.5333,15.4109 -14.2129,-10.8506 -20.7103,-32.0083 -29.6036,-49.743 z"
               style="fill:#494949;fill-opacity:1;stroke:#000000;stroke-width:4.45499992;stroke-linecap:round;stroke-linejoin:round;stroke-miterlimit:4;stroke-opacity:1;stroke-dasharray:none" />
            <path
               style="fill:#2d5886;fill-opacity:1;stroke:#000000;stroke-width:4.45499992;stroke-linecap:round;stroke-linejoin:round;stroke-miterlimit:4;stroke-opacity:1;stroke-dasharray:none"
               d="m 2506.3399,2212.0173 c 3.277,-3.0171 7.2664,-5.3244 10.5789,-7.0083 9.3676,-16.8578 26.3457,-18.7022 34.8286,-19.2734 20.3286,2.1182 21.4593,13.8354 28.8236,22.4357 l 18.7535,0.664 c 9.6808,-12.5204 23.9905,-19.4862 40.7263,-23.5407 -1.1932,0.3703 20.9865,-4.6575 31.6469,2.8101 5.855,6.1153 16.1022,9.9271 9.3764,25.9192 4.6407,6.3564 7.0637,16.5789 8.9342,25.7128 -0.1461,13.9437 -18.0437,25.9908 -21.7174,30.5647 -1.8783,2.3385 -16.9116,-8.318 -20.1931,-25.374 l 1.4802,-5.1933 c -4.5577,-4.0544 -4.5764,-8.1088 -5.5725,-12.1632 -13.7721,21.3122 -23.6779,37.8229 -22.4071,48.7931 -21.9716,-9.065 -50.2736,-9.7597 -76.3676,-2.4749 l -0.8914,-16.4206 -8.9013,-20.1587 c -3.6495,2.5775 -7.8925,5.8117 -12.9104,4.7402 l -2.592,0.7369 c -3.0421,10.1451 -8.2411,17.9535 -16.9327,21.9784 -4.6379,-6.5089 -6.5568,-9.6591 -10.2583,-14.9306 -7.7993,-8.631 3.8761,-27.981 13.5952,-37.8174 z"
               id="path4170"
               sodipodi:nodetypes="cccccccccscccccccccccc" />
            <path
               style="fill:#729fcf;fill-opacity:1;fill-rule:evenodd;stroke:#000000;stroke-width:4.45499992;stroke-linecap:butt;stroke-linejoin:miter;stroke-miterlimit:4;stroke-opacity:1;stroke-dasharray:none"
               d="m 2593.5124,2209.2192 7.6014,0.1768 c 9.4666,-8.6891 16.2505,-26.1653 65.3859,-23.1881 5.802,1.9762 6.4296,1.1267 9.5637,5.7708 -4.5279,-10.205 -4.1722,-15.3107 -21.7058,-19.1629 -17.5336,-3.8523 -38.1209,1.006 -60.8452,36.4034 z"
               id="path4172"
               sodipodi:nodetypes="cccczc" />
            <path
               sodipodi:nodetypes="cccczc"
               id="path4174"
               d="m 2587.5634,2208.9692 -6.3514,-0.3232 c -9.4666,-8.6891 -22.0715,-27.597 -50.5109,-16.1881 -5.802,1.9762 -9.4296,7.8767 -12.5637,12.5208 4.5279,-10.205 9.9279,-24.523 21.4558,-27.9129 11.5978,-3.4105 25.2459,-3.494 47.9702,31.9034 z"
               style="fill:#729fcf;fill-opacity:1;fill-rule:evenodd;stroke:#000000;stroke-width:4.45499992;stroke-linecap:butt;stroke-linejoin:miter;stroke-miterlimit:4;stroke-opacity:1;stroke-dasharray:none" />
            <path
               style="fill:#000000;fill-opacity:1;stroke:#000000;stroke-width:4.45499992;stroke-linecap:round;stroke-linejoin:round;stroke-miterlimit:4;stroke-opacity:1;stroke-dasharray:none"
               d="m 2556.1911,2270.7071 c 16.7371,-1.6921 30.4354,-6.0974 59.6926,3.3891 l -7.3667,8.4549 c -20.1874,-2.7115 -36.4488,-2.3857 -53.033,-1.9445 l 0.7071,-9.8995 z"
               id="path4176"
               sodipodi:nodetypes="ccccc" />
            <path
               sodipodi:nodetypes="cccccccc"
               id="path4178"
               d="m 2631.3114,2299.2237 c -0.1953,5.7217 -8.1898,9.1815 -11.9853,11.753 -9.3354,-6.2493 -21.7435,-12.9102 -18.2028,-21.7947 -0.2011,-2.9883 11.1749,-19.6518 20.185,-13.4571 9.2576,-16.0487 18.0256,-25.2437 26.6201,-32.0091 3.1012,12.8645 10.4365,23.9126 19.6651,26.4077 -9.2677,11.671 -21.7094,16.7782 -35.575,24.8575 l -0.7071,4.2427 z"
               style="fill:#494949;fill-opacity:1;fill-rule:evenodd;stroke:#000000;stroke-width:4.45499992;stroke-linecap:butt;stroke-linejoin:miter;stroke-miterlimit:4;stroke-opacity:1;stroke-dasharray:none" />
            <path
               style="fill:#494949;fill-opacity:1;fill-rule:evenodd;stroke:#000000;stroke-width:4.45499992;stroke-linecap:butt;stroke-linejoin:miter;stroke-miterlimit:4;stroke-opacity:1;stroke-dasharray:none"
               d="m 2536.392,2297.2237 c 0.1953,5.7217 4.6898,7.6815 8.4853,10.253 9.3354,-6.2493 18.9935,-11.0352 15.4528,-32.9197 -4.4239,-1.9883 -5.9249,-3.7768 -13.685,-2.0821 -5.7063,-8.0946 -15.8179,-29.5333 -26.9585,-29.9636 -3.1012,12.8645 -9.5981,19.8671 -18.8267,22.3622 4.5177,13.421 20.9594,20.0282 34.825,28.1075 l 0.7071,4.2427 z"
               id="path4180"
               sodipodi:nodetypes="cccccccc" />
          </g>
          <path
             style="opacity:0.06796115;fill:#000000;fill-opacity:1;fill-rule:evenodd;stroke:none"
             d="m 2795.5,2356.2372 c -18.0615,-11.697 -39.6116,-27.2741 -67,-27.875 -10.0422,-0.2148 -35.0554,-8.0795 -46.5,-21.75 -11.3423,-13.5482 -14.5189,-25.7418 -21.7428,-34.0067 -8.3125,-9.5104 -14.2572,1.2567 -14.2572,1.2567 0,0 12.4184,28.4297 20,37.5 7.5816,9.0703 17.6246,16.8472 28.5,22.5 10.8754,5.6528 29.9486,7.3862 43.75,14.25 14.1019,7.0132 31.625,23.625 31.625,23.625 l 25.625,-15.5 z"
             id="path4182"
             sodipodi:nodetypes="cszsczzzcc" />
          <path
             style="fill:#000000;fill-opacity:1;stroke:none"
             d="m 2538.246,2126.5858 c 8.8611,-1.8293 15.4377,0.1127 22.2259,-3.482 6.7882,-3.5947 10.5837,-4.5864 16.2612,-5.1489 12.9387,-1.2818 13.032,7.9325 24.4127,6.9206 11.7316,-1.0431 8.6103,-3.6296 15.0391,-5.3621 8.3693,-2.2555 19.3865,-2.1055 28.7907,4.9042 8.6484,2.9954 17.977,1.9942 28.2022,5.6399 l -0.4005,10.5902 c -12.5619,-4.0676 -22.2874,-5.2353 -29.2388,-0.6117 -23.6249,15.7136 -35.9199,-0.5811 -42.9377,-1.0848 -7.0178,-0.5037 -8.3854,2.4178 -14.1295,4.431 -7.7984,2.7333 -17.0738,4.751 -25.0131,-2.6645 -7.1742,-3.9364 -17.1215,-5.332 -24.3198,-2.4811 l 1.1076,-11.6508 z"
             id="path4184"
             sodipodi:nodetypes="czszscccszsccc" />
          <path
             style="fill:#000000;fill-opacity:1;fill-rule:evenodd;stroke:none"
             d="m 2540.4822,2223.4097 c -3.7936,11.2869 -7.413,15.4055 -12.6483,16.6884 -5.2353,1.283 -11.1775,-0.819 -16.7187,-4.2812 -4.088,-2.1395 -5.1969,-1.6723 -1.75,2.7812 5.9227,3.7006 12.6812,6.2973 19.25,4.6876 6.5687,-1.6098 12.4124,-7.4613 16.4062,-19.3438 2.4089,-14.1447 -1.8669,-5.7947 -4.5392,-0.5322 z"
             id="path4186"
             sodipodi:nodetypes="csccscc" />
          <path
             style="fill:#000000;fill-opacity:1;fill-rule:evenodd;stroke:none"
             d="m 2530.0526,2202.3837 c -6.2822,-1.1945 -8.0065,-0.4181 -15.2088,1.1475 l 1.375,4.25 c 6.7294,-1.7001 8.0204,-2.5525 13.8338,-5.3975 z"
             id="path4188"
             sodipodi:nodetypes="cccc" />
          <path
             sodipodi:nodetypes="cccc"
             id="path4190"
             d="m 2672.5976,2202.3406 c 0.8769,6.3344 2.9594,6.6592 6.7457,12.9828 l 3.5872,-2.6617 c -3.7625,-5.8325 -5.7785,-5.7225 -10.3329,-10.3211 z"
             style="fill:#000000;fill-opacity:1;fill-rule:evenodd;stroke:none" />
          <path
             style="opacity:0.33495148;fill:#000000;fill-opacity:1;stroke:none"
             d="m 2537.0992,2236.4124 8.1317,-16.0867 c 5.6821,10.1941 7.7209,28.5945 9.1923,48.6137 l -7.071,1.9445 -10.253,-34.4715 z"
             id="path4192"
             sodipodi:nodetypes="ccccc" />
          <path
             sodipodi:nodetypes="ccccc"
             id="path4194"
             d="m 2643.6955,2226.8664 -2.2982,-9.1924 c -12.2228,8.4263 -25.3986,33.7211 -26.87,53.7403 l 4.2426,1.5909 24.9256,-46.1388 z"
             style="opacity:0.33495148;fill:#000000;fill-opacity:1;stroke:none" />
          <path
             style="opacity:0.34951459;fill:#000000;fill-opacity:1;stroke:none"
             d="m 2652.7113,2264.6966 c 2.4001,2.8974 5.5174,6.8302 8.8388,7.4246 -9.7817,11.0494 -18.8562,13.1267 -28.6378,19.0919 l -6.0104,-6.7176 c 9.5316,-5.9806 19.0406,-11.9763 25.8094,-19.7989 z"
             id="path4196"
             sodipodi:nodetypes="ccccc" />
          <path
             sodipodi:nodetypes="ccccc"
             id="path4198"
             d="m 2519.6868,2252.8525 c 1.3394,-2.8478 1.7167,-3.9532 2.1213,-6.7175 7.0663,3.639 14.1697,14.4703 22.8926,28.9914 l -3.7123,6.8058 c -6.2015,-14.9962 -19.2316,-24.0855 -21.3016,-29.0797 z"
             style="opacity:0.34951459;fill:#000000;fill-opacity:1;stroke:none" />
          <path
             style="opacity:0.12135919;fill:#ffffff;fill-opacity:1;stroke:none"
             d="m 2543.3749,2280.96 c 1.3394,-2.8478 1.8051,-2.9809 2.2097,-5.7452 4.945,-0.7804 5.9571,-0.7629 10.0423,0.034 l 2.3321,4.9156 c -4.0801,-0.6772 -10.216,-0.1322 -14.5841,0.7956 z"
             id="path4200"
             sodipodi:nodetypes="ccccc" />
          <path
             style="opacity:0.12135919;fill:#ffffff;fill-opacity:1;stroke:none"
             d="m 2617.4887,2276.956 c 1.287,-0.1352 2.9851,1.0608 4.5075,2.5733 -6.2745,0.4459 -12.051,5.8606 -15.3802,13.6109 -2.762,0.8053 -3.6293,-0.4194 -3.0932,-3.1478 3.7021,-7.263 7.9133,-12.5901 13.9659,-13.0364 z"
             id="path4202"
             sodipodi:nodetypes="ccccc" />
          <path
             style="fill:#000000;fill-opacity:1;fill-rule:evenodd;stroke:none"
             d="m 2652.7065,2230.0846 c -4.6152,4.4265 -3.6564,6.3035 -6.5559,13.0797 l 4.26,1.3433 c 2.5158,-6.4688 1.2439,-8.0368 2.2959,-14.423 z"
             id="path4204"
             sodipodi:nodetypes="cccc" />
          <path
             style="opacity:0.06796115;fill:#000000;fill-opacity:1;fill-rule:evenodd;stroke:none"
             d="m 2727.5303,2392.8345 c 1.963,-0.8179 -28.6977,-26.1678 -51.2218,-39.3154 -22.5241,-13.1477 -40.8085,-69.6569 -40.8085,-69.6569 l -4,9 c 14.2361,34.2439 17.9411,53.136 27.875,63.25 9.7556,9.9325 30.1841,22.1453 37.1345,36.7197 l 31.0208,0 z"
             id="path4206"
             sodipodi:nodetypes="czcczcc" />
          <path
             style="opacity:0.10679614;fill:#000000;fill-opacity:1;fill-rule:evenodd;stroke:none"
             d="m 2596.5,2419.1122 c -2.5135,1.6569 -17.7135,-13.5231 -18.0806,-29.853 -0.503,-22.3785 -18.155,-29.5478 -23.3477,-29.1145 l -6.5717,10.2175 c 4.1717,6.8193 9.9682,14.5003 12.375,32.375 2.4068,17.8747 13.6875,28.5972 19,35.875 2.978,-8.0918 11.8083,-14.8055 16.625,-19.5 z"
             id="path4208"
             sodipodi:nodetypes="cscczcc" />
          <path
             sodipodi:type="arc"
             style="fill:#f7f7f7;fill-opacity:1;stroke:none"
             id="path4210"
             sodipodi:cx="2577.875"
             sodipodi:cy="2131.3623"
             sodipodi:rx="9.125"
             sodipodi:ry="4"
             d="m 2587,2131.3623 c 0,2.2091 -4.0854,4 -9.125,4 -5.0396,0 -9.125,-1.7909 -9.125,-4 0,-2.2091 4.0854,-4 9.125,-4 5.0396,0 9.125,1.7909 9.125,4 z"
             transform="matrix(1.3287671,0,0,1.3287671,-849.02055,-700.47186)" />
          <path
             transform="matrix(1.3287671,0,0,1.3287671,-800.77055,-699.97186)"
             d="m 2587,2131.3623 c 0,2.2091 -4.0854,4 -9.125,4 -5.0396,0 -9.125,-1.7909 -9.125,-4 0,-2.2091 4.0854,-4 9.125,-4 5.0396,0 9.125,1.7909 9.125,4 z"
             sodipodi:ry="4"
             sodipodi:rx="9.125"
             sodipodi:cy="2131.3623"
             sodipodi:cx="2577.875"
             id="path4212"
             style="fill:#f7f7f7;fill-opacity:1;stroke:none"
             sodipodi:type="arc" />
          <path
             style="fill:#c4d7ec;fill-opacity:1;fill-rule:nonzero;stroke:none;stroke-width:2;marker:none;visibility:visible;display:inline;overflow:visible;enable-background:accumulate"
             d="m 2573.2009,2224.1897 c -6.1545,0.2269 -11.2961,5.0876 -11.7037,11.3614 -0.4347,6.6922 4.6694,12.5008 11.3614,12.9357 6.6921,0.4347 12.5236,-4.6694 12.9586,-11.3614 0.4349,-6.6924 -4.6695,-12.5009 -11.3616,-12.9357 -0.4182,-0.027 -0.8444,-0.015 -1.2547,0 z m 0.2052,5.8176 c 0.2152,-0.01 0.4421,-0.014 0.6616,0 3.5147,0.2283 6.1602,3.2383 5.9317,6.753 -0.2284,3.5145 -3.2383,6.1599 -6.753,5.9318 -3.5145,-0.2286 -6.16,-3.2385 -5.9316,-6.7531 0.214,-3.2951 2.8642,-5.8169 6.0913,-5.9317 z"
             id="path4214" />
          <path
             style="fill:#c4d7ec;fill-opacity:1;fill-rule:nonzero;stroke:none;stroke-width:2;marker:none;visibility:visible;display:inline;overflow:visible;enable-background:accumulate"
             d="m 2597.0642,2226.0438 c -3.652,-0.4679 -7.0145,1.9956 -7.7595,5.5434 -3e-4,0 -4e-4,0 -9e-4,0.01 -0.048,0.1181 -0.08,0.2423 -0.094,0.369 l -1.8347,14.3181 c -0.098,0.7741 0.4491,1.4815 1.223,1.5822 l 2.5791,0.3305 c 0.774,0.098 1.4815,-0.4491 1.582,-1.2228 l 1.8044,-14.0818 c 0.015,-0.052 0.027,-0.1042 0.036,-0.1573 0.1554,-0.8392 0.9129,-1.4078 1.7745,-1.2973 0.8616,0.1104 1.4511,0.8516 1.3902,1.7028 0,0.031 0,0.062 0,0.094 l -0.549,4.2847 c -0.098,0.7741 0.449,1.4815 1.2229,1.5821 l 2.5791,0.3304 c 0.774,0.098 1.4815,-0.449 1.5822,-1.2226 l 0.5403,-4.2179 c 0.015,-0.052 0.027,-0.1044 0.036,-0.1573 0.1558,-0.8419 0.9077,-1.4085 1.7694,-1.2981 0.8615,0.1104 1.4511,0.8515 1.3902,1.7029 0,0.056 0,0.1115 -6e-4,0.1669 l -1.8036,14.0768 c -0.098,0.7741 0.449,1.4815 1.2228,1.5822 l 2.5737,0.3298 c 0.7743,0.098 1.4817,-0.449 1.5823,-1.223 l 1.8346,-14.318 c 0.014,-0.118 0.014,-0.2374 0,-0.3552 0.1902,-3.6335 -2.4451,-6.8822 -6.1076,-7.3517 -1.6097,-0.2061 -3.1707,0.1494 -4.4729,0.9205 -1.0656,-1.0739 -2.4866,-1.8122 -4.0964,-2.0184 z"
             id="path4216" />
          <path
             style="fill:#c4d7ec;fill-opacity:1;stroke:none"
             d="m 2564.1265,2251.2752 c 0,0 11.4139,-0.4199 22.564,0.1662 11.2231,0.5899 22.8569,3.3891 22.8569,3.3891 l -0.1642,3.7909 c 0,0 -12.0884,-2.4896 -22.857,-3.3891 -10.6958,-0.8935 -22.5639,-0.166 -22.5639,-0.166 l 0.1642,-3.7911 z"
             id="path4218"
             sodipodi:nodetypes="czcczcc" />
          <path
             sodipodi:nodetypes="czcczcc"
             id="path4220"
             d="m 2564.1265,2217.8745 c 0,0 11.4139,-0.4199 22.564,0.1662 11.2231,0.5898 27.8377,3.975 27.8377,3.975 l -0.1642,3.7909 c 0,0 -17.0692,-3.0755 -27.8378,-3.975 -10.6958,-0.8935 -22.5639,-0.1661 -22.5639,-0.1661 l 0.1642,-3.791 z"
             style="fill:#c4d7ec;fill-opacity:1;stroke:none" />
          <path
             style="opacity:0.33495148;fill:#000000;fill-opacity:1;stroke:none"
             d="m 2535.0008,2403.2226 c -1.7874,1.041 -4.3247,2.0821 -6.8121,2.4231 l -2.7652,44.2689 c 2.2284,-1.8992 4.1354,-5.084 5.6568,-9.8111 l 3.9205,-36.8809 z"
             id="path4222"
             sodipodi:nodetypes="ccccc" />
          <path
             sodipodi:nodetypes="ccccc"
             id="path4224"
             d="m 2616.2059,2404.8808 c 2.0456,0.3062 4.1693,0.3352 6.6065,-0.2679 l 23.2715,44.7041 c -2.7728,-0.9404 -8.9926,-6.5531 -12.1543,-10.3824 -7.0851,-10.1819 -10.3415,-17.2863 -17.7237,-34.0538 z"
             style="opacity:0.22330095;fill:#ffffff;fill-opacity:1;stroke:none" />
          <path
             style="opacity:0.40291263;fill:#ffffff;fill-opacity:1;fill-rule:evenodd;stroke:none"
             d="m 2531.875,2185.7372 c 4.4164,-3.5477 6.923,-5.9689 15.75,-7 9.2965,-0.5465 12.5182,4.9818 18.25,8 -10.4027,-6.487 -22.433,-7.204 -34,-1 z"
             id="path4226"
             sodipodi:nodetypes="cccc" />
          <path
             sodipodi:nodetypes="cccc"
             id="path4228"
             d="m 2605.7694,2198.1588 c 2.6147,-5.0254 15.0716,-15.1451 22.7368,-19.6422 8.29,-4.2425 9.7522,-1.3627 16.2141,-0.9071 -12.134,-1.7507 -30.8598,10.2139 -38.9509,20.5493 z"
             style="opacity:0.30582521;fill:#ffffff;fill-opacity:1;fill-rule:evenodd;stroke:none" />
        </g>
      </g>
    </g>
    <path
       style="opacity:0.20873784;fill:#000000;fill-opacity:1;fill-rule:evenodd;stroke:none"
       d="m 394.48868,233.49091 c 21.58475,-69.65341 29.82045,-118.46013 18.29682,-180.310948 0.50597,-1.582722 7.8398,5.999208 12.13465,25.24977 4.45957,19.9879 6.99659,42.799178 3.41764,71.243298 -3.57894,28.44413 -14.82191,65.97033 -23.28427,81.05072 -6.19876,11.04645 -10.56484,2.76716 -10.56484,2.76716 z"
       id="path6097"
       sodipodi:nodetypes="ccszsc" />
    <path
       sodipodi:nodetypes="csccc"
       id="path6099"
       d="m 368.79453,801.30947 c 0.31361,-8.27281 10.34007,-5.27713 6.94656,-12.73833 -20.40707,-44.86785 -34.52223,-164.34659 -39.10307,-205.92779 -4.45958,19.98791 -9.58416,1.16686 -20.66808,-0.4568 2.18011,11.53816 18.31823,177.87338 52.82459,219.12292 z"
       style="opacity:0.20873784;fill:#000000;fill-opacity:1;fill-rule:evenodd;stroke:none" />
  </g>
</svg>
