<?xml version="1.0" encoding="UTF-8" standalone="no"?>
<!-- Created with Inkscape (http://www.inkscape.org/) -->

<svg
   xmlns:dc="http://purl.org/dc/elements/1.1/"
   xmlns:cc="http://creativecommons.org/ns#"
   xmlns:rdf="http://www.w3.org/1999/02/22-rdf-syntax-ns#"
   xmlns:svg="http://www.w3.org/2000/svg"
   xmlns="http://www.w3.org/2000/svg"
   xmlns:sodipodi="http://sodipodi.sourceforge.net/DTD/sodipodi-0.dtd"
   xmlns:inkscape="http://www.inkscape.org/namespaces/inkscape"
   id="svg2"
   version="1.1"
   inkscape:version="0.47 r22583"
   width="250"
   height="250"
   sodipodi:docname="upper_implant.svg">
  <metadata
     id="metadata8">
    <rdf:RDF>
      <cc:Work
         rdf:about="">
        <dc:format>image/svg+xml</dc:format>
        <dc:type
           rdf:resource="http://purl.org/dc/dcmitype/StillImage" />
        <dc:title />
      </cc:Work>
    </rdf:RDF>
  </metadata>
  <defs
     id="defs6">
    <inkscape:perspective
       sodipodi:type="inkscape:persp3d"
       inkscape:vp_x="0 : 0.5 : 1"
       inkscape:vp_y="0 : 1000 : 0"
       inkscape:vp_z="1 : 0.5 : 1"
       inkscape:persp3d-origin="0.5 : 0.33333333 : 1"
       id="perspective10" />
  </defs>
  <sodipodi:namedview
     pagecolor="#ffffff"
     bordercolor="#666666"
     borderopacity="1"
     objecttolerance="10"
     gridtolerance="10"
     guidetolerance="10"
     inkscape:pageopacity="0"
     inkscape:pageshadow="2"
     inkscape:window-width="1366"
     inkscape:window-height="722"
     id="namedview4"
     showgrid="false"
     inkscape:zoom="2"
     inkscape:cx="125"
     inkscape:cy="126.76424"
     inkscape:window-x="0"
     inkscape:window-y="25"
     inkscape:window-maximized="1"
     inkscape:current-layer="svg2" />
  <g
     id="g2818"
     transform="matrix(1.593167,0,0,-1,-73.468191,219.72632)">
    <path
       style="fill:#cdcbcc"
       d="m 122.26375,214.28242 c 1.52006,-0.22986 3.77006,-0.22371 5,0.0136 1.22994,0.23736 -0.0138,0.42542 -2.76375,0.41792 -2.75,-0.008 -3.75631,-0.20172 -2.23625,-0.43157 z m 14.81958,-2.57287 C 137.3125,211.5498 139.3,210.16733 141.5,208.6374 l 4,-2.78171 -3.46223,3.07216 C 140.13355,210.61753 138.14605,212 137.62111,212 c -0.52494,0 -0.76694,-0.1307 -0.53778,-0.29045 z M 102.87244,206.25 c -1.24387,-1.58606 -1.2085,-1.62143 0.37756,-0.37756 0.9625,0.75485 1.75,1.54235 1.75,1.75 0,0.82304 -0.82119,0.29331 -2.12756,-1.37244 z m -4.857127,-7.42245 c -0.01586,-1.73209 3.344057,-3.17356 10.225937,-4.38711 2.05769,-0.36286 3.56435,-0.9479 3.34814,-1.30009 -0.21622,-0.35219 4.51272,-0.65956 10.50875,-0.68304 7.80102,-0.0305 10.90186,0.29665 10.90186,1.15035 0,0.76626 -1.57604,1.13925 -4.40588,1.04268 -2.42324,-0.0827 -4.23615,0.12329 -4.0287,0.45774 0.41417,0.6677 -9.74536,1.86816 -18.87303,2.23005 -3.81044,0.15108 -6.126416,0.73433 -6.734685,1.69606 -0.784617,1.24056 -0.929433,1.20881 -0.942392,-0.20664 z m 16.713857,-3.43172 c -0.3323,-0.33229 -1.1948,-0.36781 -1.91667,-0.0789 -0.79773,0.31922 -0.56078,0.55618 0.60417,0.60416 1.05416,0.0434 1.64479,-0.19293 1.3125,-0.52522 z M 145,198.05902 c 0,-0.51754 0.44485,-1.21592 0.98855,-1.55194 0.56686,-0.35034 0.7345,0.0511 0.39301,0.94098 C 145.71677,199.18048 145,199.49745 145,198.05902 z m -1.49292,-7.04757 c -0.35034,-0.56686 0.0511,-0.7345 0.94098,-0.39301 1.73242,0.66479 2.04939,1.38156 0.61096,1.38156 -0.51754,0 -1.21592,-0.44485 -1.55194,-0.98855 z M 96,184.55902 c 0,-0.79254 0.353571,-1.65951 0.785714,-1.92658 0.432143,-0.26708 0.785715,0.38136 0.785715,1.44098 0,1.05962 -0.353572,1.92658 -0.785715,1.92658 C 96.353571,186 96,185.35156 96,184.55902 z m 6.45866,-3.6259 c -0.36265,-0.58679 -0.0517,-0.95796 0.69099,-0.82482 0.74269,0.13313 3.15035,-0.26108 5.35035,-0.87602 5.91226,-1.65259 25.5,-2.75926 25.5,-1.44071 0,0.58549 -2.5875,1.35415 -5.75,1.70815 -3.1625,0.354 -8.19515,1.06138 -11.18366,1.57196 -7.24272,1.23739 -13.7957,1.17523 -14.60768,-0.13856 z m 41.62029,-6.51645 c 0.048,-1.16495 0.28494,-1.4019 0.60416,-0.60417 0.28887,0.72187 0.25335,1.58437 -0.0789,1.91667 -0.3323,0.33229 -0.56864,-0.25834 -0.52522,-1.3125 z m -48.794228,-5.77084 c 0.531327,-1.59398 2.381945,-1.85835 2.381945,-0.34027 0,0.74861 -0.6125,1.36111 -1.361111,1.36111 -0.748612,0 -1.207987,-0.45938 -1.020834,-1.02084 z M 147.5,168 c 0.99549,-1.1 2.03498,-2 2.30998,-2 0.275,0 -0.31449,0.9 -1.30998,2 -0.99549,1.1 -2.03498,2 -2.30998,2 -0.275,0 0.31449,-0.9 1.30998,-2 z m -36.5,0 c 0,-0.55856 -2.72222,-1 -6.16667,-1 -3.39166,0 -5.932597,-0.23407 -5.646515,-0.52015 2.275275,-2.27527 40.740575,-5.78942 39.386385,-3.5983 -0.38018,0.61515 -2.31532,1.11845 -4.3003,1.11845 -3.30055,0 -13.20889,1.35086 -19.22075,2.62047 -1.93622,0.4089 -2.14523,0.70839 -1,1.43293 1.12726,0.71315 0.94964,0.91937 -0.80215,0.93129 C 112.0125,168.99311 111,168.55 111,168 z m 41.71025,-4 c 0.28766,-1.1 0.69553,-2 0.90638,-2 0.21085,0 0.38337,0.9 0.38337,2 0,1.1 -0.40787,2 -0.90638,2 -0.49851,0 -0.67103,-0.9 -0.38337,-2 z M 95.267634,154.58287 C 95.395435,153.52844 96.175,152.48168 97,152.25674 c 0.964776,-0.26307 1.107483,-0.11423 0.399944,0.41713 -0.605031,0.45437 -1.384595,1.50113 -1.732366,2.32613 -0.444282,1.05395 -0.563212,0.92991 -0.399944,-0.41713 z M 108.63837,153.5 c 0.46116,-1.20175 -0.39013,-1.5126 -4.28138,-1.56339 -4.26634,-0.0557 -4.552969,-0.18487 -2.35699,-1.06242 1.375,-0.54947 4.075,-0.72925 6,-0.39951 2.34692,0.40201 3.03758,0.28949 2.09639,-0.34154 -1.57518,-1.05608 4.58209,-1.77122 21.90361,-2.54402 13.41323,-0.59843 8.23216,0.65541 -14.79303,3.57998 -0.71117,0.0903 -1.07708,0.72699 -0.81315,1.41481 0.57422,1.49637 -1.4982,2.41609 -5.44422,2.41609 -2.15523,0 -2.74096,-0.38014 -2.31123,-1.5 z M 146.75,146.33772 c 0.6875,-0.27741 1.8125,-0.27741 2.5,0 0.6875,0.27741 0.125,0.50439 -1.25,0.50439 -1.375,0 -1.9375,-0.22698 -1.25,-0.50439 z M 95.315355,140.07833 C 95.41691,138.74641 96.175,137.47465 97,137.2522 c 0.991104,-0.26724 1.115167,-0.12419 0.365682,0.42167 -0.623875,0.45437 -1.381965,1.72613 -1.684645,2.82613 -0.433933,1.577 -0.511275,1.48782 -0.365682,-0.42167 z M 107.9217,139.14631 C 109.02804,137.07909 108.87869,137 103.86852,137 c -5.661707,0 -6.046914,-0.86905 -0.71281,-1.60813 1.83936,-0.25486 5.36929,-0.84808 7.84429,-1.31826 2.475,-0.47018 7.875,-0.94125 12,-1.04682 4.125,-0.10556 9.19115,-0.34271 11.25811,-0.527 2.10944,-0.18807 3.50932,0.0675 3.19099,0.58258 -0.31193,0.50469 -2.03293,0.91763 -3.82446,0.91763 -3.49908,0 -14.60716,1.87329 -15.9232,2.68532 -0.43921,0.27101 -0.27161,1.12767 0.37245,1.90371 0.97353,1.17304 0.51799,1.41327 -2.70145,1.42462 -2.12984,0.008 -4.93601,0.29835 -6.23593,0.64631 -2.16211,0.57875 -2.26561,0.44979 -1.21481,-1.51365 z m -1.18063,-13.80561 c 2.11062,-0.85272 -1.04616,-3.15217 -4.84542,-3.52949 -2.911216,-0.28912 -2.468339,-0.52517 3.10435,-1.65456 7.98317,-1.61791 27.48471,-2.61826 24.37889,-1.25054 -1.1666,0.51374 -3.86456,1.10394 -5.99546,1.31155 -2.87868,0.28046 -3.9695,0.87922 -4.24458,2.3299 -0.53734,2.83383 -1.98083,3.42943 -8.13885,3.35818 -3.025,-0.035 -4.94152,-0.28927 -4.25893,-0.56504 z m 47.33788,-5.92403 c 0.048,-1.16495 0.28494,-1.4019 0.60416,-0.60417 0.28887,0.72187 0.25335,1.58437 -0.0789,1.91667 -0.3323,0.33229 -0.56864,-0.25834 -0.52522,-1.3125 z m -57.97927,-9.64762 c -0.07555,-2.06991 0.444939,-2.84272 2.15032,-3.19271 9.07323,-1.86207 13.48972,-2.96434 15,-3.74367 1.06389,-0.54899 1.75,-0.53578 1.75,0.0337 0,0.54309 4.51751,0.80886 10.75,0.63244 l 10.75,-0.30429 -8.37299,1.01507 c -6.84216,0.82948 -8.46248,1.35727 -8.86246,2.88679 -0.51574,1.97219 -5.6841,3.88826 -10.51455,3.89805 -2.11076,0.004 -2.75,-0.47269 -2.75,-2.05192 0,-1.79955 -0.52781,-2.01895 -4.21015,-1.75 -3.515825,0.25679 -4.323977,0.7198 -4.900323,2.8075 l -0.690167,2.5 -0.09968,-2.73095 z M 112.75,105.31067 c -0.9625,-0.25152 -2.5375,-0.25152 -3.5,0 -0.9625,0.25153 -0.175,0.45733 1.75,0.45733 1.925,0 2.7125,-0.2058 1.75,-0.45733 z M 154.19495,104.5 c 0.0204,-1.65 0.2445,-2.20394 0.49804,-1.23097 0.25354,0.97297 0.23687,2.32297 -0.0371,3 -0.27393,0.67703 -0.48137,-0.11903 -0.46099,-1.76903 z M 96,96.205211 c 0,-4.000256 0.129605,-4.163022 4.18423,-5.25482 2.30133,-0.619684 5.4737,-0.868804 7.04971,-0.553602 1.57602,0.315202 2.62705,0.1873 2.33563,-0.284227 -0.7805,-1.262876 5.77008,-2.105105 15.43043,-1.983937 8.16437,0.102403 8.30257,0.141418 3.5,0.988073 -2.75,0.484803 -6.8,0.672716 -9,0.417586 -2.22556,-0.258095 -3.11278,-0.146784 -2,0.250921 2.3785,0.850071 2.69812,4.832867 0.5,6.230456 -2.02897,1.29004 -11.72147,1.244031 -12.52707,-0.05947 -0.35481,-0.574093 -0.0782,-1.726943 0.61479,-2.56189 1.10225,-1.328129 0.64379,-1.479058 -3.66391,-1.206195 C 97.617726,92.492543 97.497609,92.578104 97.4,95.766667 97.251576,100.61519 96,101.00724 96,96.205211 z M 152.64239,95 c 0.62832,-0.825 1.36362,-2.4 1.634,-3.5 0.46694,-1.899627 0.49743,-1.893226 0.60761,0.127555 0.0638,1.170156 -0.6715,2.745156 -1.634,3.5 C 151.72801,96.321186 151.64884,96.304567 152.64239,95 z M 137.75,87.294267 c 1.2375,-0.238353 3.2625,-0.238353 4.5,0 1.2375,0.238353 0.225,0.433369 -2.25,0.433369 -2.475,0 -3.4875,-0.195016 -2.25,-0.433369 z m 9,-0.956548 c 0.6875,-0.277412 1.8125,-0.277412 2.5,0 0.6875,0.277413 0.125,0.504386 -1.25,0.504386 -1.375,0 -1.9375,-0.226973 -1.25,-0.504386 z m 5,0 c 0.6875,-0.277412 1.8125,-0.277412 2.5,0 0.6875,0.277413 0.125,0.504386 -1.25,0.504386 -1.375,0 -1.9375,-0.226973 -1.25,-0.504386 z M 96.383427,81.077721 C 96.462837,78.065239 96.978192,76.526695 98,76.25159 c 1.030845,-0.277539 1.132337,-0.141404 0.324496,0.435255 -0.646528,0.461509 -1.373985,2.633268 -1.616573,4.826131 -0.437729,3.956832 -0.440186,3.953536 -0.324496,-0.435255 z M 106.5,81.987989 c 1.93894,-0.844833 1.93066,-0.892214 -0.27108,-1.551857 -1.79361,-0.537368 -2.03066,-0.970094 -1.12755,-2.058275 1.13761,-1.370735 0.10185,-1.938054 -2.60137,-1.424849 -0.66667,0.126566 -0.66667,-0.121237 0,-0.74341 1.8519,-1.728305 9.20911,-2.937709 19.08255,-3.136857 5.39601,-0.108837 10.24192,-0.464257 10.76869,-0.789822 0.52678,-0.325565 0.63669,-0.07241 0.24425,0.562573 C 132.20305,73.480471 130.36282,74 128.50608,74 c -4.29412,0 -8.8142,1.692439 -8.00724,2.998127 C 120.8394,77.549157 120.68962,78 120.16601,78 c -0.52362,0 -1.22002,0.698372 -1.54757,1.551938 -0.34149,0.889925 -0.17385,1.291322 0.39301,0.940983 0.5437,-0.336025 0.98855,-0.195563 0.98855,0.312138 0,0.99032 -7.28704,2.239956 -12.38957,2.124656 -2.65471,-0.05999 -2.8174,-0.197963 -1.11043,-0.941726 z M 97.100391,71.704522 c -1.264918,-2.106309 -1.243608,-2.127619 0.478332,-0.478332 0.991226,0.949405 1.58698,1.94144 1.323898,2.204522 -0.263082,0.263082 -1.074085,-0.513704 -1.80223,-1.72619 z M 96,66.750147 c 0,-2.886524 1.499537,-4.496715 2.283972,-2.452512 0.271448,0.707382 -0.131399,2.140806 -0.895215,3.185386 C 96.074452,69.28044 96,69.24115 96,66.750147 z m 8.83749,1.434233 c 1.60973,-1.095894 1.11454,-5.784262 -0.57524,-5.446376 -1.6178,0.323491 -0.39019,-2.803112 1.90015,-4.839525 C 108.15474,56.127029 107.63795,55 104.83333,55 103.825,55 103,54.55 103,54 c 0,-0.55 0.5625,-1.006891 1.25,-1.015313 0.85778,-0.01051 0.79432,-0.303577 -0.20225,-0.934017 -0.79874,-0.505287 -1.81124,-0.696839 -2.25,-0.42567 -0.7374,0.455736 -1.17858,-1.35426 -1.0664,-4.375 0.0255,-0.6875 -0.56743,-1.25 -1.31771,-1.25 -1.026277,0 -1.138407,0.593718 -0.452733,2.397177 0.501273,1.318448 0.640135,2.668448 0.308582,3 C 97.585303,53.081363 97,51.330167 97,44.606989 c 0,-5.818969 0.336778,-7.522245 1.581787,-8 2.122093,-0.814324 53.926763,-0.782209 53.111633,0.03292 -0.35195,0.351953 -6.47972,0.929716 -13.61725,1.283918 -7.13754,0.354202 -13.24215,0.908812 -13.5658,1.232466 -0.32366,0.323654 0.0453,2.427992 0.81991,4.676305 0.77461,2.248314 1.02497,4.218243 0.55637,4.37762 -0.46861,0.159378 -0.97231,1.976375 -1.11933,4.037772 -0.17869,2.505384 -0.76463,3.771963 -1.76732,3.820286 -1.33333,0.06426 -1.33333,0.147813 0,0.752004 2.05441,0.930943 2.34533,3.109968 0.50928,3.814529 C 122.67917,60.953354 122,61.840833 122,62.606989 122,63.373145 121.50186,64 120.89301,64 c -0.60884,0 -0.8535,0.660589 -0.54367,1.467975 0.30982,0.807386 0.24547,1.6526 -0.14301,1.878252 -1.53831,0.89354 -16.66167,1.718307 -15.36884,0.838153 z M 104,48 c 0,-0.55 -0.47656,-1 -1.05902,-1 -0.58246,0 -0.7809,0.45 -0.44098,1 0.33992,0.55 0.81648,1 1.05902,1 C 103.80156,49 104,48.55 104,48 z m -0.79174,-3.676193 c -0.99192,-0.398002 -1.02153,-0.843878 -0.12755,-1.921053 0.92701,-1.116984 0.78272,-1.418837 -0.70827,-1.481701 -1.05364,-0.04443 -1.32583,-0.299511 -0.62244,-0.583334 2.03181,-0.819854 1.43196,-1.886444 -1.18264,-2.102835 -2.085985,-0.172641 -2.420755,0.216687 -2.349236,2.732098 0.06099,2.145253 0.647444,3.044562 2.182636,3.347042 3.0503,0.600999 4.29175,0.605325 2.8075,0.0098 z M 155.232,61 c 0,-1.925 0.2058,-2.7125 0.45733,-1.75 0.25152,0.9625 0.25152,2.5375 0,3.5 C 155.4378,63.7125 155.232,62.925 155.232,61 z M 97.564293,60.706872 c 0.375531,-0.986221 0.934692,-1.541221 1.242579,-1.233333 0.307887,0.307887 6.34e-4,1.114794 -0.682784,1.793128 -0.987616,0.980267 -1.10248,0.865403 -0.559795,-0.559795 z M 155.36523,47.5 c 0.003,-5.5 0.17053,-7.622415 0.37317,-4.716478 0.20265,2.905937 0.20052,7.405937 -0.005,10 C 155.52842,55.377585 155.36263,53 155.36523,47.5 z M 96.603006,54.833333 C 96.886271,54.375 97.541476,54 98.059017,54 98.576558,54 99,54.375 99,54.833333 c 0,0.458334 -0.655205,0.833334 -1.456011,0.833334 -0.800807,0 -1.224249,-0.375 -0.940983,-0.833334 z M 139.5,44 c 0.33992,-0.55 1.06803,-1 1.61803,-1 0.55,0 0.72189,0.45 0.38197,1 -0.33992,0.55 -1.06803,1 -1.61803,1 -0.55,0 -0.72189,-0.45 -0.38197,-1 z"
       id="path2832" />
    <path
       style="fill:#c0bdbe"
       d="m 117.8125,213.31689 c 0.72187,-0.28887 1.58437,-0.25335 1.91667,0.0789 0.33229,0.33229 -0.25834,0.56864 -1.3125,0.52522 -1.16495,-0.048 -1.4019,-0.28494 -0.60417,-0.60416 z m 19.7713,-3.1813 c -0.99931,-1.61692 -0.21341,-10.02096 0.88049,-9.41546 0.56964,0.3153 0.47321,-0.0327 -0.21429,-0.77343 -1.48612,-1.60108 -1.68428,-4.33313 -0.25,-3.4467 0.55,0.33992 1,-0.30852 1,-1.44098 0,-1.13246 -0.5625,-2.06591 -1.25,-2.07433 -0.80447,-0.01 -0.88165,-0.27718 -0.21654,-0.75 0.5684,-0.40408 0.99806,-1.40969 0.9548,-2.23469 -0.0433,-0.825 0.4563,-3.61038 1.11013,-6.18974 0.65384,-2.57936 0.93203,-4.94651 0.6182,-5.26033 -0.31382,-0.31383 0.24018,-1.16345 1.23113,-1.88804 1.37506,-1.00547 2.71941,-1.0725 5.677,-0.28308 2.1314,0.56891 3.87528,1.43955 3.87528,1.93477 0,0.49522 -0.7875,0.62615 -1.75,0.29096 -1.42528,-0.49636 -1.3789,-0.30747 0.25,1.01798 1.968,1.60139 1.96242,1.61851 -0.34891,1.07021 -1.29191,-0.30647 -2.1065,-0.31481 -1.81022,-0.0185 0.29628,0.29629 -0.33421,1.47565 -1.40109,2.62081 -1.86417,2.00096 -2.18978,2.9236 -2.18978,6.20499 0,2.93753 0.27994,3.21693 2.75,2.74475 1.51996,-0.29056 2.5,-0.0171 2.5,0.69769 0,0.64658 0.45,0.89748 1,0.55756 0.55,-0.33992 1,-0.37803 1,-0.0847 0,0.29334 -1.35,1.23145 -3,2.0847 -3.38144,1.74861 -3.77375,3.21374 -1.33752,4.99515 0.91436,0.6686 1.41973,1.84321 1.12304,2.61024 -0.7883,2.03795 -9.55385,8.07847 -10.20172,7.0302 z m -38.074759,-9.48651 c -0.787386,-1.82066 0.698639,-3.61845 2.990959,-3.61845 0.55,0 0.48956,0.3306 -0.13432,0.73468 -0.62387,0.40408 -1.34173,1.63469 -1.59524,2.73469 -0.43796,1.90034 -0.50081,1.90777 -1.261399,0.14908 z m 11.303479,-0.71153 c -0.19185,-0.57555 -1.11513,-1.15893 -2.05173,-1.29639 -3.06007,-0.44913 -3.23199,-1.70762 -0.2084,-1.5255 1.62119,0.0977 5.08511,-0.16452 7.69761,-0.5826 3.98548,-0.6378 4.75,-0.5055 4.75,0.82201 0,0.94468 -0.56363,1.36588 -1.39885,1.04537 -0.76937,-0.29523 -1.70046,-0.0488 -2.0691,0.5477 -0.36863,0.59647 -1.07985,0.83133 -1.58048,0.52193 -0.50063,-0.30941 -1.78324,-0.0953 -2.85023,0.4757 -1.34484,0.71973 -2.04701,0.71721 -2.28882,-0.008 z m -5.00002,-5.62066 c 0.72187,-0.28887 1.58437,-0.25335 1.91667,0.0789 0.33229,0.33229 -0.25834,0.56864 -1.3125,0.52522 -1.16495,-0.048 -1.4019,-0.28494 -0.60417,-0.60416 z M 109,193.2601 c 0,-1.51744 7.53715,-4.07124 10.40029,-3.52391 1.42984,0.27333 2.59971,0.79636 2.59971,1.16228 0,0.36592 1.20127,0.76473 2.66949,0.88625 5.81981,0.48166 3.39637,1.35501 -3.17623,1.14463 -3.84629,-0.12311 -8.23076,0.11621 -9.74326,0.53182 -1.61028,0.44247 -2.75,0.35914 -2.75,-0.20107 z m -12,-9.20108 c 0,-1.67643 1.773544,-2.09154 2.36383,-0.55328 C 99.712132,184.4134 99.360699,185 98.468615,185 97.660877,185 97,184.57656 97,184.05902 z m 8,-0.92952 c 0,-0.4002 1.4625,-0.75065 3.25,-0.77877 1.7875,-0.0281 4.48649,-0.39208 5.99776,-0.80878 1.51127,-0.41671 3.53627,-0.43904 4.5,-0.0496 1.57781,0.63753 1.5388,0.79048 -0.39178,1.53642 C 115.71383,184.04961 105,184.13045 105,183.1295 z m -1,-3.16088 C 104,179.43588 104.675,179 105.5,179 c 0.825,0 1.5,0.17686 1.5,0.39301 0,0.21616 -0.675,0.65203 -1.5,0.96862 -0.825,0.31658 -1.5,0.13972 -1.5,-0.39301 z m 16.75,0.3691 c 0.6875,-0.27741 1.8125,-0.27741 2.5,0 0.6875,0.27741 0.125,0.50439 -1.25,0.50439 -1.375,0 -1.9375,-0.22698 -1.25,-0.50439 z m 9,-1 c 0.6875,-0.27741 1.8125,-0.27741 2.5,0 0.6875,0.27741 0.125,0.50439 -1.25,0.50439 -1.375,0 -1.9375,-0.22698 -1.25,-0.50439 z m -20.04412,-2.01365 c 0.27946,-0.72824 1.13495,-1.38032 1.90111,-1.44907 2.15665,-0.19352 8.04722,-0.1479 11.64301,0.0902 l 3.25,0.21519 -3,0.81786 c -1.65,0.44982 -5.543,1.00507 -8.65111,1.23388 -4.39954,0.32389 -5.53857,0.12278 -5.14301,-0.90805 z m 33.02745,-4.44816 c 0.67834,-0.68342 1.48524,-0.99067 1.79313,-0.68278 0.30789,0.30789 -0.24711,0.86705 -1.23333,1.24258 -1.4252,0.54268 -1.54006,0.42782 -0.5598,-0.5598 z m -46.274449,-1.94244 c -0.362533,-0.58659 -0.444683,-1.281 -0.182555,-1.54313 0.262128,-0.26213 0.743066,0.21781 1.068751,1.06653 0.676184,1.76211 0.09985,2.07206 -0.886196,0.4766 z M 98.015313,168.75 c -0.01115,-1.27387 0.732896,-1.71844 2.734687,-1.634 2.10779,0.0889 2.28294,0.23269 0.75,0.61568 -1.1,0.27483 -2.330609,1.01013 -2.734687,1.634 -0.466258,0.71988 -0.740282,0.49493 -0.75,-0.61568 z M 106,168.5 c -1.06136,-1.27887 -0.78457,-1.5 1.87756,-1.5 3.30733,0 4.19276,1.3753 1.54065,2.39301 -2.0898,0.80193 -1.98987,0.82804 -3.41821,-0.89301 z m 8.05215,-0.41829 c -1.15346,-0.75229 -0.95013,-1.04697 1,-1.44926 1.34632,-0.27773 3.12285,-0.48005 3.94785,-0.4496 0.825,0.0305 2.38526,-0.30889 3.46724,-0.75409 1.72882,-0.71136 1.79474,-0.6248 0.54391,0.71422 -0.78284,0.83803 -1.89309,1.56609 -2.46724,1.61792 -0.57415,0.0518 -1.94391,0.35768 -3.04391,0.67967 -1.1,0.32199 -2.65153,0.1605 -3.44785,-0.35886 z M 147,165.94098 c 0,-0.58246 0.45,-0.7809 1,-0.44098 0.55,0.33992 1,0.81648 1,1.05902 0,0.24254 -0.45,0.44098 -1,0.44098 -0.55,0 -1,-0.47656 -1,-1.05902 z M 149.5,165 c -0.33992,-0.55 0.0835,-1 0.94098,-1 0.85746,0 1.55902,0.45 1.55902,1 0,0.55 -0.42344,1 -0.94098,1 -0.51754,0 -1.2191,-0.45 -1.55902,-1 z m -20.6875,-0.68311 c 0.72187,-0.28887 1.58437,-0.25335 1.91667,0.0789 0.33229,0.33229 -0.25834,0.56864 -1.3125,0.52522 -1.16495,-0.048 -1.4019,-0.28494 -0.60417,-0.60416 z m -18.66139,-2.21504 c 0.81759,-1.32601 2.03818,-2.01073 3.09889,-1.73839 0.9625,0.24711 1.75,-0.007 1.75,-0.56407 0,-0.57134 0.76334,-0.7009 1.75,-0.29701 0.9625,0.394 2.425,0.81147 3.25,0.92771 0.825,0.11624 2.175,0.48137 3,0.8114 0.825,0.33003 2.175,0.82518 3,1.10033 0.825,0.27516 -1.25625,0.53581 -4.625,0.57923 -3.36875,0.0434 -7.57575,0.3691 -9.34889,0.72373 -3.11045,0.62209 -3.17643,0.5678 -1.875,-1.54293 z m 40.66139,0.21504 c 0.72187,-0.28887 1.58437,-0.25335 1.91667,0.0789 0.33229,0.33229 -0.25834,0.56864 -1.3125,0.52522 -1.16495,-0.048 -1.4019,-0.28494 -0.60417,-0.60416 z M 96,154.60699 c 0,-1.44118 2.885502,-3.05482 3.809795,-2.13053 0.287945,0.28795 -0.04961,0.52354 -0.750117,0.52354 -0.721296,0 -1.024027,0.65052 -0.698052,1.5 0.350624,0.91371 0.0016,1.5 -0.893011,1.5 C 96.660877,156 96,155.37314 96,154.60699 z m 7.55887,-1.12447 C 101.73753,152.09149 101.85068,152 105.3922,152 c 2.57488,0 3.64219,0.39727 3.35827,1.25 -0.60791,1.82577 -2.96713,1.93143 -5.1916,0.23252 z m 12.63495,0.78898 c 0.38161,-0.22039 0.47474,-0.97164 0.20697,-1.66944 -0.26777,-0.6978 0.095,-1.33621 0.80618,-1.4187 0.71117,-0.0825 2.64303,-0.32301 4.29303,-0.53451 1.65,-0.21149 2.23738,-0.19097 1.30529,0.0456 -0.98737,0.25062 -1.46444,1.03021 -1.14301,1.86785 0.36785,0.9586 -0.12317,1.43769 -1.4735,1.43769 -1.11386,0 -2.62451,0.15125 -3.35699,0.3361 -0.73249,0.18486 -1.01957,0.15579 -0.63797,-0.0646 z M 152.5,149.5 c 0,-1.26996 0.3375,-2.10043 0.75,-1.84549 0.4125,0.25494 0.75,1.08541 0.75,1.84549 0,0.76008 -0.3375,1.59055 -0.75,1.84549 -0.4125,0.25494 -0.75,-0.57553 -0.75,-1.84549 z m -42.09646,-1.34393 C 110.79651,147.52023 111.76648,147 112.55902,147 113.35156,147 114,146.60528 114,146.12284 c 0,-1.08446 9.14149,-0.21054 10.45,0.99901 0.5587,0.51644 -0.677,0.88268 -3,0.88916 -2.1725,0.006 -5.70746,0.30128 -7.85548,0.65607 -2.82979,0.4674 -3.70868,0.32665 -3.19098,-0.51101 z m 26.40896,0.16082 c 0.72187,-0.28887 1.58437,-0.25335 1.91667,0.0789 0.33229,0.33229 -0.25834,0.56864 -1.3125,0.52522 -1.16495,-0.048 -1.4019,-0.28494 -0.60417,-0.60416 z m -8.5625,-1.00622 c 0.9625,-0.25152 2.5375,-0.25152 3.5,0 0.9625,0.25153 0.175,0.45733 -1.75,0.45733 -1.925,0 -2.7125,-0.2058 -1.75,-0.45733 z M 142,146.78729 C 142,146.35428 142.8625,146 143.91667,146 c 1.05416,0 2.10541,-0.3375 2.3361,-0.75 0.23069,-0.4125 0.29347,-0.21657 0.13951,0.43539 -0.15396,0.65197 0.25729,1.41208 0.9139,1.68915 0.6566,0.27707 -0.26868,0.43542 -2.05618,0.3519 -1.7875,-0.0835 -3.25,-0.50614 -3.25,-0.93915 z M 96,140.036 c 0,-2.23918 1.790039,-2.87263 8.26582,-2.92506 4.43144,-0.0359 4.69208,0.0992 3.71482,1.92524 C 106.7495,141.33659 103,141.68576 103,139.5 c 0,-0.94975 -0.95633,-1.5 -2.60699,-1.5 -1.83882,0 -2.446739,0.4176 -2.063141,1.41724 0.299115,0.77948 -0.10274,1.66536 -0.893011,1.96862 C 96.49821,141.74605 96,141.27801 96,140.036 z m 22.07389,-1.44697 c -0.64406,-0.77604 -0.81166,-1.61382 -0.37245,-1.86174 1.51771,-0.85672 6.79505,-1.78549 5.72562,-1.00767 -0.59012,0.42921 -1.3635,1.56788 -1.71862,2.53038 -0.78083,2.11633 -2.06046,2.23569 -3.63455,0.33903 z M 111,132.45219 c 0,-0.7987 0.3375,-1.48092 0.75,-1.51603 0.4125,-0.0351 2.32353,-0.21652 4.24672,-0.40314 1.9232,-0.18661 4.25839,0.0683 5.18932,0.56654 1.07129,0.57334 1.93107,0.51996 2.3423,-0.14541 0.41961,-0.67895 1.06089,-0.71125 1.81069,-0.0912 0.63853,0.52804 2.51097,1.15746 4.16097,1.39872 1.65,0.24126 -0.15,0.53201 -4,0.6461 -3.85,0.1141 -8.6875,0.38501 -10.75,0.60203 -2.79294,0.29387 -3.75,0.024 -3.75,-1.05762 z m 26.5404,0.63967 c 0.52778,-0.51003 3.2096,-1.24193 5.9596,-1.62645 3.29314,-0.46046 4.65863,-0.36211 4,0.28811 -0.55,0.54297 -3.23182,1.27488 -5.9596,1.62645 -3.05561,0.39383 -4.59121,0.28323 -4,-0.28811 z M 96,125.5 c 0,-1.49071 0.430599,-2.35191 1,-2 0.55,0.33992 1,1.23992 1,2 0,0.76008 -0.45,1.66008 -1,2 -0.569401,0.35191 -1,-0.50929 -1,-2 z m 6,0.0314 c 0,-0.93929 0.63073,-1.2725 1.75,-0.92449 1.6548,0.51452 1.65436,0.48267 -0.008,-0.58551 -0.96686,-0.62129 -2.11334,-0.90996 -2.54775,-0.64149 -0.4344,0.26848 -1.443336,0.0747 -2.242076,-0.43056 -1.031145,-0.65231 -0.344158,-0.92314 2.369176,-0.93402 2.10178,-0.008 4.49643,0.65969 5.32143,1.48469 0.89745,0.89745 1.0459,1.5 0.36955,1.5 -0.62174,0 -0.85233,0.45 -0.51241,1 0.35052,0.56716 -0.48962,1 -1.94098,1 C 102.97531,127 102,126.44027 102,125.53138 z m 15.63432,-0.29669 c 0.62387,-0.40408 1.29887,-1.5903 1.5,-2.63605 0.20433,-1.0624 1.37376,-2.05476 2.65034,-2.24901 2.0056,-0.30519 2.15398,-0.10349 1.21481,1.65136 -0.58841,1.09945 -0.7165,2.03064 -0.28465,2.0693 1.23438,0.11049 -3.04111,1.78277 -4.71482,1.84411 -0.9945,0.0365 -1.11773,-0.19262 -0.36568,-0.67971 z M 108.25,119.25277 c 0.4125,-0.23069 0.75,-1.10508 0.75,-1.94309 0,-0.83801 0.58135,-1.30057 1.29189,-1.02791 0.71054,0.27266 2.05749,-0.0641 2.99321,-0.74829 1.36117,-0.99531 2.73204,-0.97666 6.85682,0.0933 2.83553,0.73553 5.32129,1.50311 5.52392,1.70574 0.20263,0.20263 -3.14729,0.63953 -7.44427,0.97088 -4.29698,0.33136 -8.46718,0.7749 -9.26713,0.98565 -0.79994,0.21074 -1.11694,0.19442 -0.70444,-0.0363 z M 131.5,118 c 0.33992,-0.55 2.50398,-0.96837 4.80902,-0.92971 3.25815,0.0546 3.74582,0.26157 2.19098,0.92971 -2.82791,1.21519 -7.75103,1.21519 -7,0 z m 11.3125,-0.68311 c 0.72187,-0.28887 1.58437,-0.25335 1.91667,0.0789 0.33229,0.3323 -0.25834,0.56864 -1.3125,0.52522 -1.16495,-0.048 -1.4019,-0.28494 -0.60417,-0.60416 z M 146,117.19032 c 0,-0.53699 0.7126,-1.24979 1.58356,-1.58401 0.97391,-0.37373 1.43108,-0.15024 1.1875,0.58051 -0.49828,1.49484 -2.77106,2.31789 -2.77106,1.0035 z m -49.463,-5.70495 c 1.58849,-5.09609 1.52266,-5.00511 2.501482,-3.45734 1.296238,2.04968 1.221028,2.32881 -1.001482,3.71679 -1.636769,1.02218 -1.886054,0.97906 -1.5,-0.25945 z m 6.338,0.098 c -0.0687,-0.32083 -0.18125,-1.04974 -0.25,-1.6198 -0.0687,-0.57007 -0.8,-1.46317 -1.625,-1.98469 -1.122227,-0.70941 -0.66397,-0.95207 1.81955,-0.96353 2.84208,-0.0131 3.27359,0.29706 3,2.15636 -0.28614,1.9446 -2.63279,3.86656 -2.94455,2.41166 z m 10.9375,-1.26644 c 0.72187,-0.28887 1.58437,-0.25335 1.91667,0.0789 0.33229,0.3323 -0.25834,0.56864 -1.3125,0.52522 -1.16495,-0.048 -1.4019,-0.28494 -0.60417,-0.60416 z m 3.76044,-1.0822 c 0.59012,-0.40408 1.3635,-1.52219 1.71862,-2.48469 0.90479,-2.45229 4.70844,-2.29801 4.70844,0.19098 0,2.49585 -1.96428,3.72468 -3.09649,1.93714 -0.6321,-0.99796 -0.87711,-1.0333 -0.8882,-0.12812 -0.008,0.6875 -0.80281,1.24311 -1.76531,1.23469 -1.05474,-0.009 -1.32373,-0.3072 -0.67706,-0.75 z m -9.53519,-6.30523 c 0.56794,-1.0612 1.57928,-1.96046 2.24743,-1.99836 0.66815,-0.0379 2.46044,-0.23306 3.98286,-0.4337 1.93135,-0.25454 2.55343,-0.007 2.05805,0.8189 -0.39051,0.65103 0.0857,0.53764 1.05817,-0.252 1.53651,-1.247595 1.8872,-1.247595 2.67664,0 0.77928,1.23153 0.91283,1.22239 0.9391,-0.0643 0.0272,-1.333333 0.13833,-1.333333 1,0 1.57627,2.43911 1.2048,2.77283 -3,2.69515 -2.2,-0.0406 -4,-0.46524 -4,-0.94354 0,-0.4783 -0.46466,-0.58247 -1.03257,-0.23148 -0.56791,0.35099 -2.36676,1.0208 -3.99743,1.48847 -2.72399,0.78123 -2.88097,0.69356 -1.93225,-1.07914 z M 134.5,103 c -1.46915,-0.63132 -0.67287,-0.85943 3,-0.85943 3.67287,0 4.46915,0.22811 3,0.85943 -1.1,0.47269 -2.45,0.85943 -3,0.85943 -0.55,0 -1.9,-0.38674 -3,-0.85943 z m 12.26845,-1.16845 c 0.5811,-0.5811 1.64682,-0.85979 2.36826,-0.61931 0.74895,0.24965 0.29565,0.70294 -1.05655,1.05655 -1.66335,0.43497 -2.05378,0.30483 -1.31171,-0.43724 z M 97.382976,96.555636 c -0.932151,-2.429147 -0.02902,-3.238096 2.293332,-2.054166 2.131592,1.086681 2.136262,1.13449 0.227306,2.326651 -1.590313,0.993167 -2.054205,0.94302 -2.520638,-0.272485 z m 5.548964,-0.68281 c -1.2037,-2.249132 -0.003,-3.824675 2.9405,-3.857513 1.14765,-0.01281 1.15383,0.248108 0.0378,1.5929 -1.13401,1.366401 -1.0485,1.817481 0.56869,3 C 108.32135,97.955459 108.31326,98 106.22631,98 c -1.18577,0 -2.66824,-0.957228 -3.29437,-2.127174 z m 16.52159,-2.539634 c 0.052,-2.985376 1.91271,-4.104058 3.97686,-2.390965 C 125.42899,92.60092 124.19008,96 121.5869,96 c -1.70646,0 -2.16974,-0.579119 -2.13337,-2.666808 z M 99,93 c 0,-0.55 0.476558,-1 1.05902,-1 0.58246,0 0.7809,0.45 0.44098,1 -0.33992,0.55 -0.816476,1 -1.059017,1 C 99.198442,94 99,93.55 99,93 z m 9.17469,-4.302072 c 2.35352,-2.37527 6.59673,-3.876799 7.37894,-2.611159 0.41605,0.673194 1.05297,0.654686 1.90865,-0.05546 1.36833,-1.135612 4.84479,-0.337164 4.06009,0.932494 -0.25637,0.414826 -2.9155,1.042104 -5.90917,1.393951 -2.99367,0.351847 -6.26882,0.952611 -7.27812,1.335032 -1.71719,0.650643 -1.7275,0.586733 -0.16039,-0.994854 z m 45.90426,-0.281261 c 0.048,-1.164943 0.28494,-1.4019 0.60416,-0.604167 0.28887,0.721875 0.25335,1.584375 -0.0789,1.916667 -0.3323,0.332291 -0.56864,-0.258334 -0.52522,-1.3125 z M 133,88 c 0,-0.55 0.675,-1 1.5,-1 0.825,0 1.5,0.45 1.5,1 0,0.55 -0.675,1 -1.5,1 -0.825,0 -1.5,-0.45 -1.5,-1 z m 10,-1 c -1.20677,-0.779876 -1.04862,-0.972368 0.80902,-0.984687 1.28757,-0.0085 2.03561,0.427061 1.69098,0.984687 -0.74319,1.2025 -0.63926,1.2025 -2.5,0 z M 102.08776,83.159848 C 99.441234,82.785212 97,80.789213 97,79 c 0,-1.37394 2.055387,-3.396914 3.82866,-3.768284 1.87009,-0.391645 5.56006,2.410006 4.24478,3.222893 -0.59039,0.364884 -1.08033,0.07437 -1.08875,-0.645592 -0.0113,-0.963938 -0.29976,-0.913591 -1.09434,0.190983 -0.87444,1.215605 -0.95495,1.123048 -0.42467,-0.488176 0.65305,-1.984234 0.65055,-1.984234 -1.26137,0 -2.249994,2.335099 -1.884086,5.310809 0.37523,3.051497 0.7619,-0.761905 2.30021,-1.146023 3.41845,-0.853595 C 107.49292,80.362164 108.66884,82 106.64235,82 c -0.81163,0 -1.62568,0.337797 -1.80902,0.75066 -0.18333,0.412862 -1.41884,0.596997 -2.74557,0.409188 z M 120,81.010534 c 0,-0.620712 -0.44485,-0.853638 -0.98855,-0.517613 -0.56686,0.350339 -0.7345,-0.05106 -0.39301,-0.940983 C 118.94599,78.698372 119.64239,78 120.16601,78 c 0.52361,0 0.67339,-0.450843 0.33283,-1.001873 -0.34055,-0.55103 0.56218,-1.45103 2.00609,-2 3.54656,-1.3484 3.82658,-1.277583 2.97303,0.751873 -0.40481,0.9625 -0.82571,2.65 -0.93534,3.75 C 124.33258,81.607507 120,83.048198 120,81.010534 z m -13.54189,-7.33335 c 1.07696,-0.800083 2.55887,-1.224164 3.29313,-0.942402 1.67979,0.644597 1.447,0.819403 -2.25124,1.690482 -2.79886,0.659242 -2.86872,0.609086 -1.04189,-0.74808 z m 5.53956,-0.813685 c 0.004,-1.038044 5.08499,-1.401164 11.50233,-0.821999 5.99619,0.541156 5.99444,0.541791 -2.75233,1 -4.81379,0.252175 -8.75129,0.172075 -8.75,-0.178001 z m 19.63344,0.348642 c -0.26781,-0.433322 0.63034,-0.880326 1.99589,-0.993342 1.43125,-0.118455 2.22279,0.21523 1.86889,0.787859 -0.73282,1.185717 -3.17859,1.315755 -3.86478,0.205483 z m 6.63792,-0.905132 c 0.97297,-0.253543 2.32297,-0.236869 3,0.03705 0.67703,0.273923 -0.11903,0.481368 -1.76903,0.460988 -1.65,-0.02038 -2.20394,-0.244498 -1.23097,-0.498042 z M 147,70.990815 c 2.475,-0.417369 4.9275,-0.361044 5.45,0.125167 0.55788,0.519128 -1.29956,0.832354 -4.5,0.758851 L 142.5,71.749667 147,70.990815 z M 97,68.059017 c 0,-0.517541 0.451217,-1.21985 1.002704,-1.560688 0.649032,-0.401124 0.665541,-1.249702 0.0468,-2.405822 C 97.028579,62.184883 98.386489,60 100.59301,60 c 0.65616,0 1.46616,-0.711804 1.8,-1.581787 C 103.25464,56.17285 103.1857,56 101.42857,56 c -0.86428,0 -2.295556,-0.724129 -3.180603,-1.609176 -1.478902,-1.478902 -1.476033,-1.683688 0.03544,-2.529552 1.281374,-0.717092 1.437165,-1.466019 0.705356,-3.390823 C 98.274385,46.591488 98.376111,46 99.41364,46 c 0.75028,0 1.34325,0.5625 1.31771,1.25 -0.11218,3.02074 0.329,4.830736 1.0664,4.375 0.43876,-0.271169 1.45126,-0.07962 2.25,0.42567 0.99657,0.63044 1.06003,0.923509 0.20225,0.934017 C 103.5625,52.993109 103,53.45 103,54 c 0,0.55 0.825,1 1.83333,1 2.80462,0 3.32141,1.127029 1.32907,2.898479 -2.29034,2.036413 -3.51795,5.163016 -1.90015,4.839525 1.68657,-0.337243 2.18858,4.360969 0.57524,5.383593 C 103.01738,69.275284 97,69.227236 97,68.059017 z m 23.27902,-2.00504 C 120.19392,64.92429 120.54633,64 121.06215,64 121.57797,64 122,63.373145 122,62.606989 c 0,-0.766156 0.67917,-1.653635 1.50928,-1.972175 1.83605,-0.704561 1.54513,-2.883586 -0.50928,-3.814529 -1.33333,-0.604191 -1.33333,-0.687747 0,-0.752004 1.00269,-0.04832 1.58863,-1.314902 1.76732,-3.820286 0.14702,-2.061397 0.70592,-3.896797 1.24201,-4.078665 0.57777,-0.196012 0.62705,-1.010471 0.12101,-2 -0.46952,-0.918132 -1.14422,-2.88582 -1.49934,-4.372641 -0.58681,-2.456889 -0.34874,-2.748486 2.61167,-3.198887 6.67866,-1.016102 25.44599,-1.408258 26.81788,-0.560377 1.17406,0.725609 1.19323,1.105049 0.10966,2.170934 -0.72219,0.710403 -1.16842,0.841641 -0.99164,0.291641 0.40931,-1.273415 -0.40417,-1.527641 -4.42857,-1.383999 -1.7875,0.0638 -2.50081,0.314418 -1.58514,0.556927 2.30977,0.611727 3.14028,3.27275 1.24805,3.998866 -1.22757,0.471061 -0.96186,0.986094 1.26686,2.455556 l 2.82023,1.859472 -2.86501,0.0066 c -2.8537,0.0066 -2.8583,0.01683 -1.16515,2.600908 1.65341,2.523416 1.64289,2.576235 -0.38499,1.932612 -2.20716,-0.700526 -2.96812,0.949994 -0.83485,1.810788 1,0.403509 1,0.520176 0,0.583334 -0.6875,0.04342 -1.25,1.195374 -1.25,2.559895 0,3.090815 -3.03761,4.023538 -10.32944,3.171743 -7.04871,-0.823396 -9.42056,-0.07489 -9.42056,2.972919 0,2.952319 -0.0763,3.041716 -3.28518,3.847083 -2.06727,0.518853 -2.55943,0.258882 -2.6858,-1.418716 z M 141.5,44 c 0.33992,-0.55 0.16803,-1 -0.38197,-1 -0.55,0 -1.27811,0.45 -1.61803,1 -0.33992,0.55 -0.16803,1 0.38197,1 0.55,0 1.27811,-0.45 1.61803,-1 z M 154,56 c 0,-1.666667 -0.88889,-3.888889 -2,-5 -1.67538,-1.675379 -1.73894,-2 -0.39159,-2 1.57976,0 1.52535,-1.881887 -0.18314,-6.334136 -0.43955,-1.14547 -0.0711,-1.385994 1.49574,-0.976269 C 154.81777,42.185608 155,42.968093 155,50.616631 155,55.227484 154.775,59 154.5,59 154.225,59 154,57.65 154,56 z m -2.5,-1 c -0.33992,-0.55 -0.14148,-1 0.44098,-1 0.58246,0 1.05902,0.45 1.05902,1 0,0.55 -0.19844,1 -0.44098,1 -0.24254,0 -0.7191,-0.45 -1.05902,-1 z m -49,-7 c -0.33992,-0.55 -0.14148,-1 0.44098,-1 0.58246,0 1.05902,0.45 1.05902,1 0,0.55 -0.19844,1 -0.44098,1 -0.24254,0 -0.7191,-0.45 -1.05902,-1 z m -2.09924,-3.685976 c -1.535192,-0.30248 -2.121641,-1.201789 -2.182636,-3.347042 -0.07152,-2.515411 0.263251,-2.904739 2.349236,-2.732098 2.6146,0.216391 3.21445,1.282981 1.18264,2.102835 -0.70339,0.283823 -0.4312,0.538909 0.62244,0.583334 1.49099,0.06286 1.63528,0.364717 0.70827,1.481701 -0.89398,1.077175 -0.86437,1.523051 0.12755,1.921053 1.48425,0.595542 0.2428,0.591216 -2.8075,-0.0098 z"
       id="path2830" />
    <path
       style="fill:#b2aeaf"
       d="m 117.25616,213.0252 c -1.78411,-0.42354 -3.92161,-1.33258 -4.75,-2.02008 C 111.67777,210.31761 111,210.08862 111,210.49624 c 0,0.89707 -7.00708,-4.29145 -8.7182,-6.45555 -0.67,-0.84738 -1.2325,-2.59796 -1.25,-3.89017 -0.0298,-2.20298 0.2617,-2.32019 4.67494,-1.87977 2.58871,0.25834 4.87501,0.97451 5.08067,1.59149 0.26552,0.79656 0.93636,0.82078 2.31393,0.0835 1.06699,-0.57104 2.3496,-0.78511 2.85023,-0.4757 0.50063,0.3094 1.21185,0.0745 1.58048,-0.52193 0.36864,-0.59647 1.29973,-0.84293 2.0691,-0.5477 0.83592,0.32077 1.39885,-0.10113 1.39885,-1.0484 0,-1.15165 0.68374,-1.45449 2.5,-1.10729 1.375,0.26285 2.5,0.0903 2.5,-0.38342 0,-0.47373 0.9,-0.86133 2,-0.86133 2.44683,0 2.51716,0.77106 0.29439,3.2272 -1.37298,1.51713 -1.47657,2.25144 -0.53113,3.76533 1.01412,1.62386 0.90566,1.82887 -0.79439,1.50148 -2.43478,-0.4689 -2.6341,1.1855 -0.21887,1.81666 1.25063,0.32683 1.03661,0.52422 -0.75,0.69175 -1.375,0.12893 -2.8375,0.18113 -3.25,0.116 -0.4125,-0.0651 -0.75,0.35814 -0.75,0.9406 0,0.58246 -0.45,0.7809 -1,0.44098 -0.55,-0.33992 -1,-0.14148 -1,0.44098 0,2.06188 -2.86741,1.02522 -3.29427,-1.19098 l -0.43337,-2.25 -0.13618,2.25 c -0.0749,1.2375 -0.69868,2.26368 -1.38618,2.28041 -2.51227,0.0611 2.48864,2.15454 5.7686,2.41479 2.75132,0.21831 3.45696,-0.1236 3.79445,-1.83851 0.3955,-2.00971 0.42085,-2.00311 0.55077,0.14331 0.1423,2.35118 3.41805,3.22097 4.64626,1.23369 0.34546,-0.55897 1.04702,-0.75742 1.55902,-0.44098 0.51199,0.31643 0.96253,-0.0137 1.00119,-0.73369 0.0386,-0.71996 0.42702,-0.40902 0.86304,0.69098 0.56569,1.42716 0.33075,2.19468 -0.82029,2.67971 -2.13808,0.90096 -10.78989,0.81098 -14.85688,-0.15451 z m -4.06295,-5.79413 c -0.66312,-0.22104 -0.92356,-0.85835 -0.57876,-1.41625 0.3987,-0.64511 -0.0972,-0.62683 -1.36229,0.0502 -1.09406,0.58552 -2.16625,0.96792 -2.38265,0.84977 -0.2164,-0.11815 0.21817,0.31677 0.96572,0.9665 0.74754,0.64972 2.08018,0.90464 2.96141,0.56648 1.0465,-0.40159 1.18405,-0.75424 0.39657,-1.01673 z M 107.5,204 c 0.33992,-0.55 0.16803,-1 -0.38197,-1 -0.55,0 -1.27811,0.45 -1.61803,1 -0.33992,0.55 -0.16803,1 0.38197,1 0.55,0 1.27811,-0.45 1.61803,-1 z m 28.37238,6.80902 c -0.0702,-0.71996 -0.23375,-2.32152 -0.36347,-3.55902 -0.12971,-1.2375 0.10165,-2.25 0.51413,-2.25 1.07385,0 1.80839,5.98615 0.81023,6.60305 -0.4583,0.28324 -0.8907,-0.0741 -0.96089,-0.79403 z M 131.23207,206 c -1.04175,-1.66811 -0.99869,-2 0.25946,-2 0.8418,0 1.50847,0.8839 1.50847,2 0,1.1 -0.11675,2 -0.25945,2 -0.1427,0 -0.82152,-0.9 -1.50848,-2 z m 4.96567,-7.1714 c 0.17621,-3.0148 0.82354,-5.34318 1.55226,-5.58333 0.73921,-0.24361 1.25,0.4635 1.25,1.73041 0,1.1783 -0.45,1.86424 -1,1.52432 -1.43428,-0.88643 -1.23612,1.84562 0.25,3.4467 1.00801,1.08599 0.98727,1.19727 -0.10713,0.57477 -1.03017,-0.58595 -1.19463,-0.25991 -0.68262,1.3533 0.41362,1.30318 0.24144,2.12523 -0.44512,2.12523 -0.72083,0 -1.01198,-1.84208 -0.81739,-5.1714 z M 132,196.05902 c 0,-0.51754 0.44485,-1.21592 0.98855,-1.55194 0.56686,-0.35034 0.7345,0.0511 0.39301,0.94098 C 132.71677,197.18048 132,197.49745 132,196.05902 z M 106,193 c 0,-0.55 0.36515,-1 0.81144,-1 0.44629,0 1.70136,-0.7875 2.78904,-1.75 1.08769,-0.9625 2.63504,-1.90757 3.43857,-2.10017 3.40985,-0.81728 6.04539,-0.82223 6.54596,-0.0123 0.295,0.47732 1.38503,0.41367 2.42229,-0.14146 1.45668,-0.77959 2.11876,-0.6095 2.9089,0.7473 0.56264,0.96614 1.03667,1.20823 1.05339,0.53799 0.0344,-1.37934 3.09997,-0.55588 4.2651,1.14568 0.49384,0.72121 0.7397,0.66316 0.75,-0.17706 0.0216,-1.76494 1.68411,-1.55546 2.39689,0.30201 0.5026,1.30973 -0.33925,1.51827 -5.39301,1.3359 C 124.69486,191.76905 122,191.3481 122,190.95248 c 0,-0.39563 -1.16987,-0.94296 -2.59971,-1.21629 C 116.64386,189.20926 109,191.71954 109,193.15169 109,193.61826 108.325,194 107.5,194 c -0.825,0 -1.5,-0.45 -1.5,-1 z m 30.70477,-6.25 c 0.6402,-8.17416 2.26241,-14.33765 4.36864,-16.59842 1.05962,-1.13737 1.92659,-2.35931 1.92659,-2.71541 0,-0.3561 1.0125,-1.84905 2.25,-3.31765 1.94446,-2.3076 2.62344,-2.53863 5,-1.70132 3.23958,1.14137 3.72903,2.65158 0.59363,1.83166 -1.6175,-0.42299 -1.95135,-0.23218 -1.33596,0.76356 0.60678,0.98178 0.3581,1.15005 -0.95497,0.64618 -1.27357,-0.48872 -1.62374,-0.28612 -1.23889,0.71678 0.29506,0.76894 -0.89233,2.88076 -2.63866,4.69295 -1.74633,1.81218 -2.61265,2.9616 -1.92515,2.55426 2.18174,-1.29268 1.34549,1.19712 -0.93967,2.79771 -1.20431,0.84353 -1.9272,1.79616 -1.60641,2.11696 0.3208,0.32079 0.026,2.6956 -0.65502,5.27736 -0.68105,2.58176 -1.12299,5.47964 -0.98207,6.43974 0.14091,0.9601 -0.31292,1.74564 -1.00852,1.74564 -0.91125,0 -1.1498,-1.46733 -0.85354,-5.25 z M 99.597196,184.26386 C 98.235338,182.902 99.180197,182 101.96862,182 c 2.01214,0 2.80922,0.41536 2.47391,1.28916 -0.51644,1.34582 -3.81139,2.00864 -4.845334,0.9747 z m 20.040144,-2.04164 c -0.88306,-1.42882 7.50456,-2.48998 10.43282,-1.31991 l 2.42984,0.97092 -2.5,0.0744 c -1.375,0.0409 -4.13029,0.34403 -6.12287,0.6736 -2.01971,0.33405 -3.89586,0.15749 -4.23979,-0.399 z m 28.9951,-3.00793 c -0.26708,-0.43215 0.38136,-0.78572 1.44098,-0.78572 1.05962,0 1.92658,0.35357 1.92658,0.78572 0,0.43214 -0.64844,0.78571 -1.44098,0.78571 -0.79254,0 -1.65951,-0.35357 -1.92658,-0.78571 z m -40.80113,-0.71631 c -1.59112,-1.59112 0.59068,-4.36075 4.01073,-5.09134 5.9637,-1.27395 7.33665,-1.2712 14.36684,0.0288 3.68988,0.68229 6.47582,0.86345 6.19098,0.40257 -0.28484,-0.46088 -0.0413,-0.83797 0.54112,-0.83797 0.58246,0 1.05902,0.66643 1.05902,1.48095 0,2.09621 -3.88743,2.81185 -9.6172,1.77043 -7.04581,-1.28061 -13.2825,-0.7708 -14.72636,1.20379 -0.66624,0.91113 -1.48754,1.38039 -1.82513,1.04281 z M 99,169.11658 c 0,-1.61803 5.42824,-2.04246 6.96429,-0.54453 1.27464,1.24301 0.91849,1.42795 -2.75,1.42795 C 100.89643,170 99,169.60246 99,169.11658 z m 10.8125,0.20031 c 0.72187,-0.28887 1.58437,-0.25335 1.91667,0.0789 0.33229,0.33229 -0.25834,0.56864 -1.3125,0.52522 -1.16495,-0.048 -1.4019,-0.28494 -0.60417,-0.60416 z m 8.94373,-0.98125 c 0.69093,-0.27855 0.9589,-0.98755 0.59549,-1.57556 -0.39053,-0.6319 -0.18861,-0.77731 0.49377,-0.35557 1.74489,1.0784 1.38346,2.60582 -0.59549,2.51654 -1.05575,-0.0476 -1.25163,-0.27987 -0.49377,-0.58541 z M 122,167 c 0,-0.55 0.5625,-1.0703 1.25,-1.15622 0.6875,-0.0859 2.375,-0.32013 3.75,-0.52046 8.24929,-1.20187 10.8546,-1.10799 10.28718,0.37069 -0.37417,0.97507 -1.44188,1.31841 -3.10893,0.99973 -1.39648,-0.26695 -3.3716,0.0302 -4.38916,0.66045 -1.45978,0.90407 -2.05142,0.82935 -2.80429,-0.35419 -0.63413,-0.99687 -0.95931,-1.08073 -0.96949,-0.25 C 126.00689,167.4375 125.1,168 124,168 c -1.1,0 -2,-0.45 -2,-1 z m -15,-4.37868 c 0,-2.48673 9.8491,-5.31279 16.77279,-4.81271 2.76201,0.19949 4.03539,0.69274 3.60138,1.39499 -0.44708,0.72339 0.2509,0.91006 2.089,0.55869 1.51823,-0.29023 3.94761,0.0917 5.39862,0.84885 2.46472,1.28602 2.16533,1.37694 -4.55277,1.3827 -3.95504,0.003 -7.4514,-0.41521 -7.76969,-0.93021 -0.31829,-0.515 -1.35735,-0.90492 -2.30902,-0.86648 -0.95167,0.0384 -2.51781,-0.26334 -3.48031,-0.67062 -1.04097,-0.44049 -1.75,-0.30472 -1.75,0.3351 0,0.59158 -0.7037,0.80557 -1.56377,0.47553 -0.95399,-0.36609 -2.14593,0.23107 -3.05671,1.53138 C 108.6818,164.29239 107,164.667 107,162.62132 z m 31.81298,-0.712 c -0.90754,-2.29898 0.412,-4.01105 2.21341,-2.87185 0.87265,0.55186 0.99374,0.93815 0.29693,0.94722 -0.64717,0.008 -1.33546,0.80281 -1.52954,1.76531 -0.30894,1.53214 -0.43104,1.55197 -0.9808,0.15932 z m -40.146313,-6.57599 c -2.25412,-2.25412 1.811263,-3.90543 4.797573,-1.94872 1.20034,0.78649 3.27443,1.63542 4.6091,1.88651 1.33466,0.25108 -0.0858,0.5178 -3.15667,0.5927 -3.07084,0.0749 -5.883337,-0.16382 -6.250003,-0.53049 z m 19.145833,-1.01644 c 0.72187,-0.28887 1.58437,-0.25335 1.91667,0.0789 0.33229,0.33229 -0.25834,0.56864 -1.3125,0.52522 -1.16495,-0.048 -1.4019,-0.28494 -0.60417,-0.60416 z m 3.8636,-1.71857 c -0.84243,-2.19536 5.79273,-3.08378 8.55923,-1.14604 1.54909,1.08502 1.75452,1.54772 0.68718,1.54772 -0.83738,0 -2.06251,-0.54 -2.72251,-1.2 -0.93333,-0.93333 -1.2,-0.82222 -1.2,0.5 0,2.10434 -4.53338,2.35837 -5.3239,0.29832 z M 134.5,151.86428 c 2.51713,-1.61944 4.5,-1.96129 4.5,-0.7758 0,0.50134 -0.6382,0.91152 -1.41821,0.91152 -0.78002,0 -2.24252,0.25898 -3.25,0.57551 -1.55188,0.48756 -1.52617,0.37888 0.16821,-0.71123 z m -28.14273,-4.31959 c 2.78091,-2.57725 5.74375,-3.397 14.35522,-3.97174 3.48664,-0.2327 5.14213,0.0251 5,0.77864 -0.1275,0.67595 0.98741,1.02387 2.78751,0.86987 l 3,-0.25666 -2.81685,1.58456 c -1.82106,1.02441 -3.23511,1.25362 -4,0.6484 C 123.28717,146.09318 114,144.95365 114,145.88694 114,146.63731 106.51693,150 104.84712,150 c -0.62654,0 0.053,-1.10489 1.51015,-2.45531 z M 152,149.16667 c 0,-0.64167 -1.0125,-1.21887 -2.25,-1.28267 -1.85196,-0.0955 -1.92163,-0.20052 -0.39378,-0.59378 1.9947,-0.51342 4.45519,1.2317 3.32711,2.35978 C 152.3075,150.02583 152,149.80833 152,149.16667 z m -12.1875,-0.84978 c 0.72187,-0.28887 1.58437,-0.25335 1.91667,0.0789 0.33229,0.33229 -0.25834,0.56864 -1.3125,0.52522 -1.16495,-0.048 -1.4019,-0.28494 -0.60417,-0.60416 z m -2.5625,-2.00622 c 0.9625,-0.25152 2.5375,-0.25152 3.5,0 0.9625,0.25153 0.175,0.45733 -1.75,0.45733 -1.925,0 -2.7125,-0.2058 -1.75,-0.45733 z m -40.162229,-4.5929 c 0.873274,-0.66977 1.416254,-1.72633 1.206622,-2.3479 -0.476118,-1.41173 5.568077,-2.40141 6.404147,-1.04863 0.36761,0.59482 0.0885,0.66519 -0.70156,0.1769 -0.9821,-0.60697 -1.16647,-0.25427 -0.73319,1.40259 0.37878,1.44846 0.17401,2.07413 -0.59248,1.81029 -0.64422,-0.22175 -2.52131,-0.0369 -4.17131,0.41067 -2.461612,0.6678 -2.715054,0.59531 -1.412229,-0.40392 z m 16.724729,-1.40088 c 0.72187,-0.28887 1.58437,-0.25335 1.91667,0.0789 0.33229,0.33229 -0.25834,0.56864 -1.3125,0.52522 -1.16495,-0.048 -1.4019,-0.28494 -0.60417,-0.60416 z m 7.86322,-2.18486 c 0.62182,-2.37782 2.80494,-3.30979 6.21486,-2.6531 3.075,0.59219 3.99329,1.51667 1.52609,1.53638 -1.60358,0.0128 -1.67164,0.17367 -0.41667,0.98469 1.18993,0.76899 0.98322,0.97536 -1,0.99834 -1.375,0.0159 -3.48201,0.29234 -4.68225,0.61423 -1.82595,0.4897 -2.09404,0.24798 -1.64203,-1.48054 z M 136.75,137.33772 c 0.6875,-0.27741 1.25,-1.09374 1.25,-1.81406 0,-1.37832 2.91324,-2.94375 3.80979,-2.0472 0.28795,0.28795 -0.001,0.52354 -0.64312,0.52354 -0.64167,0 -1.11338,0.3375 -1.04825,0.75 0.35968,2.27799 -0.35997,3.24152 -2.36842,3.17105 -1.2375,-0.0434 -1.6875,-0.30592 -1,-0.58333 z m 15.67857,-3.2643 c 0,-1.05962 0.35357,-1.70806 0.78572,-1.44098 0.43214,0.26707 0.78571,1.13404 0.78571,1.92658 0,0.79254 -0.35357,1.44098 -0.78571,1.44098 -0.43215,0 -0.78572,-0.86696 -0.78572,-1.92658 z m -45.21928,-1.63343 c 0.62716,-1.37645 2.23805,-2.46953 4.15731,-2.82095 4.78963,-0.87698 15.6355,-1.20191 15.63439,-0.46838 -5.4e-4,0.35786 1.68651,1.09886 3.74901,1.64665 l 3.75,0.99599 -4.05,0.10335 c -2.2275,0.0568 -4.53921,-0.38586 -5.13713,-0.98378 -0.78285,-0.78285 -1.27566,-0.78209 -1.76069,0.003 -0.4316,0.69834 -1.28158,0.76443 -2.36614,0.18399 -0.93093,-0.49821 -3.26612,-0.75315 -5.18932,-0.56654 -1.92319,0.18662 -3.83422,0.36803 -4.24672,0.40314 -0.4125,0.0351 -0.75,0.68638 -0.75,1.44726 0,0.76089 -1.08329,1.59051 -2.4073,1.84361 -2.17946,0.41663 -2.3104,0.24749 -1.38341,-1.78704 z m 23.60321,1.8769 c 0.72187,-0.28887 1.58437,-0.25335 1.91667,0.0789 0.33229,0.33229 -0.25834,0.56864 -1.3125,0.52522 -1.16495,-0.048 -1.4019,-0.28494 -0.60417,-0.60416 z M 137,131.17319 c 0,-0.45474 1.35,-0.62867 3,-0.3865 1.65,0.24217 3,0.61423 3,0.82681 0,0.21257 -1.35,0.3865 -3,0.3865 -1.65,0 -3,-0.37206 -3,-0.82681 z m -39.606201,-5.17242 c 0.09833,-2.76683 0.349348,-2.96156 3.388581,-2.62876 1.80531,0.19768 3.60531,0.71654 4,1.15303 0.39469,0.43649 -0.0699,0.51104 -1.03238,0.16567 -1.177,-0.42233 -1.75,-0.12775 -1.75,0.89969 0,0.89793 -0.47475,1.23423 -1.1517,0.81584 -0.63344,-0.39148 -1.693732,0.0295 -2.356205,0.93546 -1.034,1.41408 -1.189464,1.22427 -1.098296,-1.34093 z M 107.75,126.33772 c 0.6875,-0.27741 1.8125,-0.27741 2.5,0 0.6875,0.27741 0.125,0.50439 -1.25,0.50439 -1.375,0 -1.9375,-0.22698 -1.25,-0.50439 z m 14.84105,-2.1904 c -0.28984,-0.46897 0.0425,-1.63146 0.73848,-2.5833 0.99214,-1.35684 2.06514,-1.58061 4.96797,-1.03603 4.39692,0.82487 4.61775,1.53971 0.99533,3.22201 -3.12175,1.44979 -5.94777,1.61733 -6.70178,0.39732 z M 137.5,123 c -0.33992,-0.55 -0.14148,-1 0.44098,-1 1.48302,0 1.32709,-2.72517 -0.19098,-3.33772 -0.6875,-0.27741 -0.35,-0.5468 0.75,-0.59865 1.6644,-0.0784 1.7483,-0.25691 0.5,-1.06363 -1.09851,-0.70991 -0.36246,-0.97347 2.75,-0.98469 2.3375,-0.008 4.25,0.39256 4.25,0.89107 0,0.49851 -0.90093,0.67078 -2.00207,0.38283 -1.57165,-0.411 -2.32699,0.25408 -3.51342,3.09362 -1.609,3.85089 -2.00657,4.19952 -2.98451,2.61717 z m -30.91468,-5.87056 c 1.07014,-2.14516 2.37748,-3.02685 5.17335,-3.489 6.54915,-1.08255 11.2262,-0.69443 15.28964,1.26881 2.17343,1.05009 3.95169,1.47353 3.95169,0.94098 0,-0.53254 0.45734,-0.68561 1.01631,-0.34015 0.55897,0.34546 0.73082,1.09005 0.38189,1.65464 -0.72518,1.17336 -4.58462,0.72947 -12.15499,-1.39798 -4.22518,-1.18738 -5.59067,-1.23316 -6.95811,-0.23326 -0.93572,0.68422 -2.28267,1.02095 -2.99321,0.74829 C 109.58135,116.00911 109,116.46102 109,117.28602 109,118.50792 107.07296,120 105.49486,120 c -0.18787,0 0.30284,-1.29175 1.09046,-2.87056 z m 24.16468,2.20828 c 0.6875,-0.27741 1.8125,-0.27741 2.5,0 0.6875,0.27741 0.125,0.50439 -1.25,0.50439 -1.375,0 -1.9375,-0.22698 -1.25,-0.50439 z m 21.70323,-0.26204 c 0.31419,-0.50837 -0.11807,-1.13757 -0.96059,-1.39821 -1.18491,-0.36656 -1.14983,-0.44033 0.15489,-0.32568 1.8832,0.16547 3.17396,2.64821 1.37679,2.64821 -0.6283,0 -0.88529,-0.41594 -0.57109,-0.92432 z m -53.66936,-7.92094 c 0.759702,-0.48205 1.000366,-1.55344 0.589469,-2.62422 -0.584454,-1.52306 -0.403796,-1.64694 1.141001,-0.78243 2.96636,1.66005 2.7503,4.25445 -0.35282,4.2366 -1.758316,-0.0101 -2.22583,-0.29177 -1.37765,-0.82995 z m 6.96613,0.18298 c 0.6875,-0.27741 1.8125,-0.27741 2.5,0 0.6875,0.27741 0.125,0.50439 -1.25,0.50439 -1.375,0 -1.9375,-0.22698 -1.25,-0.50439 z m 11,-1 c 0.6875,-0.27741 1.8125,-0.27741 2.5,0 0.6875,0.27741 0.125,0.50439 -1.25,0.50439 -1.375,0 -1.9375,-0.22698 -1.25,-0.50439 z m 7.01586,-2.89323 c 0.42622,-2.22964 0.86537,-2.50443 3.11515,-1.94925 2.68483,0.66253 4.82508,2.17064 4.05232,2.85543 -0.23833,0.21121 -2.06015,0.67771 -4.04848,1.03669 -3.4736,0.62711 -3.59573,0.55103 -3.11899,-1.94287 z M 105,104.15499 c 0,-1.37228 3.27445,-3.80048 6.5,-4.820148 3.66364,-1.158157 12.41046,-0.824381 13.75992,0.525076 0.54108,0.541082 1.60396,0.745812 2.36194,0.454952 0.75797,-0.29087 1.37814,-0.062 1.37814,0.50859 0,0.57059 1.0125,1.21023 2.25,1.42142 1.2375,0.2112 -0.13644,0.44191 -3.0532,0.51271 -3.91869,0.0951 -5.45618,-0.26994 -5.88916,-1.39828 -0.47509,-1.23806 -0.74596,-1.27461 -1.43149,-0.19316 -0.61502,0.97021 -0.8497,0.9984 -0.86084,0.10338 -0.0103,-0.8285 -1.07702,-1.05777 -3.26531,-0.70183 -1.7875,0.29076 -4.24992,0.51305 -5.47205,0.49399 -1.22213,-0.0191 -2.70046,0.85926 -3.28518,1.95182 C 106.92696,105.005 105,105.73996 105,104.15499 z m 25.26903,0.15202 c 0.97297,-0.25354 2.32297,-0.23687 3,0.037 0.67703,0.27393 -0.11903,0.48137 -1.76903,0.46099 -1.65,-0.0204 -2.20394,-0.2445 -1.23097,-0.49804 z m 9.54347,-0.99012 c 0.72187,-0.28887 1.58437,-0.25335 1.91667,0.0789 0.33229,0.3323 -0.25834,0.56864 -1.3125,0.52522 -1.16495,-0.048 -1.4019,-0.28494 -0.60417,-0.60416 z M 144.5,102 c -0.33992,-0.55 -0.14148,-1 0.44098,-1 0.58246,0 1.05902,0.45 1.05902,1 0,0.55 -0.19844,1 -0.44098,1 -0.24254,0 -0.7191,-0.45 -1.05902,-1 z M 98.484687,96.975223 c -0.34834,-0.563627 -0.262398,-0.960337 0.190983,-0.881579 2.5327,0.439967 3.58926,-0.314905 1.57433,-1.124806 -1.2375,-0.497414 -2.243109,-1.48139 -2.234687,-2.186614 0.01179,-0.986909 0.213311,-0.969742 0.875,0.07454 0.599292,0.945806 1.066872,1.02153 1.543707,0.25 0.37621,-0.60872 1.44496,-1.099872 2.375,-1.09145 1.32676,0.01201 1.3995,0.200013 0.33773,0.872826 -1.05552,0.668858 -1.10278,1.325497 -0.21481,2.984687 C 103.95059,97.776188 103.80984,98 101.5942,98 c -1.36189,0 -2.761172,-0.461149 -3.109513,-1.024777 z m 10.327813,0.341663 c 0.72187,-0.288871 1.58437,-0.253344 1.91667,0.07895 0.33229,0.332292 -0.25834,0.568641 -1.3125,0.52522 -1.16495,-0.04798 -1.4019,-0.284941 -0.60417,-0.604167 z m 9,-1 c 0.72187,-0.288871 1.58437,-0.253344 1.91667,0.07895 0.33229,0.332292 -0.25834,0.568641 -1.3125,0.52522 -1.16495,-0.04798 -1.4019,-0.284941 -0.60417,-0.604167 z M 124.16218,94.25 c 0.15835,-0.9625 -0.0649,-2.3125 -0.49616,-3 -0.51887,-0.827232 -0.17222,-1.254618 1.02496,-1.263655 0.99496,-0.0075 2.89189,-0.303395 4.21539,-0.657523 1.59029,-0.42551 2.18166,-0.280278 1.74377,0.428244 -0.36443,0.589663 -0.0973,1.300022 0.59363,1.578576 0.71948,0.290066 0.46279,0.540195 -0.60076,0.585411 -1.17569,0.04998 -1.65746,0.598905 -1.31314,1.496188 C 129.87743,94.844168 128.09876,96 125.35535,96 c -0.85355,0 -1.35909,-0.741461 -1.19317,-1.75 z m 28.48848,-2.717975 c -0.30982,-0.807386 -0.22638,-1.676211 0.18543,-1.930722 0.41181,-0.254511 0.81419,0.406078 0.89418,1.467975 0.17299,2.296565 -0.29838,2.498605 -1.07961,0.462747 z M 105.36111,88.25 c 0.0764,-0.9625 1.26389,-2.123014 2.63889,-2.578921 4.34697,-1.441316 14.95055,-1.957011 16.35046,-0.795189 0.71839,0.596211 3.07092,1.497838 5.22785,2.003614 3.79107,0.888965 3.71156,0.92294 -2.38733,1.020045 -3.48538,0.05549 -6.06139,-0.300208 -5.75574,-0.794764 0.84799,-1.372077 -2.51749,-2.281417 -3.97296,-1.07348 -0.85568,0.71015 -1.4926,0.728658 -1.90865,0.05546 -0.75306,-1.21847 -4.98563,0.202376 -7.20037,2.417113 -1.9906,1.990596 -3.16239,1.89117 -2.99215,-0.253882 z m 31.49959,0.642745 c -0.92513,-0.586147 -0.32034,-0.867021 1.8893,-0.877432 1.7875,-0.0084 3.25,0.157203 3.25,0.368056 0,0.909292 -3.89829,1.295666 -5.1393,0.509376 z m 1.8893,-2.555026 c 0.6875,-0.277412 1.8125,-0.277412 2.5,0 0.6875,0.277413 0.125,0.504386 -1.25,0.504386 -1.375,0 -1.9375,-0.226973 -1.25,-0.504386 z m 10.0625,-1.020833 c 0.72187,-0.288871 1.58437,-0.253344 1.91667,0.07895 0.33229,0.332292 -0.25834,0.568641 -1.3125,0.52522 -1.16495,-0.04798 -1.4019,-0.284941 -0.60417,-0.604167 z M 97.638374,82.5 C 97.321791,81.675 97.498646,81 98.031385,81 98.564123,81 99,81.42011 99,81.933578 c 0,0.513467 1.2375,1.121043 2.75,1.350168 2.64484,0.400659 2.62981,0.42232 -0.39301,0.566422 C 99.378629,83.944479 98.000686,83.444171 97.638374,82.5 z M 105.75,83.337719 c 0.6875,-0.277412 1.8125,-0.277412 2.5,0 0.6875,0.277413 0.125,0.504386 -1.25,0.504386 -1.375,0 -1.9375,-0.226973 -1.25,-0.504386 z m -6.046998,-2.669301 c -0.248822,-0.64842 0.166211,-1.756818 0.922298,-2.463108 1.11945,-1.045728 1.37754,-1.044751 1.39001,0.0053 0.0108,0.912054 0.29902,0.850426 0.98469,-0.210573 0.53316,-0.825 0.97627,-1.037508 0.98469,-0.472241 0.0257,1.723715 -3.75988,4.500463 -4.281688,3.140659 z M 124.47016,79.75 c 0.5721,-4.377604 1.67731,-5.75 4.63055,-5.75 2.45126,0 2.82347,0.339424 2.46733,2.25 -0.23068,1.2375 -0.45286,2.543479 -0.49373,2.902175 C 131.01571,79.666457 125.57852,82 124.43883,82 c -0.14449,0 -0.1304,-1.0125 0.0313,-2.25 z m 12.26657,-1.851239 C 137.27477,75.841295 139,75.272828 139,77.15301 c 0,0.634155 0.84028,0.184155 1.8673,-1 C 141.89431,74.968854 143.02312,74 143.37577,74 c 0.53748,0 0.12178,0.970005 -2.09302,4.883918 -0.11949,0.211156 -1.30295,0.503098 -2.62991,0.648761 -1.93359,0.212255 -2.31406,-0.112177 -1.91611,-1.633918 z M 153.63837,76.5 C 153.32179,75.675 153.49865,75 154.03138,75 154.56412,75 155,75.675 155,76.5 c 0,0.825 -0.17686,1.5 -0.39301,1.5 -0.21616,0 -0.65203,-0.675 -0.96862,-1.5 z M 139,74.440983 c 0,-0.857459 0.45734,-1.276365 1.01631,-0.930902 0.55897,0.345464 0.75742,1.047021 0.44098,1.559017 C 139.60006,76.456142 139,76.197509 139,74.440983 z M 104,74 c 0.825,-0.533156 1.05,-1.004789 0.5,-1.048074 -0.55,-0.04328 0.125,-0.544718 1.5,-1.114297 3.37751,-1.399098 17.88615,-2.010627 19.89125,-0.838402 1.12052,0.655079 -0.51565,0.964787 -5.39125,1.0205 -9.27375,0.105971 -11.58164,0.39926 -14.18426,1.802553 C 103.69578,75.234925 101.87258,75.374845 104,74 z m 31.8125,-0.683114 c 0.72187,-0.288871 1.58437,-0.253344 1.91667,0.07895 0.33229,0.332292 -0.25834,0.568641 -1.3125,0.52522 -1.16495,-0.04798 -1.4019,-0.284941 -0.60417,-0.604167 z M 139.5,72 l -3,-0.76337 3,-0.04803 c 1.65,-0.02642 3.9,0.338714 5,0.8114 2,0.859429 2,0.859429 0,0.8114 -1.1,-0.02642 -3.35,-0.391546 -5,-0.8114 z m 6.76903,-1.692991 c 0.97297,-0.253543 2.32297,-0.236869 3,0.03705 0.67703,0.273923 -0.11903,0.481368 -1.76903,0.460988 -1.65,-0.02038 -2.20394,-0.244498 -1.23097,-0.498042 z M 98.25,69.310674 c 0.9625,-0.251527 2.5375,-0.251527 3.5,0 0.9625,0.251528 0.175,0.457323 -1.75,0.457323 -1.925,0 -2.7125,-0.205795 -1.75,-0.457323 z m 26.5,-2.038978 c 1.17754,-0.394095 1.67758,-2.253819 1.33643,-4.97037 -0.15995,-1.273701 6.57728,-2.970949 7.62686,-1.921364 C 134.05432,60.720983 133.06359,61 131.51168,61 c -2.61549,0 -2.70756,0.127865 -1.26013,1.75 1.92574,2.15819 0.52928,3.789092 -3.83517,4.479021 -1.60401,0.25356 -2.35388,0.272764 -1.66638,0.04268 z m 8.2818,-2.183831 c 0.0175,-0.323326 0.6925,-1.461373 1.5,-2.528995 1.45336,-1.921506 1.46851,-1.921506 1.49861,0 0.0282,1.797864 0.10564,1.811971 1.04969,0.19113 0.5606,-0.9625 2.08512,-1.75 3.3878,-1.75 3.85464,0 5.5321,-1.068457 5.5321,-3.523655 0,-1.270323 0.5625,-2.536652 1.25,-2.814064 1,-0.403509 1,-0.520176 0,-0.583334 -0.6875,-0.04342 -1.25,-0.559271 -1.25,-1.146335 0,-0.626793 0.86058,-0.794249 2.08485,-0.405681 2.02788,0.643623 2.0384,0.590804 0.38499,-1.932612 -1.69315,-2.584077 -1.68855,-2.594345 1.16515,-2.600908 l 2.86501,-0.0066 -2.82023,-1.859472 c -2.22872,-1.469462 -2.49443,-1.984495 -1.26686,-2.455556 1.94367,-0.745857 0.98307,-3.622923 -1.2699,-3.803435 -0.90365,-0.0724 -0.068,-0.433428 1.85699,-0.802279 3.46614,-0.66415 6,0.253526 6,2.172996 0,0.546803 -0.93555,0.749536 -2.07899,0.450519 -1.56679,-0.409725 -1.93529,-0.169201 -1.49574,0.976269 1.70849,4.452249 1.7629,6.334136 0.18314,6.334136 -1.34735,0 -1.28379,0.324621 0.39159,2 1.1,1.1 2.00614,3.0125 2.01365,4.25 0.008,1.2375 0.28037,3.244813 0.60636,4.460696 0.539,2.010421 0.33393,2.143962 -2.26366,1.474064 -4.76344,-1.228455 -8.35779,-0.311166 -9.38689,2.395556 -0.80928,2.128574 -1.49967,2.415781 -5.44809,2.266434 -2.48675,-0.09406 -4.50706,-0.435559 -4.48957,-0.758885 z M 153,55 c 0,-0.55 -0.47656,-1 -1.05902,-1 -0.58246,0 -0.7809,0.45 -0.44098,1 0.33992,0.55 0.81648,1 1.05902,1 C 152.80156,56 153,55.55 153,55 z M 98.606989,58.418213 C 97.709,56.078092 97.773587,56 100.60699,56 c 1.96639,0 2.45784,0.388682 2,1.581787 -0.33385,0.869984 -0.60699,1.769984 -0.60699,2 0,1.181569 -2.870892,0.197046 -3.393011,-1.163574 z"
       id="path2828" />
    <path
       style="fill:#a29c9c"
       d="m 133.05493,210.81424 c -0.51049,-1.27283 -0.95668,-1.72518 -0.99154,-1.00522 -0.0349,0.71996 -0.4823,1.05012 -0.99429,0.73369 -0.512,-0.31644 -1.21356,-0.11799 -1.55902,0.44098 -1.17948,1.90843 -4.35627,1.09268 -4.80435,-1.23369 -0.41012,-2.12929 -0.44067,-2.13676 -0.56955,-0.13928 -0.11415,1.76923 -0.6912,2.06668 -3.56681,1.83851 -3.26529,-0.25909 -8.36796,-2.35496 -5.88892,-2.41882 0.64925,-0.0167 1.37546,-1.04291 1.61382,-2.28041 l 0.43337,-2.25 0.13618,2.25 c 0.13275,2.19325 3.13618,3.33382 3.13618,1.19098 0,-0.58246 0.45,-0.7809 1,-0.44098 0.55,0.33992 1,0.14148 1,-0.44098 0,-0.58246 0.3375,-1.00573 0.75,-0.9406 0.4125,0.0651 1.875,0.0129 3.25,-0.116 1.78661,-0.16753 2.00063,-0.36492 0.75,-0.69175 -2.53914,-0.66354 -2.1526,-2.27337 0.42659,-1.77666 1.66885,0.32139 1.90212,0.1447 1,-0.75742 -1.63547,-1.63547 -1.43261,-2.88902 0.92616,-5.72318 1.68038,-2.01904 2.19615,-2.1938 2.95142,-1 0.79072,1.24983 0.93085,1.24256 1.0302,-0.0534 0.0632,-0.825 0.43701,-0.375 0.83059,1 0.4577,1.59901 0.97384,-1.63799 1.43215,-8.98183 0.3941,-6.31501 1.15223,-11.91751 1.68472,-12.45 0.53249,-0.53249 0.96817,-1.57199 0.96817,-2.30998 0,-0.738 0.88444,-2.29115 1.96542,-3.45145 1.08098,-1.16029 1.74164,-2.47171 1.46813,-2.91425 -0.2735,-0.44255 0.65356,-1.55869 2.06015,-2.48032 1.86533,-1.22221 2.40228,-2.24895 1.98412,-3.79393 -0.52607,-1.94366 -0.47904,-1.96716 0.57064,-0.28511 0.92703,1.48551 0.74646,2.25627 -0.95225,4.06445 -1.15291,1.22723 -2.09621,2.55864 -2.09621,2.95868 0,0.40005 -0.86697,1.65795 -1.92659,2.79532 -2.81173,3.01804 -4.09223,9.81876 -4.34754,23.08968 -0.12423,6.4577 -0.52944,11.7452 -0.90046,11.75 -0.37103,0.005 -0.48262,1.55662 -0.24797,3.44846 0.50546,4.07526 -1.19749,5.67831 -2.52251,2.37452 z M 133,206 c 0,-1.1161 -0.66667,-2 -1.50847,-2 -1.25815,0 -1.30121,0.33189 -0.25946,2 0.68696,1.1 1.36578,2 1.50848,2 0.1427,0 0.25945,-0.9 0.25945,-2 z m -23.16477,1.68132 c -0.74755,-0.64973 -1.18212,-1.08465 -0.96572,-0.9665 0.2164,0.11815 1.28859,-0.26425 2.38265,-0.84977 1.26509,-0.67706 1.76099,-0.69534 1.36229,-0.0502 -0.3448,0.5579 -0.0844,1.19521 0.57876,1.41625 0.78748,0.26249 0.64993,0.61514 -0.39657,1.01673 -0.88123,0.33816 -2.21387,0.0832 -2.96141,-0.56648 z M 105.5,204 c 0.33992,-0.55 1.06803,-1 1.61803,-1 0.55,0 0.72189,0.45 0.38197,1 -0.33992,0.55 -1.06803,1 -1.61803,1 -0.55,0 -0.72189,-0.45 -0.38197,-1 z m -1.10318,-12.4389 c -0.86489,-1.83269 -0.70855,-2.18734 1.02169,-2.31767 1.12357,-0.0846 2.56082,-0.86226 3.1939,-1.72805 1.03749,-1.41885 1.21606,-1.40477 1.8099,0.14277 0.40058,1.04389 0.0743,2.04406 -0.83237,2.55145 -0.82016,0.45899 -2.09438,1.4377 -2.83159,2.17491 -1.12051,1.12051 -1.50789,0.98544 -2.36153,-0.82341 z m 25.61849,-1.19447 c -0.0204,-1.51287 -4.00633,-2.52075 -4.04572,-1.02301 -0.0167,0.63601 -0.49075,0.36591 -1.05339,-0.60023 -0.79014,-1.3568 -1.45222,-1.52689 -2.9089,-0.7473 -1.03726,0.55513 -2.12729,0.61878 -2.42229,0.14146 -0.57053,-0.92314 -4.80674,-0.73658 -6.45878,0.28443 -0.54342,0.33586 -1.24102,0.20131 -1.55022,-0.29899 -0.69089,-1.11789 3.16249,-2.15004 10.37632,-2.77939 2.99879,-0.26161 5.78019,-0.67829 6.18091,-0.92594 0.40071,-0.24766 1.01122,0.007 1.35668,0.56603 0.34546,0.55897 1.50156,1.01631 2.5691,1.01631 1.45448,0 1.93714,0.68928 1.92567,2.75 -0.012,2.15615 -0.22795,2.42608 -1,1.25 -0.87528,-1.33333 -1.0941,-1.33333 -1.96938,0 -0.54158,0.825 -0.99158,0.98998 -1,0.36663 z M 104,184.17319 c 0,-0.45474 1.35,-0.62867 3,-0.3865 1.65,0.24217 3,0.61423 3,0.82681 0,0.21257 -1.35,0.3865 -3,0.3865 -1.65,0 -3,-0.37206 -3,-0.82681 z m 16.26903,-0.86618 c 0.97297,-0.25354 2.32297,-0.23687 3,0.0371 0.67703,0.27393 -0.11903,0.48137 -1.76903,0.46099 -1.65,-0.0204 -2.20394,-0.2445 -1.23097,-0.49804 z m 8.23097,-1.0506 c 3.25612,-0.38808 3.62806,-0.62916 2,-1.29629 -1.7337,-0.71042 -1.62274,-0.82891 0.83333,-0.88983 1.84092,-0.0457 2.68936,0.36754 2.42228,1.17971 -0.23803,0.72385 -2.27249,1.29907 -4.83333,1.36657 l -4.42228,0.11658 4,-0.47674 z M 104,178.5651 c 0,-0.2392 0.40768,-1.50717 0.90595,-2.81772 0.70429,-1.85243 2.20677,-2.6972 6.75,-3.79517 5.41525,-1.30872 5.62393,-1.46016 2.84405,-2.06396 l -3,-0.65162 3.25,-0.11832 c 1.85904,-0.0677 3.25,0.37601 3.25,1.03668 0,0.69104 0.73458,0.4902 1.82874,-0.5 1.00581,-0.91025 2.75766,-1.65499 3.89301,-1.65499 1.13535,0 2.32329,-0.675 2.63988,-1.5 0.31658,-0.825 1.15222,-1.46447 1.85699,-1.42105 1.00364,0.0618 1.01044,0.18827 0.0314,0.58333 -0.6875,0.27741 -1.25,1.14189 -1.25,1.92105 0,0.90741 -1.07843,1.41667 -3,1.41667 -1.65,0 -3,0.49814 -3,1.10699 0,0.60884 0.62017,0.86901 1.37814,0.57814 0.75798,-0.29086 1.93923,-0.002 2.625,0.64301 0.95513,0.89768 1.3541,0.87939 1.70519,-0.0781 0.25209,-0.6875 1.14398,-1.25 1.98199,-1.25 1.0166,0 1.32084,0.58238 0.91422,1.75 -0.53982,1.55006 -0.46635,1.57181 0.64301,0.19035 0.75779,-0.94366 2.08676,-1.33861 3.36488,-1 1.6461,0.4361 1.93756,1.00117 1.32029,2.55965 -0.43568,1.1 -0.82378,1.4375 -0.86243,0.75 -0.0387,-0.6875 -0.54685,-1.25 -1.12931,-1.25 -0.58246,0 -0.82596,0.37709 -0.54112,0.83797 0.28484,0.46088 -2.5011,0.27972 -6.19098,-0.40257 -7.04872,-1.30338 -8.38805,-1.30445 -14.45888,-0.0115 -3.42254,0.72893 -4.3355,1.86791 -3.86842,4.82609 C 107.94671,178.6625 107.1,179 106,179 c -1.1,0 -2,-0.19571 -2,-0.4349 z M 98,171 c 0,-0.55 0.476558,-1 1.059017,-1 0.582459,0 0.780902,0.45 0.440983,1 -0.339919,0.55 -0.816476,1 -1.059017,1 C 98.198442,172 98,171.55 98,171 z m 32.70362,-4.10362 c 0.79095,-0.79095 1.62674,-0.79957 2.95,-0.0304 1.61863,0.94083 1.48249,1.07696 -1.10362,1.10362 -2.15133,0.0222 -2.65121,-0.26838 -1.84638,-1.07321 z m 4.90947,-2.07936 c 0.28881,-0.4673 0.94401,-0.59075 1.45601,-0.27431 1.30838,0.80862 1.16106,1.12396 -0.52511,1.12396 -0.80081,0 -1.21971,-0.38234 -0.9309,-0.84965 z m -31.56056,-1.91518 C 104.61234,161.85583 105.50453,161 106.03518,161 106.56583,161 107,160.38352 107,159.63005 c 0,-0.85558 1.78345,-1.66976 4.75,-2.16848 6.1254,-1.02975 24.25,-1.244 24.25,-0.28665 0,0.8445 6.65018,0.14863 8.35794,-0.87457 0.62813,-0.37635 0.4985,0.1084 -0.28808,1.07721 -0.78658,0.96882 -2.22002,1.55493 -3.18542,1.30247 -0.9654,-0.25246 -1.99521,0.16626 -2.28847,0.93048 -0.60747,1.58303 -4.17491,1.8798 -5.07573,0.42224 -0.32878,-0.53198 -2.00031,-0.68674 -3.7145,-0.3439 -2.13685,0.42737 -2.90348,0.27831 -2.43844,-0.47414 0.44278,-0.71643 -0.80526,-1.20464 -3.59451,-1.4061 C 117.01727,157.32068 107,160.12533 107,162.50469 c 0,0.69413 -0.89219,1.49536 -1.98265,1.78052 -1.68647,0.44102 -1.8306,0.23436 -0.96482,-1.38337 z m 6.69747,-7.56412 c 0.6875,-0.27741 1.8125,-0.27741 2.5,0 0.6875,0.27741 0.125,0.50439 -1.25,0.50439 -1.375,0 -1.9375,-0.22698 -1.25,-0.50439 z m 10,-1 c 0.6875,-0.27741 1.8125,-0.27741 2.5,0 0.6875,0.27741 0.125,0.50439 -1.25,0.50439 -1.375,0 -1.9375,-0.22698 -1.25,-0.50439 z m 6.25,-1.96016 c 0,-1.3888 0.25202,-1.42955 1.75,-0.28297 0.9625,0.73671 1.9375,1.46681 2.16667,1.62244 0.22916,0.15563 -0.55834,0.28297 -1.75,0.28297 C 127.83473,154 127,153.37493 127,152.37756 z m 3.12927,-1.02766 c -1.27803,-0.93235 -0.44552,-1.2792 4.3971,-1.83192 3.2855,-0.37499 6.87363,-0.86579 7.97363,-1.09066 1.1,-0.22487 1.4375,-0.15051 0.75,0.16524 -0.6875,0.31576 -1.25,1.20303 -1.25,1.97172 0,2.5256 -8.69666,3.10115 -11.87073,0.78562 z M 139,151.08848 c 0,-1.01666 -2.55691,-0.8649 -3.63772,0.21591 C 134.97969,151.68698 135.64167,152 136.83333,152 138.025,152 139,151.58982 139,151.08848 z m 11,-1.02946 c 0,-1.67643 1.77354,-2.09154 2.36383,-0.55328 C 152.71213,150.4134 152.3607,151 151.46862,151 150.66088,151 150,150.57656 150,150.05902 z m -46.73332,-2.16889 C 103.18837,146.85056 103.73383,146 104.47882,146 c 0.74498,0 1.51098,-0.46939 1.70221,-1.0431 0.19124,-0.5737 1.57946,-1.17442 3.08494,-1.33493 1.50547,-0.16051 3.03651,-0.59112 3.4023,-0.9569 0.36578,-0.36579 1.82756,-0.67196 3.2484,-0.68038 2.09116,-0.0124 2.29755,-0.21521 1.08333,-1.06452 -1.10307,-0.77157 -0.44153,-0.88446 2.5,-0.42663 2.2,0.34241 5.36241,0.75204 7.02757,0.91029 1.66517,0.15825 4.01172,0.81442 5.21456,1.45816 1.80214,0.96448 5.34958,0.97558 10.96366,0.0343 1.95602,-0.32795 2.96088,0.2163 2.96088,1.60368 0,1.08014 -1.14296,1.51422 -4.08334,1.55082 -2.24583,0.028 -6.10833,0.27771 -8.58333,0.55502 -3.427,0.38398 -4.14233,0.242 -3,-0.59545 1.19401,-0.87533 0.88801,-1.04178 -1.5,-0.81596 -1.79453,0.16969 -2.9162,-0.16423 -2.79145,-0.83103 0.14279,-0.76323 -1.88161,-0.97807 -6.42023,-0.68135 -6.79253,0.4441 -13.28832,2.47762 -13.28832,4.15996 0,1.87834 -2.59202,1.924 -2.73332,0.0481 z m 21.54582,-8.57324 c 0.72187,-0.28887 1.58437,-0.25335 1.91667,0.0789 0.33229,0.33229 -0.25834,0.56864 -1.3125,0.52522 -1.16495,-0.048 -1.4019,-0.28494 -0.60417,-0.60416 z m 4.67444,-0.29575 c 0.28903,-0.46768 -0.0398,-1.07823 -0.73071,-1.35678 -0.69093,-0.27856 -0.35623,-0.54888 0.74377,-0.60073 1.6644,-0.0784 1.7483,-0.25691 0.5,-1.06363 -1.24768,-0.80631 -1.16358,-0.98354 0.5,-1.05359 1.1,-0.0463 3.2375,-0.24751 4.75,-0.44709 3.04516,-0.40183 3.54311,0.85043 1.25,3.14354 -0.825,0.825 -1.5,1.27427 -1.5,0.99837 0,-0.27589 -1.35868,-0.11195 -3.01929,0.3643 -1.66062,0.47626 -2.78281,0.48328 -2.49377,0.0156 z M 140.20616,136.25 c 0.36592,-2.17931 1.72171,-3.21486 4.23497,-3.23469 1.92151,-0.0152 1.92151,6e-4 0,1.55885 -1.06762,0.86578 -1.26613,1.2294 -0.44113,0.80804 1.29135,-0.65955 1.30909,-0.53077 0.12756,0.92584 -1.79997,2.21901 -4.29752,2.18205 -3.9214,-0.058 z m 10.84417,-1.34405 c 0.69029,-1.28981 0.53688,-1.88664 -0.57361,-2.23155 -1.05408,-0.32738 -0.9768,-0.42159 0.25368,-0.30922 2.039,0.1862 2.68869,4.30149 0.67908,4.30149 -0.93262,0 -1.0344,-0.49899 -0.35915,-1.76072 z m -49.38366,-0.57262 c -1.45941,-1.45941 -0.55543,-2.49308 1.08333,-1.23874 0.9625,0.73671 1.42776,0.95707 1.03391,0.48969 -1.15171,-1.36675 3.85605,-4.65933 7.95054,-5.22744 2.84041,-0.39411 3.39702,-0.26021 2.26555,0.54503 -0.825,0.58713 -2.44027,1.0744 -3.58948,1.08282 -1.24915,0.009 -2.5476,1.02074 -3.22857,2.51531 -1.06875,2.34566 -4.02145,3.32716 -5.51528,1.83333 z M 130.75,130.71171 c -2.0625,-0.50071 -3.75,-1.20643 -3.75,-1.56826 0,-0.36182 -2.07499,-0.49283 -4.61109,-0.29113 -2.53609,0.20171 -5.57359,-0.0996 -6.75,-0.66967 -1.1764,-0.57002 -2.81391,-1.25953 -3.63891,-1.53224 -0.825,-0.27271 2.3972,-0.35708 7.16044,-0.18749 4.76324,0.16959 9.07063,0.56185 9.57197,0.8717 1.40352,0.86742 8.72592,1.11818 9.98207,0.34184 0.61473,-0.37992 2.26715,-0.25374 3.67205,0.2804 1.99698,0.75925 2.74707,0.62683 3.43747,-0.60686 0.74946,-1.3392 0.96919,-1.24883 1.45193,0.59716 0.69951,2.67492 -0.87161,3.39683 -6.27185,2.88184 C 138.80183,130.61898 137,130.72154 137,131.05691 c 0,0.83296 -1.80844,0.73307 -6.25,-0.3452 z m -31.9375,-3.39482 c 0.721875,-0.28887 1.58437,-0.25335 1.91667,0.0789 0.33229,0.3323 -0.25834,0.56864 -1.312503,0.52522 -1.164943,-0.048 -1.4019,-0.28494 -0.604167,-0.60416 z m 24,-2 c 0.72187,-0.28887 1.58437,-0.25335 1.91667,0.0789 0.33229,0.3323 -0.25834,0.56864 -1.3125,0.52522 -1.16495,-0.048 -1.4019,-0.28494 -0.60417,-0.60416 z m 5.59015,-1.15937 C 128.79611,123.52089 129.76648,123 130.55902,123 c 2.38241,0 1.6209,-1.9908 -0.80902,-2.115 -1.26043,-0.0644 -0.49076,-0.47888 1.75,-0.94237 5.92366,-1.22527 7.5,-1.10812 7.5,0.55737 0,0.825 -0.47656,1.5 -1.05902,1.5 -0.58246,0 -0.7809,0.45 -0.44098,1 0.3554,0.57505 -0.57565,1.0058 -2.19098,1.01365 -1.54496,0.008 -3.89189,0.3034 -5.21539,0.65753 -1.68718,0.45143 -2.19256,0.29792 -1.69098,-0.51366 z m 11.70364,-3.03257 c 0.67735,-1.94306 1.67776,-2.94159 2.85805,-2.85268 1.04527,0.0787 1.60495,0.68657 1.3188,1.43226 -0.27341,0.71251 0.11353,1.30915 0.85987,1.32588 1.66749,0.0374 -0.46909,1.36872 -3.86093,2.40583 -2.08682,0.63808 -2.15632,0.50146 -1.17579,-2.31129 z m 11.32578,2.21046 c 0.31922,-0.64052 0.0151,-1.3925 -0.67584,-1.67105 -0.97369,-0.39256 -0.96182,-0.52422 0.0528,-0.58541 0.71996,-0.0434 1.05012,-0.49786 0.73369,-1.00985 -0.31644,-0.512 -0.0485,-1.25653 0.59549,-1.65451 0.69784,-0.43129 0.9039,-0.29172 0.51008,0.34549 -0.36341,0.58801 -0.19236,1.22523 0.3801,1.41605 0.62115,0.20705 0.39214,1.14875 -0.56793,2.33541 -0.88482,1.09365 -1.34759,1.46439 -1.02838,0.82387 z m -49.17714,-5.06461 c 0.96219,-1.06321 1.44845,-2.23408 1.08059,-2.60195 -0.36787,-0.36787 -0.0604,-0.66885 0.68336,-0.66885 0.74372,0 2.39372,-0.97844 3.66667,-2.17431 1.27295,-1.19588 2.31445,-1.64588 2.31445,-1 0,0.64587 0.47656,1.17431 1.05902,1.17431 0.58246,0 0.81497,-0.39488 0.51669,-0.8775 -0.29828,-0.48263 1.65743,-0.82013 4.34602,-0.75 2.6886,0.0701 4.67953,-0.21 4.4243,-0.6225 -0.25524,-0.4125 0.64999,-0.75 2.01162,-0.75 1.36163,0 2.65945,0.55129 2.88404,1.22508 0.26583,0.79748 2.21464,1.14649 5.58334,0.99991 3.58718,-0.15608 5.17967,0.15839 5.19028,1.02492 0.011,0.89519 0.26581,0.8545 0.89764,-0.14331 0.51675,-0.81606 1.753,-1.16571 2.9837,-0.84388 1.15575,0.30224 2.35336,0.14177 2.66137,-0.3566 0.30801,-0.49837 1.01001,-0.90612 1.56001,-0.90612 0.55,0 0.73976,0.42108 0.42169,0.93573 -0.35341,0.57183 0.57206,0.60581 2.37974,0.0874 2.8157,-0.80753 2.90815,-0.73884 1.92111,1.42747 -0.89292,1.95974 -2.02296,2.35848 -8.13643,2.87101 -4.48709,0.37619 -7.5787,0.19749 -8.40181,-0.48563 C 131.43919,115.1196 131,115.10303 131,115.78681 c 0,0.56743 -1.77826,0.17253 -3.95169,-0.87756 -6.78417,-3.27775 -18.29165,-2.09618 -20.36211,2.09075 -0.70727,1.43025 -2.29413,2.6506 -3.70848,2.85195 -2.38424,0.33943 -2.40996,0.28315 -0.72279,-1.58115 z M 128.75,109.30222 c 1.2375,-0.23928 2.25,-0.8973 2.25,-1.46226 0,-0.56496 -1.0125,-1.31105 -2.25,-1.65798 -1.48401,-0.41604 0.64375,-1.02146 6.25,-1.77834 9.31185,-1.25716 10.75038,-1.03197 8.79856,1.37735 -1.08341,1.33734 -1.06585,1.46268 0.10595,0.75646 0.88194,-0.53153 1.17145,-0.46938 0.77812,0.16706 -0.56389,0.91238 -4.07546,1.54972 -14.68263,2.66483 -1.925,0.20237 -2.4875,0.17217 -1.25,-0.0671 z M 152,105.13234 c 0,-1.09213 -0.7875,-2.21428 -1.75,-2.49366 -1.06048,-0.30782 -0.80063,-0.43522 0.65948,-0.32332 2.41645,0.18517 3.80445,3.12538 2.00145,4.23969 C 152.40992,106.86469 152,106.22447 152,105.13234 z M 100,104 c 0,-0.55 0.45,-1 1,-1 0.55,0 1.9,-0.9 3,-2 1.1,-1.1 3.125,-2 4.5,-2 1.375,0 2.5,-0.478787 2.5,-1.06397 0,-0.585184 1.2375,-0.945566 2.75,-0.80085 1.5125,0.144717 4.48678,-0.110822 6.60951,-0.567864 2.65614,-0.57189 4.08278,-0.469714 4.57561,0.327705 0.39386,0.637279 3.18355,1.291876 6.19931,1.454659 3.01576,0.162784 5.98147,0.603918 6.59047,0.980299 0.609,0.376381 2.27003,0.242248 3.69118,-0.298074 C 143.09009,98.39545 144,98.392931 144,99.024751 144,99.561138 144.66088,100 145.46862,100 c 0.80773,0 1.25276,-0.5625 0.98894,-1.25 -0.29995,-0.781658 0.40158,-1.25 1.87239,-1.25 3.45843,0 2.29183,3.47809 -1.19658,3.56749 -1.44835,0.0371 -4.17856,0.26738 -6.06712,0.5117 -2.11142,0.27314 -3.7422,-0.0417 -4.23469,-0.81749 -0.6347,-0.999836 -0.80411,-1.002264 -0.81625,-0.0117 -0.009,0.75899 -1.39014,1.25 -3.51531,1.25 -1.925,0 -3.5,-0.49814 -3.5,-1.10699 0,-0.60884 -0.62017,-0.86901 -1.37814,-0.57814 -0.75798,0.29086 -1.82261,0.0844 -2.36583,-0.45884 -1.22517,-1.225174 -9.64401,-1.510277 -13.99384,-0.473902 -1.7808,0.424286 -4.09557,1.861882 -5.14392,3.194652 C 104.24068,104.96374 100,105.9502 100,104 z m 28.69382,-8.643555 c 0.65661,-0.267113 0.94596,-1.131587 0.64301,-1.921053 -0.35581,-0.927246 0.10659,-1.440813 1.30618,-1.450705 1.42323,-0.01174 1.54008,-0.216119 0.50023,-0.875 -2.01748,-1.278335 0.12972,-2.225051 4.57942,-2.019107 2.07754,0.09615 5.0503,-0.167574 6.60613,-0.586061 2.66478,-0.716771 2.80973,-0.595315 2.5,2.094859 -0.2906,2.524064 -0.85144,2.948888 -4.82879,3.657703 -2.475,0.441077 -5.5125,0.626076 -6.75,0.41111 -1.2375,-0.214966 -2.25,-0.0032 -2.25,0.470481 0,0.47373 -0.7875,0.825802 -1.75,0.782381 -0.9625,-0.04342 -1.21278,-0.297495 -0.55618,-0.564608 z M 151.66602,91.75 c 0.43124,-0.6875 0.65451,-2.0375 0.49616,-3 -0.15834,-0.9625 0.18757,-1.75 0.76869,-1.75 0.58112,0 0.86784,1.0125 0.63717,2.25 -0.23068,1.2375 -0.45286,2.5875 -0.49373,3 -0.0409,0.4125 -0.55087,0.75 -1.13333,0.75 -0.59871,0 -0.71822,-0.543317 -0.27496,-1.25 z m -48.24574,-3.407771 c 0.40531,-2.761561 6.44735,-5.737493 9.00201,-4.433832 1.20552,0.615186 1.44804,1.010829 0.57771,0.942493 -3.36207,-0.26398 -7.74076,1.396745 -7.62231,2.890944 0.0673,0.848599 -0.40411,1.729315 -1.04751,1.957145 -0.65974,0.233615 -1.05649,-0.357978 -0.9099,-1.35675 z M 147.75,87.337719 c 0.6875,-0.277412 1.8125,-0.277412 2.5,0 0.6875,0.277413 0.125,0.504386 -1.25,0.504386 -1.375,0 -1.9375,-0.226973 -1.25,-0.504386 z m -22.00384,-1.725552 c -1.51461,-0.823651 -4.66461,-1.647943 -7,-1.83176 L 114.5,83.446193 118.41314,82.5812 c 2.61923,-0.578977 5.02163,-0.464156 7.26554,0.34725 4.86139,1.757904 13.31763,2.24169 13.33663,0.762996 0.011,-0.858093 0.22087,-0.877907 0.75,-0.07082 0.54021,0.823981 1.98059,0.801644 5.44125,-0.08438 3.72501,-0.953707 4.80602,-0.94585 5.18343,0.03767 0.61202,1.594893 -1.81062,2.142022 -12.88999,2.911077 -7.01523,0.48695 -9.6073,0.294465 -11.75384,-0.872828 z M 128.25,80.844842 c 1.5125,-0.55633 2.80625,-1.424009 2.875,-1.928175 C 131.19375,78.4125 131.3625,77.55 131.5,77 c 0.1375,-0.55 0.30625,-1.400767 0.375,-1.890594 0.2176,-1.550344 7.125,-1.889256 7.125,-0.349588 0,0.747019 0.45734,1.075564 1.01631,0.730101 0.55897,-0.345464 0.75742,-1.047021 0.44098,-1.559017 -0.87705,-1.41911 3.50677,-1.109696 4.96705,0.350578 2.1292,2.129199 0.15016,5.721327 -3.14212,5.703207 C 140.752,79.976265 139.95,79.638765 140.5,79.234687 141.8491,78.243521 144.18035,74 143.37577,74 c -0.35265,0 -1.48146,0.968854 -2.50847,2.15301 -1.02702,1.184155 -1.8673,1.634155 -1.8673,1 C 139,76.518854 138.49752,76 137.88337,76 c -0.62456,0 -0.88599,0.88196 -0.59326,2.00138 0.28785,1.100759 0.15377,1.772955 -0.29796,1.493769 -0.45173,-0.279185 -0.97226,-0.124311 -1.15674,0.344166 -0.18448,0.468477 -2.58541,1.113959 -5.33541,1.434405 -4.08236,0.4757 -4.4953,0.396989 -2.25,-0.428878 z M 152.5,77 c 0.33992,-0.55 0.81648,-1 1.05902,-1 0.24254,0 0.44098,0.45 0.44098,1 0,0.55 -0.47656,1 -1.05902,1 -0.58246,0 -0.7809,-0.45 -0.44098,-1 z M 101,73.475 c 0,-0.917468 1.29474,-1.789862 3.25,-2.189845 3.17376,-0.649249 3.19135,-0.681513 0.75,-1.37532 -2.412,-0.685467 -2.3944,-0.713445 0.5,-0.794842 4.83852,-0.136071 6.31647,1.509254 2.07113,2.305685 -1.99469,0.374206 -3.39179,1.060485 -3.10466,1.525064 0.28712,0.464578 -0.18718,1.116842 -1.054,1.449473 C 101.18,75.251894 101,75.183235 101,73.475 z M 152.63837,73.5 C 152.32179,72.675 152.49865,72 153.03138,72 153.56412,72 154,72.675 154,73.5 c 0,0.825 -0.17686,1.5 -0.39301,1.5 -0.21616,0 -0.65203,-0.675 -0.96862,-1.5 z m -26.69555,-2.472193 c -0.85645,-0.501257 -4.34395,-0.821406 -7.75,-0.711443 -6.75485,0.218078 -8.26437,-0.837112 -2.69282,-1.882342 3.79769,-0.712451 9.34367,-0.0048 13.84236,1.766176 1.67876,0.66088 3.11158,0.745679 3.5,0.207141 0.3617,-0.501498 3.35764,-0.942498 6.65764,-0.98 3.3,-0.0375 7.4625,-0.380412 9.25,-0.762024 1.7875,-0.381612 3.25,-0.309557 3.25,0.160121 0,0.844768 -16.26861,3.202873 -21.69158,3.144155 -1.54463,-0.01672 -3.50915,-0.440528 -4.3656,-0.941784 z M 130,66 c 0,-0.55 0.51974,-1 1.15499,-1 0.65499,0 0.37144,-0.86581 -0.65499,-2 -1.77364,-1.959847 -1.74663,-2 1.34501,-2 3.07683,0 4.16239,1.25936 2.15499,2.5 -1.61029,0.995215 -1.14772,2.770662 0.55194,2.118443 0.88992,-0.341496 1.29132,-0.173849 0.94098,0.393011 C 134.69333,67.305219 130,67.295432 130,66 z m 12.85429,-2.139723 C 143.99183,60.779211 147,60.101781 147,62.926676 147,64.067004 146.5868,65 146.08179,65 c -0.50502,0 -1.63388,0.274625 -2.50857,0.610277 -1.30802,0.501932 -1.43565,0.191245 -0.71893,-1.75 z M 136,62.5 c 0,-0.825 0.43588,-1.5 0.96862,-1.5 0.53273,0 0.70959,0.675 0.39301,1.5 -0.31659,0.825 -0.75246,1.5 -0.96862,1.5 C 136.17686,64 136,63.325 136,62.5 z m 16.33333,0 c 0,-0.855556 0.40875,-1.419306 0.90834,-1.252778 C 153.74125,61.41375 154.15,61.9775 154.15,62.5 c 0,0.5225 -0.40875,1.08625 -0.90833,1.252778 -0.49959,0.166528 -0.90834,-0.397222 -0.90834,-1.252778 z"
       id="path2826" />
    <path
       style="fill:#968e8f"
       d="m 134.1415,192.75 c -0.12507,-5.96632 -0.36685,-6.75 -2.08248,-6.75 -1.06754,0 -2.22364,-0.45734 -2.5691,-1.01631 -0.34546,-0.55897 -0.95193,-0.81619 -1.3477,-0.57158 -0.39578,0.2446 -3.43664,0.6834 -6.75748,0.97512 -3.32084,0.29172 -7.24093,0.98779 -8.71131,1.54683 -1.99459,0.75835 -2.68115,0.70532 -2.70384,-0.20881 -0.0167,-0.67389 -0.48908,-0.43775 -1.04969,0.52475 -0.5606,0.9625 -1.69848,1.75 -2.52861,1.75 -0.91406,0 -1.2333,0.49299 -0.80944,1.25 0.38494,0.6875 -0.13172,0.46571 -1.14813,-0.49286 -1.13256,-1.06812 -1.47745,-2.06545 -0.89086,-2.57612 1.93035,-1.68051 9.20233,-3.10708 18.92629,-3.71284 5.48303,-0.34156 10.32053,-0.83819 10.75,-1.10362 0.42947,-0.26543 0.78085,-1.77674 0.78085,-3.35848 0,-1.58173 0.42102,-3.98326 0.93561,-5.33671 0.81589,-2.14596 0.62842,-2.51956 -1.46512,-2.91976 -1.32039,-0.25241 -2.60589,0.0382 -2.85666,0.64573 -0.29327,0.71056 -0.4841,0.65871 -0.53488,-0.14534 -0.0434,-0.6875 -0.71645,-1.25 -1.49562,-1.25 -0.77916,0 -1.62291,0.5625 -1.875,1.25 -0.35109,0.95753 -0.75006,0.97582 -1.70519,0.0781 -0.68577,-0.64452 -1.86702,-0.93387 -2.625,-0.64301 -0.75797,0.29087 -1.37814,0.058 -1.37814,-0.51759 0,-0.57554 3.14433,-1.35627 6.98739,-1.73496 7.1773,-0.70723 8.71533,-0.54074 8.23783,0.89175 -0.15112,0.45338 0.16672,0.55147 0.70633,0.21797 0.53961,-0.33349 0.72542,-1.27264 0.41292,-2.087 -0.34742,-0.90537 0.93229,-2.91173 3.29368,-5.1639 2.12402,-2.02578 2.96185,-3.05428 1.86185,-2.28555 -1.69406,1.18389 -1.81034,1.18482 -0.76012,0.006 2.11555,-2.37451 3.85453,-1.98127 3.78851,0.85671 -0.0432,1.85604 -0.56886,2.591 -1.78404,2.4943 -0.94756,-0.0754 -1.49533,0.23101 -1.21728,0.68091 0.27806,0.44989 0.0409,1.10518 -0.52707,1.45619 -0.56794,0.35101 -0.81584,0.98895 -0.55089,1.41765 0.26495,0.42871 -0.40271,1.7288 -1.48369,2.88909 -1.08098,1.1603 -1.96542,2.71345 -1.96542,3.45145 0,0.73799 -0.42513,1.76931 -0.94474,2.29181 -0.51961,0.5225 -1.35594,6.125 -1.8585,12.45 -0.76467,9.62374 -0.93684,10.39872 -1.05526,4.75 z m -30.19621,-16 c -0.10741,-0.4125 -0.25843,-1.0875 -0.3356,-1.5 -0.0772,-0.4125 -0.49748,-1.3125 -0.93402,-2 -0.51107,-0.80488 -0.23854,-1.25 0.76531,-1.25 0.85746,0 1.55902,-0.45 1.55902,-1 0,-0.56868 2.69573,-0.96489 6.25,-0.9186 l 6.25,0.0814 -5.91983,1.72735 c -3.88102,1.13244 -6.18153,2.39591 -6.67971,3.66859 -0.41794,1.0677 -0.84777,1.60376 -0.95517,1.19126 z M 100.75,170.33772 c 0.6875,-0.27741 1.8125,-0.27741 2.5,0 0.6875,0.27741 0.125,0.50439 -1.25,0.50439 -1.375,0 -1.9375,-0.22698 -1.25,-0.50439 z M 118,170 c 0,-0.55 0.47656,-1 1.05902,-1 0.58246,0 0.7809,0.45 0.44098,1 -0.33992,0.55 -0.81648,1 -1.05902,1 C 118.19844,171 118,170.55 118,170 z m -14.85064,-7.67432 c 0.1654,-1.00412 -0.059,-2.39933 -0.49865,-3.10046 -0.43965,-0.70112 -0.42842,-1.21033 0.025,-1.13158 0.45338,0.0788 1.49933,0.0583 2.32433,-0.0455 1.07047,-0.13467 0.92729,-0.4341 -0.5,-1.04565 -1.53717,-0.65864 -1.07435,-0.84135 2,-0.78955 2.2,0.0371 8.275,-0.52906 13.5,-1.25807 5.225,-0.729 12.04587,-1.3524 15.15749,-1.38533 3.11163,-0.0329 5.44757,-0.39955 5.19099,-0.81471 C 140.0919,152.33967 140.35852,152 140.94098,152 141.52344,152 142,151.37314 142,150.60699 142,148.92772 144.1531,148 148.0504,148 c 2.15523,0 2.74096,0.38014 2.31123,1.5 -0.32889,0.85707 0.006,1.55642 0.78138,1.63164 0.74635,0.0724 -0.21801,0.43632 -2.14301,0.80871 -2.53352,0.4901 -3.84517,0.2629 -4.75,-0.82277 -0.6875,-0.82491 -1.25,-1.00064 -1.25,-0.3905 0,0.61014 -0.26628,1.80326 -0.59173,2.65138 -0.43551,1.13492 -0.0604,1.43971 1.42089,1.15444 1.10694,-0.21318 2.22209,0.15828 2.47812,0.82547 0.25602,0.66718 -0.27088,1.25511 -1.17089,1.3065 -0.90002,0.0514 -3.32389,0.35222 -5.38639,0.66852 -2.0625,0.3163 -3.75,0.24498 -3.75,-0.15847 0,-0.95735 -18.1246,-0.7431 -24.25,0.28665 -2.6125,0.4392 -4.75,1.19001 -4.75,1.66848 0,0.47847 -0.93406,1.80401 -2.07568,2.94563 -1.88232,1.88232 -2.04767,1.90561 -1.77496,0.25 z m -5.676352,-5.36935 C 97.147935,156.43035 97.808524,156 98.940983,156 c 2.414567,0 2.658157,0.55611 0.591042,1.34934 -0.807386,0.30982 -1.733944,0.13297 -2.059017,-0.39301 z m 3.870502,-10.46536 c -0.63608,-1.37138 -0.77967,-2.26053 -0.3191,-1.97589 0.46057,0.28465 1.12005,0.0602 1.46551,-0.49877 0.34546,-0.55897 1.83906,-1.0232 3.3191,-1.03162 2.10476,-0.012 2.36421,-0.22649 1.19098,-0.98469 -1.04573,-0.6758 0.46852,-0.93888 5,-0.86869 3.575,0.0554 5.6,0.29984 4.5,0.54324 -1.1,0.2434 -2.675,0.7007 -3.5,1.01623 -0.825,0.31552 -2.61854,0.71978 -3.98563,0.89835 -1.3671,0.17857 -2.6421,0.79407 -2.83334,1.36777 C 105.9898,145.53061 105.19583,146 104.41667,146 103.6375,146 103,146.47656 103,147.05902 c 0,0.58246 0.51953,0.73793 1.15451,0.34549 0.7153,-0.44208 0.88306,-0.27432 0.44098,0.44098 -1.08676,1.75841 -1.98089,1.38599 -3.25198,-1.35452 z m 30.24443,-3.80301 c -1.02213,-0.7474 -2.88247,-1.16315 -4.13409,-0.92389 -1.25162,0.23926 -3.10326,-0.0461 -4.11476,-0.63411 -1.99747,-1.16122 -2.33567,-1.07535 6.20072,-1.57441 1.6719,-0.0977 3.65393,-0.55725 4.40451,-1.02114 0.83837,-0.51814 1.12923,-0.46244 0.75418,0.14441 -0.33579,0.54332 0.0249,0.98785 0.8015,0.98785 0.77661,0 1.18026,-0.375 0.89699,-0.83334 -0.28326,-0.45833 0.97403,-0.78847 2.79399,-0.73365 3.01295,0.0908 3.08624,0.16169 0.8191,0.79271 -3.068,0.85392 -1.49822,1.97891 2.17944,1.5619 1.47924,-0.16772 3.22141,0.33593 3.8715,1.11923 0.96827,1.1667 0.75322,1.40568 -1.18953,1.32182 -1.30432,-0.0563 -4.40856,0.17976 -6.89831,0.52458 -3.10016,0.42936 -5.11252,0.19868 -6.38524,-0.73196 z m 11.80605,-6.16666 c 0.31589,-2.1523 1.10914,-2.67417 4.82613,-3.17508 2.82507,-0.38071 3.35131,-0.14083 3.35131,1.52766 0,1.0886 -0.35357,1.76076 -0.78572,1.49368 -0.43214,-0.26707 -0.78661,-0.12154 -0.78771,0.32342 -10e-4,0.44496 -1.53578,0.91808 -3.4104,1.05137 -2.51218,0.17863 -3.35191,-0.14243 -3.19361,-1.22105 z m -41.31922,-3.9312 c -0.92619,-1.116 -0.72162,-1.72405 0.98135,-2.91685 l 2.15146,-1.50695 -2.35379,-0.40247 c -1.29458,-0.22136 1.02121,-0.41831 5.14621,-0.43765 6.45317,-0.0303 6.96285,0.0848 3.65161,0.82414 -4.07422,0.90974 -9.01585,4.1521 -7.95103,5.21693 0.34801,0.34801 0.38785,0.63275 0.0885,0.63275 -0.29932,0 -1.07077,-0.63446 -1.71434,-1.4099 z M 133,128.20529 c -1.925,-0.19134 -3.86871,-0.70701 -4.31935,-1.14593 -0.45064,-0.43893 -2.92564,-0.64678 -5.5,-0.46188 -3.73813,0.26847 -3.27109,0.0532 2.31935,-1.0692 7.91712,-1.5895 16.33547,-1.94636 13,-0.55108 -1.47895,0.61867 -0.90425,0.80599 2.20593,0.71898 4.46464,-0.12489 5.895,0.52249 4.8588,2.19908 -0.42119,0.68151 -1.48883,0.7039 -3.16561,0.0664 -1.39154,-0.52907 -3.28811,-0.61241 -4.21459,-0.1852 -0.92649,0.4272 -3.25953,0.62018 -5.18453,0.42884 z m 13.71051,-1.20429 c -0.28751,-1.09946 -0.115,-2.25101 0.38337,-2.55902 0.49837,-0.30801 0.90612,0.59154 0.90612,1.999 0,3.06405 -0.56994,3.31157 -1.28949,0.56002 z m -1.84736,-4.89526 c 1.08719,-0.6888 1.10196,-0.9507 0.073,-1.29371 -2.4162,-0.8054 0.16907,-2.81203 3.62292,-2.81203 3.59203,0 4.09335,1.21815 1.60023,3.88837 -1.15226,1.23411 -1.46642,1.23746 -2.23469,0.0238 -0.63133,-0.99734 -0.89843,-1.04498 -0.90925,-0.16218 -0.008,0.6875 -0.80281,1.24311 -1.76531,1.23469 -1.36954,-0.012 -1.45364,-0.20308 -0.38685,-0.87895 z m -44.24637,-4.662 c -0.999207,-2.6039 -0.724377,-3.4428 1.13322,-3.45905 1.49555,-0.0131 1.5319,-0.15626 0.25,-0.98469 -1.11112,-0.71806 -0.49606,-0.97334 2.37244,-0.98469 3.32958,-0.0132 3.69793,0.19497 2.62756,1.48469 -0.68469,0.825 -1.89135,1.5 -2.68146,1.5 -0.79012,0 -1.18997,0.39901 -0.88857,0.88669 0.30141,0.48768 -0.0695,1.39917 -0.8242,2.02553 -1.05652,0.87684 -1.5141,0.76906 -1.98899,-0.46848 z m 35.39853,-4.27973 c -0.0105,-0.91515 -1.19655,-1.26487 -3.76531,-1.11022 -5.31584,0.32003 -7.25,0.0752 -7.25,-0.91787 0,-0.82192 2.86703,-1.38376 13,-2.54756 3.56787,-0.40979 3.87858,-0.34162 1.5,0.32908 -2.98826,0.84262 -2.98485,0.84639 0.87244,0.96425 3.19503,0.0976 3.66966,0.36265 2.71324,1.51508 -0.64734,0.77999 -2.07132,1.15824 -3.22481,0.8566 -1.19384,-0.3122 -2.43796,0.0479 -2.94792,0.85323 -0.70833,1.11862 -0.88534,1.12994 -0.89764,0.0574 z m 8.65299,-1.74199 c 0.26714,-0.69616 -1.6e-4,-2.17359 -0.594,-3.28319 -0.72714,-1.35867 -0.74696,-2.2231 -0.0607,-2.64724 0.56046,-0.34638 0.76151,-1.04644 0.44678,-1.55568 -0.32089,-0.51921 1.23029,-0.85527 3.53151,-0.7651 3.54694,0.13899 4.06334,0.44359 3.80592,2.245 -0.1638,1.1463 -0.97282,2.14478 -1.79782,2.21884 -0.825,0.0741 -2.31406,0.18656 -3.30902,0.25 -1.01153,0.0645 -1.51799,0.58624 -1.14885,1.18352 0.3631,0.5875 1.28965,0.82662 2.05902,0.53139 0.7734,-0.29678 1.39885,0.0677 1.39885,0.81525 0,0.74362 -1.08392,1.55924 -2.4087,1.81249 -1.66086,0.31749 -2.25791,0.0675 -1.923,-0.80528 z m -45.209899,-9.48933 c -0.369491,-0.59785 0.374291,-1.35071 1.690979,-1.71162 2.25692,-0.618637 2.23103,-0.671032 -0.64938,-1.314381 -2.02206,-0.451633 -0.718141,-0.67526 4,-0.686013 5.73294,-0.01306 6.37531,0.131112 3.54886,0.796525 -1.89813,0.446862 -3.97274,1.525799 -4.61025,2.397639 -1.33991,1.83243 -3.03171,2.05255 -3.980209,0.51785 z M 137.57992,99.25 c -0.41437,-0.4125 -1.95187,-0.778111 -3.41666,-0.812469 -10.57726,-0.2481 -12.61413,-1.735009 -3.91326,-2.85666 2.8875,-0.372235 7.05,-0.933227 9.25,-1.246649 3.8186,-0.544016 3.9093,-0.495796 2,1.063298 -1.94816,1.590828 -1.93085,1.617525 0.66783,1.030033 2.05599,-0.464801 2.9241,-0.124302 3.78519,1.484661 C 146.86049,99.607841 146.78201,100 145.53518,100 144.69083,100 144,99.561138 144,99.024751 c 0,-0.633666 -0.89843,-0.633666 -2.5651,0 -3.07375,1.168639 -2.91653,1.159449 -3.85498,0.225249 z M 147,97 c 0,-0.55 0.92656,-1 2.05902,-1 1.13246,0 1.7809,0.45 1.44098,1 -0.33992,0.55 -1.26648,1 -2.05902,1 C 147.64844,98 147,97.55 147,97 z m -2.20449,-6.060053 c 0.31759,-2.163879 0.8738,-2.897085 1.89925,-2.503586 0.79757,0.306057 2.31753,0.09225 3.37768,-0.475131 C 151.67007,87.106204 152,87.263981 152,88.883029 152,92.684016 150.85972,94 147.5662,94 c -3.02279,0 -3.19233,-0.187245 -2.77069,-3.060053 z m -43.87223,-2.3475 c 1.18983,-1.433666 1.12342,-1.561314 -0.53184,-1.022252 -1.427281,0.464818 -1.277941,0.107793 0.60856,-1.454872 1.375,-1.138968 3.625,-2.074224 5,-2.078345 l 2.5,-0.0075 -2.5,1.264791 c -1.375,0.695635 -2.5,1.920338 -2.5,2.721563 0,0.801225 -0.88568,1.627337 -1.96817,1.835806 -1.719562,0.331158 -1.79643,0.172106 -0.60855,-1.259197 z M 97.5,85 C 97.160081,84.45 97.358524,84 97.940983,84 98.523442,84 99,84.45 99,85 99,85.55 98.801558,86 98.559017,86 98.316476,86 97.839919,85.55 97.5,85 z m 30.32791,-1.366652 -3.32791,-0.904601 2.67269,-0.757214 c 4.57127,-1.295111 15.60911,-2.102946 13.32731,-0.975395 -1.47944,0.731064 -0.27289,0.916488 4.6356,0.712402 5.52491,-0.229715 6.54035,-0.02764 6.06648,1.20722 -0.31301,0.815715 -0.72473,1.016285 -0.91492,0.445712 -0.2339,-0.701689 -1.87347,-0.64629 -5.06648,0.171191 -3.47046,0.888512 -4.91525,0.911808 -5.45537,0.08797 -0.54227,-0.827143 -0.73869,-0.826832 -0.75,0.0012 -0.018,1.320983 -6.3461,1.327506 -11.1874,0.01153 z M 112.8125,83.316886 c 0.72187,-0.288871 1.58437,-0.253344 1.91667,0.07895 0.33229,0.332292 -0.25834,0.568641 -1.3125,0.52522 -1.16495,-0.04798 -1.4019,-0.284941 -0.60417,-0.604167 z m 33.2484,-5.977071 c 0.56131,-1.476361 0.44186,-2.348745 -0.36099,-2.636272 -2.01314,-0.720983 -0.0384,-1.883902 3.47815,-2.048271 3.00351,-0.140388 3.31816,0.108333 3.28252,2.594728 -0.0217,1.5125 0.31582,2.75 0.75,2.75 0.43418,0 0.78799,0.3375 0.78623,0.75 -0.002,0.4125 -1.9768,0.76043 -4.38901,0.773177 -4.11298,0.02173 -4.33363,-0.114091 -3.5469,-2.183362 z M 99,73 C 98.145687,71.403701 98.23951,71 99.464816,71 100.33333,71 101,71.868517 101,73 c 0,1.1 -0.20917,2 -0.46482,2 C 100.27953,75 99.588702,74.1 99,73 z m 3,-2.138672 C 102,70.387598 103.125,70 104.5,70 c 1.375,0 2.5,0.17254 2.5,0.383423 0,0.210882 -1.125,0.59848 -2.5,0.861328 -1.375,0.262848 -2.5,0.09031 -2.5,-0.383423 z m 27.71741,-0.477249 c -0.33875,-0.338756 -2.10125,-0.931121 -3.91666,-1.316365 -2.88766,-0.612784 -2.30078,-0.852287 4.68937,-1.913718 5.40463,-0.820674 8.10118,-0.880096 8.33333,-0.183634 0.18877,0.566301 1.00727,1.029638 1.8189,1.029638 0.81163,0 1.24265,-0.377059 0.95783,-0.837909 -0.28482,-0.46085 1.01188,-0.359109 2.88156,0.226091 1.86967,0.5852 3.25927,1.204141 3.08799,1.375426 -0.17129,0.171284 -2.50705,0.549455 -5.19058,0.840381 -2.68353,0.290925 -5.46502,0.718888 -6.18109,0.951029 -0.71606,0.23214 -1.02701,-0.02277 -0.69098,-0.566472 C 135.8431,69.444846 135.41648,69 134.55902,69 133.70156,69 133,69.45 133,70 c 0,1.096694 -2.30077,1.365895 -3.28259,0.384079 z M 109.8125,69.316886 c 0.72187,-0.288871 1.58437,-0.253344 1.91667,0.07895 0.33229,0.332292 -0.25834,0.568641 -1.3125,0.52522 -1.16495,-0.04798 -1.4019,-0.284941 -0.60417,-0.604167 z m 39.95595,-1.485336 c 0.5811,-0.581102 1.64682,-0.859794 2.36826,-0.619313 0.74895,0.249648 0.29565,0.702941 -1.05655,1.05655 -1.66335,0.434974 -2.05378,0.304831 -1.31171,-0.437237 z M 145.75,65.283152 c 0.6875,-0.23639 1.25,-1.326695 1.25,-2.422899 0,-1.549175 0.56375,-1.922621 2.53109,-1.676675 1.3921,0.174032 2.4838,0.748852 2.426,1.277379 -0.0578,0.528526 0.71571,1.284397 1.71891,1.679714 1.3026,0.513298 0.82351,0.742753 -1.676,0.802698 -1.925,0.04617 -4.4,0.23821 -5.5,0.426762 -1.1,0.188552 -1.4375,0.149412 -0.75,-0.08698 z"
       id="path2824" />
    <path
       style="fill:#847b7b"
       d="m 101.72383,186.7227 c -0.36245,-0.94454 0.54283,-1.35879 3.13322,-1.43372 2.00362,-0.058 2.74295,0.12674 1.64295,0.41043 -1.1,0.28369 -2.50995,0.92887 -3.13322,1.43372 -0.72477,0.58708 -1.31693,0.43915 -1.64295,-0.41043 z M 102.2,173.8 c -1.70036,-1.70036 -1.49608,-2.48931 0.8,-3.08975 1.1,-0.28766 2,-0.11514 2,0.38337 0,0.49851 -0.7301,0.90638 -1.62244,0.90638 -1.3288,0 -1.39713,0.27149 -0.37756,1.5 1.48458,1.78881 0.90584,2.00584 -0.8,0.3 z m 41.22903,-14.89439 C 144.84307,156.92869 146,154.56619 146,153.65561 146,152.74502 146.42344,152 146.94098,152 c 2.31195,0 1.64742,1.94469 -2.07064,6.05954 -3.3139,3.66755 -3.56477,3.81482 -1.44131,0.84607 z m -42.25089,0.87253 C 100.00673,158.60673 100.72141,156 102.21398,156 c 0.55,0 0.71655,0.73865 0.37012,1.64144 -0.53057,1.38263 -0.38595,1.439 0.91717,0.3575 2.17393,-1.8042 2.53265,-0.84854 0.43206,1.15106 -1.18027,1.12353 -2.05938,1.32395 -2.75519,0.62814 z m 6.63436,-3.46125 c 0.72187,-0.28887 1.58437,-0.25335 1.91667,0.0789 0.33229,0.33229 -0.25834,0.56864 -1.3125,0.52522 -1.16495,-0.048 -1.4019,-0.28494 -0.60417,-0.60416 z m 34.47222,-2.67106 C 142.82958,152.01127 145,151.69487 145,153.25 c 0,0.77917 -0.6875,1.41667 -1.52778,1.41667 -0.84028,0 -1.37465,-0.45938 -1.1875,-1.02084 z M 99.213199,143.36514 c -1.468197,-1.1154 -0.926651,-1.28465 3.786801,-1.1835 3.025,0.0649 4.25487,0.30623 2.73305,0.53625 -1.52183,0.23002 -2.55412,0.7626 -2.29399,1.1835 0.78125,1.2641 -2.38493,0.86231 -4.225861,-0.53625 z m 46.372161,-2.22702 c -0.3522,-0.56988 -1.97214,-0.8676 -3.59987,-0.6616 -1.62772,0.20601 -3.18304,0.0129 -3.45626,-0.42923 -0.60359,-0.97662 5.29358,-2.27483 6.61728,-1.45674 0.51761,0.3199 1.56026,0.0678 2.317,-0.56027 1.07338,-0.89082 1.32537,-0.79759 1.14607,0.42404 -0.33502,2.28268 -2.2318,3.96596 -3.02422,2.6838 z M 99.666667,130.33333 C 98.20847,128.87514 99.155291,128 102.19113,128 c 3.02058,0 3.08739,0.0785 1.25,1.4682 -2.20312,1.66635 -2.82964,1.80995 -3.774463,0.86513 z m 40.698823,-5.91419 c 2.12603,-0.76693 4.23587,-1.16551 4.68854,-0.88575 0.45268,0.27977 1.28702,-0.28829 1.8541,-1.26236 0.56708,-0.97407 1.03043,-1.32103 1.02966,-0.77103 -0.003,2.48363 -2.66808,4.09783 -6.93779,4.20286 l -4.5,0.11069 3.86549,-1.39441 z M 148,125 c 0,-0.55 0.47656,-1 1.05902,-1 0.58246,0 0.7809,0.45 0.44098,1 -0.33992,0.55 -0.81648,1 -1.05902,1 C 148.19844,126 148,125.55 148,125 z M 99,113 c 0,-1.25292 1.06124,-1.25292 3,0 1.21296,0.78387 1.06944,0.9723 -0.75,0.98469 C 100.0125,113.99311 99,113.55 99,113 z m 41.5,-3.10204 c -2.90116,-0.44543 -3.31322,-0.68819 -1.5,-0.88368 1.375,-0.14824 3.4729,-0.37376 4.662,-0.50115 1.1891,-0.12739 2.8437,-0.49321 3.67689,-0.81293 1.84273,-0.70712 4.28917,1.7936 2.70967,2.76979 -0.57671,0.35642 -1.04856,0.22149 -1.04856,-0.29986 0,-0.96291 -3.08567,-1.08948 -4,-0.16407 -0.275,0.27833 -2.3,0.22969 -4.5,-0.1081 z m -40.833333,-8.56463 c -1.330916,-1.33091 -0.616949,-2.330767 1.583333,-2.217329 1.71224,0.08828 1.82881,0.225868 0.48776,0.575682 -0.96924,0.252825 -1.50518,0.875627 -1.19099,1.383997 0.66146,1.07026 0.0976,1.23533 -0.880103,0.25765 z m 41.845373,-5.96579 c 1.29509,-0.946995 3.44915,-1.283251 6.24853,-0.975418 2.5015,0.275076 4.03365,0.08394 3.69676,-0.46117 C 151.14088,93.418928 151.35852,93 151.94098,93 c 1.28605,0 1.40282,1.669486 0.17006,2.431374 -0.48893,0.302174 -3.51842,0.736598 -6.7322,0.965386 -5.28885,0.376513 -5.65572,0.278864 -3.8668,-1.02922 z M 99,85.535184 C 99,84.666667 99.868517,84 101,84 c 1.1,0 2,0.209167 2,0.464816 0,0.255649 -0.9,0.946482 -2,1.535184 -1.596299,0.854313 -2,0.76049 -2,-0.464816 z m 41.97649,-4.605516 c 1.36208,-0.568035 3.53728,-0.766552 4.83379,-0.441148 1.50215,0.377014 2.12411,0.214335 1.71449,-0.448438 C 147.14519,79.425913 147.90571,79 149.38197,79 c 2.73555,0 4.35053,1.526171 2.36229,2.232384 -0.68434,0.243075 -3.94426,0.506782 -7.24426,0.586015 -4.97791,0.119519 -5.57813,-0.03187 -3.52351,-0.888731 z M 99.5,71 C 97.591644,70.179951 97.603099,70.13735 99.75,70.070285 100.9875,70.031628 102,70.45 102,71 c 0,0.55 -0.1125,0.968372 -0.25,0.929715 C 101.6125,71.891058 100.6,71.472686 99.5,71 z M 139,66.962789 c 0,-0.461591 1.98219,-0.754551 4.40487,-0.651023 2.42268,0.103529 4.20654,-0.132417 3.96413,-0.524324 -0.24242,-0.391907 0.9245,-0.616907 2.59314,-0.5 4.00322,0.280471 3.87976,1.499509 -0.21214,2.094525 C 144.71153,68.114628 139,67.891916 139,66.962789 z"
       id="path2822" />
    <path
       style="fill:#7b7474"
       d="m 145.37003,138.29664 c 0.78678,-0.78678 5.59605,-1.05077 5.12035,-0.28107 -0.24965,0.40394 -1.60586,0.73443 -3.01381,0.73443 -1.40795,0 -2.35589,-0.20401 -2.10654,-0.45336 z m 0.17529,-14.22331 c -0.22382,-0.36215 0.91192,-0.75895 2.52387,-0.88178 1.61194,-0.12282 2.93081,-0.0436 2.93081,0.17599 0,0.72573 -5.03937,1.37778 -5.45468,0.70579 z M 150,108.60699 c 0,-0.21616 0.69837,-0.661 1.55194,-0.98855 0.88992,-0.34149 1.29132,-0.17385 0.94098,0.39301 C 151.90566,108.96166 150,109.4169 150,108.60699 z"
       id="path2820" />
  </g>
</svg>
